<?xml version="1.0" encoding="UTF-8"?>
<svg xmlns="http://www.w3.org/2000/svg" width="102" height="106" viewBox="0 0 102 106" fill="none">
    <path
        d="M98.5422 61.9696C99.8149 61.6053 101.805 61.744 101.981 60.3282C102.216 58.4654 100.23 58.8628 98.9867 58.6454C97.8838 58.4488 96.7872 58.2066 95.6906 57.9852C98.7833 51.3471 98.8357 50.8627 98.0935 50.7924C91.8031 50.1921 95.244 45.5122 94.464 42.6226C96.6299 42.2666 98.6575 41.6167 100.368 40.087C99.3662 38.9383 97.4561 40.087 96.8794 38.4311C95.8688 34.3742 90.8114 35.7921 89.027 32.7763C89.0421 32.4939 89.0337 32.2107 89.0018 31.9297C89.4946 31.4371 89.9873 30.9424 90.4801 30.4435L92.5601 30.0813C94.1473 29.5949 94.9609 27.9887 93.988 27.1566C91.9541 25.4138 89.5281 26.0534 87.4041 27.5561C82.4305 27.8562 81.3947 23.4619 79.017 20.68L80.751 18.2479C83.2902 17.3558 83.2902 14.4539 85.0809 12.9594C86.1293 13.4479 87.293 13.7874 87.878 12.4564C88.421 11.2145 87.6914 10.2934 86.4102 10.1465C84.1038 9.8836 82.6507 11.0179 81.9965 13.1809C78.281 17.5835 73.8484 14.6298 69.6758 14.3524C67.2708 14.3524 64.7274 14.8802 62.92 12.622C62.9508 11.7596 62.9815 10.8985 63.0123 10.0388C65.8136 7.26108 66.1574 4.10454 64.0376 0C63.1737 4.98837 60.0369 7.45151 55.7616 8.7224L47.3703 12.4275L45.588 11.3449C41.9354 10.637 41.2875 6.39795 38.1004 5.13533C37.0793 4.35913 35.8317 2.56042 34.8022 3.64503C33.1856 5.35474 35.6954 6.6484 36.249 8.19873C36.1882 10.252 37.8237 11.3242 38.9328 12.7007L36.7061 15.0934C34.6575 15.5799 32.7536 15.1266 30.9252 14.2303L30.6107 14.0544C30.2102 12.4585 30.1914 10.7012 28.6146 9.62072C28.4196 7.06237 27.5662 4.84555 25.0794 3.67401C24.6852 3.48979 23.6117 3.83753 23.4481 4.19768C22.1586 7.11205 25.4191 8.32913 26.0481 10.5646C26.1488 10.9102 26.6772 11.14 27.0085 11.4256L26.111 14.3566C24.8677 15.9131 22.6618 16.9563 23.2993 19.5147C22.7625 20.8394 21.5191 20.7773 20.3973 20.9636C20.0532 20.7112 19.6472 20.554 19.221 20.5082C18.3823 18.0244 16.5162 15.4495 14.1657 17.1819C12.115 18.6971 13.4863 21.5079 16.0297 22.843C16.5036 23.4433 16.9838 24.0435 17.466 24.6459C17.4912 25.1716 17.5142 25.6911 17.5394 26.2169L14.9834 28.7173C14.0252 28.591 13.0691 28.4668 12.1129 28.3364C10.3223 27.3305 8.03052 26.2355 7.01987 28.6407C6.10567 30.8161 8.38068 31.435 10.2363 31.7082C10.5033 32.6742 10.7717 33.6367 11.0415 34.5957C9.55278 36.7152 8.06197 38.8334 6.56906 40.9502C5.04051 41.803 1.84082 39.8014 1.92679 42.7406C1.97292 44.4689 4.87486 43.7362 6.52503 44.0053L7.93407 46.4705L3.90615 50.3308C2.54325 50.2977 0.890984 50.1756 0.228401 51.4278C-0.54531 52.8954 0.798726 54.0959 1.9897 54.5326C6.09309 56.0064 4.72809 57.9996 2.7676 60.1709C-0.335632 65.091 7.55455 64.6004 6.89406 68.3138C6.35309 70.7976 0.914048 71.1371 3.83906 75.1443C5.90648 77.1293 8.31778 75.9391 10.6075 75.8563C11.4462 77.1335 13.2976 78.7749 12.9768 79.6297C10.8213 85.4398 15.1218 86.7438 18.8478 88.5467C18.9967 90.0266 19.3007 91.3741 21.278 91.2499C22.9428 92.5622 19.3909 97.6023 23.6872 97.0455C24.0751 97.1118 24.5846 97.0145 25.2577 96.6895C28.4783 94.8867 31.462 93.7027 31.4788 99.2955C31.4788 102.839 33.6867 102.698 35.9743 101.746C37.7314 101.018 38.8804 98.8629 41.2666 99.6184C43.2711 100.902 46.1122 100.328 47.7267 102.471C51.48 105.294 55.2752 108.97 58.5839 101.997C59.8419 100.939 61.1797 99.9433 61.3936 98.1384L65.4508 99.4693C71.1499 106 69.4347 95.8885 72.4666 96.4267L75.1673 96.6212C76.3625 98.4593 77.5702 101.252 80.1639 99.3493C81.747 98.1902 81.8665 95.6235 78.6228 95.1951C78.0944 93.3633 80.5875 93.0217 80.5267 91.4217C82.0909 88.1782 86.5465 88.8178 88.2848 85.8L88.3141 85.8124C90.2285 86.9487 92.2267 87.7187 94.5206 87.2509C96.4223 85.4315 97.0598 83.1299 97.1332 80.6129C99.989 77.0941 96.9696 76.912 94.6443 76.3386C93.8999 74.3516 94.9169 72.6253 95.4599 70.8266C95.6172 70.4478 95.7577 70.0628 95.8793 69.6716C98.0495 69.595 100.654 70.6196 101.945 67.4775C99.8485 66.2832 97.8628 66.7138 95.917 66.7614C94.9546 64.174 96.5943 62.9901 98.5422 61.9696Z"
        fill="#06D889" />
    <g clip-path="url(#clip0_744_23)">
        <path
            d="M49.4532 39.5875C46.8375 39.9906 44.8782 42.0438 44.5782 44.6875C44.475 45.5594 44.7469 45.9906 45.4032 46C45.9282 46 46.1813 45.7 46.2657 45.0063C46.3875 43.9094 46.7438 43.1406 47.4563 42.4281C48.9844 40.9 51.4313 40.9094 52.9688 42.4375C55.275 44.7531 53.9063 48.6813 50.6438 49.1031C50.2969 49.1406 46.9125 49.1781 43.1157 49.1875H36.2157L36.0282 49.3938C35.5782 49.9 35.7375 50.6031 36.3469 50.7813C36.6 50.8563 38.7563 50.875 43.9688 50.8563C50.6719 50.8281 51.2719 50.8094 51.75 50.65C53.6907 50.0125 55.0969 48.5875 55.65 46.7031C55.875 45.9438 55.875 44.4625 55.65 43.7031C55.0875 41.8094 53.6157 40.3188 51.75 39.775C51.225 39.6156 49.9407 39.5125 49.4532 39.5875Z"
            fill="#1A1A24" />
        <path
            d="M65.5594 40.4687C65.2876 40.525 64.7626 40.6656 64.3969 40.7969C61.6219 41.7625 59.6719 44.0219 59.1001 46.9187C58.8188 48.3531 58.9782 49.0937 59.5876 49.2156C60.2157 49.3281 60.6563 48.8875 60.6563 48.1375C60.6563 47.5187 60.8907 46.5719 61.2094 45.8687C61.8563 44.4437 62.8501 43.4125 64.2657 42.7094C67.6313 41.0406 71.7282 42.7656 73.0032 46.3937C73.3313 47.3219 73.4063 48.7656 73.1719 49.7969C72.7126 51.8875 71.0719 53.6781 68.9063 54.4562L68.2969 54.6719L51.0657 54.7187L33.8251 54.7656L33.6001 55.0281C33.3001 55.3844 33.3001 55.8719 33.6094 56.1719L33.8344 56.4062H50.9063C69.4688 56.4062 68.5594 56.4344 69.9376 55.8906C71.9532 55.1031 73.6969 53.3594 74.4844 51.3437C75.0001 50.0406 75.1501 48.1 74.8594 46.7031C74.2501 43.825 72.0563 41.4812 69.1688 40.6469C68.3907 40.4219 66.3844 40.3281 65.5594 40.4687Z"
            fill="#1A1A24" />
        <path
            d="M27.2438 49.3844C26.8969 49.6562 26.8969 50.275 27.2438 50.6031L27.4875 50.8281H29.8313H32.175L32.4 50.5656C32.7 50.2094 32.7 49.7219 32.3907 49.4219L32.1657 49.1875H29.8313C27.6094 49.1875 27.4782 49.1969 27.2438 49.3844Z"
            fill="#1A1A24" />
        <path
            d="M27.2062 59.8094C26.9062 60.1282 26.9249 60.7094 27.2437 61.0094C27.4874 61.2344 27.4874 61.2344 29.9812 61.2626C32.8687 61.3001 33.1312 61.2626 33.3374 60.7469C33.4499 60.4938 33.4593 60.3532 33.3843 60.1376C33.1968 59.6032 33.1968 59.6032 30.1781 59.5938H27.4031L27.2062 59.8094Z"
            fill="#1A1A24" />
        <path
            d="M36.797 59.8377C36.5439 60.1096 36.497 60.5127 36.6658 60.8314C36.9189 61.3002 36.3002 61.2814 52.6127 61.2814C69.6002 61.2814 68.372 61.2346 69.8439 61.9564C70.9408 62.5002 72.0658 63.6158 72.6283 64.7221C73.6033 66.6439 73.5377 69.0158 72.4502 70.8158C70.7439 73.6471 67.172 74.7252 64.2658 73.2908C62.8502 72.5877 61.8564 71.5564 61.2095 70.1314C60.8908 69.4283 60.6564 68.4814 60.6564 67.8627C60.6564 67.1127 60.2158 66.6721 59.5877 66.7846C58.9783 66.9064 58.8189 67.6471 59.1002 69.0814C59.7658 72.4564 62.3908 75.0158 65.7377 75.5408C66.6752 75.6908 68.3158 75.597 69.1689 75.3533C72.047 74.5283 74.2502 72.1846 74.8595 69.2971C75.0377 68.4439 75.0377 66.8033 74.8595 65.9314C74.3252 63.3439 72.4127 61.0752 69.9377 60.1096C68.5689 59.5752 69.3283 59.5939 52.5002 59.5939H37.022L36.797 59.8377Z"
            fill="#1A1A24" />
        <path
            d="M33.0375 65.2563C32.8312 65.3501 32.7 65.4907 32.6344 65.7157C32.5125 66.072 32.5687 66.297 32.8406 66.597L33.0281 66.8126H41.5687C46.2656 66.8126 50.3719 66.8595 50.7 66.9063C53.925 67.3657 55.2469 71.2751 52.9687 73.5626C51.4312 75.0907 48.9844 75.1001 47.4562 73.572C46.7437 72.8595 46.3875 72.0907 46.2656 70.9938C46.1812 70.3001 45.9281 70.0001 45.4031 70.0001C44.7469 70.0095 44.475 70.4407 44.5781 71.3126C44.85 73.6938 46.4156 75.5595 48.7031 76.2438C49.4625 76.4688 50.9437 76.4688 51.7031 76.2438C53.625 75.672 55.0875 74.2095 55.65 72.297C55.875 71.5376 55.875 70.0563 55.65 69.297C55.0969 67.4126 53.6906 65.9876 51.75 65.3501C51.2719 65.1907 50.6625 65.172 42.2812 65.1532C34.8094 65.1345 33.2812 65.1532 33.0375 65.2563Z"
            fill="#1A1A24" />
    </g>
    <defs>
        <clipPath id="clip0_744_23">
            <rect width="48" height="48" fill="white" transform="translate(27 34)" />
        </clipPath>
    </defs>
</svg>