<?xml version="1.0" encoding="UTF-8"?>
<svg xmlns="http://www.w3.org/2000/svg" width="102" height="106" viewBox="0 0 102 106" fill="none">
    <path
        d="M98.5422 61.9696C99.8149 61.6053 101.805 61.744 101.981 60.3282C102.216 58.4654 100.23 58.8628 98.9867 58.6454C97.8838 58.4488 96.7872 58.2066 95.6906 57.9852C98.7833 51.3471 98.8357 50.8627 98.0935 50.7924C91.8031 50.1921 95.244 45.5122 94.464 42.6226C96.6299 42.2666 98.6575 41.6167 100.368 40.087C99.3662 38.9383 97.4561 40.087 96.8794 38.4311C95.8688 34.3742 90.8114 35.7921 89.027 32.7763C89.0421 32.4939 89.0337 32.2107 89.0018 31.9297C89.4946 31.4371 89.9873 30.9424 90.4801 30.4435L92.5601 30.0813C94.1473 29.5949 94.9609 27.9887 93.988 27.1566C91.9541 25.4138 89.5281 26.0534 87.4041 27.5561C82.4305 27.8562 81.3947 23.4619 79.017 20.68L80.751 18.2479C83.2902 17.3558 83.2902 14.4539 85.0809 12.9594C86.1293 13.4479 87.293 13.7874 87.878 12.4564C88.421 11.2145 87.6914 10.2934 86.4102 10.1465C84.1038 9.8836 82.6507 11.0179 81.9965 13.1809C78.281 17.5835 73.8484 14.6298 69.6758 14.3524C67.2708 14.3524 64.7274 14.8802 62.92 12.622C62.9508 11.7596 62.9815 10.8985 63.0123 10.0388C65.8136 7.26108 66.1574 4.10454 64.0376 0C63.1737 4.98837 60.0369 7.45151 55.7616 8.7224L47.3703 12.4275L45.588 11.3449C41.9354 10.637 41.2875 6.39795 38.1004 5.13533C37.0793 4.35913 35.8317 2.56042 34.8022 3.64503C33.1856 5.35474 35.6954 6.6484 36.249 8.19873C36.1882 10.252 37.8237 11.3242 38.9328 12.7007L36.7061 15.0934C34.6575 15.5799 32.7536 15.1266 30.9252 14.2303L30.6107 14.0544C30.2102 12.4585 30.1914 10.7012 28.6146 9.62072C28.4196 7.06237 27.5662 4.84555 25.0794 3.67401C24.6852 3.48979 23.6117 3.83753 23.4481 4.19768C22.1586 7.11205 25.4191 8.32913 26.0481 10.5646C26.1488 10.9102 26.6772 11.14 27.0085 11.4256L26.111 14.3566C24.8677 15.9131 22.6618 16.9563 23.2993 19.5147C22.7625 20.8394 21.5191 20.7773 20.3973 20.9636C20.0532 20.7112 19.6472 20.554 19.221 20.5082C18.3823 18.0244 16.5162 15.4495 14.1657 17.1819C12.115 18.6971 13.4863 21.5079 16.0297 22.843C16.5036 23.4433 16.9838 24.0435 17.466 24.6459C17.4912 25.1716 17.5142 25.6911 17.5394 26.2169L14.9834 28.7173C14.0252 28.591 13.0691 28.4668 12.1129 28.3364C10.3223 27.3305 8.03052 26.2355 7.01987 28.6407C6.10567 30.8161 8.38068 31.435 10.2363 31.7082C10.5033 32.6742 10.7717 33.6367 11.0415 34.5957C9.55278 36.7152 8.06197 38.8334 6.56906 40.9502C5.04051 41.803 1.84082 39.8014 1.92679 42.7406C1.97292 44.4689 4.87486 43.7362 6.52503 44.0053L7.93407 46.4705L3.90615 50.3308C2.54325 50.2977 0.890984 50.1756 0.228401 51.4278C-0.54531 52.8954 0.798726 54.0959 1.9897 54.5326C6.09309 56.0064 4.72809 57.9996 2.7676 60.1709C-0.335632 65.091 7.55455 64.6004 6.89406 68.3138C6.35309 70.7976 0.914048 71.1371 3.83906 75.1443C5.90648 77.1293 8.31778 75.9391 10.6075 75.8563C11.4462 77.1335 13.2976 78.7749 12.9768 79.6297C10.8213 85.4398 15.1218 86.7438 18.8478 88.5467C18.9967 90.0266 19.3007 91.3741 21.278 91.2499C22.9428 92.5622 19.3909 97.6023 23.6872 97.0455C24.0751 97.1118 24.5846 97.0145 25.2577 96.6895C28.4783 94.8867 31.462 93.7027 31.4788 99.2955C31.4788 102.839 33.6867 102.698 35.9743 101.746C37.7314 101.018 38.8804 98.8629 41.2666 99.6184C43.2711 100.902 46.1122 100.328 47.7267 102.471C51.48 105.294 55.2752 108.97 58.5839 101.997C59.8419 100.939 61.1797 99.9433 61.3936 98.1384L65.4508 99.4693C71.1499 106 69.4347 95.8885 72.4666 96.4267L75.1673 96.6212C76.3625 98.4593 77.5702 101.252 80.1639 99.3493C81.747 98.1902 81.8665 95.6235 78.6228 95.1951C78.0944 93.3633 80.5875 93.0217 80.5267 91.4217C82.0909 88.1782 86.5465 88.8178 88.2848 85.8L88.3141 85.8124C90.2285 86.9487 92.2267 87.7187 94.5206 87.2509C96.4223 85.4315 97.0598 83.1299 97.1332 80.6129C99.989 77.0941 96.9696 76.912 94.6443 76.3386C93.8999 74.3516 94.9169 72.6253 95.4599 70.8266C95.6172 70.4478 95.7577 70.0628 95.8793 69.6716C98.0495 69.595 100.654 70.6196 101.945 67.4775C99.8485 66.2832 97.8628 66.7138 95.917 66.7614C94.9546 64.174 96.5943 62.9901 98.5422 61.9696Z"
        fill="#06D889" />
    <path fill-rule="evenodd" clip-rule="evenodd"
        d="M36.0288 42.2364C37.4765 42.2364 38.6661 41.0545 38.6661 39.5765C38.6661 38.0986 37.4765 36.9167 36.0288 36.9167C34.5812 36.9167 33.3915 38.0986 33.3915 39.5765C33.3915 41.0545 34.5812 42.2364 36.0288 42.2364ZM36.0288 44.1531C38.5439 44.1531 40.5828 42.1041 40.5828 39.5765C40.5828 37.049 38.5439 35 36.0288 35C33.5137 35 31.4749 37.049 31.4749 39.5765C31.4749 42.1041 33.5137 44.1531 36.0288 44.1531Z"
        fill="#1A1A24" />
    <path fill-rule="evenodd" clip-rule="evenodd"
        d="M67.2058 79.0834C69.7498 79.0834 71.8282 77.0083 71.8282 74.4286C71.8282 71.8489 69.7498 69.7738 67.2058 69.7738C64.6618 69.7738 62.5834 71.8489 62.5834 74.4286C62.5834 77.0083 64.6618 79.0834 67.2058 79.0834ZM67.2058 81C70.8172 81 73.7448 78.0579 73.7448 74.4286C73.7448 70.7993 70.8172 67.8572 67.2058 67.8572C63.5944 67.8572 60.6667 70.7993 60.6667 74.4286C60.6667 78.0579 63.5944 81 67.2058 81Z"
        fill="#1A1A24" />
    <path fill-rule="evenodd" clip-rule="evenodd"
        d="M55.4124 65.2165C62.0014 65.2165 67.367 59.8448 67.367 53.1885C67.367 46.5321 62.0014 41.1604 55.4124 41.1604C48.8234 41.1604 43.4578 46.5321 43.4578 53.1885C43.4578 59.8448 48.8234 65.2165 55.4124 65.2165ZM55.4124 68.0915C63.6026 68.0915 70.242 61.4192 70.242 53.1885C70.242 44.9577 63.6026 38.2854 55.4124 38.2854C47.2222 38.2854 40.5828 44.9577 40.5828 53.1885C40.5828 61.4192 47.2222 68.0915 55.4124 68.0915Z"
        fill="#1A1A24" />
    <path fill-rule="evenodd" clip-rule="evenodd"
        d="M38.0543 57.5016C38.3279 58.2469 37.9456 59.0728 37.2003 59.3464C35.9763 59.7958 34.8811 60.5445 34.0143 61.5267C33.1473 62.5089 32.5361 63.6936 32.2368 64.9746C31.9376 66.2555 31.96 67.5914 32.3021 68.8613C32.6442 70.1313 33.2949 71.2944 34.1942 72.2464C35.0934 73.1984 36.2129 73.9095 37.4511 74.317C38.6894 74.7244 40.0085 74.8159 41.2903 74.5835C42.572 74.3511 43.7774 73.8017 44.7975 72.9837C45.8177 72.1655 46.6208 71.1041 47.1331 69.8941C47.4427 69.163 48.2863 68.8213 49.0173 69.1309C49.7484 69.4404 50.0901 70.284 49.7806 71.0151C49.083 72.6626 47.9887 74.1098 46.5961 75.2265C45.2036 76.3433 43.5565 77.0944 41.8033 77.4124C40.05 77.7303 38.2456 77.6051 36.5525 77.0479C34.8593 76.4907 33.3307 75.5191 32.1041 74.2206C30.8776 72.9221 29.9916 71.3374 29.5261 69.6092C29.0605 67.881 29.03 66.0635 29.4372 64.3205C29.8444 62.5775 30.6766 60.9636 31.8588 59.6242C33.041 58.2848 34.5361 57.2619 36.2095 56.6475C36.9548 56.3739 37.7808 56.7563 38.0543 57.5016Z"
        fill="#1A1A24" />
    <path fill-rule="evenodd" clip-rule="evenodd"
        d="M37.1878 64.5021C37.8775 64.8952 38.118 65.773 37.7249 66.4628C37.5673 66.7393 37.4951 67.0488 37.5116 67.3567C37.5281 67.6647 37.6332 67.9671 37.8215 68.2287C38.0102 68.4909 38.2765 68.7032 38.5953 68.8333C38.9145 68.9636 39.268 69.0038 39.6129 68.9468C40.3962 68.8175 41.1361 69.3476 41.2655 70.1309C41.3948 70.9141 40.8647 71.654 40.0815 71.7834C39.2133 71.9268 38.3214 71.8268 37.5087 71.4951C36.6959 71.1633 35.9955 70.6132 35.4881 69.9082C34.9806 69.2032 34.6869 68.3721 34.6407 67.5106C34.5945 66.6491 34.7978 65.7924 35.2271 65.0392C35.6202 64.3494 36.498 64.109 37.1878 64.5021Z"
        fill="#1A1A24" />
    <path fill-rule="evenodd" clip-rule="evenodd"
        d="M51.4307 46.8821C51.181 46.8024 50.9152 46.7756 50.6521 46.8045C50.3891 46.8333 50.1382 46.9168 49.9162 47.0465C49.6945 47.1761 49.5082 47.348 49.3671 47.5473C49.2261 47.7464 49.1326 47.9691 49.0897 48.2C49.0468 48.4307 49.0547 48.6676 49.1132 48.8958C49.1717 49.1241 49.2804 49.3415 49.4356 49.5324C49.5908 49.7235 49.7895 49.884 50.0208 49.9996C50.2523 50.1154 50.5091 50.1826 50.7738 50.1944C51.5669 50.2298 52.1811 50.9015 52.1457 51.6946C52.1102 52.4878 51.4385 53.102 50.6454 53.0665C49.9798 53.0368 49.3283 52.8678 48.7348 52.571C48.1413 52.2742 47.6195 51.8564 47.2045 51.3456C46.7894 50.8349 46.4906 50.243 46.3283 49.6098C46.1659 48.9766 46.1437 48.3167 46.2632 47.6744C46.3826 47.0321 46.6409 46.4222 47.0208 45.8858C47.4006 45.3494 47.8932 44.8988 48.4655 44.5643C49.0378 44.2299 49.6764 44.0193 50.3386 43.9466C51.0008 43.874 51.6712 43.941 52.3048 44.1432C53.0611 44.3846 53.4786 45.1934 53.2372 45.9497C52.9958 46.7061 52.187 47.1235 51.4307 46.8821Z"
        fill="#1A1A24" />
</svg>