<?xml version="1.0" encoding="UTF-8"?>
<svg xmlns="http://www.w3.org/2000/svg" width="102" height="106" viewBox="0 0 102 106" fill="none">
    <path
        d="M98.5422 61.9696C99.8149 61.6053 101.805 61.744 101.981 60.3282C102.216 58.4654 100.23 58.8628 98.9867 58.6454C97.8838 58.4488 96.7872 58.2066 95.6906 57.9852C98.7833 51.3471 98.8357 50.8627 98.0935 50.7924C91.8031 50.1921 95.244 45.5122 94.464 42.6226C96.6299 42.2666 98.6575 41.6167 100.368 40.087C99.3662 38.9383 97.4561 40.087 96.8794 38.4311C95.8688 34.3742 90.8114 35.7921 89.027 32.7763C89.0421 32.4939 89.0337 32.2107 89.0018 31.9297C89.4946 31.4371 89.9873 30.9424 90.4801 30.4435L92.5601 30.0813C94.1473 29.5949 94.9609 27.9887 93.988 27.1566C91.9541 25.4138 89.5281 26.0534 87.4041 27.5561C82.4305 27.8562 81.3947 23.4619 79.017 20.68L80.751 18.2479C83.2902 17.3558 83.2902 14.4539 85.0809 12.9594C86.1293 13.4479 87.293 13.7874 87.878 12.4564C88.421 11.2145 87.6914 10.2934 86.4102 10.1465C84.1038 9.8836 82.6507 11.0179 81.9965 13.1809C78.281 17.5835 73.8484 14.6298 69.6758 14.3524C67.2708 14.3524 64.7274 14.8802 62.92 12.622C62.9508 11.7596 62.9815 10.8985 63.0123 10.0388C65.8136 7.26108 66.1574 4.10454 64.0376 0C63.1737 4.98837 60.0369 7.45151 55.7616 8.7224L47.3703 12.4275L45.588 11.3449C41.9354 10.637 41.2875 6.39795 38.1004 5.13533C37.0793 4.35913 35.8317 2.56042 34.8022 3.64503C33.1856 5.35474 35.6954 6.6484 36.249 8.19873C36.1882 10.252 37.8237 11.3242 38.9328 12.7007L36.7061 15.0934C34.6575 15.5799 32.7536 15.1266 30.9252 14.2303L30.6107 14.0544C30.2102 12.4585 30.1914 10.7012 28.6146 9.62072C28.4196 7.06237 27.5662 4.84555 25.0794 3.67401C24.6852 3.48979 23.6117 3.83753 23.4481 4.19768C22.1586 7.11205 25.4191 8.32913 26.0481 10.5646C26.1488 10.9102 26.6772 11.14 27.0085 11.4256L26.111 14.3566C24.8677 15.9131 22.6618 16.9563 23.2993 19.5147C22.7625 20.8394 21.5191 20.7773 20.3973 20.9636C20.0532 20.7112 19.6472 20.554 19.221 20.5082C18.3823 18.0244 16.5162 15.4495 14.1657 17.1819C12.115 18.6971 13.4863 21.5079 16.0297 22.843C16.5036 23.4433 16.9838 24.0435 17.466 24.6459C17.4912 25.1716 17.5142 25.6911 17.5394 26.2169L14.9834 28.7173C14.0252 28.591 13.0691 28.4668 12.1129 28.3364C10.3223 27.3305 8.03052 26.2355 7.01987 28.6407C6.10567 30.8161 8.38068 31.435 10.2363 31.7082C10.5033 32.6742 10.7717 33.6367 11.0415 34.5957C9.55278 36.7152 8.06197 38.8334 6.56906 40.9502C5.04051 41.803 1.84082 39.8014 1.92679 42.7406C1.97292 44.4689 4.87486 43.7362 6.52503 44.0053L7.93407 46.4705L3.90615 50.3308C2.54325 50.2977 0.890984 50.1756 0.228401 51.4278C-0.54531 52.8954 0.798726 54.0959 1.9897 54.5326C6.09309 56.0064 4.72809 57.9996 2.7676 60.1709C-0.335632 65.091 7.55455 64.6004 6.89406 68.3138C6.35309 70.7976 0.914048 71.1371 3.83906 75.1443C5.90648 77.1293 8.31778 75.9391 10.6075 75.8563C11.4462 77.1335 13.2976 78.7749 12.9768 79.6297C10.8213 85.4398 15.1218 86.7438 18.8478 88.5467C18.9967 90.0266 19.3007 91.3741 21.278 91.2499C22.9428 92.5622 19.3909 97.6023 23.6872 97.0455C24.0751 97.1118 24.5846 97.0145 25.2577 96.6895C28.4783 94.8867 31.462 93.7027 31.4788 99.2955C31.4788 102.839 33.6867 102.698 35.9743 101.746C37.7314 101.018 38.8804 98.8629 41.2666 99.6184C43.2711 100.902 46.1122 100.328 47.7267 102.471C51.48 105.294 55.2752 108.97 58.5839 101.997C59.8419 100.939 61.1797 99.9433 61.3936 98.1384L65.4508 99.4693C71.1499 106 69.4347 95.8885 72.4666 96.4267L75.1673 96.6212C76.3625 98.4593 77.5702 101.252 80.1639 99.3493C81.747 98.1902 81.8665 95.6235 78.6228 95.1951C78.0944 93.3633 80.5875 93.0217 80.5267 91.4217C82.0909 88.1782 86.5465 88.8178 88.2848 85.8L88.3141 85.8124C90.2285 86.9487 92.2267 87.7187 94.5206 87.2509C96.4223 85.4315 97.0598 83.1299 97.1332 80.6129C99.989 77.0941 96.9696 76.912 94.6443 76.3386C93.8999 74.3516 94.9169 72.6253 95.4599 70.8266C95.6172 70.4478 95.7577 70.0628 95.8793 69.6716C98.0495 69.595 100.654 70.6196 101.945 67.4775C99.8485 66.2832 97.8628 66.7138 95.917 66.7614C94.9546 64.174 96.5943 62.9901 98.5422 61.9696Z"
        fill="#06D889" />
    <g clip-path="url(#clip0_744_8)">
        <path
            d="M28.2657 37.9281C28.0594 38.0219 27.7594 38.2469 27.5907 38.4156C26.9532 39.0906 27 37.6469 27 56.5C27 75.3531 26.9532 73.9094 27.5907 74.5844C28.2188 75.2406 28.2375 75.25 32.1282 75.25C35.5032 75.25 35.6344 75.2406 35.8125 75.0625C36.0657 74.8094 36.0657 74.1906 35.8125 73.9375C35.6344 73.7594 35.5032 73.75 32.4844 73.75C28.9688 73.75 28.7907 73.7219 28.6032 73.1875C28.5282 72.9625 28.5 68.4719 28.5 56.4812C28.5 38.4625 28.4625 39.5687 29.0625 39.3531C29.5032 39.2031 72.4969 39.2031 72.9375 39.3531C73.5375 39.5687 73.5 38.4625 73.5 56.5C73.5 74.5375 73.5375 73.4312 72.9375 73.6469C72.7313 73.7125 71.5969 73.75 69.5063 73.75C66.4969 73.75 66.3657 73.7594 66.1875 73.9375C65.9344 74.1906 65.9344 74.8094 66.1875 75.0625C66.3657 75.2406 66.4969 75.25 69.8719 75.25C73.7625 75.25 73.7813 75.2406 74.4094 74.5844C75.0469 73.9094 75 75.3531 75 56.4812C75 40.0281 74.9907 39.3719 74.8219 39.0156C74.6063 38.5562 74.1282 38.0875 73.6688 37.9C73.3594 37.7687 70.95 37.75 50.9813 37.75C29.4188 37.75 28.6313 37.7594 28.2657 37.9281Z"
            fill="#1A1A24" />
        <path
            d="M30.1875 40.9375C30.0656 41.0594 30 41.2469 30 41.5C30 41.9969 30.2531 42.25 30.75 42.25C31.2469 42.25 31.5 41.9969 31.5 41.5C31.5 41.0031 31.2469 40.75 30.75 40.75C30.4969 40.75 30.3094 40.8156 30.1875 40.9375Z"
            fill="#1A1A24" />
        <path
            d="M33.1875 40.9375C33.0656 41.0594 33 41.2469 33 41.5C33 41.9969 33.2531 42.25 33.75 42.25C34.2469 42.25 34.5 41.9969 34.5 41.5C34.5 41.0031 34.2469 40.75 33.75 40.75C33.4969 40.75 33.3094 40.8156 33.1875 40.9375Z"
            fill="#1A1A24" />
        <path
            d="M36.1875 40.9375C36.0656 41.0594 36 41.2469 36 41.5C36 41.9969 36.2531 42.25 36.75 42.25C37.2469 42.25 37.5 41.9969 37.5 41.5C37.5 41.0031 37.2469 40.75 36.75 40.75C36.4969 40.75 36.3094 40.8156 36.1875 40.9375Z"
            fill="#1A1A24" />
        <path
            d="M39.1875 40.9375C39.0656 41.0594 39 41.2469 39 41.5C39 41.7531 39.0656 41.9406 39.1875 42.0625C39.375 42.25 39.4969 42.25 55.5 42.25C71.5031 42.25 71.625 42.25 71.8125 42.0625C71.9344 41.9406 72 41.7531 72 41.5C72 41.2469 71.9344 41.0594 71.8125 40.9375C71.625 40.75 71.5031 40.75 55.5 40.75C39.4969 40.75 39.375 40.75 39.1875 40.9375Z"
            fill="#1A1A24" />
        <path
            d="M50.4563 46.9095C50.3532 47.0032 49.0875 48.4376 47.6344 50.1063C45.1313 52.9751 45 53.1438 45 53.5001C45 54.1376 45.2063 54.2501 46.3125 54.2501H47.25V57.2501V60.2501H44.625H42V59.3126C42 58.2063 41.8875 58.0001 41.25 58.0001C40.8938 58.0001 40.725 58.1313 37.8563 60.6345C36.1875 62.0876 34.7532 63.3532 34.6688 63.4563C34.4532 63.7001 34.4532 64.3001 34.6688 64.5438C34.7532 64.647 36.1875 65.9126 37.8563 67.3657C40.725 69.8688 40.8938 70.0001 41.25 70.0001C41.8875 70.0001 42 69.7938 42 68.6782V67.7313L43.7625 67.7688C45.3094 67.8063 45.5625 67.8345 45.8907 68.0032C46.3969 68.2657 46.7719 68.6501 47.0063 69.1563C47.1938 69.5595 47.2032 69.7563 47.25 73.7782C47.2969 77.8001 47.3063 77.9876 47.475 78.1188C47.7469 78.3063 48.3375 78.2876 48.5532 78.072C48.7219 77.9032 48.7313 77.6595 48.7782 73.4126C48.8157 69.2032 48.8344 68.8751 49.0219 68.1345C49.6594 65.6407 51.2813 63.6626 53.55 62.5938C54.9563 61.9376 55.5657 61.8345 58.5188 61.7782C60.3938 61.7407 61.1719 61.6938 61.2844 61.6095C61.3875 61.5345 61.4625 61.3095 61.5 61.0095L61.5469 60.522L63.4969 62.2282C64.5657 63.1657 65.4375 63.9626 65.4375 64.0001C65.4375 64.0376 64.5657 64.8345 63.4969 65.772L61.5469 67.4782L61.5 66.9907C61.4157 66.222 61.4719 66.2407 58.5 66.2688L55.9219 66.297L55.3594 66.5688C54.6375 66.9251 53.925 67.6376 53.5688 68.3595L53.2969 68.922L53.2688 73.3938C53.2407 77.7907 53.25 77.8751 53.4375 78.0626C53.6625 78.2876 54.2438 78.3157 54.525 78.1188C54.6938 77.9876 54.7032 77.8001 54.75 73.7782C54.7969 69.7563 54.8063 69.5595 54.9938 69.1563C55.2282 68.6501 55.6032 68.2657 56.1094 68.0032C56.4375 67.8345 56.6907 67.8063 58.2469 67.7688L60 67.7313V68.6782C60 69.7938 60.1125 70.0001 60.75 70.0001C61.1063 70.0001 61.275 69.8688 64.1438 67.3657C65.8125 65.9126 67.2469 64.647 67.3407 64.5438C67.4344 64.4313 67.5 64.2063 67.5 64.0001C67.5 63.7938 67.4344 63.5688 67.3407 63.4563C67.2469 63.3532 65.8125 62.0876 64.1438 60.6345C61.275 58.1313 61.1063 58.0001 60.75 58.0001C60.1125 58.0001 60 58.2063 60 59.3126V60.2501H57.9188C56.2407 60.2501 55.6594 60.2876 54.9844 60.4282C53.0532 60.8313 51.5532 61.647 50.1 63.1001C49.0407 64.1595 48.3938 65.1345 47.9063 66.3813L47.5969 67.1688L47.1094 66.8501C46.275 66.297 45.9938 66.2501 43.3125 66.2501C40.5469 66.2501 40.5844 66.2407 40.5 66.9907L40.4532 67.4782L38.5032 65.772C37.4344 64.8345 36.5625 64.0376 36.5625 64.0001C36.5625 63.9626 37.4344 63.1657 38.5125 62.2282L40.4532 60.522L40.5 61.0095C40.5375 61.3282 40.6125 61.5345 40.7344 61.6188C40.875 61.722 41.6063 61.7501 44.6438 61.7501C48.2532 61.7501 48.3844 61.7407 48.5625 61.5626C48.7407 61.3845 48.75 61.2532 48.75 57.2688C48.75 53.9032 48.7219 53.1251 48.6188 52.9845C48.5344 52.8626 48.3282 52.7876 48.0094 52.7501L47.5219 52.7032L49.2282 50.7532C50.1657 49.6845 50.9625 48.8126 51 48.8126C51.0375 48.8126 51.8344 49.6845 52.7719 50.7532L54.4782 52.7032L53.9907 52.7501C53.6719 52.7876 53.4657 52.8626 53.3813 52.9845C53.2782 53.1251 53.25 53.7438 53.25 56.1438C53.25 59.0032 53.2594 59.1345 53.4375 59.3126C53.6907 59.5657 54.3094 59.5657 54.5625 59.3126C54.7407 59.1345 54.75 59.0032 54.75 56.6876V54.2501H55.6875C56.7938 54.2501 57 54.1376 57 53.5001C57 53.1438 56.8688 52.9751 54.3657 50.1063C52.9125 48.4376 51.6469 47.0032 51.5438 46.9095C51.4313 46.8157 51.2063 46.7501 51 46.7501C50.7938 46.7501 50.5688 46.8157 50.4563 46.9095Z"
            fill="#1A1A24" />
    </g>
    <defs>
        <clipPath id="clip0_744_8">
            <rect width="48" height="48" fill="white" transform="translate(27 34)" />
        </clipPath>
    </defs>
</svg>