<svg width="227" height="35" viewBox="0 0 227 35" fill="none" xmlns="http://www.w3.org/2000/svg">
<path d="M69.5468 5.47607H65.5426C65.3783 5.47607 65.2422 5.61221 65.2422 5.7765V29.224C65.2422 29.3883 65.3783 29.5244 65.5426 29.5244H79.4421C79.6064 29.5244 79.7426 29.3883 79.7426 29.224V25.7268C79.7426 25.5625 79.6064 25.4264 79.4421 25.4264H70.1429C69.9786 25.4264 69.8425 25.2903 69.8425 25.126V5.7765C69.8425 5.61221 69.7064 5.47607 69.5421 5.47607H69.5468Z" fill="#1D1F26"/>
<path d="M83.1969 9.5741H87.8629C88.0272 9.5741 88.1634 9.71024 88.1634 9.87453V25.1307C88.1634 25.295 88.0272 25.4311 87.8629 25.4311H83.1969C83.0326 25.4311 82.8965 25.5672 82.8965 25.7315V29.2287C82.8965 29.393 83.0326 29.5291 83.1969 29.5291H97.7254C97.8897 29.5291 98.0259 29.393 98.0259 29.2287V25.7315C98.0259 25.5672 97.8897 25.4311 97.7254 25.4311H93.0594C92.8951 25.4311 92.759 25.295 92.759 25.1307V9.87453C92.759 9.71024 92.8951 9.5741 93.0594 9.5741H97.7254C97.8897 9.5741 98.0259 9.43797 98.0259 9.27368V5.7765C98.0259 5.61221 97.8897 5.47607 97.7254 5.47607H83.1969C83.0326 5.47607 82.8965 5.61221 82.8965 5.7765V9.27368C82.8965 9.43797 83.0326 9.5741 83.1969 9.5741Z" fill="#1D1F26"/>
<path d="M111.705 5.7765V13.6158C111.705 13.9162 111.316 14.0289 111.156 13.7801L105.809 5.61221C105.753 5.52771 105.659 5.47607 105.561 5.47607H101.186V29.224C101.186 29.3883 101.322 29.5244 101.486 29.5244H105.485C105.65 29.5244 105.786 29.3883 105.786 29.224V14.611C105.786 14.3105 106.175 14.1979 106.335 14.4467L111.663 22.577C111.696 22.624 111.71 22.685 111.71 22.7413V29.224C111.71 29.3883 111.846 29.5244 112.01 29.5244H116.01C116.174 29.5244 116.31 29.3883 116.31 29.224V5.7765C116.31 5.61221 116.174 5.47607 116.01 5.47607H112.01C111.846 5.47607 111.71 5.61221 111.71 5.7765H111.705Z" fill="#1D1F26"/>
<path d="M126.309 15.47H124.361C124.196 15.47 124.06 15.3339 124.06 15.1696V5.7765C124.06 5.61221 123.924 5.47607 123.76 5.47607H119.756C119.591 5.47607 119.455 5.61221 119.455 5.7765V29.224C119.455 29.3883 119.591 29.5244 119.756 29.5244H123.76C123.924 29.5244 124.06 29.3883 124.06 29.224V19.8638C124.06 19.6995 124.196 19.5633 124.361 19.5633H126.318C126.431 19.5633 126.534 19.6291 126.586 19.7323L131.355 29.3601C131.406 29.4634 131.51 29.5291 131.622 29.5291H135.232C135.397 29.5291 135.533 29.393 135.533 29.2287V27.5529C135.533 27.5059 135.523 27.459 135.5 27.4167L130.374 17.5355C130.327 17.4463 130.327 17.343 130.374 17.2585L135.495 7.59785C135.519 7.5556 135.528 7.50397 135.528 7.45702V5.7812C135.528 5.6169 135.392 5.48077 135.228 5.48077H131.928C131.815 5.48077 131.712 5.54179 131.66 5.64037L126.567 15.3104C126.515 15.409 126.412 15.47 126.299 15.47H126.309Z" fill="#1D1F26"/>
<path d="M148.048 15.9064L144.391 14.7094C143.654 14.4794 143.1 14.1226 142.72 13.6391C142.34 13.1556 142.152 12.5876 142.152 11.9351C142.152 11.1371 142.434 10.4752 143.002 9.9495C143.57 9.42375 144.292 9.16087 145.175 9.16087C146.057 9.16087 146.757 9.45192 147.334 10.0293C147.912 10.6067 148.203 11.3249 148.203 12.1886V12.6627H152.803V12.1886C152.803 10.7616 152.484 9.51294 151.841 8.45205C151.198 7.39116 150.31 6.56499 149.179 5.97821C148.043 5.39144 146.71 5.0957 145.175 5.0957C143.64 5.0957 142.335 5.39613 141.19 5.99229C140.044 6.59315 139.152 7.43341 138.509 8.51308C137.866 9.59743 137.547 10.8508 137.547 12.2778C137.547 15.5544 139.288 17.7606 142.781 18.8966L146.278 20.0326C146.738 20.1781 147.128 20.3894 147.442 20.6616C147.757 20.9339 148.001 21.2578 148.165 21.624C148.334 21.9901 148.419 22.3938 148.419 22.8398C148.419 23.4265 148.292 23.9429 148.038 24.3841C147.785 24.8254 147.433 25.1728 146.982 25.4263C146.532 25.6797 146.011 25.8065 145.424 25.8065C144.499 25.8065 143.743 25.5248 143.152 24.9568C142.565 24.3888 142.269 23.6659 142.269 22.7834V22.3093H137.669V22.6567C137.669 24.0837 137.998 25.3465 138.664 26.4402C139.326 27.534 140.241 28.3836 141.406 28.9938C142.57 29.6041 143.912 29.9092 145.424 29.9092C146.935 29.9092 148.292 29.6041 149.428 28.9938C150.564 28.3836 151.446 27.5246 152.075 26.4073C152.704 25.2948 153.019 23.9898 153.019 22.4971C153.019 19.1971 151.357 17.0002 148.038 15.9111L148.048 15.9064Z" fill="#1D1F26"/>
<path d="M167.697 5.99718C166.533 5.39632 165.158 5.10059 163.585 5.10059C162.013 5.10059 160.666 5.40101 159.487 5.99718C158.309 6.59803 157.398 7.41952 156.746 8.47102C156.093 9.52252 155.77 10.7383 155.77 12.1278V22.8775C155.77 24.2435 156.093 25.4593 156.746 26.5202C157.398 27.5811 158.309 28.412 159.487 29.0081C160.666 29.609 162.032 29.9047 163.585 29.9047C165.139 29.9047 166.533 29.6043 167.697 29.0081C168.862 28.412 169.772 27.5811 170.425 26.5202C171.077 25.4593 171.401 24.2482 171.401 22.8775V20.8121C171.401 20.6478 171.265 20.5116 171.101 20.5116H167.097C166.932 20.5116 166.796 20.6478 166.796 20.8121V22.563C166.796 23.5488 166.5 24.3374 165.914 24.9289C165.327 25.5203 164.548 25.8114 163.581 25.8114C162.614 25.8114 161.834 25.5156 161.248 24.9289C160.661 24.3421 160.365 23.5535 160.365 22.563V12.447C160.365 11.4612 160.661 10.6726 161.248 10.0811C161.834 9.48966 162.614 9.19862 163.581 9.19862C164.548 9.19862 165.322 9.49435 165.914 10.0811C166.5 10.6679 166.796 11.4565 166.796 12.447V14.1979C166.796 14.3622 166.932 14.4984 167.097 14.4984H171.101C171.265 14.4984 171.401 14.3622 171.401 14.1979V12.1325C171.401 10.7477 171.077 9.52721 170.425 8.47571C169.772 7.42421 168.866 6.59803 167.697 6.00187V5.99718Z" fill="#1D1F26"/>
<path d="M185.981 5.99718C184.817 5.39632 183.441 5.10059 181.869 5.10059C180.296 5.10059 178.949 5.40101 177.771 5.99718C176.592 6.59803 175.682 7.41952 175.029 8.47102C174.377 9.52252 174.053 10.7383 174.053 12.1278V22.8775C174.053 24.2435 174.377 25.4593 175.029 26.5202C175.682 27.5811 176.592 28.412 177.771 29.0081C178.949 29.609 180.315 29.9047 181.869 29.9047C183.422 29.9047 184.817 29.6043 185.981 29.0081C187.145 28.412 188.056 27.5811 188.708 26.5202C189.361 25.4593 189.684 24.2482 189.684 22.8775V12.1278C189.684 10.743 189.361 9.52252 188.708 8.47102C188.056 7.41952 187.15 6.59334 185.981 5.99718ZM185.084 22.563C185.084 23.5488 184.788 24.3374 184.202 24.9289C183.615 25.5203 182.836 25.8114 181.869 25.8114C180.902 25.8114 180.122 25.5156 179.536 24.9289C178.949 24.3421 178.653 23.5535 178.653 22.563V12.447C178.653 11.4612 178.949 10.6726 179.536 10.0811C180.122 9.48966 180.902 9.19862 181.869 9.19862C182.836 9.19862 183.61 9.49435 184.202 10.0811C184.788 10.6679 185.084 11.4565 185.084 12.447V22.563Z" fill="#1D1F26"/>
<path d="M203.364 22.5582C203.364 23.544 203.068 24.3327 202.482 24.9241C201.895 25.5156 201.116 25.8066 200.149 25.8066C199.182 25.8066 198.402 25.5109 197.816 24.9241C197.229 24.3373 196.933 23.5487 196.933 22.5582V5.7765C196.933 5.61221 196.797 5.47607 196.633 5.47607H192.629C192.464 5.47607 192.328 5.61221 192.328 5.7765V22.8775C192.328 24.2435 192.652 25.4593 193.305 26.5201C193.957 27.581 194.868 28.4119 196.046 29.0081C197.224 29.6089 198.59 29.9047 200.144 29.9047C201.698 29.9047 203.092 29.6042 204.256 29.0081C205.42 28.4119 206.331 27.581 206.983 26.5201C207.636 25.4593 207.96 24.2482 207.96 22.8775V5.7765C207.96 5.61221 207.824 5.47607 207.659 5.47607H203.655C203.491 5.47607 203.355 5.61221 203.355 5.7765V22.5582H203.364Z" fill="#1D1F26"/>
<path d="M210.551 5.7765V9.27368C210.551 9.43797 210.687 9.5741 210.851 9.5741H215.832C215.996 9.5741 216.132 9.71024 216.132 9.87453V29.2287C216.132 29.393 216.268 29.5291 216.433 29.5291H220.437C220.601 29.5291 220.737 29.393 220.737 29.2287V9.87453C220.737 9.71024 220.873 9.5741 221.038 9.5741H226.018C226.182 9.5741 226.319 9.43797 226.319 9.27368V5.7765C226.319 5.61221 226.182 5.47607 226.018 5.47607H210.856C210.692 5.47607 210.555 5.61221 210.555 5.7765H210.551Z" fill="#1D1F26"/>
<path d="M19.9011 34.4905H10.8836C10.3813 34.4905 9.90247 34.2934 9.54571 33.9366L1.05391 25.4448C0.697156 25.0881 0.5 24.6093 0.5 24.107V10.8928C0.5 10.3906 0.697156 9.91175 1.05391 9.55499L9.54571 1.06319C9.90247 0.706433 10.3813 0.509277 10.8836 0.509277H19.9011C20.9479 0.509277 21.7929 1.35423 21.7929 2.40104V4.66833C21.7929 5.71514 20.9479 6.56009 19.9011 6.56009H13.3903C12.888 6.56009 12.4092 6.75725 12.0524 7.11401L7.10004 12.0664C6.74328 12.4231 6.54612 12.9019 6.54612 13.4042V21.605C6.54612 22.1073 6.74328 22.5861 7.10004 22.9428L12.0524 27.8952C12.4092 28.252 12.888 28.4491 13.3903 28.4491H19.9011C20.9479 28.4491 21.7929 29.2941 21.7929 30.3409V32.6082C21.7929 33.655 20.9479 34.4999 19.9011 34.4999V34.4905Z" fill="#2637A8"/>
<path d="M41.88 34.4907H32.8625C31.8157 34.4907 30.9707 33.6457 30.9707 32.5989V30.3316C30.9707 29.2848 31.8157 28.4398 32.8625 28.4398H39.3733C39.8756 28.4398 40.3544 28.2427 40.7112 27.8859L45.6635 22.9336C46.0203 22.5768 46.2174 22.098 46.2174 21.5957V13.395C46.2174 12.8927 46.0203 12.4139 45.6635 12.0571L40.7112 7.10473C40.3544 6.74797 39.8756 6.55082 39.3733 6.55082H32.8625C31.8157 6.55082 30.9707 5.70586 30.9707 4.65906V2.39176C30.9707 1.34495 31.8157 0.5 32.8625 0.5H41.88C42.3823 0.5 42.8611 0.697156 43.2179 1.05391L51.7096 9.54571C52.0664 9.90247 52.2636 10.3813 52.2636 10.8836V24.0977C52.2636 24.6 52.0664 25.0788 51.7096 25.4356L43.2179 33.9274C42.8611 34.2841 42.3823 34.4813 41.88 34.4813V34.4907Z" fill="#2637A8"/>
<path d="M34.1295 14.4746H18.6339C17.5892 14.4746 16.7422 15.3216 16.7422 16.3664V18.6337C16.7422 19.6785 17.5892 20.5254 18.6339 20.5254H34.1295C35.1743 20.5254 36.0212 19.6785 36.0212 18.6337V16.3664C36.0212 15.3216 35.1743 14.4746 34.1295 14.4746Z" fill="#2637A8"/>
</svg>
