<svg width="271" height="53" viewBox="0 0 271 53" fill="none" xmlns="http://www.w3.org/2000/svg">
    <g clip-path="url(#clip0_791_9938)">
        <path
            d="M79.0226 39.4367C73.7848 39.4367 70.1411 36.7586 69.6855 32.295H73.1015C73.5571 34.75 76.0621 36.089 79.0226 36.089C82.2108 36.089 84.2604 34.5268 84.2604 32.7414C84.2604 31.4024 83.5772 30.2865 78.5671 29.6169C73.5571 28.9474 70.3688 27.6084 70.3688 23.8144C70.3688 20.913 73.1015 17.5654 78.5671 17.5654C83.3495 17.5654 86.7654 20.0204 87.2209 24.0375H83.8049C83.3495 21.8058 81.2999 20.6899 78.7948 20.6899C76.0621 20.6899 74.0125 22.0289 74.0125 23.5912C74.0125 25.1534 75.1511 25.5998 79.2503 26.2693C84.0326 26.9388 87.6763 27.8315 87.6763 32.5183C87.6763 36.7585 84.0326 39.4367 79.0226 39.4367Z"
            fill="#000000" />
        <path d="M95.4198 38.9907H92.0034V18.2354H95.4198V38.9907Z" fill="#000000" />
        <path
            d="M129.579 38.9907H126.163V25.6002C126.163 22.9221 124.341 20.9135 121.609 20.9135C118.876 20.9135 117.054 22.9221 117.054 25.6002V38.9907H113.638V25.6002C113.638 22.9221 111.816 20.9135 109.084 20.9135C106.351 20.9135 104.529 22.9221 104.529 25.6002V38.9907H101.113V25.8234C101.113 21.3598 104.529 17.7891 109.084 17.7891C112.044 17.7891 114.093 19.1281 115.46 21.1367C116.826 19.1281 118.876 17.7891 121.836 17.7891C126.618 17.7891 129.807 21.1367 129.807 25.8234V38.9907H129.579Z"
            fill="#000000" />
        <path
            d="M144.837 39.4367C141.876 39.4367 139.372 38.0977 137.55 35.8659V48.1405H134.361V28.501C134.361 22.4753 138.916 17.5654 145.064 17.5654C150.986 17.5654 155.54 22.2522 155.54 28.501C155.54 34.75 150.758 39.4367 144.837 39.4367ZM144.837 20.913C140.965 20.913 137.777 24.2607 137.777 28.7243C137.777 32.9645 140.965 36.5354 144.837 36.5354C148.709 36.5354 151.897 33.1878 151.897 28.7243C151.897 24.2607 148.709 20.913 144.837 20.913Z"
            fill="#000000" />
        <path
            d="M187.65 32.5187C186.284 36.9822 182.64 39.4371 177.63 39.4371C171.482 39.4371 166.699 34.7505 166.699 28.7247C166.699 22.699 171.482 17.7891 177.402 17.7891C182.868 17.7891 188.105 22.2526 188.105 29.6174H170.342C170.798 33.8577 174.214 36.5358 177.63 36.5358C180.591 36.5358 182.868 35.1967 184.007 32.7418H187.65V32.5187ZM184.235 26.493C183.324 23.1452 180.591 20.9135 177.402 20.9135C174.442 20.9135 171.482 22.9221 170.571 26.493H184.235Z"
            fill="#000000" />
        <path
            d="M199.948 38.9904C194.938 39.6599 191.522 36.7587 191.522 31.4024V13.7715H194.938V18.235H199.72V21.5827H194.938V31.4024C194.938 34.9733 197.215 36.0891 199.72 35.8659V38.9904H199.948Z"
            fill="#000000" />
        <path
            d="M232.513 37.875C232.513 44.5702 228.186 49.0338 221.583 49.0338C216.572 49.0338 212.701 46.3557 211.562 42.1153H215.205C216.572 45.2398 219.988 45.6861 221.583 45.6861C227.048 45.6861 229.097 41.669 229.097 37.875V35.8664C227.503 38.0982 224.998 39.2141 221.81 39.2141C215.889 39.2141 211.334 34.5273 211.334 28.2785C211.334 22.0295 216.116 17.3428 222.038 17.3428C227.959 17.3428 232.513 22.0295 232.513 28.2785V37.875ZM221.81 20.9136C217.938 20.9136 214.75 24.2612 214.75 28.7248C214.75 32.9651 217.938 36.3127 221.81 36.3127C225.682 36.3127 228.87 32.9651 228.87 28.7248C228.87 24.2612 225.682 20.9136 221.81 20.9136Z"
            fill="#000000" />
        <path
            d="M256.653 32.5187C255.287 36.9822 251.643 39.4371 246.633 39.4371C240.484 39.4371 235.702 34.7505 235.702 28.7247C235.702 22.699 240.484 17.7891 246.405 17.7891C251.871 17.7891 257.109 22.2526 257.109 29.6174H239.346C239.801 33.8577 243.217 36.5358 246.633 36.5358C249.593 36.5358 251.643 35.1967 253.01 32.7418H256.653V32.5187ZM253.465 26.493C252.554 23.1452 249.821 20.9135 246.633 20.9135C243.673 20.9135 240.712 22.9221 239.801 26.493H253.465Z"
            fill="#000000" />
        <path
            d="M271 17.7883V20.9128C266.901 20.4665 264.396 22.475 264.396 26.4922V38.7668H260.979V26.4922C260.979 20.2432 265.535 17.1188 271 17.7883Z"
            fill="#000000" />
        <path
            d="M91.5479 10.6472C91.5479 11.7631 92.4588 12.6558 93.5976 12.6558C94.7362 12.4327 95.6473 11.54 95.6473 10.6472C95.6473 9.53142 94.7362 8.63867 93.5976 8.63867C92.4588 8.63867 91.5479 9.53142 91.5479 10.6472Z"
            fill="#000000" />
        <path d="M207.008 38.9907H203.591V18.2354H207.008V38.9907Z" fill="#000000" />
        <path
            d="M203.364 10.6472C203.364 11.7631 204.275 12.6558 205.413 12.6558C206.324 12.4327 207.235 11.54 207.235 10.6472C207.235 9.53142 206.324 8.63867 205.186 8.63867C204.275 8.63867 203.364 9.53142 203.364 10.6472Z"
            fill="#000000" />
        <path d="M162.6 9.08496H159.184V38.9906H162.6V9.08496Z" fill="#000000" />
        <path
            d="M48.7346 18.681C48.7346 16.8956 48.2791 15.1101 47.3682 13.5479C44.4077 18.2346 39.3976 21.5822 33.4766 22.0286C34.3875 29.3934 40.5363 34.9728 48.2791 34.9728H48.5068C48.5068 34.5265 48.5068 34.3032 48.5068 33.857L48.7346 18.681Z"
            fill="#000000" />
        <path
            d="M40.7638 7.96875C36.8924 10.2005 34.1596 13.9945 33.7041 18.6812C38.7142 18.0117 43.0411 14.8872 45.0907 10.6469C44.6352 10.2005 43.9521 9.75419 43.4965 9.53096L40.7638 7.96875Z"
            fill="#000000" />
        <path
            d="M22.7737 39.6599C18.6744 39.2135 14.803 37.4281 11.8426 34.75C8.88202 36.9817 5.23833 38.544 1.13916 38.544C2.05009 40.5526 3.64421 42.1148 5.46606 43.2307L14.5753 48.3637C17.7635 47.471 20.4963 45.9087 22.7737 43.4539V39.6599Z"
            fill="#000000" />
        <path
            d="M18.4458 50.5953L18.9012 50.8185C22.0895 52.6039 26.4163 52.6039 29.6046 50.8185L30.06 50.5953C27.7828 49.7026 25.9609 48.3635 24.1391 46.5781C22.7726 48.3635 20.7231 49.7026 18.4458 50.5953Z"
            fill="#000000" />
        <path
            d="M47.8239 38.544C43.7247 38.3209 40.0811 36.9817 37.1206 34.75C34.1601 37.6512 30.2887 39.4367 26.1895 39.6599V43.4539C28.4668 45.9087 31.1995 47.471 34.3878 48.3637L43.497 43.2307C45.3189 42.1148 46.913 40.5526 47.8239 38.544Z"
            fill="#000000" />
        <path
            d="M18.6741 20.4667C18.6741 24.9302 17.08 29.1705 14.1195 32.295C16.8523 34.9732 20.496 36.3122 24.3674 36.3122C28.2388 36.3122 31.6548 34.7499 34.6153 32.295C31.8826 29.1705 30.0607 24.9302 30.0607 20.4667C30.0607 14.6642 33.0212 9.3079 37.3481 5.96026L29.6052 1.71991C28.2388 0.827211 26.417 0.380859 24.3674 0.380859C22.5455 0.380859 20.7237 0.827211 19.1296 1.71991L11.3867 6.18344C15.9414 9.53104 18.6741 14.6642 18.6741 20.4667Z"
            fill="#000000" />
        <path
            d="M3.64404 10.6469C5.92135 14.8872 10.0205 18.0117 15.0306 18.6812C14.3474 14.2177 11.6146 10.2005 7.97093 7.96875L5.46589 9.53096C4.7827 9.75419 4.32723 10.2005 3.64404 10.6469Z"
            fill="#000000" />
        <path
            d="M0 34.0801C0 34.5265 0 34.7496 0 35.196H0.227731C7.97059 35.196 14.1193 29.6166 15.0302 22.2517C9.33702 21.5822 4.32689 18.2346 1.36639 13.5479C0.455462 15.1101 0 16.8956 0 18.681V34.0801Z"
            fill="#000000" />
    </g>
    <defs>
        <clipPath id="clip0_791_9938">
            <rect width="271" height="52" fill="#000000" transform="translate(0 0.380859)" />
        </clipPath>
    </defs>
</svg>