<?xml version="1.0" encoding="UTF-8"?>
<!DOCTYPE svg PUBLIC "-//W3C//DTD SVG 1.1//EN" "http://www.w3.org/Graphics/SVG/1.1/DTD/svg11.dtd">
<!-- Creator: CorelDRAW -->
<svg xmlns="http://www.w3.org/2000/svg" xml:space="preserve" width="6.82666in" height="6.82666in" style="shape-rendering:geometricPrecision; text-rendering:geometricPrecision; image-rendering:optimizeQuality; fill-rule:evenodd; clip-rule:evenodd"
viewBox="0 0 6.82666 6.82666"
 xmlns:xlink="http://www.w3.org/1999/xlink">
 <defs>
  <style type="text/css">
   <![CDATA[
    .fil0 {fill:#3F51B5}
    .fil1 {fill:#FFFFFE}
   ]]>
  </style>
 </defs>
 <g id="Layer_x0020_1">
  <metadata id="CorelCorpID_0Corel-Layer"/>
  <rect class="fil0" width="6.82666" height="6.82666" rx="0.853335" ry="0.853335"/>
  <g id="_457596864">
   <path id="_457596696" class="fil1" d="M2.22344 1.43285c0.10561,0 0.207079,0.0167362 0.30165,0.0474921 0.114681,-0.361283 0.468929,-0.624539 0.88824,-0.624539 0.419307,0 0.773555,0.263256 0.88824,0.624539 0.0945748,-0.0307559 0.196039,-0.0474921 0.301654,-0.0474921 0.512157,0 0.927343,0.392709 0.927343,0.877146 0,0.484433 -0.415185,0.877146 -0.927343,0.877146 -0.909138,0 -1.47065,0 -2.37978,0 -0.512161,0 -0.927346,-0.392713 -0.927346,-0.877146 0,-0.484437 0.415185,-0.877146 0.927346,-0.877146z"/>
   <g>
    <path id="_457597152" class="fil1" d="M1.8978 3.3842l3.03107 0c0.100831,0 0.183327,0.0825276 0.183327,0.183331l0 0.353339c0,0.100799 -0.0825276,0.183331 -0.183327,0.183331l-3.03107 0c-0.100803,0 -0.183331,-0.0824961 -0.183331,-0.183331l0 -0.353339c0,-0.100835 0.0824961,-0.183331 0.183331,-0.183331zm0.171929 0.256189c0.0573346,0 0.103815,0.0464803 0.103815,0.103815 0,0.0573346 -0.0464803,0.103811 -0.103815,0.103811 -0.0573346,0 -0.103811,-0.0464764 -0.103811,-0.103811 0,-0.0573346 0.0464764,-0.103815 0.103811,-0.103815zm0.736461 0c0.0573346,0 0.103811,0.0464803 0.103811,0.103815 0,0.0573346 -0.0464764,0.103811 -0.103811,0.103811 -0.0573346,0 -0.103815,-0.0464764 -0.103815,-0.103811 0,-0.0573346 0.0464803,-0.103815 0.103815,-0.103815zm-0.368232 0c0.0573346,0 0.103811,0.0464803 0.103811,0.103815 0,0.0573346 -0.0464764,0.103811 -0.103811,0.103811 -0.0573307,0 -0.103811,-0.0464764 -0.103811,-0.103811 0,-0.0573346 0.0464803,-0.103815 0.103811,-0.103815z"/>
    <path id="_457596960" class="fil1" d="M1.8978 4.31753l3.03107 0c0.100831,0 0.183327,0.0825276 0.183327,0.183331l0 0.353339c0,0.100799 -0.0825276,0.183331 -0.183327,0.183331l-3.03107 0c-0.100803,0 -0.183331,-0.0824961 -0.183331,-0.183331l0 -0.353339c0,-0.100835 0.0824961,-0.183331 0.183331,-0.183331zm0.171929 0.256189c0.0573346,0 0.103815,0.0464803 0.103815,0.103815 0,0.0573346 -0.0464803,0.103811 -0.103815,0.103811 -0.0573346,0 -0.103811,-0.0464764 -0.103811,-0.103811 0,-0.0573346 0.0464764,-0.103815 0.103811,-0.103815zm0.736461 0c0.0573346,0 0.103811,0.0464803 0.103811,0.103815 0,0.0573346 -0.0464764,0.103811 -0.103811,0.103811 -0.0573346,0 -0.103815,-0.0464764 -0.103815,-0.103811 0,-0.0573346 0.0464803,-0.103815 0.103815,-0.103815zm-0.368232 0c0.0573346,0 0.103811,0.0464803 0.103811,0.103815 0,0.0573346 -0.0464764,0.103811 -0.103811,0.103811 -0.0573307,0 -0.103811,-0.0464764 -0.103811,-0.103811 0,-0.0573346 0.0464803,-0.103815 0.103811,-0.103815z"/>
    <path id="_457597248" class="fil1" d="M1.8978 5.25086l3.03107 0c0.100831,0 0.183327,0.0825276 0.183327,0.183331l0 0.353339c0,0.100799 -0.0825276,0.183331 -0.183327,0.183331l-3.03107 0c-0.100803,0 -0.183331,-0.0824961 -0.183331,-0.183331l0 -0.353339c0,-0.100835 0.0824961,-0.183331 0.183331,-0.183331zm0.171929 0.256189c0.0573346,0 0.103815,0.0464803 0.103815,0.103815 0,0.0573346 -0.0464803,0.103811 -0.103815,0.103811 -0.0573346,0 -0.103811,-0.0464764 -0.103811,-0.103811 0,-0.0573346 0.0464764,-0.103815 0.103811,-0.103815zm0.736461 0c0.0573346,0 0.103811,0.0464803 0.103811,0.103815 0,0.0573346 -0.0464764,0.103811 -0.103811,0.103811 -0.0573346,0 -0.103815,-0.0464764 -0.103815,-0.103811 0,-0.0573346 0.0464803,-0.103815 0.103815,-0.103815zm-0.368232 0c0.0573346,0 0.103811,0.0464803 0.103811,0.103815 0,0.0573346 -0.0464764,0.103811 -0.103811,0.103811 -0.0573307,0 -0.103811,-0.0464764 -0.103811,-0.103811 0,-0.0573346 0.0464803,-0.103815 0.103811,-0.103815z"/>
   </g>
  </g>
 </g>
</svg>
