<?xml version="1.0" encoding="UTF-8"?>
<!DOCTYPE svg PUBLIC "-//W3C//DTD SVG 1.1//EN" "http://www.w3.org/Graphics/SVG/1.1/DTD/svg11.dtd">
<!-- Creator: CorelDRAW -->
<svg xmlns="http://www.w3.org/2000/svg" xml:space="preserve" width="2048px" height="2048px" style="shape-rendering:geometricPrecision; text-rendering:geometricPrecision; image-rendering:optimizeQuality; fill-rule:evenodd; clip-rule:evenodd"
viewBox="0 0 2048 2048"
 xmlns:xlink="http://www.w3.org/1999/xlink">
 <defs>
  <style type="text/css">
   <![CDATA[
    .fil2 {fill:none}
    .fil7 {fill:#00C853}
    .fil3 {fill:#212121}
    .fil8 {fill:#353E45}
    .fil1 {fill:#388E3C}
    .fil4 {fill:#424242}
    .fil5 {fill:#454C54}
    .fil6 {fill:#4FC3F7}
    .fil0 {fill:#66BB6A}
    .fil9 {fill:#E6E6E6}
    .fil10 {fill:#29B6F6;fill-rule:nonzero}
    .fil11 {fill:#81D4FA;fill-rule:nonzero}
    .fil12 {fill:#E6E6E6;fill-rule:nonzero}
   ]]>
  </style>
   <clipPath id="id0">
    <path d="M1024 0c565.541,0 1024,458.459 1024,1024 0,565.541 -458.459,1024 -1024,1024 -565.541,0 -1024,-458.459 -1024,-1024 0,-565.541 458.459,-1024 1024,-1024z"/>
   </clipPath>
 </defs>
 <g id="Layer_x0020_1">
  <metadata id="CorelCorpID_0Corel-Layer"/>
  <path class="fil0" d="M1024 0c565.541,0 1024,458.459 1024,1024 0,565.541 -458.459,1024 -1024,1024 -565.541,0 -1024,-458.459 -1024,-1024 0,-565.541 458.459,-1024 1024,-1024z"/>
  <g style="clip-path:url(#id0)">
   <g id="_308721544">
    <g>
     <polygon id="_3030641921" class="fil1" points="1062.57,475.127 2198.45,1611.01 2199.49,1612.39 2200.39,1613.87 2201.15,1615.44 2201.75,1617.08 2202.19,1618.8 2202.47,1620.57 2202.56,1622.4 2202.56,1950.05 2202.47,1951.88 2202.19,1953.65 2201.75,1955.37 2201.14,1957.01 2200.39,1958.58 2199.48,1960.06 2198.45,1961.44 2197.29,1962.71 2196.01,1963.87 2194.63,1964.91 2193.15,1965.81 2191.58,1966.57 2189.94,1967.18 2188.22,1967.62 2186.45,1967.89 2184.62,1967.99 1933.89,1967.99 798.009,832.104 1048.74,832.104 1050.57,832.01 1052.34,831.738 1054.06,831.294 1055.7,830.688 1057.27,829.929 1058.75,829.028 1060.13,827.992 1061.41,826.833 1062.57,825.557 1063.6,824.175 1064.5,822.695 1065.26,821.129 1065.87,819.484 1066.31,817.769 1066.59,815.994 1066.68,814.168 1066.68,486.517 1066.59,484.691 1066.31,482.915 1065.87,481.2 1065.26,479.555 1064.51,477.988 1063.6,476.509 "/>
     <polygon id="_303064456" class="fil1" points="1308.13,1114.42 2444.01,2250.3 2236.92,2250.3 2235.41,2250.22 2233.95,2250 2232.53,2249.63 2231.17,2249.13 2229.88,2248.5 2228.65,2247.76 2227.51,2246.9 2226.46,2245.95 1090.58,1110.06 1091.63,1111.02 1092.77,1111.88 1093.99,1112.62 1095.29,1113.25 1096.65,1113.75 1098.06,1114.11 1099.53,1114.34 1101.04,1114.42 "/>
     <polygon id="_303065320" class="fil1" points="1362.1,1114.42 2497.98,2250.3 2497.98,2304.68 1362.1,1168.8 "/>
     <polygon id="_303065464" class="fil1" points="1375.91,1177.63 2511.79,2313.51 2430.19,2313.51 1294.31,1177.63 "/>
     <polygon id="_303065392" class="fil1" points="1375.91,1168.8 2511.79,2304.68 2511.79,2313.51 1375.91,1177.63 "/>
     <polygon id="_303065104" class="fil1" points="1131.11,647.319 2266.99,1783.2 2213.81,1783.2 1077.93,647.319 "/>
     <polygon id="_303065032" class="fil1" points="1290.64,620.729 2426.52,1756.61 2426.52,1783.2 1290.64,647.319 "/>
     <polygon id="_303064984" class="fil1" points="1210.88,620.729 2346.76,1756.61 2346.76,1783.2 1210.88,647.319 "/>
     <polygon id="_303065704" class="fil1" points="1370.41,620.729 2506.29,1756.61 2506.29,1783.2 1370.41,647.319 "/>
     <polygon id="_303066208" class="fil1" points="1370.41,647.319 2506.29,1783.2 2453.11,1783.2 1317.23,647.319 "/>
     <polygon id="_303066016" class="fil1" points="1385.21,659.105 2521.1,1794.99 2521.1,1848.17 1385.21,712.283 "/>
     <polygon id="_303066184" class="fil1" points="1385.21,712.283 2521.1,1848.17 2494.51,1848.17 1358.62,712.283 "/>
     <polygon id="_303065680" class="fil1" points="1290.64,647.319 2426.52,1783.2 2373.35,1783.2 1237.47,647.319 "/>
     <polygon id="_303065584" class="fil1" points="1385.21,792.051 2521.1,1927.93 2494.51,1927.93 1358.62,792.051 "/>
     <polygon id="_303065800" class="fil1" points="1385.21,738.872 2521.1,1874.75 2521.1,1927.93 1385.21,792.051 "/>
     <polygon id="_303065872" class="fil1" points="1131.11,620.729 2266.99,1756.61 2266.99,1783.2 1131.11,647.319 "/>
     <polygon id="_303065896" class="fil1" points="1210.88,647.319 2346.76,1783.2 2293.58,1783.2 1157.7,647.319 "/>
     <polygon id="_303066088" class="fil1" points="1262.15,1235.77 2398.03,2371.65 2401.41,2375.12 2404.69,2378.67 1268.81,1242.79 1265.52,1239.24 "/>
     <polygon id="_303066160" class="fil1" points="732.67,832.104 1868.55,1967.99 1617.82,1967.99 1615.99,1967.89 1614.22,1967.62 1612.5,1967.18 1610.86,1966.57 1609.29,1965.81 1607.81,1964.91 1606.43,1963.88 1605.15,1962.72 469.271,826.835 470.547,827.995 471.929,829.029 473.407,829.931 474.975,830.689 476.62,831.294 478.335,831.738 480.109,832.01 481.935,832.104 "/>
     <polygon id="_303067000" class="fil1" points="798.009,832.104 1933.89,1967.99 1933.89,2033.83 798.009,897.944 "/>
     <polygon id="_303066688" class="fil1" points="642.739,899.917 1778.62,2035.8 1752.03,2035.8 616.149,899.917 "/>
     <polygon id="_303066640" class="fil1" points="642.739,1086.04 1778.62,2221.92 1778.62,2275.1 642.739,1139.22 "/>
     <polygon id="_303066544" class="fil1" points="642.739,1139.22 1778.62,2275.1 1752.03,2275.1 616.149,1139.22 "/>
     <polygon id="_303066976" class="fil1" points="636.139,1215.99 1772.02,2351.87 1752.03,2351.87 616.149,1215.99 "/>
     <polygon id="_303066472" class="fil1" points="622.961,1578.68 1758.84,2714.56 1757.8,2714.56 1756.8,2714.55 1755.82,2714.53 1754.87,2714.52 1753.96,2714.49 1753.08,2714.46 1752.22,2714.43 1751.4,2714.39 615.521,1578.51 616.342,1578.55 617.195,1578.58 618.078,1578.61 618.993,1578.63 619.937,1578.65 620.914,1578.67 621.922,1578.68 "/>
     <polygon id="_303066376" class="fil1" points="615.521,1578.51 1751.4,2714.39 1747.36,2714.14 1743.35,2713.78 1739.37,2713.31 1735.42,2712.75 1731.52,2712.09 1727.64,2711.32 1723.8,2710.46 1720,2709.51 1716.24,2708.46 1712.52,2707.32 1708.84,2706.09 1705.21,2704.77 1701.61,2703.36 1698.06,2701.86 1694.56,2700.27 1691.1,2698.61 1687.69,2696.86 1684.33,2695.02 1681.01,2693.11 1677.75,2691.12 1674.54,2689.06 1671.38,2686.91 1668.27,2684.7 1665.22,2682.41 1662.23,2680.04 526.346,1544.16 529.341,1546.52 532.393,1548.81 535.498,1551.03 538.658,1553.17 541.869,1555.24 545.132,1557.23 548.445,1559.14 551.808,1560.97 555.219,1562.72 558.677,1564.39 562.183,1565.98 565.732,1567.47 569.326,1568.88 572.963,1570.21 576.643,1571.44 580.362,1572.58 584.123,1573.63 587.922,1574.58 591.76,1575.44 595.634,1576.2 599.543,1576.87 603.488,1577.43 607.467,1577.89 611.478,1578.25 "/>
     <polygon id="_303066880" class="fil1" points="642.739,1165.81 1778.62,2301.69 1778.62,2351.65 642.739,1215.77 "/>
     <polygon id="_303066952" class="fil1" points="1062.42,1579.34 2198.3,2715.22 2197.53,2715.24 2196.76,2715.26 2195.98,2715.27 2195.21,2715.28 2194.43,2715.29 2193.65,2715.3 2192.88,2715.3 2192.1,2715.3 1056.22,1579.42 1057,1579.42 1057.77,1579.42 1058.55,1579.41 1059.32,1579.4 1060.1,1579.39 1060.87,1579.38 1061.65,1579.36 "/>
     <polygon id="_303066496" class="fil1" points="814.738,897.944 1950.62,2033.83 1950.62,2044.52 814.738,908.636 "/>
     <polygon id="_303067744" class="fil1" points="1580.61,819.576 2716.49,1955.46 2717.34,1956.6 2718.09,1957.82 2718.71,1959.12 2719.21,1960.47 2719.58,1961.89 2719.8,1963.36 2719.88,1964.86 2719.88,2235.48 2719.8,2236.99 2719.58,2238.46 2719.21,2239.87 2718.71,2241.23 2718.08,2242.53 2717.34,2243.75 2716.49,2244.89 2715.53,2245.94 2714.47,2246.9 2713.33,2247.76 2712.11,2248.5 2710.82,2249.13 2709.46,2249.63 2708.04,2250 2706.58,2250.22 2705.07,2250.3 2497.98,2250.3 1362.1,1114.42 1569.19,1114.42 1570.69,1114.34 1572.16,1114.11 1573.58,1113.75 1574.94,1113.25 1576.23,1112.62 1577.45,1111.88 1578.59,1111.02 1579.65,1110.06 1580.6,1109.01 1581.46,1107.87 1582.2,1106.65 1582.83,1105.35 1583.33,1103.99 1583.7,1102.58 1583.92,1101.11 1584,1099.6 1584,828.982 1583.92,827.474 1583.7,826.008 1583.33,824.592 1582.83,823.234 1582.2,821.939 1581.46,820.718 "/>
     <polygon id="_303067336" class="fil1" points="1268.81,1242.79 2404.69,2378.67 2407.9,2382.3 2411.01,2386.01 2414.04,2389.78 2416.98,2393.63 2419.83,2397.55 2422.58,2401.54 2425.24,2405.6 2427.8,2409.72 2430.26,2413.9 2432.63,2418.15 2434.9,2422.46 2437.06,2426.82 2439.12,2431.25 2441.07,2435.73 2442.92,2440.26 2444.66,2444.85 2446.29,2449.48 2447.81,2454.17 2449.21,2458.9 2450.51,2463.68 2451.68,2468.5 2452.74,2473.36 2453.68,2478.27 2454.5,2483.21 2455.2,2488.19 2455.78,2493.21 2456.23,2498.25 2456.55,2503.34 2456.75,2508.45 2456.82,2513.59 2456.76,2518.76 2456.56,2523.95 1320.68,1388.07 1320.88,1382.88 1320.94,1377.71 1320.87,1372.57 1320.67,1367.45 1320.35,1362.37 1319.9,1357.32 1319.32,1352.31 1318.62,1347.33 1317.8,1342.38 1316.86,1337.48 1315.8,1332.62 1314.62,1327.79 1313.33,1323.02 1311.93,1318.28 1310.41,1313.6 1308.78,1308.96 1307.04,1304.38 1305.19,1299.85 1303.24,1295.37 1301.18,1290.94 1299.01,1286.58 1296.75,1282.27 1294.38,1278.02 1291.92,1273.84 1289.36,1269.71 1286.7,1265.66 1283.94,1261.67 1281.1,1257.75 1278.16,1253.9 1275.13,1250.12 1272.02,1246.42 "/>
     <polygon id="_303067072" class="fil1" points="814.738,908.636 1950.62,2044.52 1851.82,2044.52 715.94,908.636 "/>
     <polygon id="_303067264" class="fil1" points="990.979,1133.65 2126.86,2269.53 2128.86,2271.48 2130.82,2273.45 2132.76,2275.46 2134.67,2277.5 2136.54,2279.56 2138.39,2281.66 2140.2,2283.78 2141.98,2285.93 2143.72,2288.11 2145.43,2290.31 2147.11,2292.54 2148.76,2294.8 2150.37,2297.08 2151.95,2299.39 2153.49,2301.72 2154.99,2304.08 2156.46,2306.45 2157.9,2308.86 2159.3,2311.29 2160.66,2313.74 2161.98,2316.21 2163.27,2318.71 2164.52,2321.22 2165.73,2323.76 2166.9,2326.32 2168.04,2328.9 2169.13,2331.5 1033.25,1195.62 1032.16,1193.02 1031.02,1190.44 1029.85,1187.88 1028.64,1185.34 1027.39,1182.82 1026.1,1180.33 1024.78,1177.86 1023.42,1175.4 1022.02,1172.98 1020.58,1170.57 1019.11,1168.19 1017.61,1165.84 1016.06,1163.5 1014.49,1161.2 1012.88,1158.92 1011.23,1156.66 1009.55,1154.43 1007.84,1152.22 1006.09,1150.05 1004.32,1147.9 1002.51,1145.78 1000.66,1143.68 998.787,1141.62 996.881,1139.58 994.944,1137.57 992.976,1135.59 "/>
     <polygon id="_303067192" class="fil1" points="642.739,846.738 1778.62,1982.62 1778.62,2035.8 642.739,899.917 "/>
     <polygon id="_303067624" class="fil1" points="1320.68,1388.07 2456.56,2523.95 2456.24,2529.09 2455.79,2534.19 2455.22,2539.24 2454.52,2544.23 2453.71,2549.19 2452.77,2554.09 2451.72,2558.94 2450.55,2563.74 2449.26,2568.48 2447.87,2573.17 2446.36,2577.81 2444.74,2582.39 2443.01,2586.91 2441.18,2591.37 2439.24,2595.78 2437.2,2600.12 2435.05,2604.4 2432.81,2608.62 2430.47,2612.77 2428.03,2616.86 2425.49,2620.88 2422.86,2624.84 2420.14,2628.73 2417.33,2632.55 2414.43,2636.29 2411.44,2639.97 2408.36,2643.57 2405.2,2647.1 2401.96,2650.55 2398.64,2653.93 2395.24,2657.23 2391.76,2660.45 1255.87,1524.57 1259.35,1521.35 1262.76,1518.05 1266.08,1514.67 1269.32,1511.22 1272.48,1507.69 1275.56,1504.09 1278.55,1500.41 1281.45,1496.66 1284.26,1492.84 1286.98,1488.96 1289.61,1485 1292.15,1480.98 1294.59,1476.89 1296.93,1472.74 1299.17,1468.52 1301.32,1464.24 1303.36,1459.89 1305.3,1455.49 1307.13,1451.03 1308.86,1446.51 1310.48,1441.93 1311.98,1437.29 1313.38,1432.6 1314.67,1427.85 1315.84,1423.06 1316.89,1418.21 1317.83,1413.3 1318.64,1408.35 1319.34,1403.35 1319.91,1398.31 1320.36,1393.21 "/>
     <polygon id="_303067696" class="fil1" points="642.739,979.685 1778.62,2115.57 1752.03,2115.57 616.149,979.685 "/>
     <polygon id="_303067528" class="fil1" points="1110.22,1579.42 2246.1,2715.3 2198.3,2715.22 1062.42,1579.34 "/>
     <polygon id="_303067552" class="fil1" points="1056.22,1579.42 2192.1,2715.3 1758.84,2714.56 622.961,1578.68 "/>
     <polygon id="_303067360" class="fil1" points="642.739,1059.45 1778.62,2195.33 1752.03,2195.33 616.149,1059.45 "/>
     <polygon id="_303067720" class="fil1" points="642.739,926.506 1778.62,2062.39 1778.62,2115.57 642.739,979.685 "/>
     <polygon id="_303068104" class="fil1" points="642.739,1006.27 1778.62,2142.16 1778.62,2195.33 642.739,1059.45 "/>
     <polygon id="_303067864" class="fil1" points="1255.87,1524.57 2391.76,2660.45 2388.14,2663.65 2384.44,2666.76 2380.67,2669.79 2376.82,2672.73 2372.91,2675.58 2368.92,2678.35 2364.86,2681.02 2360.74,2683.6 2356.55,2686.1 2352.3,2688.5 2347.98,2690.8 2343.61,2693.01 2339.17,2695.12 2334.68,2697.13 2330.14,2699.05 2325.54,2700.86 2320.89,2702.58 2316.19,2704.19 2311.44,2705.69 2306.65,2707.09 2301.81,2708.39 2296.92,2709.58 2292,2710.66 2287.04,2711.63 2282.03,2712.49 2276.99,2713.24 2271.92,2713.87 2266.82,2714.39 2261.68,2714.79 2256.51,2715.08 2251.32,2715.25 2246.1,2715.3 1110.22,1579.42 1115.44,1579.37 1120.63,1579.2 1125.8,1578.91 1130.93,1578.51 1136.04,1577.99 1141.11,1577.35 1146.15,1576.61 1151.15,1575.75 1156.12,1574.78 1161.04,1573.7 1165.92,1572.51 1170.77,1571.21 1175.56,1569.81 1180.31,1568.3 1185.01,1566.69 1189.66,1564.98 1194.26,1563.17 1198.8,1561.25 1203.29,1559.24 1207.73,1557.13 1212.1,1554.92 1216.41,1552.61 1220.67,1550.21 1224.86,1547.72 1228.98,1545.14 1233.04,1542.46 1237.02,1539.7 1240.94,1536.85 1244.79,1533.9 1248.56,1530.88 1252.26,1527.77 "/>
    </g>
    <path id="_308721664" class="fil1" d="M1101.04 814.168l468.148 0c8.14725,0 14.8134,6.67441 14.8134,14.8146l0 270.62c0,8.14016 -6.67323,14.8146 -14.8134,14.8146l-207.091 0 0 54.3792 13.8177 0 0 8.83111 -81.6012 0 0 -8.83111 13.8177 0 0 -54.3792 -207.091 0c-8.14134,0 -14.8146,-6.66733 -14.8146,-14.8146l0 -270.62c0,-8.14725 6.66615,-14.8146 14.8146,-14.8146zm30.0697 -193.439l0 26.5902 -53.1792 0 0 -26.5902 53.1792 0zm254.106 118.143l0 53.1792 -26.5902 0 0 -53.1792 26.5902 0zm0 -79.767l0 53.178 -26.5902 0 0 -53.178 26.5902 0zm-14.8028 -38.3764l0 26.5902 -53.1792 0 0 -26.5902 53.1792 0zm-79.7682 0l0 26.5902 -53.178 0 0 -26.5902 53.178 0zm-79.767 0l0 26.5902 -53.1792 0 0 -26.5902 53.1792 0zm-81.5446 555.908c55.6229,2.79095 104.855,27.8705 139.481,66.156 34.6288,38.2902 54.6556,89.7414 51.867,145.279 -2.76378,55.0607 -27.2693,102.549 -64.806,136.499 -38.1827,34.5331 -89.8394,54.9437 -145.658,54.8493l-47.7945 -0.0814961c-2.06103,0.0578741 -4.12914,0.0850394 -6.20315,0.0814961l-433.257 -0.740552c-2.81221,-0.00354331 -5.29134,-0.0614174 -7.43977,-0.168898 -43.291,-2.17323 -81.3485,-22.3358 -108.5,-52.7611 -26.8807,-30.124 -43.0949,-70.4564 -43.0217,-113.346 0.00472441,-2.71063 0.0543308,-5.17914 0.152362,-7.39725 -0.105118,-2.60079 -0.157087,-5.21221 -0.152362,-7.8319 0.00590552,-3.30473 0.0744095,-6.28111 0.206693,-8.91261 2.51221,-50.0788 25.0914,-94.402 59.5619,-125.577 30.1984,-27.3107 69.4867,-44.5335 112.37,-46.6985l-19.9902 0 0 -50.1768 26.5902 0 0 49.963c3.913,-0.0555119 7.85316,0.0153543 11.8169,0.21378 9.36969,0.468898 18.3886,1.59921 27.0201,3.33307 5.13544,-10.7599 11.3858,-20.8642 18.5941,-30.1713 11.0539,-24.1666 27.2256,-45.4063 47.0634,-62.4036 34.0347,-29.1626 78.8528,-45.8481 127.12,-43.4256 40.4516,2.03032 77.1461,17.1496 106.193,41.0504 23.0221,18.9461 41.237,43.4103 52.7056,71.2477 10.8756,-5.13662 22.2839,-9.33308 34.115,-12.4878 19.6772,-5.24764 40.5095,-7.56851 61.9654,-6.49252zm-62.6528 -690.12l0 327.651c0,9.85749 -8.07993,17.9362 -17.9362,17.9362l-250.734 0 0 65.8406 16.7291 0 0 10.6913 -98.7981 0 0 -10.6913 16.7303 0 0 -65.8406 -250.735 0c-9.85631,0 -17.9351,-8.07166 -17.9351,-17.9362l0 -327.651c0,-9.86576 8.07048,-17.9374 17.9351,-17.9374l566.808 0c9.86457,0 17.9362,8.07993 17.9362,17.9374zm-423.94 360.221l0 53.1792 -26.5902 0 0 -53.1792 26.5902 0zm0 239.305l0 53.178 -26.5902 0 0 -53.178 26.5902 0zm0 -79.7682l0 53.178 -26.5902 0 0 -53.178 26.5902 0zm0 -79.7682l0 53.1792 -26.5902 0 0 -53.1792 26.5902 0z"/>
   </g>
  </g>
  <path class="fil2" d="M1024 0c565.541,0 1024,458.459 1024,1024 0,565.541 -458.459,1024 -1024,1024 -565.541,0 -1024,-458.459 -1024,-1024 0,-565.541 458.459,-1024 1024,-1024z"/>
  <rect class="fil3" x="732.67" y="824.687" width="65.3389" height="76.5319"/>
  <rect class="fil3" x="715.94" y="897.944" width="98.7978" height="10.6916"/>
  <path class="fil4" d="M481.935 468.58l566.808 0c9.86457,0 17.9362,8.07875 17.9362,17.9362l0 327.651c0,9.85631 -8.07993,17.9362 -17.9362,17.9362l-566.808 0c-9.85631,0 -17.9362,-8.07048 -17.9362,-17.9362l0 -327.651c0,-9.86576 8.07166,-17.9362 17.9362,-17.9362z"/>
  <circle class="fil5" cx="735.558" cy="808.14" r="8.66858"/>
  <circle class="fil6" cx="735.558" cy="808.14" r="6.31082"/>
  <circle class="fil5" cx="765.339" cy="808.14" r="8.66858"/>
  <circle class="fil7" cx="765.339" cy="808.14" r="6.31082"/>
  <circle class="fil8" cx="795.12" cy="808.14" r="8.66858"/>
  <path class="fil9" d="M499.843 486.517l530.992 0c9.24213,0 16.8036,6.83032 16.8036,15.163l0 269.675c0,8.33268 -7.56969,15.1642 -16.8036,15.1642l-530.992 0c-9.23387,0 -16.8036,-6.82323 -16.8036,-15.1642l0 -269.675c0,-8.33977 7.56142,-15.163 16.8036,-15.163z"/>
  <path class="fil10" d="M1129.33 1176.64c55.6241,2.79095 104.856,27.8705 139.481,66.1548 34.6288,38.2914 54.6556,89.7438 51.867,145.28 -2.76378,55.0607 -27.2681,102.549 -64.806,136.499 -38.1839,34.5319 -89.8394,54.9437 -145.658,54.8493l-472.76 -0.807875c-3.06969,-0.00472441 -5.77559,-0.0673229 -8.1189,-0.184252 -47.2382,-2.37166 -88.7658,-24.3732 -118.391,-57.5729 -29.3315,-32.8701 -47.0256,-76.8804 -46.9453,-123.679 0.00472441,-3.30591 0.0744095,-6.28229 0.205512,-8.91379 2.51457,-50.0788 25.0925,-94.402 59.563,-125.577 34.474,-31.1776 80.7957,-49.2071 130.787,-46.6985 10.3831,0.520867 20.3374,1.85079 29.8075,3.91772 1.57441,0.343701 3.1441,0.709843 4.70906,1.09724 9.23268,-37.4587 30.0024,-70.1315 58.1611,-94.2568 34.0347,-29.1626 78.8528,-45.8481 127.12,-43.4256 40.4516,2.03032 77.1473,17.1496 106.193,41.0504 23.0221,18.9461 41.237,43.4103 52.7056,71.2477 10.8744,-5.1378 22.2839,-9.33308 34.115,-12.489 19.6784,-5.24646 40.5095,-7.56851 61.9654,-6.49134z"/>
  <path class="fil11" d="M1073.74 1210.29c50.9752,2.55827 96.0946,25.5414 127.826,60.6272 31.7362,35.0906 50.0882,82.2438 47.5335,133.14 -2.53347,50.4591 -24.9898,93.9804 -59.3918,125.093 -34.9925,31.6477 -82.3323,50.354 -133.487,50.2666l-433.257 -0.740552c-2.81221,-0.00354331 -5.29252,-0.0614174 -7.43977,-0.168898 -43.291,-2.17323 -81.3485,-22.3358 -108.499,-52.7622 -26.8819,-30.1229 -43.0961,-70.4552 -43.0229,-113.345 0.00472441,-3.02953 0.0673229,-5.7567 0.188977,-8.16851 2.30315,-45.8941 22.9949,-86.5146 54.5859,-115.084 31.5933,-28.5733 74.0445,-45.0957 119.858,-42.7961 9.51615,0.475985 18.6378,1.69606 27.3166,3.59055 1.44331,0.315355 2.88189,0.649607 4.31575,1.00512 8.46142,-34.3288 27.4961,-64.2721 53.3008,-86.3812 31.1906,-26.7248 72.2646,-42.0166 116.498,-39.7973 37.0713,1.86142 70.7008,15.7169 97.3194,37.6217 21.0992,17.3622 37.7918,39.7819 48.3024,65.2938 9.96497,-4.70788 20.4213,-8.55355 31.2638,-11.4449 18.0331,-4.80945 37.1244,-6.93662 56.7874,-5.94922z"/>
  <rect class="fil3" x="1308.13" y="1108.29" width="53.9659" height="63.2106"/>
  <rect class="fil3" x="1294.31" y="1168.8" width="81.6009" height="8.83061"/>
  <path class="fil4" d="M1101.04 814.168l468.148 0c8.14843,0 14.8134,6.67323 14.8134,14.8146l0 270.62c0,8.14134 -6.67205,14.8146 -14.8134,14.8146l-468.148 0c-8.14134,0 -14.8146,-6.66615 -14.8146,-14.8146l0 -270.62c0,-8.14843 6.66615,-14.8146 14.8146,-14.8146z"/>
  <circle class="fil5" cx="1310.51" cy="1094.62" r="7.15972"/>
  <circle class="fil6" cx="1310.51" cy="1094.62" r="5.21235"/>
  <circle class="fil5" cx="1335.11" cy="1094.62" r="7.15972"/>
  <circle class="fil7" cx="1335.11" cy="1094.62" r="5.21235"/>
  <circle class="fil8" cx="1359.71" cy="1094.62" r="7.15972"/>
  <path class="fil9" d="M1115.83 828.982l438.567 0c7.63347,0 13.8791,5.64213 13.8791,12.5244l0 222.736c0,6.88111 -6.25276,12.5232 -13.8791,12.5232l-438.567 0c-7.62638,0 -13.878,-5.63504 -13.878,-12.5232l0 -222.736c0,-6.88819 6.24449,-12.5244 13.878,-12.5244z"/>
  <path class="fil12" d="M642.739 899.917l-26.5902 0 0 -53.1792 26.5902 0 0 53.1792zm0 316.069l0 -50.1768 -26.5902 0 0 50.1768 26.5902 0zm0 -76.7658l-26.5902 0 0 -53.178 26.5902 0 0 53.178zm0 -79.7682l-26.5902 0 0 -53.178 26.5902 0 0 53.178zm0 -79.767l-26.5902 0 0 -53.1792 26.5902 0 0 53.1792z"/>
  <path class="fil12" d="M1131.11 620.729l0 26.5902 -53.1792 0 0 -26.5902 53.1792 0zm254.106 171.323l-26.5902 0 0 -53.1792 26.5902 0 0 53.1792zm0 -79.7682l-26.5902 0 0 -53.178 26.5902 0 0 53.178zm-14.8028 -91.5544l0 26.5902 -53.1792 0 0 -26.5902 53.1792 0zm-79.7682 0l0 26.5902 -53.178 0 0 -26.5902 53.178 0zm-79.767 0l0 26.5902 -53.1792 0 0 -26.5902 53.1792 0z"/>
 </g>
</svg>
