<svg xmlns="http://www.w3.org/2000/svg" width="128" height="128" viewBox="0 0 128 128">
  <title>COLOR PALETTE</title>
  <g>
    <g>
      <rect x="1.75" y="96.141" width="36.854" height="30.106" fill="#4d5e80"/>
      <rect x="38.604" y="96.141" width="29.909" height="30.106" fill="#ffdf40"/>
      <rect x="98.423" y="96.141" width="27.827" height="30.106" fill="#ffdf40"/>
      <rect x="68.513" y="96.141" width="29.91" height="30.106" fill="#ffbe40"/>
      <rect x="86.076" y="50.061" width="27.827" height="30.106" transform="translate(-19.161 58.718) rotate(-30)" fill="#4d5e80"/>
      <rect x="52.343" y="16.328" width="27.827" height="30.106" transform="matrix(0.5, -0.866, 0.866, 0.5, 5.951, 73.071)" fill="#7986cb"/>
      <rect x="1.75" y="1.747" width="30.106" height="29.969" fill="#ff7f40"/>
      <path d="M13.687,111.194a6.49,6.49,0,1,1,6.49,6.489A6.49,6.49,0,0,1,13.687,111.194Z" fill="#3d4566"/>
      <polygon points="54.511 73.989 67.3 96.141 67.3 96.141 54.511 73.989" fill="none"/>
      <polygon points="16.144 96.141 67.3 96.141 54.511 73.989 16.144 96.141" fill="#f3f5f9"/>
      <polygon points="76.356 96.141 95.467 85.107 80.413 59.034 54.511 73.989 67.3 96.141 76.356 96.141" fill="#e1e6f0"/>
      <polygon points="61.303 70.068 72.336 50.958 46.263 35.904 31.309 61.807 53.46 74.596 61.303 70.068" fill="#5c6bc0"/>
      <polygon points="31.309 61.807 11.486 96.141 16.144 96.141 53.46 74.596 31.309 61.807" fill="#7986cb"/>
      <polygon points="1.75 63.929 1.75 96.141 11.486 96.141 30.084 63.929 1.75 63.929" fill="#ff7f40"/>
      <polygon points="31.856 60.858 31.856 31.717 1.75 31.717 1.75 63.929 30.084 63.929 31.856 60.858" fill="#f25a3c"/>
    </g>
    <g>
      <path d="M126.25,94.391H82.888l13.454-7.768,7.039-4.064a1.75,1.75,0,0,0-1.75-3.032l-5.524,3.19L89.456,71.2,82.8,59.675l21.068-12.163L118.05,72.069a1.75,1.75,0,1,0,3.031-1.75L106.028,44.246a1.75,1.75,0,0,0-2.39-.641l-24.1,13.914L66.084,65.286,73.85,51.837l0,0,13.914-24.1a1.75,1.75,0,0,0-.641-2.39L61.052,10.29a1.75,1.75,0,0,0-2.39.641l-13.914,24.1a1.751,1.751,0,0,0,.641,2.391L69.946,51.6,60.022,68.786,54.23,72.131l-.594.343-.175.1-18.186-10.5-1.576-.91,8.253-14.293a1.75,1.75,0,1,0-3.032-1.75l-5.314,9.2V1.747A1.749,1.749,0,0,0,31.856,0H1.75A1.75,1.75,0,0,0,0,1.747v124.5A1.75,1.75,0,0,0,1.75,128h124.5a1.749,1.749,0,0,0,1.75-1.75V96.141A1.749,1.749,0,0,0,126.25,94.391ZM60.818,14.2,83.859,27.5,71.7,48.567,48.844,35.373l-.19-.109ZM38.6,94.391H22.675l31.2-18.011,10.4,18.011ZM3.5,65.679H27.052L23,72.7,10.476,94.391H3.5ZM35.706,82.825,15.674,94.391H14.518L28.633,69.942,31.6,64.8l.35-.607L49.96,74.6ZM68.514,94.391h-.2L57,74.8l-.1-.167,22.87-13.2,6.652,11.521,6.652,11.521L75.888,94.391ZM29.793,60.932l-.72,1.247H3.5V33.467H30.106V60.389ZM3.5,3.5H30.106v26.47H3.5Zm0,94.394H36.854V124.5H3.5Zm36.854,0h26.41V124.5H40.354Zm29.91,0H96.673V124.5H70.264ZM124.5,124.5H100.173V97.891H124.5Z"/>
      <path d="M111.8,73.659l-3.271,1.888a1.75,1.75,0,1,0,1.75,3.031l3.271-1.888a1.75,1.75,0,0,0-1.75-3.031Z"/>
      <path d="M20.177,102.954a8.24,8.24,0,1,0,8.239,8.239A8.249,8.249,0,0,0,20.177,102.954Zm0,12.98a4.74,4.74,0,1,1,4.739-4.741A4.746,4.746,0,0,1,20.177,115.934Z"/>
    </g>
  </g>
</svg>
