<svg xmlns="http://www.w3.org/2000/svg" viewBox="0 0 60 60"><defs><style>.cls-1{fill:#e9edf5;}.cls-2{fill:#bec3d2;}.cls-3{fill:#65b1fc;}.cls-4{fill:#87c7ff;}.cls-5{fill:#a3d4ff;}.cls-6{fill:#4a98f7;}.cls-7{fill:#f2f6fc;}.cls-8{fill:#bfe1ff;}.cls-9{fill:#2b1505;}.cls-10{fill:#4a74f7;}</style></defs><title>39-Computer</title><g id="_39-Computer" data-name="39-Computer"><polygon class="cls-1" points="43 54 44 57 43 58 17 58 16 57 17 54 20 54 40 54 43 54"/><path class="cls-2" d="M40,54H20c3.5-3.5,3-6,3-6H37S36.5,50.5,40,54Z"/><circle class="cls-2" cx="30" cy="42" r="2"/><path class="cls-1" d="M59,36v8a4,4,0,0,1-4,4H5a4,4,0,0,1-4-4V36ZM32,42a2,2,0,1,0-2,2A2.006,2.006,0,0,0,32,42Z"/><path class="cls-3" d="M59,6V36H1V6A4,4,0,0,1,5,2H55A4,4,0,0,1,59,6Z"/><path class="cls-4" d="M18.039,2H5A4,4,0,0,0,1,6V17.686A31.1,31.1,0,0,1,18.039,2Z"/><path class="cls-5" d="M2.092,36A37.508,37.508,0,0,1,30.911,2H18.039A31.1,31.1,0,0,0,1,17.686V36Z"/><path class="cls-6" d="M30,27a8,8,0,1,1,8-8A8,8,0,0,1,30,27Zm-4-5a1,1,0,1,0,1-1A1,1,0,0,0,26,22Z"/><path class="cls-7" d="M30,7A17.982,17.982,0,0,1,46.95,19a17.971,17.971,0,0,1-33.9,0A17.982,17.982,0,0,1,30,7Zm8,12a8,8,0,1,0-8,8A8,8,0,0,0,38,19Z"/><circle class="cls-3" cx="6" cy="7" r="1"/><circle class="cls-8" cx="6" cy="11" r="1"/><circle class="cls-8" cx="6" cy="15" r="1"/><circle class="cls-8" cx="6" cy="19" r="1"/><circle class="cls-6" cx="6" cy="23" r="1"/><circle class="cls-6" cx="6" cy="27" r="1"/><circle class="cls-6" cx="6" cy="31" r="1"/><circle class="cls-6" cx="9" cy="29" r="1"/><circle class="cls-6" cx="9" cy="25" r="1"/><circle class="cls-6" cx="9" cy="21" r="1"/><circle class="cls-6" cx="9" cy="17" r="1"/><circle class="cls-8" cx="9" cy="13" r="1"/><circle class="cls-8" cx="9" cy="9" r="1"/><circle class="cls-8" cx="12" cy="7" r="1"/><circle class="cls-8" cx="12" cy="11" r="1"/><circle class="cls-6" cx="12" cy="27" r="1"/><circle class="cls-6" cx="12" cy="31" r="1"/><circle class="cls-6" cx="15" cy="29" r="1"/><circle class="cls-8" cx="15" cy="9" r="1"/><circle class="cls-8" cx="18" cy="7" r="1"/><circle class="cls-6" cx="18" cy="31" r="1"/><circle class="cls-6" cx="42" cy="7" r="1"/><circle class="cls-6" cx="42" cy="31" r="1"/><circle class="cls-6" cx="45" cy="29" r="1"/><circle class="cls-6" cx="45" cy="9" r="1"/><circle class="cls-6" cx="48" cy="7" r="1"/><circle class="cls-6" cx="48" cy="11" r="1"/><circle class="cls-6" cx="48" cy="27" r="1"/><circle class="cls-6" cx="48" cy="31" r="1"/><circle class="cls-6" cx="54" cy="7" r="1"/><circle class="cls-6" cx="54" cy="11" r="1"/><circle class="cls-6" cx="54" cy="15" r="1"/><circle class="cls-6" cx="54" cy="19" r="1"/><circle class="cls-6" cx="54" cy="23" r="1"/><circle class="cls-6" cx="54" cy="27" r="1"/><circle class="cls-6" cx="54" cy="31" r="1"/><circle class="cls-6" cx="51" cy="29" r="1"/><circle class="cls-6" cx="51" cy="25" r="1"/><circle class="cls-6" cx="51" cy="21" r="1"/><circle class="cls-6" cx="51" cy="17" r="1"/><circle class="cls-6" cx="51" cy="13" r="1"/><circle class="cls-6" cx="51" cy="9" r="1"/><path class="cls-9" d="M55,1H5A5.006,5.006,0,0,0,0,6V44a5.006,5.006,0,0,0,5,5H21.948a8.437,8.437,0,0,1-2.37,4H17a1,1,0,0,0-.949.684l-1,3a1,1,0,0,0,.242,1.023l1,1A1,1,0,0,0,17,59H43a1,1,0,0,0,.707-.293l1-1a1,1,0,0,0,.242-1.023l-1-3A1,1,0,0,0,43,53H40.422a8.478,8.478,0,0,1-2.373-4H55a5.006,5.006,0,0,0,5-5V6A5.006,5.006,0,0,0,55,1ZM5,3H55a3,3,0,0,1,3,3V35H2V6A3,3,0,0,1,5,3ZM42.856,56.729l-.27.271H17.414l-.27-.271L17.721,55H42.279ZM37.813,53H22.187a8.652,8.652,0,0,0,1.795-4H36.018A8.652,8.652,0,0,0,37.813,53ZM55,47H5a3,3,0,0,1-3-3V37H58v7A3,3,0,0,1,55,47Z"/><path class="cls-9" d="M30,39a3,3,0,1,0,3,3A3,3,0,0,0,30,39Zm0,4a1,1,0,1,1,1-1A1,1,0,0,1,30,43Z"/><path class="cls-9" d="M30,32A19.025,19.025,0,0,0,47.9,19.334a1,1,0,0,0,0-.668,18.976,18.976,0,0,0-35.792,0,1,1,0,0,0,0,.668A19.025,19.025,0,0,0,30,32ZM30,8A17.02,17.02,0,0,1,45.889,19a16.975,16.975,0,0,1-31.778,0A17.02,17.02,0,0,1,30,8Z"/><path class="cls-9" d="M30,28a9,9,0,1,0-9-9A9.01,9.01,0,0,0,30,28Zm0-16a7,7,0,1,1-7,7A7.008,7.008,0,0,1,30,12Z"/><path class="cls-9" d="M26,20a1,1,0,0,0,1-1,3,3,0,0,1,3-3,1,1,0,0,0,0-2,5.006,5.006,0,0,0-5,5A1,1,0,0,0,26,20Z"/><circle class="cls-10" cx="27" cy="22" r="1"/></g></svg>