<?xml version="1.0" encoding="utf-8"?>
<!-- Generator: Adobe Illustrator 24.0.0, SVG Export Plug-In . SVG Version: 6.00 Build 0)  -->
<svg version="1.1" id="Layer_1" xmlns="http://www.w3.org/2000/svg" xmlns:xlink="http://www.w3.org/1999/xlink" x="0px" y="0px"
	 viewBox="0 0 256 256" style="enable-background:new 0 0 256 256;" xml:space="preserve">
<style type="text/css">
	.st0{fill:#382B73;}
	.st1{fill:#291B4A;}
	.st2{fill:#ED9ABC;}
	.st3{fill:#E54890;}
	.st4{fill:#D3D3D3;}
	.st5{fill:#EBE7F2;}
	.st6{fill:#F9B087;}
	.st7{fill:#FF8639;}
	.st8{fill:#65C1D6;}
	.st9{fill:#149CB2;}
</style>
<g>
	<g>
		<g>
			<g>
				<g>
					
						<ellipse transform="matrix(0.7071 -0.7071 0.7071 0.7071 -53.0193 128)" class="st0" cx="128" cy="128" rx="119.4" ry="119.4"/>
				</g>
			</g>
		</g>
	</g>
	<g>
		<g>
			<g>
				<g>
					<path class="st1" d="M136.645,55.358l-99.099,99.099c-3.384,3.385-3.384,8.891,0,12.275l6.009,6.009
						c1.692,1.692,3.915,2.539,6.138,2.539s4.446-0.846,6.138-2.539l99.098-99.098c3.385-3.384,3.385-8.891,0-12.275l-6.009-6.009
						C145.537,51.974,140.03,51.974,136.645,55.358z M52.295,169.205c-1.391,1.39-3.814,1.39-5.205,0l-6.009-6.009
						c-1.435-1.435-1.435-3.77,0-5.205l63.511-63.511l11.213,11.214L52.295,169.205z M119.341,102.16l-11.213-11.214l25.327-25.326
						l11.213,11.213L119.341,102.16z M151.394,64.902c0.695,0.695,1.078,1.62,1.078,2.603s-0.383,1.907-1.078,2.603l-3.191,3.191
						l-11.213-11.213l3.191-3.191c0.718-0.718,1.66-1.076,2.603-1.076s1.885,0.358,2.602,1.076L151.394,64.902z"/>
				</g>
			</g>
		</g>
		<g>
			<g>
				<g>
					<path class="st1" d="M146.509,93.704c-0.92-1.027-2.5-1.115-3.53-0.193c-1.028,0.921-1.115,2.502-0.193,3.53
						c7.713,8.607,15.122,17.676,22.021,26.955c0.983,1.322,2.458,2.048,4.016,2.048c0.539,0,1.087-0.087,1.628-0.266
						c2.105-0.697,3.465-2.58,3.465-4.797v-1.796c0-9.592-2.978-18.768-8.614-26.533c-2.449-3.374-5.025-6.713-7.657-9.927
						c-0.875-1.068-2.45-1.226-3.518-0.35c-1.068,0.875-1.225,2.45-0.35,3.518c2.57,3.139,5.087,6.401,7.479,9.697
						c5.011,6.905,7.66,15.064,7.659,23.595l0.007,1.823l-0.103,0.004C161.829,111.612,154.323,102.424,146.509,93.704z"/>
				</g>
			</g>
		</g>
		<g>
			<g>
				<g>
					<path class="st1" d="M114.698,49.032c3.228,2.342,6.432,4.812,9.525,7.339c1.07,0.874,2.645,0.715,3.518-0.354
						c0.874-1.069,0.715-2.644-0.354-3.518c-3.167-2.587-6.448-5.115-9.752-7.514c-7.764-5.635-16.938-8.613-26.531-8.613h-2.162
						c-2.165,0-4.002,1.328-4.683,3.382s0.002,4.217,1.742,5.51l0.291,0.216c9.217,6.853,18.23,14.212,26.79,21.874
						c0.478,0.427,1.073,0.637,1.667,0.637c0.687,0,1.37-0.281,1.864-0.833c0.921-1.029,0.833-2.609-0.195-3.53
						c-8.672-7.762-17.804-15.218-27.144-22.162l-0.126-0.094h1.957C99.634,41.372,107.793,44.021,114.698,49.032z"/>
				</g>
			</g>
		</g>
		<g>
			<g>
				<g>
					<path class="st1" d="M105.531,202.443c0,6.167,5.018,11.185,11.185,11.185h73.096c6.167,0,11.185-5.018,11.185-11.185v-47.972
						c0-6.167-5.018-11.185-11.185-11.185h-41.582l-3.711-6.68c-1.533-2.759-4.446-4.473-7.602-4.473h-22.688
						c-4.795,0-8.696,3.901-8.696,8.696v12.599c0,0.119,0.019,0.234,0.035,0.349c-0.014,0.231-0.035,0.46-0.035,0.694V202.443z
						 M110.531,140.83c0-2.038,1.658-3.696,3.696-3.696h22.688c1.342,0,2.58,0.729,3.231,1.901l2.362,4.252h-25.793
						c-2.286,0-4.412,0.692-6.185,1.874V140.83z M110.531,154.472c0-3.41,2.774-6.185,6.185-6.185h73.096
						c3.411,0,6.185,2.774,6.185,6.185v47.972c0,3.41-2.774,6.185-6.185,6.185h-73.096c-3.41,0-6.185-2.774-6.185-6.185V154.472z"/>
				</g>
			</g>
		</g>
		<g>
			<g>
				<g>
					<path class="st1" d="M133.804,164.755v27.405c0,3.174,2.583,5.756,5.756,5.756h27.406c3.174,0,5.756-2.583,5.756-5.756v-27.405
						c0-3.174-2.582-5.756-5.756-5.756h-27.406C136.387,158.999,133.804,161.581,133.804,164.755z M138.804,164.755
						c0-0.417,0.339-0.756,0.756-0.756h27.406c0.417,0,0.756,0.339,0.756,0.756v27.405c0,0.417-0.339,0.756-0.756,0.756h-27.406
						c-0.417,0-0.756-0.339-0.756-0.756V164.755z"/>
				</g>
			</g>
		</g>
		<g>
			<g>
				<g>
					<path class="st1" d="M142.96,172.721c0,1.381,1.119,2.5,2.5,2.5h7.803c1.381,0,2.5-1.119,2.5-2.5s-1.119-2.5-2.5-2.5h-7.803
						C144.08,170.221,142.96,171.34,142.96,172.721z"/>
				</g>
			</g>
		</g>
		<g>
			<g>
				<g>
					<path class="st1" d="M142.96,183.849c0,1.381,1.119,2.5,2.5,2.5h15.605c1.381,0,2.5-1.119,2.5-2.5s-1.119-2.5-2.5-2.5H145.46
						C144.08,181.349,142.96,182.468,142.96,183.849z"/>
				</g>
			</g>
		</g>
	</g>
	<g>
		<g>
			<g>
				<g>
					<g>
						<g>
							<g>
								<g>
									<g>
										<g>
											<path class="st6" d="M136.645,50.358l-99.099,99.099c-3.384,3.385-3.384,8.891,0,12.275l6.009,6.009
												c1.692,1.692,3.915,2.539,6.138,2.539s4.446-0.846,6.138-2.539l99.098-99.098c3.385-3.384,3.385-8.891,0-12.275
												l-6.009-6.009C145.537,46.974,140.03,46.974,136.645,50.358z M151.394,59.902c0.695,0.695,1.078,1.62,1.078,2.603
												s-0.383,1.907-1.078,2.603l-99.098,99.098c-1.391,1.39-3.814,1.39-5.205,0l-6.009-6.009c-1.435-1.435-1.435-3.77,0-5.205
												l99.099-99.098c0.718-0.718,1.66-1.076,2.603-1.076s1.885,0.358,2.602,1.076L151.394,59.902z"/>
										</g>
									</g>
								</g>
							</g>
						</g>
					</g>
				</g>
				<g>
					<g>
						<g>
							<g>
								<g>
									<g>
										<g>
											<path class="st6" d="M146.509,88.704c-0.92-1.027-2.5-1.115-3.53-0.193c-1.028,0.921-1.115,2.502-0.193,3.53
												c7.713,8.607,15.122,17.676,22.021,26.955c0.983,1.322,2.458,2.048,4.016,2.048c0.539,0,1.087-0.087,1.628-0.266
												c2.105-0.697,3.465-2.58,3.465-4.797v-1.796c0-9.592-2.978-18.768-8.614-26.533c-2.449-3.374-5.025-6.713-7.657-9.927
												c-0.875-1.068-2.45-1.226-3.518-0.35c-1.068,0.875-1.225,2.45-0.35,3.518c2.57,3.139,5.087,6.401,7.479,9.697
												c5.011,6.905,7.66,15.064,7.659,23.595l0.007,1.823l-0.103,0.004C161.829,106.612,154.323,97.424,146.509,88.704z"/>
										</g>
									</g>
								</g>
								<g>
									<g>
										<g>
											<path class="st6" d="M91.103,36.372c8.531,0,16.69,2.649,23.595,7.66c3.228,2.342,6.432,4.812,9.525,7.339
												c1.07,0.874,2.645,0.714,3.518-0.354c0.874-1.069,0.715-2.644-0.354-3.518c-3.167-2.587-6.448-5.115-9.752-7.514
												c-7.764-5.635-16.938-8.613-26.531-8.613c0,0-0.002,0-0.002,0h-2.159c-2.165,0-4.002,1.328-4.683,3.382
												s0.002,4.217,1.742,5.51l0.291,0.216c9.217,6.853,18.23,14.212,26.79,21.874c0.478,0.427,1.073,0.637,1.667,0.637
												c0.687,0,1.37-0.281,1.864-0.833c0.921-1.029,0.833-2.609-0.195-3.53c-8.672-7.762-17.804-15.218-27.144-22.162
												l-0.126-0.094h1.955C91.102,36.372,91.102,36.372,91.103,36.372z"/>
										</g>
									</g>
								</g>
							</g>
						</g>
					</g>
				</g>
			</g>
			<g>
				<g>
					<g>
						<path class="st6" d="M102.825,84.178c-0.977,0.976-0.977,2.559,0,3.535l14.749,14.749c0.488,0.488,1.128,0.732,1.768,0.732
							s1.28-0.244,1.768-0.732c0.977-0.976,0.977-2.559,0-3.535L106.36,84.178C105.384,83.202,103.8,83.202,102.825,84.178z"/>
					</g>
				</g>
			</g>
			<g>
				<g>
					<g>
						<path class="st6" d="M131.687,55.317c-0.977,0.976-0.977,2.559,0,3.535l14.749,14.749c0.488,0.488,1.128,0.732,1.768,0.732
							s1.28-0.244,1.768-0.732c0.977-0.976,0.977-2.559,0-3.535l-14.749-14.749C134.246,54.34,132.662,54.34,131.687,55.317z"/>
					</g>
				</g>
			</g>
		</g>
		<g>
			<g>
				<g>
					<g>
						<path class="st7" d="M105.653,88.421c-0.281-0.281-0.663-0.439-1.061-0.439c-0.398,0-0.779,0.158-1.061,0.439l-63.511,63.511
							c-2.019,2.02-2.019,5.306,0,7.326l6.009,6.009c0.942,0.941,2.277,1.481,3.663,1.481c1.386,0,2.721-0.54,3.663-1.482
							l63.51-63.51c0.586-0.586,0.586-1.536,0-2.121L105.653,88.421z M52.295,164.205c-0.695,0.695-1.649,1.042-2.603,1.042
							s-1.907-0.347-2.603-1.042l-6.009-6.009c-1.435-1.435-1.435-3.77,0-5.205l63.511-63.511l11.213,11.214L52.295,164.205z"/>
						<path class="st7" d="M136.645,50.358l-99.099,99.099c-3.384,3.385-3.384,8.891,0,12.275l6.009,6.009
							c1.692,1.692,3.915,2.539,6.138,2.539s4.446-0.846,6.138-2.539l99.098-99.098c3.385-3.384,3.385-8.891,0-12.275l-6.009-6.009
							c-1.691-1.692-3.914-2.538-6.137-2.538S138.337,48.666,136.645,50.358z M153.868,57.427c1.354,1.353,2.099,3.156,2.099,5.077
							c0,1.92-0.745,3.723-2.099,5.077L54.77,166.68c-1.353,1.354-3.156,2.099-5.077,2.099s-3.724-0.745-5.077-2.099l-6.009-6.009
							c-2.799-2.799-2.799-7.354,0-10.154l99.099-99.099c1.354-1.353,3.157-2.099,5.078-2.099c1.921,0,3.723,0.745,5.076,2.099
							L153.868,57.427z"/>
						<path class="st7" d="M134.515,59.559c-0.293-0.293-0.677-0.439-1.061-0.439c-0.384,0-0.768,0.146-1.061,0.439l-25.326,25.326
							c-0.586,0.586-0.586,1.536,0,2.121L118.28,98.22c0.281,0.281,0.663,0.439,1.061,0.439s0.779-0.158,1.061-0.439l25.327-25.327
							c0.586-0.586,0.586-1.536,0-2.121L134.515,59.559z M119.341,97.16l-11.213-11.214l25.327-25.326l11.213,11.213L119.341,97.16z
							"/>
						<path class="st7" d="M139.12,52.833l-3.191,3.191c-0.586,0.586-0.586,1.536,0,2.121l11.213,11.213
							c0.293,0.293,0.677,0.439,1.061,0.439c0.384,0,0.768-0.146,1.061-0.439l3.191-3.191c0.978-0.979,1.517-2.28,1.517-3.663
							c0-1.383-0.539-2.684-1.517-3.663l-6.009-6.009c-0.977-0.977-2.278-1.515-3.663-1.515S140.097,51.856,139.12,52.833z
							 M151.394,59.902c0.695,0.695,1.078,1.62,1.078,2.603s-0.383,1.907-1.078,2.603l-3.191,3.191l-11.213-11.213l3.191-3.191
							c0.718-0.718,1.66-1.076,2.603-1.076s1.885,0.358,2.602,1.076L151.394,59.902z"/>
					</g>
				</g>
			</g>
			<g>
				<g>
					<g>
						<path class="st7" d="M146.509,88.704c-0.493-0.55-1.176-0.831-1.862-0.831c-0.594,0-1.19,0.21-1.668,0.638
							c-1.028,0.921-1.115,2.502-0.193,3.53c7.713,8.607,15.122,17.676,22.021,26.955c0.983,1.322,2.458,2.048,4.016,2.048
							c0.539,0,1.087-0.087,1.628-0.266c2.105-0.697,3.465-2.58,3.465-4.797v-1.796c0-9.592-2.978-18.768-8.614-26.533
							c-2.449-3.374-5.025-6.713-7.657-9.927c-0.494-0.604-1.212-0.916-1.936-0.916c-0.557,0-1.118,0.185-1.582,0.566
							c-1.068,0.875-1.225,2.45-0.35,3.518c2.57,3.139,5.087,6.401,7.479,9.697c5.011,6.905,7.66,15.064,7.659,23.595l0.007,1.823
							l-0.103,0.004C161.829,106.612,154.323,97.424,146.509,88.704z M168.986,117.507c0.805-0.034,1.439-0.699,1.436-1.504
							l-0.007-1.818c0.001-8.849-2.747-17.313-7.945-24.476c-2.409-3.319-4.943-6.604-7.533-9.767
							c-0.169-0.207-0.248-0.467-0.221-0.733c0.026-0.266,0.155-0.505,0.362-0.675c0.228-0.187,0.47-0.227,0.632-0.227
							c0.302,0,0.584,0.134,0.775,0.367c2.614,3.192,5.172,6.508,7.603,9.857c5.449,7.508,8.328,16.378,8.328,25.652v1.796
							c0,1.559-0.956,2.883-2.437,3.373c-0.381,0.126-0.77,0.19-1.156,0.19c-1.105,0-2.13-0.526-2.812-1.443
							c-6.924-9.313-14.362-18.417-22.108-27.061c-0.368-0.411-0.333-1.044,0.076-1.411c0.236-0.211,0.493-0.256,0.668-0.256
							c0.289,0,0.553,0.118,0.745,0.332c7.784,8.687,15.261,17.839,22.224,27.203c0.284,0.382,0.731,0.605,1.204,0.605
							c0.021,0,0.043,0,0.064-0.001L168.986,117.507z"/>
					</g>
				</g>
			</g>
			<g>
				<g>
					<g>
						<path class="st7" d="M114.698,44.032c3.228,2.342,6.432,4.812,9.525,7.339c0.465,0.379,1.025,0.564,1.581,0.564
							c0.725,0,1.443-0.314,1.937-0.918c0.874-1.069,0.715-2.644-0.354-3.518c-3.167-2.587-6.448-5.115-9.752-7.514
							c-7.764-5.635-16.938-8.613-26.531-8.613h-2.162c-2.165,0-4.002,1.328-4.683,3.382s0.002,4.217,1.742,5.51l0.291,0.216
							c9.217,6.853,18.23,14.212,26.79,21.874c0.478,0.427,1.073,0.637,1.667,0.637c0.687,0,1.37-0.281,1.864-0.833
							c0.921-1.029,0.833-2.609-0.195-3.53c-8.672-7.762-17.804-15.218-27.144-22.162l-0.126-0.094h1.957
							C99.634,36.372,107.793,39.021,114.698,44.032z M87.723,35.899c-0.204,0.613,0.008,1.288,0.525,1.675l0.13,0.097
							c9.302,6.916,18.399,14.343,27.039,22.076c0.199,0.178,0.317,0.423,0.332,0.69c0.015,0.267-0.075,0.523-0.253,0.722
							c-0.192,0.215-0.457,0.333-0.746,0.333c-0.174,0-0.431-0.044-0.666-0.255c-8.593-7.691-17.641-15.079-26.896-21.96
							l-0.29-0.215c-1.229-0.914-1.693-2.383-1.213-3.835c0.473-1.43,1.752-2.354,3.259-2.354h2.162
							c9.275,0,18.144,2.88,25.65,8.327c3.284,2.383,6.542,4.893,9.684,7.461c0.427,0.349,0.491,0.981,0.142,1.408
							c-0.191,0.233-0.474,0.367-0.776,0.367c-0.162,0-0.403-0.039-0.631-0.226c-3.116-2.547-6.344-5.033-9.593-7.391
							c-7.162-5.198-15.626-7.946-24.476-7.946h-1.957C88.5,34.872,87.927,35.286,87.723,35.899z"/>
					</g>
				</g>
			</g>
		</g>
		<g>
			<g>
				<g>
					<g>
						<path class="st2" d="M136.915,127.134h-22.688c-4.795,0-8.696,3.901-8.696,8.696v12.599c0,1.381,1.119,2.5,2.5,2.5
							s2.5-1.119,2.5-2.5V135.83c0-2.038,1.658-3.696,3.696-3.696h22.688c1.342,0,2.58,0.729,3.231,1.901l4.426,7.966
							c0.67,1.206,2.19,1.641,3.4,0.971c1.207-0.671,1.642-2.193,0.971-3.4l-4.426-7.966
							C142.984,128.848,140.071,127.134,136.915,127.134z"/>
					</g>
				</g>
			</g>
			<g>
				<g>
					<g>
						<path class="st2" d="M105.531,149.472v47.972c0,6.167,5.018,11.185,11.185,11.185h73.096c6.167,0,11.185-5.018,11.185-11.185
							v-47.972c0-6.167-5.018-11.185-11.185-11.185h-73.096C110.548,138.287,105.531,143.305,105.531,149.472z M110.531,149.472
							c0-3.41,2.774-6.185,6.185-6.185h73.096c3.411,0,6.185,2.774,6.185,6.185v47.972c0,3.41-2.774,6.185-6.185,6.185h-73.096
							c-3.41,0-6.185-2.774-6.185-6.185V149.472z"/>
					</g>
				</g>
			</g>
		</g>
		<g>
			<g>
				<g>
					<path class="st3" d="M109.031,149.472v47.972c0,4.237,3.447,7.685,7.685,7.685h73.096c4.238,0,7.685-3.447,7.685-7.685v-47.972
						c0-4.237-3.448-7.685-7.685-7.685h-73.096C112.478,141.787,109.031,145.234,109.031,149.472z M195.996,149.472v47.972
						c0,3.41-2.774,6.185-6.185,6.185h-73.096c-3.41,0-6.185-2.774-6.185-6.185v-47.972c0-3.41,2.774-6.185,6.185-6.185h73.096
						C193.222,143.287,195.996,146.062,195.996,149.472z"/>
					<path class="st3" d="M136.915,130.634h-22.688c-2.865,0-5.196,2.331-5.196,5.196v4.331c0,0.553,0.304,1.061,0.792,1.322
						c0.222,0.119,0.465,0.178,0.708,0.178c0.291,0,0.581-0.085,0.832-0.252c1.592-1.061,3.443-1.622,5.353-1.622h25.793
						c0.531,0,1.023-0.281,1.293-0.739s0.276-1.025,0.018-1.489l-2.362-4.252C140.542,131.658,138.801,130.634,136.915,130.634z
						 M116.715,138.287c-2.286,0-4.412,0.692-6.185,1.874v-4.331c0-2.038,1.658-3.696,3.696-3.696h22.688
						c1.342,0,2.58,0.729,3.231,1.901l2.362,4.252H116.715z"/>
					<path class="st3" d="M136.915,127.134h-22.688c-4.795,0-8.696,3.901-8.696,8.696v61.613c0,6.167,5.018,11.185,11.185,11.185
						h73.096c6.167,0,11.185-5.018,11.185-11.185v-47.972c0-6.167-5.018-11.185-11.185-11.185h-41.582l-3.711-6.68
						C142.984,128.848,140.071,127.134,136.915,127.134z M148.229,139.787h41.582c5.34,0,9.685,4.344,9.685,9.685v47.972
						c0,5.34-4.345,9.685-9.685,9.685h-73.096c-5.34,0-9.685-4.344-9.685-9.685V135.83c0-3.968,3.228-7.196,7.196-7.196h22.688
						c2.612,0,5.023,1.418,6.291,3.702l3.711,6.68C147.182,139.492,147.684,139.787,148.229,139.787z"/>
				</g>
			</g>
		</g>
		<g>
			<g>
				<g>
					<g>
						<path class="st4" d="M133.804,159.755v27.405c0,3.174,2.583,5.756,5.756,5.756h27.406c3.174,0,5.756-2.583,5.756-5.756
							v-27.405c0-3.174-2.582-5.756-5.756-5.756h-27.406C136.387,153.999,133.804,156.581,133.804,159.755z M138.804,159.755
							c0-0.417,0.339-0.756,0.756-0.756h27.406c0.417,0,0.756,0.339,0.756,0.756v27.405c0,0.417-0.339,0.756-0.756,0.756h-27.406
							c-0.417,0-0.756-0.339-0.756-0.756V159.755z"/>
					</g>
				</g>
			</g>
			<g>
				<g>
					<g>
						<path class="st4" d="M142.96,167.721c0,1.381,1.119,2.5,2.5,2.5h7.803c1.381,0,2.5-1.119,2.5-2.5s-1.119-2.5-2.5-2.5h-7.803
							C144.08,165.221,142.96,166.34,142.96,167.721z"/>
					</g>
				</g>
			</g>
			<g>
				<g>
					<g>
						<path class="st4" d="M142.96,178.849c0,1.381,1.119,2.5,2.5,2.5h15.605c1.381,0,2.5-1.119,2.5-2.5s-1.119-2.5-2.5-2.5H145.46
							C144.08,176.349,142.96,177.468,142.96,178.849z"/>
					</g>
				</g>
			</g>
		</g>
		<g>
			<g>
				<g>
					<g>
						<path class="st5" d="M133.804,159.755v27.405c0,3.174,2.583,5.756,5.756,5.756h27.406c3.174,0,5.756-2.583,5.756-5.756
							v-27.405c0-3.174-2.582-5.756-5.756-5.756h-27.406C136.387,153.999,133.804,156.581,133.804,159.755z M139.561,155.499h27.406
							c2.347,0,4.256,1.909,4.256,4.256v27.405c0,2.347-1.909,4.256-4.256,4.256h-27.406c-2.347,0-4.256-1.909-4.256-4.256v-27.405
							C135.304,157.408,137.214,155.499,139.561,155.499z"/>
						<path class="st5" d="M139.561,189.417h27.406c1.244,0,2.256-1.012,2.256-2.256v-27.405c0-1.244-1.012-2.256-2.256-2.256
							h-27.406c-1.244,0-2.256,1.012-2.256,2.256v27.405C137.304,188.404,138.316,189.417,139.561,189.417z M138.804,159.755
							c0-0.417,0.339-0.756,0.756-0.756h27.406c0.417,0,0.756,0.339,0.756,0.756v27.405c0,0.417-0.339,0.756-0.756,0.756h-27.406
							c-0.417,0-0.756-0.339-0.756-0.756V159.755z"/>
					</g>
				</g>
			</g>
			<g>
				<g>
					<g>
						<path class="st5" d="M142.96,167.721c0,1.381,1.119,2.5,2.5,2.5h7.803c1.381,0,2.5-1.119,2.5-2.5s-1.119-2.5-2.5-2.5h-7.803
							C144.08,165.221,142.96,166.34,142.96,167.721z M145.46,166.721h7.803c0.551,0,1,0.449,1,1s-0.449,1-1,1h-7.803
							c-0.551,0-1-0.449-1-1S144.909,166.721,145.46,166.721z"/>
					</g>
				</g>
			</g>
			<g>
				<g>
					<g>
						<path class="st5" d="M142.96,178.849c0,1.381,1.119,2.5,2.5,2.5h15.605c1.381,0,2.5-1.119,2.5-2.5s-1.119-2.5-2.5-2.5H145.46
							C144.08,176.349,142.96,177.468,142.96,178.849z M145.46,177.849h15.605c0.551,0,1,0.449,1,1s-0.449,1-1,1H145.46
							c-0.551,0-1-0.449-1-1S144.909,177.849,145.46,177.849z"/>
					</g>
				</g>
			</g>
		</g>
	</g>
</g>
</svg>
