<?xml version="1.0" encoding="utf-8"?>
<!-- Generator: Adobe Illustrator 18.0.0, SVG Export Plug-In . SVG Version: 6.00 Build 0)  -->
<!DOCTYPE svg PUBLIC "-//W3C//DTD SVG 1.1//EN" "http://www.w3.org/Graphics/SVG/1.1/DTD/svg11.dtd">
<svg version="1.1" id="Icon_Set" xmlns="http://www.w3.org/2000/svg" xmlns:xlink="http://www.w3.org/1999/xlink" x="0px" y="0px"
	 viewBox="0 0 256 256" style="enable-background:new 0 0 256 256;" xml:space="preserve">
<style type="text/css">
	.st0{fill:#4C4372;}
	.st1{fill:#F0C48A;}
	.st2{fill:#FD919E;}
	.st3{fill:#D3E6F8;}
	.st4{fill:#A4CFF2;}
	.st5{fill:#FFFFFF;}
	.st6{fill:#7BABF1;}
	.st7{fill:#E8677D;}
</style>
<g>
	<g>
		<g>
			<circle class="st1" cx="128" cy="128" r="103.5"/>
		</g>
	</g>
	<g>
		<rect x="70.366" y="100.063" class="st5" width="14.806" height="75.184"/>
	</g>
	<g>
		<path class="st0" d="M85.172,178.247H70.366c-1.657,0-3-1.343-3-3v-75.184c0-1.657,1.343-3,3-3h14.806c1.657,0,3,1.343,3,3v75.184
			C88.172,176.903,86.829,178.247,85.172,178.247z M73.366,172.247h8.806v-69.184h-8.806V172.247z"/>
	</g>
	<g>
		<path class="st5" d="M121.478,200.403c0-3.807-3.086-6.893-6.893-6.893c3.807,0,6.893-3.086,6.893-6.893
			c0-3.808-3.086-6.894-6.893-6.894c3.807,0,6.893-3.086,6.893-6.893c0-3.807-3.086-6.893-6.893-6.893l0,0
			c3.807,0,6.893-3.086,6.893-6.893c0-3.807-3.086-6.893-6.893-6.893H99.091h-3.923h-9.399c3.807,0,6.893-3.086,6.893-6.893
			c0-3.808-3.086-6.894-6.893-6.894H61.21c-3.807,0-6.893,3.086-6.893,6.894v6.893H47.43c-4.211,0-7.624,3.413-7.624,7.624v2.787
			H23.022v34.319h16.784v2.787c0,4.211,3.413,7.624,7.624,7.624h47.738h3.923h15.494
			C118.392,207.295,121.478,204.209,121.478,200.403z"/>
	</g>
	<g>
		<path class="st3" d="M39.806,196.884v2.787c0,4.211,3.414,7.624,7.624,7.624h47.738h3.923h15.261c3.49,0,6.605-2.496,7.063-5.956
			c0.263-1.98-0.322-3.817-1.434-5.218h-67.91c-1.997,0-3.616-1.619-3.616-3.616l0,0c0-1.998-1.62-3.617-3.617-3.617H23.022v7.996
			H39.806z"/>
	</g>
	<g>
		<g>
			<path class="st3" d="M92.644,145.607c-0.254,0.028-0.51,0.046-0.771,0.046h0.769C92.643,145.638,92.644,145.623,92.644,145.607z"
				/>
		</g>
		<g>
			<path class="st3" d="M120.689,173.224c0.152,0,0.301,0.013,0.451,0.022C120.98,173.233,120.827,173.224,120.689,173.224z"/>
		</g>
		<g>
			<path class="st3" d="M121.461,186.964c-0.253,0.027-0.51,0.045-0.771,0.045c0.259,0,0.515,0.018,0.767,0.046
				C121.458,187.025,121.459,186.995,121.461,186.964z"/>
		</g>
	</g>
	<g>
		<path class="st0" d="M114.585,210.295H47.431c-5.787,0-10.508-4.651-10.622-10.411H23.022c-1.657,0-3-1.343-3-3v-34.319
			c0-1.657,1.343-3,3-3h13.786c0.114-5.76,4.835-10.411,10.622-10.411h3.886v-3.893c0-5.456,4.438-9.894,9.894-9.894h24.559
			c5.455,0,9.893,4.438,9.893,9.894c0,1.381-0.284,2.697-0.798,3.893h19.722c5.455,0,9.893,4.438,9.893,9.893
			c0,2.677-1.069,5.11-2.803,6.893c1.733,1.783,2.803,4.215,2.803,6.893s-1.069,5.11-2.803,6.893
			c1.733,1.783,2.803,4.216,2.803,6.894c0,2.677-1.069,5.11-2.803,6.893c1.733,1.783,2.803,4.215,2.803,6.893
			C124.478,205.857,120.04,210.295,114.585,210.295z M26.022,193.884h13.784c1.657,0,3,1.343,3,3v2.787
			c0,2.55,2.074,4.624,4.624,4.624h67.154c2.146,0,3.893-1.746,3.893-3.893s-1.746-3.893-3.893-3.893c-1.657,0-3-1.343-3-3
			s1.343-3,3-3c2.146,0,3.893-1.746,3.893-3.893c0-2.147-1.746-3.894-3.893-3.894c-1.657,0-3-1.343-3-3s1.343-3,3-3
			c2.146,0,3.893-1.746,3.893-3.893s-1.746-3.893-3.893-3.893c-1.657,0-3-1.343-3-3s1.343-3,3-3c2.146,0,3.893-1.746,3.893-3.893
			s-1.746-3.893-3.893-3.893H85.769c-1.657,0-3-1.343-3-3s1.343-3,3-3c2.146,0,3.893-1.746,3.893-3.893
			c0-2.147-1.746-3.894-3.893-3.894H61.21c-2.146,0-3.894,1.747-3.894,3.894v6.893c0,1.657-1.343,3-3,3h-6.886
			c-2.55,0-4.624,2.074-4.624,4.624v2.787c0,1.657-1.343,3-3,3H26.022V193.884z"/>
	</g>
	<g>
		<path class="st0" d="M85.769,155.154h-18.68c-1.657,0-3-1.343-3-3s1.343-3,3-3h18.68c1.657,0,3,1.343,3,3
			S87.426,155.154,85.769,155.154z"/>
	</g>
	<g>
		<path class="st0" d="M114.585,168.939H99.091c-1.657,0-3-1.343-3-3s1.343-3,3-3h15.494c1.657,0,3,1.343,3,3
			S116.242,168.939,114.585,168.939z"/>
	</g>
	<g>
		<path class="st0" d="M114.585,182.724H99.091c-1.657,0-3-1.343-3-3s1.343-3,3-3h15.494c1.657,0,3,1.343,3,3
			S116.242,182.724,114.585,182.724z"/>
	</g>
	<g>
		<path class="st0" d="M114.585,196.51H99.091c-1.657,0-3-1.343-3-3s1.343-3,3-3h15.494c1.657,0,3,1.343,3,3
			S116.242,196.51,114.585,196.51z"/>
	</g>
	<g>
		<rect x="170.829" y="100.063" class="st5" width="14.806" height="75.184"/>
	</g>
	<g>
		<path class="st0" d="M185.634,178.247h-14.806c-1.657,0-3-1.343-3-3v-75.184c0-1.657,1.343-3,3-3h14.806c1.657,0,3,1.343,3,3
			v75.184C188.634,176.903,187.291,178.247,185.634,178.247z M173.828,172.247h8.806v-69.184h-8.806V172.247z"/>
	</g>
	<g>
		<path class="st5" d="M134.522,200.403c0-3.807,3.086-6.893,6.893-6.893c-3.807,0-6.893-3.086-6.893-6.893
			c0-3.808,3.086-6.894,6.893-6.894c-3.807,0-6.893-3.086-6.893-6.893c0-3.807,3.086-6.893,6.893-6.893l0,0
			c-3.807,0-6.893-3.086-6.893-6.893c0-3.807,3.086-6.893,6.893-6.893h15.494h3.923h9.399c-3.807,0-6.893-3.086-6.893-6.893
			c0-3.808,3.086-6.894,6.893-6.894h24.559c3.807,0,6.893,3.086,6.893,6.894v6.893h6.886c4.211,0,7.624,3.413,7.624,7.624v2.787
			h16.784v34.319h-16.784v2.787c0,4.211-3.413,7.624-7.624,7.624h-47.738h-3.923h-15.494
			C137.608,207.295,134.522,204.209,134.522,200.403z"/>
	</g>
	<g>
		<path class="st3" d="M216.194,196.884v2.787c0,4.211-3.413,7.624-7.624,7.624h-47.738h-3.923h-15.261
			c-3.49,0-6.605-2.496-7.063-5.956c-0.263-1.98,0.322-3.817,1.434-5.218h67.91c1.997,0,3.616-1.619,3.616-3.616l0,0
			c0-1.998,1.62-3.617,3.617-3.617h21.816v7.996H216.194z"/>
	</g>
	<g>
		<g>
			<path class="st3" d="M163.356,145.607c0.253,0.028,0.51,0.046,0.771,0.046h-0.769
				C163.357,145.638,163.356,145.623,163.356,145.607z"/>
		</g>
		<g>
			<path class="st3" d="M135.311,173.224c-0.152,0-0.301,0.013-0.451,0.022C135.02,173.233,135.173,173.224,135.311,173.224z"/>
		</g>
		<g>
			<path class="st3" d="M134.54,186.964c0.253,0.027,0.51,0.045,0.771,0.045c-0.259,0-0.515,0.018-0.767,0.046
				C134.543,187.025,134.541,186.995,134.54,186.964z"/>
		</g>
	</g>
	<g>
		<path class="st0" d="M208.569,210.295h-67.154c-5.455,0-9.893-4.438-9.893-9.893c0-2.677,1.069-5.11,2.803-6.893
			c-1.733-1.783-2.803-4.215-2.803-6.893c0-2.678,1.069-5.11,2.803-6.894c-1.733-1.783-2.803-4.215-2.803-6.893
			s1.069-5.11,2.803-6.893c-1.733-1.783-2.803-4.215-2.803-6.893c0-5.455,4.438-9.893,9.893-9.893h19.722
			c-0.514-1.195-0.798-2.511-0.798-3.893c0-5.456,4.438-9.894,9.893-9.894h24.559c5.455,0,9.894,4.438,9.894,9.894v3.893h3.886
			c5.787,0,10.508,4.651,10.622,10.411h13.786c1.657,0,3,1.343,3,3v34.319c0,1.657-1.343,3-3,3h-13.786
			C219.077,205.645,214.356,210.295,208.569,210.295z M144.415,193.51c0,1.657-1.343,3-3,3c-2.146,0-3.893,1.746-3.893,3.893
			s1.746,3.893,3.893,3.893h67.154c2.55,0,4.624-2.074,4.624-4.624v-2.787c0-1.657,1.343-3,3-3h13.784v-28.319h-13.784
			c-1.657,0-3-1.343-3-3v-2.787c0-2.55-2.074-4.624-4.624-4.624h-6.886c-1.657,0-3-1.343-3-3v-6.893
			c0-2.147-1.747-3.894-3.894-3.894h-24.559c-2.146,0-3.893,1.747-3.893,3.894c0,2.146,1.746,3.893,3.893,3.893c1.657,0,3,1.343,3,3
			s-1.343,3-3,3h-28.816c-2.146,0-3.893,1.746-3.893,3.893s1.746,3.893,3.893,3.893c1.657,0,3,1.343,3,3s-1.343,3-3,3
			c-2.146,0-3.893,1.746-3.893,3.893s1.746,3.893,3.893,3.893c1.657,0,3,1.343,3,3s-1.343,3-3,3c-2.146,0-3.893,1.747-3.893,3.894
			c0,2.146,1.746,3.893,3.893,3.893C143.072,190.51,144.415,191.854,144.415,193.51z"/>
	</g>
	<g>
		<path class="st0" d="M188.911,155.154h-18.68c-1.657,0-3-1.343-3-3s1.343-3,3-3h18.68c1.657,0,3,1.343,3,3
			S190.568,155.154,188.911,155.154z"/>
	</g>
	<g>
		<path class="st0" d="M156.909,168.939h-15.494c-1.657,0-3-1.343-3-3s1.343-3,3-3h15.494c1.657,0,3,1.343,3,3
			S158.566,168.939,156.909,168.939z"/>
	</g>
	<g>
		<path class="st0" d="M156.909,182.724h-15.494c-1.657,0-3-1.343-3-3s1.343-3,3-3h15.494c1.657,0,3,1.343,3,3
			S158.566,182.724,156.909,182.724z"/>
	</g>
	<g>
		<path class="st0" d="M156.909,196.51h-15.494c-1.657,0-3-1.343-3-3s1.343-3,3-3h15.494c1.657,0,3,1.343,3,3
			S158.566,196.51,156.909,196.51z"/>
	</g>
	<g>
		<circle class="st2" cx="178.231" cy="83.787" r="35.082"/>
	</g>
	<g>
		<path class="st7" d="M178.232,48.705c-1.698,0-3.366,0.127-5,0.361c17.006,2.428,30.083,17.045,30.083,34.722
			s-13.076,32.294-30.083,34.722c1.634,0.233,3.302,0.361,5,0.361c19.375,0,35.083-15.707,35.083-35.083
			S197.607,48.705,178.232,48.705z"/>
	</g>
	<g>
		<path class="st0" d="M178.231,121.87c-20.999,0-38.083-17.084-38.083-38.083s17.084-38.083,38.083-38.083
			c20.998,0,38.082,17.084,38.082,38.083S199.229,121.87,178.231,121.87z M178.231,51.705c-17.69,0-32.083,14.392-32.083,32.083
			s14.393,32.083,32.083,32.083s32.082-14.392,32.082-32.083S195.922,51.705,178.231,51.705z"/>
	</g>
	<g>
		<path class="st0" d="M190.614,99.17c-0.768,0-1.535-0.293-2.121-0.879l-24.766-24.767c-1.172-1.171-1.172-3.071,0-4.243
			c1.172-1.171,3.07-1.171,4.242,0l24.766,24.767c1.172,1.171,1.172,3.071,0,4.243C192.149,98.877,191.382,99.17,190.614,99.17z"/>
	</g>
	<g>
		<path class="st0" d="M165.849,99.17c-0.768,0-1.535-0.293-2.121-0.878c-1.172-1.172-1.172-3.071,0-4.243l24.766-24.767
			c1.172-1.172,3.07-1.171,4.242,0c1.172,1.172,1.172,3.071,0,4.243L167.97,98.292C167.384,98.877,166.616,99.17,165.849,99.17z"/>
	</g>
	<g>
		<circle class="st3" cx="77.769" cy="83.787" r="35.082"/>
	</g>
	<g>
		<path class="st4" d="M77.769,48.705c-1.698,0-3.366,0.127-5,0.361c17.006,2.428,30.083,17.045,30.083,34.722
			s-13.076,32.294-30.083,34.722c1.634,0.233,3.302,0.361,5,0.361c19.375,0,35.083-15.707,35.083-35.083
			S97.144,48.705,77.769,48.705z"/>
	</g>
	<g>
		<path class="st0" d="M77.769,121.87c-20.998,0-38.082-17.084-38.082-38.083s17.084-38.083,38.082-38.083
			c20.999,0,38.083,17.084,38.083,38.083S98.768,121.87,77.769,121.87z M77.769,51.705c-17.69,0-32.082,14.392-32.082,32.083
			s14.392,32.083,32.082,32.083s32.083-14.392,32.083-32.083S95.459,51.705,77.769,51.705z"/>
	</g>
	<g>
		<path class="st0" d="M77.428,100.938c-0.729,0-1.437-0.266-1.986-0.751L57.015,83.91c-1.241-1.097-1.359-2.993-0.262-4.234
			c1.097-1.242,2.992-1.359,4.234-0.263l16.155,14.27l19.68-22.734c1.086-1.254,2.98-1.388,4.232-0.305
			c1.252,1.084,1.389,2.979,0.305,4.231L79.696,99.901c-0.524,0.605-1.269,0.977-2.068,1.03
			C77.562,100.935,77.494,100.938,77.428,100.938z"/>
	</g>
</g>
</svg>
