<?xml version="1.0" encoding="utf-8"?>
<!-- Generator: Adobe Illustrator 22.1.0, SVG Export Plug-In . SVG Version: 6.00 Build 0)  -->
<svg version="1.1" id="Layer_1" xmlns="http://www.w3.org/2000/svg" xmlns:xlink="http://www.w3.org/1999/xlink" x="0px" y="0px"
	 viewBox="0 0 256 256" style="enable-background:new 0 0 256 256;" xml:space="preserve">
<style type="text/css">
	.st0{fill:#D73735;}
	.st1{fill:#F85252;}
	.st2{fill:#EDAF85;}
	.st3{fill:#F7C09A;}
	.st4{fill:#D8D6D7;}
	.st5{fill:#FFFFFF;}
	.st6{fill:#1C868E;}
	.st7{fill:#40C4DF;}
	.st8{fill:#491352;}
	.st9{fill:#56C1B3;}
	.st10{fill:#7BEFE4;}
</style>
<g>
	<g>
		<path class="st6" d="M229.54,60.02v124.4H26.46V60.02c0-8.87,6.64-16.2,15.23-17.26c0.71-0.09,1.44-0.14,2.17-0.14h168.28
			C221.75,42.62,229.54,50.41,229.54,60.02z"/>
		<path class="st7" d="M229.54,60.02v124.4H41.69V42.76c0.71-0.09,1.44-0.14,2.17-0.14h168.28
			C221.75,42.62,229.54,50.41,229.54,60.02z"/>
		<path class="st9" d="M251.6,190.49v4.67c0,10.06-8.15,18.22-18.21,18.22H22.61c-10.06,0-18.21-8.16-18.21-18.22v-4.67
			c0-3.35,2.72-6.07,6.07-6.07h235.06C248.88,184.42,251.6,187.14,251.6,190.49z"/>
		<path class="st10" d="M251.6,190.49v4.67c0,10.06-8.15,18.22-18.21,18.22H37.84c-10.06,0-18.21-8.16-18.21-18.22v-4.67
			c0-3.35,2.72-6.07,6.07-6.07h219.83C248.88,184.42,251.6,187.14,251.6,190.49z"/>
		<path class="st9" d="M156.13,184.42v5.111c0,5.172-4.201,9.373-9.373,9.373h-37.515c-5.172,0-9.373-4.201-9.373-9.373v-5.111
			H156.13z"/>
		<path class="st4" d="M218.75,58.42v126H37.25v-126c0-2.57,1.94-4.69,4.44-4.96c0.18-0.03,0.37-0.04,0.56-0.04h171.5
			C216.51,53.42,218.75,55.66,218.75,58.42z"/>
		<path class="st5" d="M218.75,58.42v126H52.48v-131h161.27C216.51,53.42,218.75,55.66,218.75,58.42z"/>
		<path class="st7" d="M229.54,60.02v124.4h-10.79v-126c0-2.76-2.24-5-5-5H42.25c-0.19,0-0.38,0.01-0.56,0.04v-10.7
			c0.71-0.09,1.44-0.14,2.17-0.14h168.28C221.75,42.62,229.54,50.41,229.54,60.02z"/>
	</g>
	<g>
		<path class="st1" d="M189.132,171.016H66.868c-2.761,0-5-2.239-5-5V71.818c0-2.761,2.239-5,5-5h122.263c2.761,0,5,2.239,5,5
			v94.198C194.132,168.778,191.893,171.016,189.132,171.016z"/>
		<path class="st7" d="M189.132,171.016H66.868c-2.761,0-5-2.239-5-5V71.818c0-2.761,2.239-5,5-5h29.779l13.661,16.972
			c0.949,1.179,2.381,1.865,3.895,1.865h79.928v80.361C194.132,168.778,191.893,171.016,189.132,171.016z"/>
		<circle class="st5" cx="169.415" cy="76.401" r="3.693"/>
		<circle class="st5" cx="182.932" cy="76.401" r="3.693"/>
	</g>
	<g>
		<g>
			<path class="st5" d="M85.299,141.972c-0.97,0-1.941-0.37-2.681-1.11l-9.984-9.984c-0.712-0.711-1.111-1.675-1.111-2.681
				s0.4-1.97,1.111-2.681l10.379-10.378c1.48-1.48,3.881-1.48,5.362,0c1.48,1.481,1.48,3.881-0.001,5.362l-7.697,7.697l7.303,7.303
				c1.481,1.481,1.481,3.881,0,5.362C87.24,141.602,86.269,141.972,85.299,141.972z"/>
		</g>
		<g>
			<path class="st5" d="M170.307,141.972c-0.97,0-1.941-0.37-2.681-1.11c-1.481-1.481-1.481-3.881,0-5.362l7.697-7.697l-7.302-7.303
				c-1.481-1.481-1.481-3.881,0-5.362c1.48-1.48,3.882-1.48,5.361,0l9.983,9.984c1.481,1.481,1.481,3.881,0,5.362l-10.378,10.378
				C172.247,141.602,171.277,141.972,170.307,141.972z"/>
		</g>
		<g>
			<path class="st5" d="M135.937,131.791H99.902c-2.094,0-3.791-1.698-3.791-3.791s1.697-3.791,3.791-3.791h36.035
				c2.094,0,3.791,1.698,3.791,3.791S138.031,131.791,135.937,131.791z"/>
		</g>
		<g>
			<path class="st5" d="M148.42,141.359c-0.431,0-0.869-0.074-1.297-0.23c-1.968-0.716-2.982-2.892-2.266-4.859l6.964-19.134
				c0.715-1.968,2.893-2.982,4.859-2.266c1.967,0.716,2.982,2.892,2.266,4.859l-6.964,19.134
				C151.423,140.403,149.969,141.359,148.42,141.359z"/>
		</g>
	</g>
	<g>
		<path class="st8" d="M245.534,182.42h-13.989V60.024c0-10.697-8.703-19.399-19.4-19.399H43.855c-10.697,0-19.4,8.703-19.4,19.399
			V182.42H10.466c-4.45,0-8.07,3.62-8.07,8.07v4.674c0,11.145,9.066,20.211,20.211,20.211h210.787
			c11.145,0,20.211-9.066,20.211-20.211v-4.674C253.604,186.04,249.984,182.42,245.534,182.42z M28.455,60.024
			c0-8.491,6.908-15.399,15.4-15.399h168.289c8.492,0,15.4,6.908,15.4,15.399V182.42h-6.795V58.417c0-3.86-3.141-7-7-7H42.25
			c-3.859,0-7,3.14-7,7V182.42h-6.795V60.024z M101.87,186.42h52.26v3.112c0,4.065-3.307,7.373-7.372,7.373h-37.516
			c-4.065,0-7.372-3.307-7.372-7.373V186.42z M216.75,182.417H39.25v-124c0-1.654,1.346-3,3-3h171.5c1.654,0,3,1.346,3,3V182.417z
			 M249.604,195.165c0,8.939-7.272,16.211-16.211,16.211H22.606c-8.938,0-16.211-7.272-16.211-16.211v-4.674
			c0-2.244,1.826-4.07,4.07-4.07c10.781,0,77.813,0,87.404,0v3.112c0,6.271,5.102,11.373,11.372,11.373h37.516
			c6.271,0,11.372-5.102,11.372-11.373v-3.112c9.575,0,76.622,0,87.404,0c2.244,0,4.07,1.826,4.07,4.07V195.165z"/>
		<path class="st8" d="M189.132,64.818c-14.479,0-119.308,0-122.264,0c-3.859,0-7,3.14-7,7v94.198c0,3.86,3.141,7,7,7h122.264
			c3.859,0,7-3.14,7-7c0-11.508,0-83.763,0-94.198C196.132,67.958,192.991,64.818,189.132,64.818z M192.132,71.818v11.837h-77.928
			c-0.913,0-1.766-0.408-2.338-1.119l-11.042-13.718h88.308C190.786,68.818,192.132,70.164,192.132,71.818z M192.132,166.016
			c0,1.654-1.346,3-3,3H66.868c-1.654,0-3-1.346-3-3V71.818c0-1.654,1.346-3,3-3h28.821l13.062,16.226
			c1.335,1.659,3.323,2.611,5.453,2.611h77.928V166.016z"/>
		<path class="st8" d="M94.786,78.651c0-1.104-0.896-2-2-2H74.289c-1.104,0-2,0.896-2,2s0.896,2,2,2h18.497
			C93.891,80.651,94.786,79.756,94.786,78.651z"/>
		<path class="st8" d="M169.415,82.094c3.14,0,5.693-2.554,5.693-5.693s-2.554-5.693-5.693-5.693c-3.139,0-5.692,2.554-5.692,5.693
			S166.276,82.094,169.415,82.094z M169.415,74.708c0.934,0,1.693,0.759,1.693,1.693s-0.76,1.693-1.693,1.693
			s-1.692-0.759-1.692-1.693S168.481,74.708,169.415,74.708z"/>
		<path class="st8" d="M182.932,82.094c3.14,0,5.693-2.554,5.693-5.693s-2.554-5.693-5.693-5.693c-3.139,0-5.692,2.554-5.692,5.693
			S179.793,82.094,182.932,82.094z M182.932,74.708c0.934,0,1.693,0.759,1.693,1.693s-0.76,1.693-1.693,1.693
			s-1.692-0.759-1.692-1.693S181.998,74.708,182.932,74.708z"/>
		<path class="st8" d="M89.789,113.723c-2.263-2.262-5.928-2.263-8.189,0l-10.379,10.378c-2.233,2.231-2.29,5.903,0,8.19
			l9.983,9.983c2.256,2.26,5.922,2.269,8.19,0.001c2.258-2.258,2.258-5.932,0-8.19l-5.89-5.889l6.284-6.283
			C92.047,119.656,92.047,115.982,89.789,113.723z M86.961,119.085l-7.698,7.697c-0.782,0.783-0.78,2.049,0,2.829l7.304,7.303
			c0.698,0.699,0.698,1.835,0,2.534c-0.678,0.676-1.857,0.677-2.533,0l-9.984-9.984c-0.71-0.71-0.688-1.844,0-2.533l10.379-10.378
			c0.699-0.699,1.834-0.699,2.533,0C87.659,117.25,87.659,118.387,86.961,119.085z"/>
		<path class="st8" d="M166.212,142.276c2.264,2.264,5.926,2.263,8.189,0l10.378-10.378c2.266-2.266,2.264-5.928,0-8.19
			l-9.983-9.984c-2.26-2.262-5.928-2.263-8.189,0c-2.258,2.258-2.258,5.932,0,8.19l5.889,5.889l-6.283,6.283
			C163.946,136.351,163.948,140.013,166.212,142.276z M169.04,136.914l7.697-7.697c0.781-0.781,0.781-2.047,0-2.828l-7.303-7.303
			c-0.698-0.699-0.698-1.835,0-2.534c0.699-0.699,1.834-0.699,2.533,0l9.983,9.984c0.7,0.699,0.703,1.831,0,2.533l-10.378,10.378
			c-0.678,0.676-1.855,0.676-2.533,0C168.338,138.747,168.339,137.615,169.04,136.914z"/>
		<path class="st8" d="M94.111,128c0,3.193,2.598,5.792,5.791,5.792h36.035c3.193,0,5.791-2.598,5.791-5.792
			s-2.598-5.792-5.791-5.792H99.902C96.709,122.208,94.111,124.807,94.111,128z M137.729,128c0,0.988-0.804,1.792-1.791,1.792
			H99.902c-0.987,0-1.791-0.804-1.791-1.792s0.804-1.792,1.791-1.792h36.035C136.925,126.208,137.729,127.012,137.729,128z"/>
		<path class="st8" d="M146.439,143.009c3.038,1.104,6.344-0.494,7.422-3.461l6.966-19.134c1.091-3-0.462-6.33-3.462-7.422
			c-3-1.093-6.328,0.448-7.422,3.461l-6.966,19.134C141.887,138.587,143.439,141.917,146.439,143.009z M146.736,136.954
			l6.966-19.135c0.337-0.929,1.367-1.408,2.295-1.069c0.928,0.338,1.408,1.368,1.071,2.296l-6.966,19.135
			c-0.326,0.9-1.373,1.405-2.294,1.07C146.88,138.912,146.399,137.882,146.736,136.954z"/>
	</g>
</g>
</svg>
