<svg id="ART" xmlns="http://www.w3.org/2000/svg" xmlns:xlink="http://www.w3.org/1999/xlink" viewBox="0 0 48 48"><defs><style>.cls-1{fill:url(#linear-gradient);}.cls-2{fill:url(#linear-gradient-2);}.cls-3{fill:url(#linear-gradient-3);}.cls-4{fill:url(#linear-gradient-4);}.cls-5{fill:url(#linear-gradient-5);}.cls-6{fill:url(#linear-gradient-6);}.cls-7{fill:url(#linear-gradient-7);}.cls-8{fill:url(#linear-gradient-8);}.cls-9{fill:url(#linear-gradient-9);}.cls-10{fill:url(#linear-gradient-10);}.cls-11{fill:url(#linear-gradient-11);}.cls-12{fill:url(#linear-gradient-12);}</style><linearGradient id="linear-gradient" x1="24" y1="43.5" x2="24" y2="-0.43" gradientUnits="userSpaceOnUse"><stop offset="0" stop-color="#fff"/><stop offset="0.52" stop-color="#cce2e6"/><stop offset="1" stop-color="#8fa1bb"/></linearGradient><linearGradient id="linear-gradient-2" x1="32.4" y1="44.2" x2="32.4" y2="5.22" xlink:href="#linear-gradient"/><linearGradient id="linear-gradient-3" x1="23.99" y1="44.17" x2="23.99" y2="24.23" xlink:href="#linear-gradient"/><linearGradient id="linear-gradient-4" x1="8.97" y1="34.87" x2="8.97" y2="16.38" gradientUnits="userSpaceOnUse"><stop offset="0" stop-color="#27e9de"/><stop offset="0.52" stop-color="#03a4ec"/><stop offset="1" stop-color="#2547a8"/></linearGradient><linearGradient id="linear-gradient-5" x1="21.68" y1="46.1" x2="21.68" y2="-11.4" xlink:href="#linear-gradient-4"/><linearGradient id="linear-gradient-6" x1="628.34" y1="-118.42" x2="628.34" y2="-136.92" gradientTransform="translate(667.36 -105.29) rotate(180)" xlink:href="#linear-gradient-4"/><linearGradient id="linear-gradient-7" x1="641.06" y1="-107.19" x2="641.06" y2="-164.69" gradientTransform="translate(667.36 -105.29) rotate(180)" xlink:href="#linear-gradient-4"/><linearGradient id="linear-gradient-8" x1="23.99" y1="27.79" x2="23.99" y2="12.01" xlink:href="#linear-gradient"/><linearGradient id="linear-gradient-9" x1="20.98" y1="36.08" x2="20.98" y2="15.1" xlink:href="#linear-gradient-4"/><linearGradient id="linear-gradient-10" x1="24.16" y1="32.72" x2="24.16" y2="11.96" xlink:href="#linear-gradient"/><linearGradient id="linear-gradient-11" x1="27.01" y1="36.08" x2="27.01" y2="15.1" xlink:href="#linear-gradient-4"/><linearGradient id="linear-gradient-12" x1="23.99" y1="36.23" x2="23.99" y2="1.04" gradientUnits="userSpaceOnUse"><stop offset="0" stop-color="#273a9b"/><stop offset="0.56" stop-color="#202f65"/><stop offset="1" stop-color="#021e2f"/></linearGradient></defs><title>security, update, shield, protection, safety, arrows</title><circle class="cls-1" cx="24" cy="24" r="16.81"/><path class="cls-2" d="M24,7.19a16.81,16.81,0,0,1,0,33.61"/><rect class="cls-3" x="16.3" y="23.33" width="15.38" height="17.83"/><path class="cls-4" d="M4.42,21V29.2a.5.5,0,0,0,.84.38l8-7A.87.87,0,0,0,12.65,21Z"/><path class="cls-5" d="M37.34,15h0a3,3,0,0,0,2.23-5.06A21,21,0,0,0,3.44,19.76a20.77,20.77,0,0,0,.29,9.66.8.8,0,0,0,1.3.39l4.14-3.7a14.94,14.94,0,0,1,26-12.1A3,3,0,0,0,37.34,15Z"/><path class="cls-6" d="M43.57,27V18.81a.5.5,0,0,0-.84-.38l-8,7A.87.87,0,0,0,35.34,27Z"/><path class="cls-7" d="M10.65,33h0a3,3,0,0,0-2.23,5.06,21,21,0,0,0,36.14-9.82,20.76,20.76,0,0,0-.29-9.66.8.8,0,0,0-1.3-.39l-4.14,3.7a14.94,14.94,0,0,1-26,12.1A3,3,0,0,0,10.65,33Z"/><path class="cls-8" d="M26.61,17a11,11,0,0,1-2.23-1.07.7.7,0,0,0-.75,0A11,11,0,0,1,21.38,17a10.16,10.16,0,0,1-3.61.61.71.71,0,0,0-.75.71v7.4a5.68,5.68,0,0,0,2.84,4.92l1.38.8a5.5,5.5,0,0,0,5.5,0l1.38-.8A5.68,5.68,0,0,0,31,25.72v-7.4a.71.71,0,0,0-.75-.71A10.16,10.16,0,0,1,26.61,17Z"/><path class="cls-9" d="M18,24v4.85a5.68,5.68,0,0,0,1.9,1.79l1.38.8a5.5,5.5,0,0,0,2.75.74V24Z"/><path class="cls-10" d="M30.21,17.62h-.35A10.42,10.42,0,0,1,26.61,17a11,11,0,0,1-2.23-1.07.63.63,0,0,0-.7,0A11,11,0,0,1,21.44,17a10.43,10.43,0,0,1-3.25.61h-.37a.72.72,0,0,0-.46.16l4.1.27A2.71,2.71,0,0,1,24,20.75V32.18a5.5,5.5,0,0,0,2.75-.74l1.38-.8A5.68,5.68,0,0,0,31,25.72v-7.4A.71.71,0,0,0,30.21,17.62Z"/><path class="cls-11" d="M30,17.62A10.26,10.26,0,0,1,26.61,17a11,11,0,0,1-2.23-1.07.7.7,0,0,0-.38-.11h0V24h6Z"/><path class="cls-12" d="M30.92,17h-.33a11.42,11.42,0,0,1-3.72-.68,12.1,12.1,0,0,1-2.47-1.18.78.78,0,0,0-.83,0,12.11,12.11,0,0,1-2.47,1.18,11.42,11.42,0,0,1-3.72.68H17.1a.79.79,0,0,0-.8.78V25.9a6.27,6.27,0,0,0,3.14,5.43l1.52.88a6.07,6.07,0,0,0,6.07,0l1.52-.88a6.27,6.27,0,0,0,3.14-5.43V17.74A.79.79,0,0,0,30.92,17ZM29.11,25.9a3.7,3.7,0,0,1-1.85,3.2L25.74,30a3.5,3.5,0,0,1-3.5,0l-1.52-.88a3.7,3.7,0,0,1-1.85-3.2V20.29a1,1,0,0,1,.8-1A15.09,15.09,0,0,0,22,18.71,15.23,15.23,0,0,0,23.6,18a.89.89,0,0,1,.78,0,15.23,15.23,0,0,0,1.64.68,15.07,15.07,0,0,0,2.29.61,1,1,0,0,1,.8,1Z"/></svg>