<svg xmlns="http://www.w3.org/2000/svg" viewBox="0 0 64 64"><defs><style>.cls-1{fill:#ffb248;}.cls-2{fill:#f79341;}.cls-3{fill:#8cbce7;}.cls-4{fill:#5b97c4;}.cls-5{fill:#2b2b4c;}</style></defs><title>Shield</title><g id="Shield"><path class="cls-1" d="M32,59h0A29,29,0,0,1,11,31.16V11L32,5l21,6V31.16A29,29,0,0,1,32,59Z"/><path class="cls-2" d="M32,5l21,6V31.16A29,29,0,0,1,32,59h0Z"/><path class="cls-3" d="M49,14V31.16A25.06,25.06,0,0,1,32,54.81,25.05,25.05,0,0,1,15,31.16V14L32,9.16Z"/><path class="cls-4" d="M49,14V31.16A25.06,25.06,0,0,1,32,54.81a24.82,24.82,0,0,1-10.91-7.35A34,34,0,0,0,49,14Z"/><path class="cls-5" d="M30,38a1,1,0,0,1-.71-.29l-6-6a1,1,0,0,1,1.42-1.42L30,35.59l9.29-9.3a1,1,0,0,1,1.42,1.42l-10,10A1,1,0,0,1,30,38Z"/><path class="cls-5" d="M32,60a.8.8,0,0,1-.27,0A30.07,30.07,0,0,1,10,31.16V11a1,1,0,0,1,.73-1l21-6a1,1,0,0,1,.54,0l21,6A1,1,0,0,1,54,11V31.16a30,30,0,0,1-3.22,13.5,1,1,0,0,1-1.78-.9,28.09,28.09,0,0,0,3-12.6V11.75L32,6,12,11.75V31.16A28.08,28.08,0,0,0,32,58,28.09,28.09,0,0,0,47,47.07a1,1,0,1,1,1.64,1.14A30,30,0,0,1,32.27,60,.8.8,0,0,1,32,60Z"/><path class="cls-5" d="M32,55.81a1.13,1.13,0,0,1-.32-.05A26,26,0,0,1,14,31.16V14a1,1,0,0,1,.73-1l6-1.72a1,1,0,1,1,.54,1.92L16,14.77V31.16A23.94,23.94,0,0,0,32,53.75,23.94,23.94,0,0,0,48,31.16V14.77L32,10.2l-6.9,2a1,1,0,1,1-.54-1.92L31.73,8.2a1,1,0,0,1,.54,0l17,4.86A1,1,0,0,1,50,14V31.16a26,26,0,0,1-17.68,24.6A1.13,1.13,0,0,1,32,55.81Z"/></g></svg>