<?xml version="1.0" encoding="utf-8"?>
<!-- Generator: Adobe Illustrator 24.0.0, SVG Export Plug-In . SVG Version: 6.00 Build 0)  -->
<svg version="1.1" xmlns="http://www.w3.org/2000/svg" xmlns:xlink="http://www.w3.org/1999/xlink" x="0px" y="0px"
	 viewBox="0 0 64 64" enable-background="new 0 0 64 64" xml:space="preserve">
<g id="Captions">
</g>
<g id="Icons">
	<g>
		<g>
			<path fill="#C80A50" d="M10,38h3c1.657,0,3-1.343,3-3v0c0-0.552-0.448-1-1-1h-2c-1.657,0-3,1.343-3,3V38z"/>
		</g>
		<g>
			<path fill="#C80A50" d="M10,44h3c1.657,0,3-1.343,3-3v0c0-0.552-0.448-1-1-1h-2c-1.657,0-3,1.343-3,3V44z"/>
		</g>
		<g>
			<path fill="#C80A50" d="M10,32h3c1.657,0,3-1.343,3-3v0c0-0.552-0.448-1-1-1h-2c-1.657,0-3,1.343-3,3V32z"/>
		</g>
		<g>
			<g>
				<g>
					<path fill="#C80A50" d="M33,4h-2c-2.761,0-5,2.239-5,5v12c0,0.552,0.448,1,1,1h10c0.552,0,1-0.448,1-1V9
						C38,6.239,35.761,4,33,4z"/>
				</g>
				<g>
					<path fill="#C80A50" d="M40,32H24V22c0-2.209,1.791-4,4-4h8c2.209,0,4,1.791,4,4V32z"/>
				</g>
				<g>
					<path fill="#A00028" d="M29,23v-5h-1c-2.209,0-4,1.791-4,4v10h9v-1c0-1.657-1.343-3-3-3h-3v-2.171
						C28.165,25.417,29,24.306,29,23z"/>
				</g>
				<g>
					<path fill="#00A0C8" d="M28,18c0,2.209,1.791,4,4,4s4-1.791,4-4H28z"/>
				</g>
				<g>
					<path fill="#0082AA" d="M29,20.645V18h-1C28,19.014,28.378,19.94,29,20.645z"/>
				</g>
				<g>
					<path fill="#D2AA82" d="M32,20L32,20c-1.105,0-2-0.895-2-2v-3h4v3C34,19.105,33.105,20,32,20z"/>
				</g>
				<g>
					<path fill="#F0C8A0" d="M33,16h-2c-1.657,0-3-1.343-3-3v-3c0-1.105,0.895-2,2-2h1v0c0,1.105,0.895,2,2,2h3v3
						C36,14.657,34.657,16,33,16z"/>
				</g>
			</g>
			<g>
				<g>
					<path fill="#FAB400" d="M32,40H16v-9c0-1.657,1.343-3,3-3h10c1.657,0,3,1.343,3,3V40z"/>
				</g>
				<g>
					<path fill="#00A0C8" d="M20,28c0,2.209,1.791,4,4,4s4-1.791,4-4H20z"/>
				</g>
				<g>
					<path fill="#D2AA82" d="M24,30L24,30c-1.105,0-2-0.895-2-2v-3h4v3C26,29.105,25.105,30,24,30z"/>
				</g>
				<g>
					<path fill="#F0C8A0" d="M25,26h-2c-1.657,0-3-1.343-3-3v-3c0-1.105,0.895-2,2-2h4c1.105,0,2,0.895,2,2v3
						C28,24.657,26.657,26,25,26z"/>
				</g>
				<g>
					<path fill="#0A5078" d="M26,18h-4c-1.105,0-2,0.895-2,2v0v-2c0-1.105,0.895-2,2-2h4c1.105,0,2,0.895,2,2v2v0
						C28,18.895,27.105,18,26,18z"/>
				</g>
			</g>
			<g>
				<g>
					<path fill="#00A0C8" d="M48,40H32v-9c0-1.657,1.343-3,3-3h10c1.657,0,3,1.343,3,3V40z"/>
				</g>
				<g>
					<path fill="#0A5078" d="M36,28c0,2.209,1.791,4,4,4s4-1.791,4-4H36z"/>
				</g>
				<g>
					<path fill="#0082AA" d="M32.5,29.342C32.184,29.817,32,30.387,32,31v9h1v-9C33,30.387,32.816,29.817,32.5,29.342z"/>
				</g>
				<g>
					<path fill="#D2AA82" d="M40,30L40,30c-1.105,0-2-0.895-2-2v-3h4v3C42,29.105,41.105,30,40,30z"/>
				</g>
				<g>
					<path fill="#F0C8A0" d="M41,26h-2c-1.657,0-3-1.343-3-3v-3c0-1.105,0.895-2,2-2h4c1.105,0,2,0.895,2,2v3
						C44,24.657,42.657,26,41,26z"/>
				</g>
				<g>
					<path fill="#DC9600" d="M42,18h-4c-1.105,0-2,0.895-2,2v0v-2c0-1.105,0.895-2,2-2h4c1.105,0,2,0.895,2,2v2v0
						C44,18.895,43.105,18,42,18z"/>
				</g>
			</g>
		</g>
		<g>
			<path fill="#0A5078" d="M32,51H20c-6.065,0-11-4.935-11-11V24c0-0.552,0.448-1,1-1s1,0.448,1,1v16c0,4.962,4.038,9,9,9h12
				c0.552,0,1,0.448,1,1S32.552,51,32,51z"/>
		</g>
		<g>
			<path fill="#C80A50" d="M10,32H7c-1.657,0-3-1.343-3-3v0c0-0.552,0.448-1,1-1h2c1.657,0,3,1.343,3,3V32z"/>
		</g>
		<g>
			<path fill="#C80A50" d="M10,38H7c-1.657,0-3-1.343-3-3v0c0-0.552,0.448-1,1-1h2c1.657,0,3,1.343,3,3V38z"/>
		</g>
		<g>
			<path fill="#C80A50" d="M10,44H7c-1.657,0-3-1.343-3-3v0c0-0.552,0.448-1,1-1h2c1.657,0,3,1.343,3,3V44z"/>
		</g>
		<g>
			<path fill="#C80A50" d="M9.293,18.707l-0.414,0.414C8.316,19.684,8,20.447,8,21.243v2.515c0,0.796,0.316,1.559,0.879,2.121
				l0.414,0.414c0.391,0.391,1.024,0.391,1.414,0l0.414-0.414C11.684,25.316,12,24.553,12,23.757v-2.515
				c0-0.796-0.316-1.559-0.879-2.121l-0.414-0.414C10.317,18.317,9.683,18.317,9.293,18.707z"/>
		</g>
		<g>
			<path fill="#C80A50" d="M54,38h-3c-1.657,0-3-1.343-3-3v0c0-0.552,0.448-1,1-1h2c1.657,0,3,1.343,3,3V38z"/>
		</g>
		<g>
			<path fill="#C80A50" d="M54,44h-3c-1.657,0-3-1.343-3-3v0c0-0.552,0.448-1,1-1h2c1.657,0,3,1.343,3,3V44z"/>
		</g>
		<g>
			<path fill="#C80A50" d="M54,32h-3c-1.657,0-3-1.343-3-3v0c0-0.552,0.448-1,1-1h2c1.657,0,3,1.343,3,3V32z"/>
		</g>
		<g>
			<path fill="#0A5078" d="M44,51H32c-0.552,0-1-0.448-1-1s0.448-1,1-1h12c4.963,0,9-4.038,9-9V24c0-0.552,0.447-1,1-1s1,0.448,1,1
				v16C55,46.065,50.065,51,44,51z"/>
		</g>
		<g>
			<path fill="#C80A50" d="M54,32h3c1.657,0,3-1.343,3-3v0c0-0.552-0.448-1-1-1h-2c-1.657,0-3,1.343-3,3V32z"/>
		</g>
		<g>
			<path fill="#C80A50" d="M54,38h3c1.657,0,3-1.343,3-3v0c0-0.552-0.448-1-1-1h-2c-1.657,0-3,1.343-3,3V38z"/>
		</g>
		<g>
			<path fill="#C80A50" d="M54,44h3c1.657,0,3-1.343,3-3v0c0-0.552-0.448-1-1-1h-2c-1.657,0-3,1.343-3,3V44z"/>
		</g>
		<g>
			<path fill="#C80A50" d="M54.707,18.707l0.414,0.414C55.684,19.684,56,20.447,56,21.243v2.515c0,0.796-0.316,1.559-0.879,2.121
				l-0.414,0.414c-0.391,0.391-1.024,0.391-1.414,0l-0.414-0.414C52.316,25.316,52,24.553,52,23.757v-2.515
				c0-0.796,0.316-1.559,0.879-2.121l0.414-0.414C53.683,18.317,54.317,18.317,54.707,18.707z"/>
		</g>
		<g>
			<circle fill="#FAB400" cx="32" cy="50" r="10"/>
		</g>
		<g>
			<path fill="#BE7800" d="M32.454,43.179l1.744,3.796l4.149,0.485c0.424,0.05,0.595,0.575,0.281,0.864l-3.071,2.831l0.82,4.096
				c0.084,0.419-0.363,0.743-0.735,0.534L32,53.74l-3.642,2.046c-0.373,0.209-0.819-0.115-0.735-0.534l0.82-4.096l-3.071-2.831
				c-0.314-0.29-0.144-0.815,0.281-0.864l4.149-0.485l1.744-3.796C31.724,42.79,32.276,42.79,32.454,43.179z"/>
		</g>
	</g>
</g>
</svg>
