<?xml version="1.0" encoding="utf-8"?>
<!-- Generator: Adobe Illustrator 24.0.0, SVG Export Plug-In . SVG Version: 6.00 Build 0)  -->
<svg version="1.1" xmlns="http://www.w3.org/2000/svg" xmlns:xlink="http://www.w3.org/1999/xlink" x="0px" y="0px"
	 viewBox="0 0 64 64" enable-background="new 0 0 64 64" xml:space="preserve">
<g id="Captions">
</g>
<g id="Icons">
	<g>
		<g>
			<g>
				<path fill="#C80A50" d="M33,36h-2c-2.761,0-5,2.239-5,5v10c0,0.552,0.448,1,1,1h10c0.552,0,1-0.448,1-1V41
					C38,38.239,35.761,36,33,36z"/>
			</g>
			<g>
				<path fill="#C80A50" d="M40,60H24v-6c0-2.209,1.791-4,4-4h8c2.209,0,4,1.791,4,4V60z"/>
			</g>
			<g>
				<path fill="#00A0C8" d="M28,50c0,2.209,1.791,4,4,4s4-1.791,4-4H28z"/>
			</g>
			<g>
				<path fill="#D2AA82" d="M32,52L32,52c-1.105,0-2-0.895-2-2v-3h4v3C34,51.105,33.105,52,32,52z"/>
			</g>
			<g>
				<path fill="#F0C8A0" d="M33,48h-2c-1.657,0-3-1.343-3-3v-3c0-1.105,0.895-2,2-2h1v0c0,1.105,0.895,2,2,2h3v3
					C36,46.657,34.657,48,33,48z"/>
			</g>
		</g>
		<g>
			<g>
				<g>
					<path fill="#FAB400" d="M24,60H8v-9c0-1.657,1.343-3,3-3h10c1.657,0,3,1.343,3,3V60z"/>
				</g>
				<g>
					<path fill="#00A0C8" d="M12,48c0,2.209,1.791,4,4,4s4-1.791,4-4H12z"/>
				</g>
				<g>
					<path fill="#A00028" d="M24,54v6h1v-8.645C24.378,52.06,24,52.986,24,54z"/>
				</g>
				<g>
					<path fill="#D2AA82" d="M16,50L16,50c-1.105,0-2-0.895-2-2v-3h4v3C18,49.105,17.105,50,16,50z"/>
				</g>
				<g>
					<path fill="#F0C8A0" d="M17,46h-2c-1.657,0-3-1.343-3-3v-3c0-1.105,0.895-2,2-2h4c1.105,0,2,0.895,2,2v3
						C20,44.657,18.657,46,17,46z"/>
				</g>
				<g>
					<path fill="#0A5078" d="M18,38h-4c-1.105,0-2,0.895-2,2v0v-2c0-1.105,0.895-2,2-2h4c1.105,0,2,0.895,2,2v2v0
						C20,38.895,19.105,38,18,38z"/>
				</g>
			</g>
			<g>
				<g>
					<path fill="#00A0C8" d="M56,60H40v-9c0-1.657,1.343-3,3-3h10c1.657,0,3,1.343,3,3V60z"/>
				</g>
				<g>
					<path fill="#0A5078" d="M44,48c0,2.209,1.791,4,4,4s4-1.791,4-4H44z"/>
				</g>
				<g>
					<path fill="#0082AA" d="M40.5,49.342C40.184,49.817,40,50.387,40,51v9h1v-9C41,50.387,40.816,49.817,40.5,49.342z"/>
				</g>
				<g>
					<path fill="#D2AA82" d="M48,50L48,50c-1.105,0-2-0.895-2-2v-3h4v3C50,49.105,49.105,50,48,50z"/>
				</g>
				<g>
					<path fill="#F0C8A0" d="M49,46h-2c-1.657,0-3-1.343-3-3v-3c0-1.105,0.895-2,2-2h4c1.105,0,2,0.895,2,2v3
						C52,44.657,50.657,46,49,46z"/>
				</g>
				<g>
					<path fill="#DC9600" d="M50,38h-4c-1.105,0-2,0.895-2,2v0v-2c0-1.105,0.895-2,2-2h4c1.105,0,2,0.895,2,2v2v0
						C52,38.895,51.105,38,50,38z"/>
				</g>
			</g>
		</g>
		<g>
			<path fill="#0A5078" d="M36,11c0,2.21-1.79,4-4,4v3h-3c0-2.21-1.79-4-4-4s-4,1.79-4,4h-3V6c0-1.105,0.895-2,2-2h12v3
				C34.21,7,36,8.79,36,11z"/>
		</g>
		<g>
			<path fill="#00325A" d="M25,13c-2.21,0-4,1.79-4,4h-3v1h3c0-2.21,1.79-4,4-4s4,1.79,4,4h3v-1h-3C29,14.79,27.21,13,25,13z"/>
		</g>
		<g>
			<path fill="#00A0C8" d="M46,6v12h-3c0,2.21-1.79,4-4,4s-4-1.79-4-4h-3v-3c2.21,0,4-1.79,4-4c0-2.21-1.79-4-4-4V4h12
				C45.105,4,46,4.895,46,6z"/>
		</g>
		<g>
			<path fill="#0082AA" d="M37,11c0-2.21-1.79-4-4-4V4h-1v3c2.21,0,4,1.79,4,4c0,2.21-1.79,4-4,4v3h1v-3C35.21,15,37,13.21,37,11z"
				/>
		</g>
		<g>
			<path fill="#C80A50" d="M46,18v12c0,1.105-0.895,2-2,2H32v-3c-2.21,0-4-1.79-4-4c0-2.21,1.79-4,4-4v-3h3c0,2.21,1.79,4,4,4
				s4-1.79,4-4H46z"/>
		</g>
		<g>
			<path fill="#A00028" d="M39,22c-2.21,0-4-1.79-4-4h-3v1h3c0,2.21,1.79,4,4,4s4-1.79,4-4h3v-1h-3C43,20.21,41.21,22,39,22z"/>
		</g>
		<g>
			<path fill="#FAB400" d="M28,25c0,2.21,1.79,4,4,4v3H20c-1.105,0-2-0.895-2-2V18h3c0-2.21,1.79-4,4-4s4,1.79,4,4h3v3
				C29.79,21,28,22.79,28,25z"/>
		</g>
		<g>
			<path fill="#DC9600" d="M28,25c0-2.21,1.79-4,4-4v-3h-1v3c-2.21,0-4,1.79-4,4c0,2.21,1.79,4,4,4v3h1v-3C29.79,29,28,27.21,28,25z
				"/>
		</g>
	</g>
</g>
</svg>
