<svg xmlns="http://www.w3.org/2000/svg"  viewBox="0 0 24 24" width="96px" height="96px"><path d="M 12 2 C 6.4919555 2 2 6.4919596 2 12 C 2 17.50804 6.4919555 22 12 22 C 17.508045 22 22 17.50804 22 12 C 22 6.4919596 17.508045 2 12 2 z M 12 4.5 C 16.156945 4.5 19.5 7.8430575 19.5 12 C 19.5 16.156943 16.156945 19.5 12 19.5 C 7.8430549 19.5 4.5 16.156943 4.5 12 C 4.5 7.8430575 7.8430549 4.5 12 4.5 z M 15.724609 8.9882812 A 1.250125 1.250125 0 0 0 14.865234 9.3652344 L 11 13.230469 L 9.1230469 11.355469 A 1.250125 1.250125 0 1 0 7.3554688 13.123047 L 10.115234 15.884766 A 1.250125 1.250125 0 0 0 11.884766 15.884766 L 16.634766 11.134766 A 1.250125 1.250125 0 0 0 15.724609 8.9882812 z"/></svg>