<?xml version="1.0" encoding="iso-8859-1"?>
<!-- Generator: Adobe Illustrator 19.0.0, SVG Export Plug-In . SVG Version: 6.00 Build 0)  -->
<svg xmlns="http://www.w3.org/2000/svg" xmlns:xlink="http://www.w3.org/1999/xlink" version="1.1" id="Layer_1" x="0px" y="0px" viewBox="0 0 512 512" style="enable-background:new 0 0 512 512;" xml:space="preserve">
<path style="fill:#E4EAF8;" d="M435.574,427.022H25.119c-9.446,0-17.102-7.656-17.102-17.102V50.772  c0-9.446,7.656-17.102,17.102-17.102h410.455c9.446,0,17.102,7.656,17.102,17.102V409.92  C452.676,419.366,445.02,427.022,435.574,427.022z"/>
<path style="fill:#707487;" d="M486.881,478.329c-4.376,0-8.755-1.671-12.092-5.011l-51.307-51.307  c-6.681-6.681-6.681-17.503,0-24.184c6.672-6.681,17.512-6.681,24.184,0l51.307,51.307c6.681,6.681,6.681,17.503,0,24.184  C495.636,476.66,491.257,478.329,486.881,478.329z"/>
<circle style="fill:#FFFFFF;" cx="341.511" cy="315.858" r="51.307"/>
<path style="fill:#C7CFE2;" d="M8.017,102.079V50.772c0-9.446,7.656-17.102,17.102-17.102h410.455  c9.446,0,17.102,7.656,17.102,17.102v51.307"/>
<circle style="fill:#7F8499;" cx="93.528" cy="179.039" r="17.102"/>
<circle style="fill:#707487;" cx="93.528" cy="264.551" r="17.102"/>
<circle style="fill:#7F8499;" cx="93.528" cy="350.062" r="17.102"/>
<path d="M384.267,419.006H25.119c-5.01,0-9.086-4.076-9.086-9.086V110.095h316.928c4.428,0,8.017-3.589,8.017-8.017  s-3.588-8.017-8.017-8.017H16.033v-43.29c0-5.01,4.076-9.086,9.086-9.086h410.455c5.01,0,9.086,4.076,9.086,9.086v43.29h-26.188  c-4.428,0-8.017,3.589-8.017,8.017s3.588,8.017,8.017,8.017h26.188v248.518c0,4.427,3.588,8.017,8.017,8.017  s8.017-3.589,8.017-8.017V50.772c0-13.851-11.268-25.119-25.119-25.119H25.119C11.268,25.653,0,36.921,0,50.772V409.92  c0,13.851,11.268,25.119,25.119,25.119h359.148c4.428,0,8.017-3.589,8.017-8.017C392.284,422.595,388.696,419.006,384.267,419.006z"/>
<path d="M384.27,94.062h-17.107c-4.428,0-8.017,3.589-8.017,8.017s3.588,8.017,8.017,8.017h17.107c4.428,0,8.017-3.589,8.017-8.017  S388.699,94.062,384.27,94.062z"/>
<path d="M42.221,59.858c-4.428,0-7.974,3.589-7.974,8.017c0,4.427,3.631,8.017,8.059,8.017s8.017-3.589,8.017-8.017  c0-4.427-3.588-8.017-8.017-8.017H42.221z"/>
<path d="M110.63,59.858c-4.428,0-7.974,3.589-7.974,8.017c0,4.427,3.631,8.017,8.059,8.017s8.017-3.589,8.017-8.017  c0-4.427-3.588-8.017-8.017-8.017H110.63z"/>
<path d="M76.34,59.858c-4.428,0-7.974,3.589-7.974,8.017c0,4.427,3.631,8.017,8.059,8.017s8.017-3.589,8.017-8.017  c0-4.427-3.588-8.017-8.017-8.017H76.34z"/>
<path d="M426.489,67.874c0-4.427-3.588-8.017-8.017-8.017H144.835c-4.428,0-8.017,3.589-8.017,8.017  c0,4.427,3.588,8.017,8.017,8.017h273.637C422.9,75.891,426.489,72.302,426.489,67.874z"/>
<path d="M93.528,153.92c-13.851,0-25.119,11.268-25.119,25.119c0,13.851,11.268,25.119,25.119,25.119s25.119-11.268,25.119-25.119  C118.647,165.188,107.379,153.92,93.528,153.92z M93.528,188.125c-5.01,0-9.086-4.076-9.086-9.086c0-5.01,4.076-9.086,9.086-9.086  c5.01,0,9.086,4.076,9.086,9.086C102.614,184.049,98.538,188.125,93.528,188.125z"/>
<path d="M392.284,161.937c0-4.427-3.588-8.017-8.017-8.017H144.835c-4.428,0-8.017,3.589-8.017,8.017  c0,4.427,3.588,8.017,8.017,8.017h239.432C388.696,169.954,392.284,166.364,392.284,161.937z"/>
<path d="M144.835,204.158h17.102c4.428,0,8.017-3.589,8.017-8.017s-3.588-8.017-8.017-8.017h-17.102  c-4.428,0-8.017,3.589-8.017,8.017S140.407,204.158,144.835,204.158z"/>
<path d="M272.568,196.141c0-4.427-3.588-8.017-8.017-8.017h-17.102c-4.428,0-8.017,3.589-8.017,8.017s3.588,8.017,8.017,8.017  h17.102C268.98,204.158,272.568,200.569,272.568,196.141z"/>
<path d="M213.244,204.158c4.428,0,8.017-3.589,8.017-8.017s-3.588-8.017-8.017-8.017h-17.102c-4.428,0-8.017,3.589-8.017,8.017  s3.588,8.017,8.017,8.017H213.244z"/>
<path d="M93.528,239.432c-13.851,0-25.119,11.268-25.119,25.119c0,13.851,11.268,25.119,25.119,25.119s25.119-11.268,25.119-25.119  C118.647,250.7,107.379,239.432,93.528,239.432z M93.528,273.636c-5.01,0-9.086-4.076-9.086-9.086c0-5.01,4.076-9.086,9.086-9.086  c5.01,0,9.086,4.076,9.086,9.086C102.614,269.561,98.538,273.636,93.528,273.636z"/>
<path d="M255.466,247.448c0-4.427-3.588-8.017-8.017-8.017H144.835c-4.428,0-8.017,3.589-8.017,8.017s3.588,8.017,8.017,8.017  h102.614C251.877,255.465,255.466,251.876,255.466,247.448z"/>
<path d="M144.835,289.67h17.102c4.428,0,8.017-3.589,8.017-8.017c0-4.427-3.588-8.017-8.017-8.017h-17.102  c-4.428,0-8.017,3.589-8.017,8.017C136.818,286.08,140.407,289.67,144.835,289.67z"/>
<path d="M213.244,289.67c4.428,0,8.017-3.589,8.017-8.017c0-4.427-3.588-8.017-8.017-8.017h-17.102  c-4.428,0-8.017,3.589-8.017,8.017c0,4.427,3.588,8.017,8.017,8.017H213.244z"/>
<path d="M93.528,324.943c-13.851,0-25.119,11.268-25.119,25.119s11.268,25.119,25.119,25.119s25.119-11.268,25.119-25.119  S107.379,324.943,93.528,324.943z M93.528,359.148c-5.01,0-9.086-4.076-9.086-9.086s4.076-9.086,9.086-9.086  c5.01,0,9.086,4.076,9.086,9.086S98.538,359.148,93.528,359.148z"/>
<path d="M238.363,332.96c0-4.427-3.588-8.017-8.017-8.017h-85.511c-4.428,0-8.017,3.589-8.017,8.017  c0,4.427,3.588,8.017,8.017,8.017h85.511C234.775,340.977,238.363,337.387,238.363,332.96z"/>
<path d="M144.835,359.148c-4.428,0-8.017,3.589-8.017,8.017s3.588,8.017,8.017,8.017h17.102c4.428,0,8.017-3.589,8.017-8.017  s-3.588-8.017-8.017-8.017H144.835z"/>
<path d="M196.142,359.148c-4.428,0-8.017,3.589-8.017,8.017s3.588,8.017,8.017,8.017h17.102c4.428,0,8.017-3.589,8.017-8.017  s-3.588-8.017-8.017-8.017H196.142z"/>
<path d="M504.642,443.466l-51.304-51.304c-4.741-4.747-11.05-7.361-17.764-7.361c-3.942,0-7.741,0.907-11.168,2.612l-17.434-17.434  c12.183-14.709,19.516-33.575,19.516-54.122c0-46.856-38.12-84.977-84.977-84.977s-84.977,38.121-84.977,84.977  s38.12,84.977,84.977,84.977c20.547,0,39.413-7.333,54.123-19.516l17.435,17.435c-1.706,3.428-2.615,7.227-2.615,11.167  c0,6.707,2.613,13.015,7.358,17.761l51.304,51.304c4.742,4.748,11.05,7.363,17.764,7.363s13.023-2.615,17.761-7.358  c4.744-4.745,7.358-11.052,7.358-17.761C512,454.52,509.387,448.212,504.642,443.466z M272.568,315.858  c0-38.015,30.928-68.944,68.944-68.944s68.944,30.928,68.944,68.944s-30.928,68.944-68.944,68.944S272.568,353.873,272.568,315.858z   M493.301,467.654c-1.712,1.715-3.992,2.658-6.42,2.658s-4.707-0.944-6.423-2.663l-51.307-51.307  c-3.541-3.541-3.541-9.305,0.003-12.85c1.712-1.715,3.992-2.658,6.42-2.658s4.707,0.944,6.423,2.663l51.307,51.307  C496.845,458.345,496.845,464.109,493.301,467.654z"/>
<g>
</g>
<g>
</g>
<g>
</g>
<g>
</g>
<g>
</g>
<g>
</g>
<g>
</g>
<g>
</g>
<g>
</g>
<g>
</g>
<g>
</g>
<g>
</g>
<g>
</g>
<g>
</g>
<g>
</g>
</svg>
