<svg xmlns="http://www.w3.org/2000/svg" fill="none" viewBox="102.64 116.74 294.73 266.52">
<path fill-rule="evenodd" clip-rule="evenodd" d="M160.946 362.274C168.443 375.261 182.3 383.261 197.295 383.26L302.69 383.251C317.682 383.25 331.535 375.252 339.031 362.268L391.742 270.969C399.238 257.985 399.239 241.989 391.744 229.005L339.054 137.726C331.557 124.739 317.7 116.739 302.705 116.74L197.31 116.749C182.318 116.75 168.465 124.748 160.969 137.732L108.258 229.031C100.762 242.015 100.761 258.011 108.256 270.995L160.946 362.274ZM185.426 319.871C192.923 332.859 206.78 340.859 221.775 340.858L278.216 340.853C293.208 340.852 307.061 332.853 314.557 319.87L342.788 270.972C350.284 257.989 350.285 241.992 342.79 229.008L314.573 180.127C307.076 167.14 293.22 159.139 278.224 159.141L221.783 159.145C206.791 159.146 192.938 167.145 185.442 180.128L157.211 229.026C149.715 242.01 149.714 258.006 157.209 270.99L185.426 319.871Z" fill="#06D889"/>
</svg>