<svg xmlns="http://www.w3.org/2000/svg" fill="none" viewBox="0 0 1501 383">
<g clip-path="url(#clip0_12_2)">
<path fill-rule="evenodd" clip-rule="evenodd" d="M74.0067 313.274C81.5034 326.261 95.3602 334.261 110.356 334.26L215.751 334.251C230.743 334.25 244.595 326.252 252.091 313.268L304.803 221.969C312.299 208.985 312.3 192.989 304.805 180.005L252.115 88.7262C244.618 75.739 230.761 67.7388 215.765 67.74L110.371 67.7486C95.3786 67.7498 81.5258 75.7484 74.0298 88.7319L21.3183 180.031C13.8223 193.015 13.8216 209.011 21.3166 221.995L74.0067 313.274ZM98.4867 270.871C105.983 283.859 119.84 291.859 134.836 291.858L191.277 291.853C206.269 291.852 220.122 283.853 227.618 270.87L255.849 221.972C263.345 208.989 263.345 192.992 255.85 180.008L227.634 131.127C220.137 118.14 206.28 110.139 191.285 110.141L134.844 110.145C119.852 110.146 105.999 118.145 98.5028 131.128L70.2717 180.026C62.7757 193.01 62.775 209.006 70.27 221.99L98.4867 270.871Z" fill="#06D889"/>
<path d="M395.299 310V89.5H429.319V184H521.929V89.5H555.949V310H521.929V214.87H429.319V310H395.299ZM674.153 314.41C658.403 314.41 644.648 311.155 632.888 304.645C621.128 297.925 611.888 288.58 605.168 276.61C598.658 264.43 595.403 250.36 595.403 234.4V230.62C595.403 214.45 598.658 200.38 605.168 188.41C611.678 176.23 620.708 166.885 632.258 160.375C644.018 153.655 657.563 150.295 672.893 150.295C687.803 150.295 700.823 153.655 711.953 160.375C723.293 166.885 732.113 176.02 738.413 187.78C744.713 199.54 747.863 213.295 747.863 229.045V241.33H628.478C628.898 254.98 633.413 265.9 642.023 274.09C650.843 282.07 661.763 286.06 674.783 286.06C686.963 286.06 696.098 283.33 702.188 277.87C708.488 272.41 713.318 266.11 716.678 258.97L743.453 272.83C740.513 278.71 736.208 284.905 730.538 291.415C725.078 297.925 717.833 303.385 708.803 307.795C699.773 312.205 688.223 314.41 674.153 314.41ZM628.793 216.445H714.788C713.948 204.685 709.748 195.55 702.188 189.04C694.628 182.32 684.758 178.96 672.578 178.96C660.398 178.96 650.423 182.32 642.653 189.04C635.093 195.55 630.473 204.685 628.793 216.445ZM763.537 310L822.757 231.565L764.797 154.705H802.912L843.547 210.46H848.587L889.222 154.705H927.652L869.377 231.565L928.597 310H889.852L848.587 252.985H843.547L802.282 310H763.537ZM963.49 310V154.705H995.935V310H963.49ZM979.87 133.6C973.57 133.6 968.215 131.605 963.805 127.615C959.605 123.415 957.505 118.06 957.505 111.55C957.505 105.04 959.605 99.79 963.805 95.8C968.215 91.6 973.57 89.5 979.87 89.5C986.38 89.5 991.735 91.6 995.935 95.8C1000.14 99.79 1002.24 105.04 1002.24 111.55C1002.24 118.06 1000.14 123.415 995.935 127.615C991.735 131.605 986.38 133.6 979.87 133.6ZM1133.86 314.41C1118.74 314.41 1107.09 311.68 1098.9 306.22C1090.92 300.76 1084.93 294.67 1080.94 287.95H1075.9V310H1044.09V89.5H1076.53V175.81H1081.57C1084.09 171.61 1087.45 167.62 1091.65 163.84C1095.85 159.85 1101.42 156.595 1108.35 154.075C1115.28 151.555 1123.78 150.295 1133.86 150.295C1146.88 150.295 1158.85 153.445 1169.77 159.745C1180.69 166.045 1189.41 175.18 1195.92 187.15C1202.43 199.12 1205.68 213.4 1205.68 229.99V234.715C1205.68 251.515 1202.32 265.9 1195.6 277.87C1189.09 289.63 1180.38 298.66 1169.46 304.96C1158.75 311.26 1146.88 314.41 1133.86 314.41ZM1124.41 286.06C1138.48 286.06 1150.03 281.545 1159.06 272.515C1168.3 263.485 1172.92 250.57 1172.92 233.77V230.935C1172.92 214.345 1168.41 201.535 1159.38 192.505C1150.35 183.475 1138.69 178.96 1124.41 178.96C1110.55 178.96 1099 183.475 1089.76 192.505C1080.73 201.535 1076.22 214.345 1076.22 230.935V233.77C1076.22 250.57 1080.73 263.485 1089.76 272.515C1099 281.545 1110.55 286.06 1124.41 286.06ZM1245.88 310V89.5H1278.33V310H1245.88ZM1397.67 314.41C1381.92 314.41 1368.16 311.155 1356.4 304.645C1344.64 297.925 1335.4 288.58 1328.68 276.61C1322.17 264.43 1318.92 250.36 1318.92 234.4V230.62C1318.92 214.45 1322.17 200.38 1328.68 188.41C1335.19 176.23 1344.22 166.885 1355.77 160.375C1367.53 153.655 1381.08 150.295 1396.41 150.295C1411.32 150.295 1424.34 153.655 1435.47 160.375C1446.81 166.885 1455.63 176.02 1461.93 187.78C1468.23 199.54 1471.38 213.295 1471.38 229.045V241.33H1351.99C1352.41 254.98 1356.93 265.9 1365.54 274.09C1374.36 282.07 1385.28 286.06 1398.3 286.06C1410.48 286.06 1419.61 283.33 1425.7 277.87C1432 272.41 1436.83 266.11 1440.19 258.97L1466.97 272.83C1464.03 278.71 1459.72 284.905 1454.05 291.415C1448.59 297.925 1441.35 303.385 1432.32 307.795C1423.29 312.205 1411.74 314.41 1397.67 314.41ZM1352.31 216.445H1438.3C1437.46 204.685 1433.26 195.55 1425.7 189.04C1418.14 182.32 1408.27 178.96 1396.09 178.96C1383.91 178.96 1373.94 182.32 1366.17 189.04C1358.61 195.55 1353.99 204.685 1352.31 216.445Z" fill="#1E1E1E"/>
</g>
<defs>
<clipPath id="clip0_12_2">
<rect width="1501" height="383" fill="white"/>
</clipPath>
</defs>
</svg>