<?xml version="1.0" encoding="utf-8"?>
<!-- Generator: Adobe Illustrator 23.0.3, SVG Export Plug-In . SVG Version: 6.00 Build 0)  -->
<svg version="1.1" xmlns="http://www.w3.org/2000/svg" xmlns:xlink="http://www.w3.org/1999/xlink" x="0px" y="0px"
	 viewBox="0 0 256 256" style="enable-background:new 0 0 256 256;" xml:space="preserve">
<style type="text/css">
	.st0{fill:#878787;}
	.st1{fill:#F2E1D6;}
	.st2{fill:#FFFFFF;}
	.st3{fill:#F0C020;}
	.st4{fill:#F9E5AF;}
	.st5{fill:#72C1E8;}
	.st6{fill:#C5E5FF;}
	.st7{fill:#13BF6D;}
	.st8{fill:#76FFBA;}
	.st9{fill:#EFEFEF;}
	.st10{fill:#FC5D3D;}
	.st11{fill:#FFCBC2;}
	.st12{fill:#FFB69F;}
	.st13{fill:#AFAFAF;}
	.st14{fill:#7C7B7A;}
	.st15{fill:#D6C0B4;}
	.st16{fill:#7A7380;}
	.st17{fill:#F0AB20;}
	.st18{fill:#FBE0E2;}
	.st19{fill:#4C4945;}
	.st20{fill:#68B0D4;}
	.st21{fill:#B35034;}
	.st22{fill:#EDAF85;}
	.st23{fill:#139C6D;}
</style>
<g id="Layer_2">
</g>
<g id="Layer_1">
	<g>
		<g>
			<g>
				<path class="st5" d="M248.8,135.01c0,16.1-13.05,29.14-29.14,29.14h-32.54l2.25-55.47c0.22-5.48-4.16-10.05-9.64-10.05H76.27
					c-5.48,0-9.86,4.57-9.64,10.05l2.25,55.47H53.83c-25.75,0-46.63-20.87-46.63-46.62c0-33.39,34.13-55.91,64.76-42.98
					c6.94-34.01,37.03-59.61,73.09-59.61c47.6,0,83.3,44.13,72.77,91.02C234.96,104.891,248.8,118.481,248.8,135.01z"/>
			</g>
			<g>
				<path class="st20" d="M196.36,108.961l-2.24,55.19h-7l2.25-55.47c0.22-5.48-4.16-10.05-9.64-10.05H76.27
					c-5.48,0-9.86,4.57-9.64,10.05l2.25,55.47h-7l-2.24-55.19c-0.392-9.457,7.163-17.33,16.63-17.33h103.46
					C189.196,91.63,196.753,99.502,196.36,108.961z"/>
			</g>
			<g>
				<path class="st6" d="M219.66,156.651h-9.159c-1.381,0-2.5-1.119-2.5-2.5s1.119-2.5,2.5-2.5h9.159
					c9.175,0,16.64-7.465,16.64-16.64c0-9.525-8.041-17.193-17.703-16.575l-13.298,0.83c-1.664,0.102-2.96-1.42-2.595-3.043
					l2.92-13.002c8.725-38.838-20.753-75.78-60.574-75.78c-1.381,0-2.5-1.119-2.5-2.5s1.119-2.5,2.5-2.5
					c43.094,0,74.862,39.982,65.453,81.876l-2.19,9.751l9.974-0.622c12.706-0.779,23.013,9.298,23.013,21.565
					C241.3,146.944,231.593,156.651,219.66,156.651z M200.502,156.651h-2.967c-1.381,0-2.5-1.119-2.5-2.5s1.119-2.5,2.5-2.5h2.967
					c1.381,0,2.5,1.119,2.5,2.5S201.883,156.651,200.502,156.651z"/>
			</g>
			<g>
				<g>
					<path class="st9" d="M179.73,98.63H76.27c-5.48,0-9.86,4.57-9.64,10.05l2.25,55.47l0.55,13.46
						c1.39,34.17,43.9,63.46,58.59,63.45c16.13-0.01,57.25-31.55,58.55-63.45l0.55-13.46l2.25-55.47
						C189.59,103.2,185.21,98.63,179.73,98.63z"/>
				</g>
				<g>
					<path class="st3" d="M84.892,176.983l-2.555-62.875h91.325l-2.555,62.878c-0.769,18.894-25.048,42.435-43.031,48.781
						C109.443,219.099,85.708,197.04,84.892,176.983z"/>
				</g>
				<g>
					<path class="st4" d="M127.161,217.457c-8.047-3.241-23.142-14.641-30.551-27.616c-0.685-1.198-0.268-2.726,0.931-3.41
						c1.2-0.686,2.727-0.268,3.411,0.932c6.471,11.33,19.706,21.651,27.127,25.047c9.366-4.481,30.007-22.846,30.539-35.931
						l2.132-52.472c0.056-1.38,1.239-2.412,2.6-2.396c1.379,0.056,2.453,1.22,2.396,2.6l-2.132,52.472
						c-0.663,16.285-24.919,36.82-34.573,40.77C128.433,217.7,127.761,217.697,127.161,217.457z M92.735,179.767
						c-0.191-1.043-0.309-2.083-0.349-3.09c-0.056-1.38,1.018-2.543,2.397-2.599c1.36-0.03,2.543,1.018,2.599,2.397
						c0.031,0.773,0.123,1.577,0.271,2.391c0.249,1.358-0.651,2.661-2.009,2.909C94.313,182.023,92.988,181.147,92.735,179.767z"/>
				</g>
			</g>
		</g>
		<path d="M166.94,191.22c-1.15-0.68-2.75-0.25-3.42,0.89c-0.7,1.19-0.3,2.721,0.89,3.421c1.197,0.722,2.729,0.277,3.42-0.891
			C168.53,193.451,168.13,191.92,166.94,191.22z"/>
		<path d="M173.66,111.61H82.34c-1.447,0-2.56,1.224-2.5,2.601l2.55,62.87c0.932,21.092,25.14,43.978,44.48,50.908
			c0.682,0.349,1.439,0.354,2.04,0.132c12.818-4.498,24.832-14.99,32.98-24.98c0.86-1.07,0.7-2.649-0.37-3.52
			c-1.04-0.83-2.67-0.66-3.51,0.359c-0.01,0.011-0.01,0.011-0.01,0.011c-9.026,11.216-21.471,19.922-27.5,22.249V166h38.552
			l-0.442,10.88c-0.09,2.12-0.49,4.36-1.21,6.66c-0.392,1.321,0.311,2.711,1.65,3.13c1.3,0.41,2.73-0.351,3.13-1.65
			c0.84-2.71,1.32-5.38,1.42-7.93l2.56-62.88C176.222,112.816,175.103,111.61,173.66,111.61z M125.5,222.167
			c-11.98-4.737-37.385-25.225-38.11-45.286L86.948,166H125.5V222.167z M130.5,161V147.11c0-1.38-1.12-2.5-2.5-2.5
			c-1.38,0-2.5,1.12-2.5,2.5V161H86.744L84.94,116.61h40.56v10.5c0,1.37,1.12,2.5,2.5,2.5c1.38,0,2.5-1.13,2.5-2.5v-10.5h40.56
			L169.256,161H130.5z"/>
		<circle cx="128" cy="137.11" r="2.5"/>
		<path d="M14.1,142.081c-1.13,0.779-1.41,2.35-0.62,3.479c0.813,1.159,2.393,1.396,3.48,0.62c1.13-0.79,1.41-2.35,0.62-3.479
			C16.82,141.61,15.2,141.31,14.1,142.081z"/>
		<path d="M220.89,103.42c8.672-47.44-27.785-90.98-75.84-90.98c-36.075,0-66.598,24.833-74.89,58.73
			C38.611,59.996,4.7,83.352,4.7,117.531c0,6.51,1.25,12.84,3.73,18.81c0.52,1.24,2.02,1.87,3.27,1.35c1.27-0.529,1.88-2,1.35-3.27
			c-2.22-5.351-3.35-11.04-3.35-16.89c0-31.427,32.081-52.976,61.29-40.681c1.434,0.612,3.104-0.239,3.42-1.8
			c6.81-33.38,36.52-57.61,70.64-57.61c46.004,0,80.52,42.577,70.33,87.971c-0.351,1.59,0.877,3.127,2.6,3.04
			c16.258-0.781,28.32,11.933,28.32,26.56c-0.03,14.66-11.98,26.61-26.64,26.64h-29.939l2.148-52.869
			c0.276-6.898-5.219-12.65-12.138-12.65H76.27c-6.889,0-12.416,5.722-12.138,12.651l2.148,52.868H53.83
			c-11.19,0-21.86-4.199-30.06-11.819c-0.97-0.9-2.63-0.84-3.53,0.13c-0.94,1.01-0.88,2.6,0.13,3.53
			c9.11,8.489,20.99,13.159,33.45,13.159h12.663l0.449,11.063c1.441,35.425,44.955,65.848,61.08,65.848c0.003,0,0.007,0,0.01,0
			c17.436-0.011,59.691-32.573,61.046-65.847l0.449-11.063h30.142c17.57,0,31.64-14.224,31.64-31.64
			C251.28,118.259,238.118,104.049,220.89,103.42z M128.018,238.56c-0.002,0-0.004,0-0.006,0c-13.528,0-54.756-28.394-56.083-61.052
			l-2.8-68.929c-0.163-4.063,3.075-7.449,7.142-7.449h103.46c4.059,0,7.306,3.378,7.142,7.448l-2.8,68.931
			C182.833,207.941,142.925,238.551,128.018,238.56z"/>
	</g>
</g>
</svg>
