<?xml version="1.0" encoding="UTF-8"?>
<!DOCTYPE svg PUBLIC "-//W3C//DTD SVG 1.1//EN" "http://www.w3.org/Graphics/SVG/1.1/DTD/svg11.dtd">
<!-- Creator: CorelDRAW -->
<svg xmlns="http://www.w3.org/2000/svg" xml:space="preserve" width="6.82666in" height="6.82666in" style="shape-rendering:geometricPrecision; text-rendering:geometricPrecision; image-rendering:optimizeQuality; fill-rule:evenodd; clip-rule:evenodd"
viewBox="0 0 6.82666 6.82666"
 xmlns:xlink="http://www.w3.org/1999/xlink">
 <defs>
  <style type="text/css">
   <![CDATA[
    .fil0 {fill:#795548}
    .fil1 {fill:#FFFFFE;fill-rule:nonzero}
   ]]>
  </style>
 </defs>
 <g id="Layer_x0020_1">
  <metadata id="CorelCorpID_0Corel-Layer"/>
  <rect class="fil0" width="6.82666" height="6.82666"/>
  <g id="_506873320">
   <path id="_506873416" class="fil1" d="M2.98304 1.68603c0.0636614,-0.153681 0.165634,-0.286323 0.293469,-0.384976 0.152382,-0.117602 0.341004,-0.187193 0.545079,-0.187193 0.204075,0 0.392693,0.0695906 0.545079,0.187193 0.127831,0.0986496 0.229803,0.231295 0.293469,0.38498 0.062626,-0.0139134 0.126039,-0.0206772 0.189157,-0.0206772 0.183512,0 0.365047,0.0572717 0.517606,0.161961 0.152945,0.104949 0.276799,0.257224 0.344504,0.446906 0.0361102,0.101185 0.0562402,0.212705 0.0562402,0.332965 0,0.259366 -0.101642,0.494579 -0.265969,0.665181 -0.0195827,0.0203307 -0.0400669,0.0397283 -0.0613543,0.0581575 -0.00411024,-0.0133622 -0.00849213,-0.0265591 -0.0131417,-0.0395866 -0.0210945,-0.0590945 -0.0476417,-0.114559 -0.0788189,-0.166094 0.12724,-0.132106 0.205945,-0.315098 0.205945,-0.517657 0,-0.0951417 -0.0156535,-0.18261 -0.0437362,-0.261295 -0.0520394,-0.145803 -0.146819,-0.262559 -0.263669,-0.34274 -0.117232,-0.0804449 -0.256685,-0.124457 -0.397606,-0.124457 -0.0741575,0 -0.148587,0.0122283 -0.220197,0.0377835l-0.106445 0.0379921 -0.0314724 -0.108827c-0.0440669,-0.15237 -0.134634,-0.283744 -0.254512,-0.37626 -0.115744,-0.0893268 -0.259358,-0.142185 -0.415079,-0.142185 -0.155717,0 -0.299335,0.0528583 -0.415079,0.142185 -0.119886,0.0925197 -0.210449,0.22389 -0.254512,0.37626l-0.0314724 0.108835 -0.106445 -0.038c-0.0716024,-0.0255591 -0.146035,-0.0377835 -0.220193,-0.0377835 -0.140921,0 -0.28037,0.0440118 -0.397598,0.124453 -0.116846,0.080185 -0.211626,0.196937 -0.263669,0.342728 -0.0280866,0.078689 -0.0437441,0.166165 -0.0437441,0.261311 0,0.0582835 0.00652756,0.114945 0.0188425,0.16924 -0.0399921,0.0196614 -0.0786732,0.0422402 -0.115646,0.0676102 -0.0247953,0.0170157 -0.0488189,0.0352835 -0.0719724,0.0547441 -0.0289213,-0.0918543 -0.044563,-0.189866 -0.044563,-0.291594 0,-0.120264 0.0201339,-0.231799 0.056248,-0.33298 0.0677087,-0.189673 0.191567,-0.341945 0.344504,-0.446894 0.152559,-0.104685 0.334094,-0.161957 0.517598,-0.161957 0.0631142,0 0.126528,0.00675984 0.189154,0.0206732z"/>
   <path id="_506873272" class="fil1" d="M2.22574 3.75773c0.0666654,-0.163228 0.174417,-0.304083 0.309831,-0.408587 0.159835,-0.123354 0.357693,-0.19635 0.571772,-0.19635 0.214075,0 0.411929,0.0729921 0.571772,0.19635 0.135413,0.104504 0.243169,0.245358 0.309835,0.408587 0.0672598,-0.0153307 0.135413,-0.0227717 0.203244,-0.0227717 0.192528,0 0.382984,0.0600827 0.543043,0.169917 0.160441,0.110098 0.29037,0.269846 0.361406,0.468846 0.0378976,0.106181 0.0590236,0.22324 0.0590236,0.349492 0,0.272213 -0.106657,0.519047 -0.279087,0.698063 -0.173488,0.180114 -0.413205,0.29152 -0.678012,0.29152l-2.18243 0c-0.264815,0 -0.504531,-0.111406 -0.67802,-0.291516 -0.172429,-0.179016 -0.279087,-0.42585 -0.279087,-0.698067 0,-0.12626 0.021126,-0.243327 0.0590315,-0.349508 0.0710354,-0.198992 0.200972,-0.35874 0.361409,-0.468835 0.160055,-0.109835 0.3505,-0.169917 0.543028,-0.169917 0.0678307,0 0.135988,0.00744488 0.203244,0.0227756zm0.439831 -0.240256c-0.127528,0.0984173 -0.22385,0.23815 -0.27072,0.40022l-0.0314724 0.108831 -0.106445 -0.0379961c-0.076248,-0.0272165 -0.155492,-0.0402362 -0.234437,-0.0402362 -0.149937,0 -0.298303,0.0468228 -0.423028,0.132413 -0.12435,0.0853307 -0.225205,0.209559 -0.280575,0.364669 -0.029878,0.083689 -0.0465276,0.176701 -0.0465276,0.277839 0,0.215409 0.0837244,0.410039 0.219079,0.550563 0.134307,0.139433 0.319819,0.225681 0.524689,0.225681l2.18243 0c0.204862,0 0.39037,-0.0862441 0.524681,-0.225685 0.135354,-0.140524 0.219079,-0.335154 0.219079,-0.550559 0,-0.10113 -0.0166496,-0.194138 -0.0465197,-0.277823 -0.0553701,-0.155118 -0.15622,-0.27935 -0.280571,-0.364681 -0.124728,-0.0855906 -0.273102,-0.132413 -0.423043,-0.132413 -0.0789409,0 -0.158185,0.0130157 -0.234437,0.0402323l-0.106445 0.0379921 -0.0314724 -0.108827c-0.0468701,-0.162071 -0.143197,-0.301803 -0.270724,-0.40022 -0.123201,-0.0950787 -0.276051,-0.151343 -0.441772,-0.151343 -0.165724,0 -0.318575,0.0562638 -0.441772,0.151343z"/>
   <path id="_506873344" class="fil1" d="M2.69882 2.70276c0.0636614,-0.153681 0.16563,-0.286323 0.293465,-0.38498 0.152386,-0.117602 0.341008,-0.187193 0.545083,-0.187193 0.204075,0 0.392693,0.0695906 0.545079,0.187193 0.127835,0.0986575 0.229803,0.231303 0.293465,0.38498 0.0626299,-0.0139134 0.126043,-0.0206732 0.189161,-0.0206732 0.183512,0 0.365043,0.0572717 0.517602,0.161957 0.152945,0.104957 0.276799,0.257228 0.3445,0.446898 0.0361142,0.101185 0.0562441,0.212709 0.0562441,0.332972 0,0.25937 -0.101642,0.494579 -0.265969,0.665181 -0.0355591,0.0369173 -0.0740433,0.0707953 -0.115051,0.101252 -0.00187795,-0.00557087 -0.00379528,-0.0111142 -0.00576378,-0.016626 -0.0230866,-0.0646772 -0.0524016,-0.125205 -0.0869567,-0.181236 0.0189961,-0.0159803 0.0371693,-0.0329646 0.0544409,-0.0508937 0.127248,-0.13211 0.205961,-0.31511 0.205961,-0.517677 0,-0.0951457 -0.0156575,-0.182614 -0.0437402,-0.261303 -0.0520394,-0.145791 -0.146815,-0.262543 -0.263665,-0.342732 -0.117228,-0.0804409 -0.256677,-0.124453 -0.397602,-0.124453 -0.0741575,0 -0.148591,0.0122244 -0.220197,0.0377835l-0.106445 0.0379961 -0.0314724 -0.108831c-0.0440669,-0.15237 -0.13463,-0.283744 -0.254512,-0.376264 -0.115744,-0.0893268 -0.259358,-0.142185 -0.415079,-0.142185 -0.15572,0 -0.299339,0.0528583 -0.415083,0.142185 -0.119882,0.0925197 -0.210445,0.223894 -0.254512,0.376264l-0.0314724 0.108831 -0.106445 -0.0379961c-0.0716024,-0.0255591 -0.146035,-0.0377874 -0.220197,-0.0377874 -0.140917,0 -0.280362,0.0440118 -0.397591,0.124453 -0.116846,0.080185 -0.211626,0.196937 -0.263669,0.342724 -0.0280827,0.0786929 -0.0437441,0.166165 -0.0437441,0.261315 0,0.0457835 0.0040315,0.0905669 0.0117283,0.133988 -0.070063,0.0157008 -0.138406,0.0392835 -0.203551,0.0702047 -0.0140787,-0.0657677 -0.0215157,-0.134094 -0.0215157,-0.204193 0,-0.120264 0.0201339,-0.231795 0.056248,-0.332984 0.0677087,-0.189669 0.191567,-0.341941 0.344504,-0.44689 0.152559,-0.104685 0.334087,-0.161957 0.517591,-0.161957 0.0631181,0 0.126535,0.00675984 0.189161,0.0206772z"/>
  </g>
 </g>
</svg>
