<?xml version="1.0" encoding="utf-8"?>
<!-- Generator: Adobe Illustrator 18.0.0, SVG Export Plug-In . SVG Version: 6.00 Build 0)  -->
<!DOCTYPE svg PUBLIC "-//W3C//DTD SVG 1.1//EN" "http://www.w3.org/Graphics/SVG/1.1/DTD/svg11.dtd">
<svg version="1.1" id="Icon_Set" xmlns="http://www.w3.org/2000/svg" xmlns:xlink="http://www.w3.org/1999/xlink" x="0px" y="0px"
	 viewBox="0 0 256 256" style="enable-background:new 0 0 256 256;" xml:space="preserve">
<style type="text/css">
	.st0{fill:#4C4372;}
	.st1{fill:#F0C48A;}
	.st2{fill:#FD919E;}
	.st3{fill:#D3E6F8;}
	.st4{fill:#A4CFF2;}
	.st5{fill:#FFFFFF;}
	.st6{fill:#7BABF1;}
	.st7{fill:#E8677D;}
</style>
<g>
	<g>
		<g>
			<circle class="st1" cx="128" cy="128" r="103.5"/>
		</g>
	</g>
	<g>
		<path class="st5" d="M191.036,148.57c7.178-11.439,11.333-24.969,11.333-39.471c0-41.073-33.296-74.369-74.369-74.369
			s-74.369,33.296-74.369,74.369c0,14.502,4.154,28.032,11.333,39.471H191.036z"/>
	</g>
	<g>
		<path class="st3" d="M128,34.729c-2.604,0-5.175,0.135-7.709,0.396c37.45,3.857,66.66,35.503,66.66,73.973
			c0,14.502-4.155,28.032-11.333,39.471h15.418c7.178-11.439,11.333-24.969,11.333-39.471C202.369,68.026,169.073,34.729,128,34.729
			z"/>
	</g>
	<g>
		<path class="st0" d="M191.036,151.57H64.964c-1.032,0-1.992-0.531-2.541-1.405c-7.715-12.293-11.792-26.494-11.792-41.066
			c0-42.662,34.708-77.369,77.369-77.369s77.369,34.708,77.369,77.369c0,14.571-4.077,28.771-11.792,41.066
			C193.028,151.039,192.068,151.57,191.036,151.57z M66.646,145.57h122.709c6.557-11.008,10.015-23.582,10.015-36.471
			c0-39.353-32.016-71.369-71.369-71.369s-71.369,32.016-71.369,71.369C56.631,121.989,60.089,134.563,66.646,145.57z"/>
	</g>
	<g>
		<path class="st0" d="M128,53.523c-1.657,0-3-1.343-3-3V34.729c0-1.657,1.343-3,3-3s3,1.343,3,3v15.794
			C131,52.18,129.657,53.523,128,53.523z"/>
	</g>
	<g>
		<path class="st0" d="M128,53.523c-1.657,0-3-1.343-3-3V34.729c0-1.657,1.343-3,3-3s3,1.343,3,3v15.794
			C131,52.18,129.657,53.523,128,53.523z"/>
	</g>
	<g>
		<path class="st0" d="M202.369,112.099h-15.794c-1.657,0-3-1.343-3-3s1.343-3,3-3h15.794c1.657,0,3,1.343,3,3
			S204.026,112.099,202.369,112.099z"/>
	</g>
	<g>
		<path class="st0" d="M69.425,112.099H53.631c-1.657,0-3-1.343-3-3s1.343-3,3-3h15.794c1.657,0,3,1.343,3,3
			S71.082,112.099,69.425,112.099z"/>
	</g>
	<g>
		<path class="st0" d="M86.581,70.68c-0.768,0-1.535-0.293-2.121-0.879L73.292,58.633c-1.172-1.171-1.172-3.071,0-4.242
			c1.172-1.172,3.07-1.172,4.242,0l11.168,11.168c1.172,1.171,1.172,3.071,0,4.242C88.116,70.387,87.349,70.68,86.581,70.68z"/>
	</g>
	<g>
		<path class="st0" d="M169.419,70.68c-0.768,0-1.535-0.293-2.121-0.879c-1.172-1.171-1.172-3.071,0-4.242l11.168-11.168
			c1.172-1.172,3.07-1.172,4.242,0c1.172,1.171,1.172,3.071,0,4.242L171.54,69.801C170.954,70.387,170.187,70.68,169.419,70.68z"/>
	</g>
	<g>
		<path class="st0" d="M128,112.099c-0.774,0-1.548-0.298-2.135-0.893c-1.164-1.179-1.152-3.078,0.027-4.242l28.964-28.594
			c1.177-1.164,3.077-1.152,4.242,0.027c1.164,1.179,1.152,3.078-0.027,4.242l-28.964,28.594
			C129.523,111.811,128.762,112.099,128,112.099z"/>
	</g>
	<g>
		<path class="st4" d="M151.869,207.803h-47.738c-4.646,0-8.413-3.767-8.413-8.413v-47.739c0-4.646,3.767-8.413,8.413-8.413h47.738
			c4.646,0,8.413,3.767,8.413,8.413v47.739C160.282,204.037,156.516,207.803,151.869,207.803z"/>
	</g>
	<g>
		<path class="st0" d="M151.869,210.803h-47.738c-6.293,0-11.413-5.12-11.413-11.413v-47.739c0-6.293,5.12-11.413,11.413-11.413
			h47.738c6.293,0,11.413,5.12,11.413,11.413v47.739C163.282,205.684,158.162,210.803,151.869,210.803z M104.131,146.239
			c-2.984,0-5.413,2.428-5.413,5.413v47.739c0,2.984,2.429,5.413,5.413,5.413h47.738c2.984,0,5.413-2.428,5.413-5.413v-47.739
			c0-2.985-2.429-5.413-5.413-5.413H104.131z"/>
	</g>
	<g>
		<g>
			<path class="st0" d="M113.196,224.271c-1.657,0-3-1.343-3-3v-13.467c0-1.657,1.343-3,3-3s3,1.343,3,3v13.467
				C116.196,222.927,114.854,224.271,113.196,224.271z"/>
		</g>
		<g>
			<path class="st0" d="M142.803,224.271c-1.657,0-3-1.343-3-3v-13.467c0-1.657,1.343-3,3-3s3,1.343,3,3v13.467
				C145.803,222.927,144.46,224.271,142.803,224.271z"/>
		</g>
		<g>
			<path class="st0" d="M128,224.271c-1.657,0-3-1.343-3-3v-13.467c0-1.657,1.343-3,3-3s3,1.343,3,3v13.467
				C131,222.927,129.657,224.271,128,224.271z"/>
		</g>
	</g>
	<g>
		<g>
			<path class="st0" d="M113.196,146.239c-1.657,0-3-1.343-3-3v-13.467c0-1.657,1.343-3,3-3s3,1.343,3,3v13.467
				C116.196,144.896,114.854,146.239,113.196,146.239z"/>
		</g>
		<g>
			<path class="st0" d="M142.803,146.239c-1.657,0-3-1.343-3-3v-13.467c0-1.657,1.343-3,3-3s3,1.343,3,3v13.467
				C145.803,144.896,144.46,146.239,142.803,146.239z"/>
		</g>
		<g>
			<path class="st0" d="M128,146.239c-1.657,0-3-1.343-3-3v-13.467c0-1.657,1.343-3,3-3s3,1.343,3,3v13.467
				C131,144.896,129.657,146.239,128,146.239z"/>
		</g>
	</g>
	<g>
		<g>
			<path class="st0" d="M95.718,163.718H82.25c-1.657,0-3-1.343-3-3s1.343-3,3-3h13.468c1.657,0,3,1.343,3,3
				S97.375,163.718,95.718,163.718z"/>
		</g>
		<g>
			<path class="st0" d="M95.718,178.521H82.25c-1.657,0-3-1.343-3-3s1.343-3,3-3h13.468c1.657,0,3,1.343,3,3
				S97.375,178.521,95.718,178.521z"/>
		</g>
		<g>
			<path class="st0" d="M95.718,193.324H82.25c-1.657,0-3-1.343-3-3s1.343-3,3-3h13.468c1.657,0,3,1.343,3,3
				S97.375,193.324,95.718,193.324z"/>
		</g>
	</g>
	<g>
		<g>
			<path class="st0" d="M173.75,163.718h-13.468c-1.657,0-3-1.343-3-3s1.343-3,3-3h13.468c1.657,0,3,1.343,3,3
				S175.407,163.718,173.75,163.718z"/>
		</g>
		<g>
			<path class="st0" d="M173.75,178.521h-13.468c-1.657,0-3-1.343-3-3s1.343-3,3-3h13.468c1.657,0,3,1.343,3,3
				S175.407,178.521,173.75,178.521z"/>
		</g>
		<g>
			<path class="st0" d="M173.75,193.324h-13.468c-1.657,0-3-1.343-3-3s1.343-3,3-3h13.468c1.657,0,3,1.343,3,3
				S175.407,193.324,173.75,193.324z"/>
		</g>
	</g>
	<g>
		<path class="st6" d="M138.979,193.214h-21.957c-3.709,0-6.715-3.006-6.715-6.714v-21.958c0-3.708,3.006-6.714,6.715-6.714h21.957
			c3.709,0,6.715,3.006,6.715,6.714V186.5C145.693,190.208,142.688,193.214,138.979,193.214z"/>
	</g>
	<g>
		<path class="st0" d="M138.979,196.214h-21.957c-5.356,0-9.715-4.358-9.715-9.714v-21.958c0-5.356,4.358-9.714,9.715-9.714h21.957
			c5.356,0,9.715,4.358,9.715,9.714V186.5C148.693,191.856,144.335,196.214,138.979,196.214z M117.021,160.828
			c-2.049,0-3.715,1.666-3.715,3.714V186.5c0,2.048,1.666,3.714,3.715,3.714h21.957c2.049,0,3.715-1.666,3.715-3.714v-21.958
			c0-2.048-1.666-3.714-3.715-3.714H117.021z"/>
	</g>
	<g>
		<circle class="st2" cx="128" cy="109.099" r="11.429"/>
	</g>
	<g>
		<path class="st0" d="M128,123.528c-7.957,0-14.43-6.473-14.43-14.429s6.473-14.429,14.43-14.429
			c7.956,0,14.429,6.473,14.429,14.429S135.956,123.528,128,123.528z M128,100.669c-4.648,0-8.43,3.781-8.43,8.429
			s3.781,8.429,8.43,8.429c4.647,0,8.429-3.781,8.429-8.429S132.647,100.669,128,100.669z"/>
	</g>
</g>
</svg>
