<?xml version="1.0" encoding="iso-8859-1"?>
<!-- Generator: Adobe Illustrator 19.0.0, SVG Export Plug-In . SVG Version: 6.00 Build 0)  -->
<svg xmlns="http://www.w3.org/2000/svg" xmlns:xlink="http://www.w3.org/1999/xlink" version="1.1" id="Layer_1" x="0px" y="0px" viewBox="0 0 512 512" style="enable-background:new 0 0 512 512;" xml:space="preserve">
<path style="fill:#FEA001;" d="M15.017,280.604c0,123.632,100.224,223.856,223.856,223.856c70.728,0,133.784-32.811,174.807-84.032  V371.22L15.017,231.396V280.604z"/>
<path style="fill:#FFD54F;" d="M238.872,231.396L413.679,91.571C372.655,40.351,309.6,7.54,238.872,7.54  C115.24,7.54,15.016,107.764,15.016,231.396S115.24,455.252,238.872,455.252c70.728,0,133.784-32.811,174.807-84.032  L238.872,231.396z"/>
<path style="fill:#45AAD9;" d="M335.493,264.612L464.685,367.95c17.838,0,32.298-46.266,32.298-103.338v-45.518H335.493V264.612z"/>
<path style="fill:#4FC2F8;" d="M464.684,322.431L335.493,219.093l129.193-103.338c17.838,0,32.298,46.266,32.298,103.338  S482.522,322.431,464.684,322.431z"/>
<path d="M330.59,213.365c-1.642,1.41-2.637,3.567-2.637,5.728v45.518c0,2.29,1.042,4.457,2.83,5.888l129.193,103.338  c1.336,1.069,2.997,1.652,4.71,1.652c8.631,0,20.849-6.168,30.035-35.557c6.321-20.227,9.803-46.976,9.803-75.321v-45.518  c0-28.344-3.481-55.094-9.803-75.32c-9.186-29.389-21.404-35.557-30.035-35.557c-1.712,0-3.373,0.583-4.71,1.652L330.783,213.205  C330.718,213.257,330.653,213.311,330.59,213.365z M466.651,123.837c8.746,4.566,22.792,37.814,22.792,95.256  s-14.046,90.69-22.792,95.256c0,0-36.576-29.255-36.601-29.276c-3.185-2.547-8.052-2.004-10.597,1.178  c-2.526,3.159-2.024,8.036,1.178,10.598l39.344,31.471c1.002,0.802,2.186,1.33,3.439,1.544c7.938,1.354,15.342-5.024,19.741-10.892  c0.58-0.771,1.133-1.562,1.664-2.367c0.067-0.103,0.136-0.194,0.203-0.298c-4.858,25.687-12.721,40.612-18.372,43.562  l-123.619-98.88v-26.208l5.285,4.227l49.335,39.462c3.211,2.569,8.032,2.032,10.598-1.178c2.602-3.251,2.074-7.996-1.178-10.598  l-59.154-47.315l-0.355-0.285L466.651,123.837z"/>
<path d="M238.872,512c70.622,0,136.482-31.659,180.691-86.858c1.071-1.338,1.655-3,1.655-4.713V371.22  c0-0.011-0.003-0.021-0.003-0.032c-0.013-2.234-1.081-4.457-2.828-5.856L250.941,231.397L418.388,97.459  c1.563-1.25,2.565-3.069,2.785-5.057c0.221-1.988-0.358-3.983-1.609-5.544C375.354,31.659,309.494,0,238.872,0  c-18.551,0-37.059,2.22-55.01,6.598c-4.045,0.986-6.524,5.067-5.538,9.111s5.066,6.526,9.111,5.539  c16.783-4.094,34.089-6.168,51.437-6.168c63.502,0,122.886,27.384,164.104,75.397L234.163,225.508  c-1.788,1.431-2.83,3.597-2.83,5.888c0,2.291,1.041,4.457,2.83,5.888l168.803,135.022c-0.552,0.642-1.11,1.278-1.668,1.912  c-24.191,27.535-55.214,48.666-89.756,60.943c-23.326,8.291-47.913,12.55-72.67,12.55c-36.464,0-72.523-9.254-104.276-26.759  c-3.575-1.97-8.252-0.648-10.243,2.963c-1.982,3.597-0.622,8.266,2.963,10.243c33.619,18.539,71.948,28.426,110.328,28.63  c0.409,0.002,0.818,0.003,1.228,0.003c30.542,0,61.044-6.031,89.234-17.802c29.351-12.256,56.08-30.693,78.033-53.703v26.47  c-41.312,50.347-102.122,79.164-167.267,79.164c-57.78,0-112.101-22.5-152.958-63.358c-30.287-30.286-50.487-67.971-58.911-108.978  c0.012,0.026,0.024,0.052,0.036,0.078c1.835,4.117,3.767,8.19,5.828,12.198c0.062,0.121,0.119,0.242,0.181,0.363  c16.182,31.405,39.781,59.148,68.245,80.23c3.252,2.409,8.138,1.677,10.547-1.571c2.446-3.298,1.716-8.111-1.571-10.547  c-1.664-1.232-3.309-2.489-4.937-3.769c-8.142-6.404-15.812-13.396-22.963-20.889c-14.134-14.811-26.454-31.999-35.915-50.361  c-15.71-30.49-23.897-64.633-23.897-98.921c0-44.037,13.151-86.407,38.031-122.531c24.309-35.293,58.097-62.358,97.713-78.27  c3.864-1.551,5.738-5.942,4.187-9.807c-1.551-3.864-5.942-5.738-9.807-4.186c-42.376,17.02-78.517,45.966-104.513,83.71  C21.548,138.962,7.477,184.291,7.477,231.396v49.208c0,61.808,24.069,119.917,67.774,163.622  C118.956,487.93,177.064,512,238.872,512z"/>
<g>
</g>
<g>
</g>
<g>
</g>
<g>
</g>
<g>
</g>
<g>
</g>
<g>
</g>
<g>
</g>
<g>
</g>
<g>
</g>
<g>
</g>
<g>
</g>
<g>
</g>
<g>
</g>
<g>
</g>
</svg>
