<svg xmlns="http://www.w3.org/2000/svg" width="128" height="128" viewBox="0 0 128 128">
  <title>REVENUE</title>
  <g>
    <circle cx="105.093" cy="22.907" r="16.6" fill="#f4dd45"/>
    <rect x="6.307" y="89.65" width="15.909" height="32.043" fill="#f4dd45"/>
    <rect x="36.306" y="78.746" width="15.909" height="42.947" fill="#f87c68"/>
    <rect x="66.305" y="67.843" width="15.909" height="53.85" fill="#7fb3fa"/>
    <polygon points="119.567 62.393 105.093 47.919 90.618 62.393 97.138 62.393 97.138 121.693 113.047 121.693 113.047 62.393 119.567 62.393" fill="#64d465"/>
    <path d="M106.454,32.906v1.816h-2.581v-1.9a11.633,11.633,0,0,1-6.61-3.036l2.043-2.525a9.7,9.7,0,0,0,4.567,2.44V24.17c-3.489-.908-5.844-2.156-5.844-5.5,0-3.064,2.355-5.418,5.844-5.844v-1.73h2.581v1.759a10.557,10.557,0,0,1,5.957,2.637l-1.929,2.61a9.266,9.266,0,0,0-4.028-2.127v5.333c3.887.879,6.468,2.212,6.468,5.673C112.922,30.24,110.567,32.623,106.454,32.906Zm-2.581-12.282V15.915a2.678,2.678,0,0,0-2.27,2.44C101.6,19.489,102.342,20.085,103.873,20.624Zm5.5,6.694c0-1.3-.907-1.9-2.922-2.5v5.049C108.384,29.644,109.376,28.567,109.376,27.318Z" fill="#fcc101"/>
  </g>
</svg>
