<?xml version="1.0" encoding="UTF-8"?>
<!DOCTYPE svg PUBLIC "-//W3C//DTD SVG 1.1//EN" "http://www.w3.org/Graphics/SVG/1.1/DTD/svg11.dtd">
<!-- Creator: CorelDRAW -->
<svg xmlns="http://www.w3.org/2000/svg" xml:space="preserve" width="2048px" height="2048px" style="shape-rendering:geometricPrecision; text-rendering:geometricPrecision; image-rendering:optimizeQuality; fill-rule:evenodd; clip-rule:evenodd"
viewBox="0 0 2048 2048"
 xmlns:xlink="http://www.w3.org/1999/xlink">
 <defs>
  <style type="text/css">
   <![CDATA[
    .fil2 {fill:none}
    .fil11 {fill:#00BCD4}
    .fil15 {fill:#03A9F4}
    .fil8 {fill:#263238}
    .fil14 {fill:#29B6F6}
    .fil3 {fill:#455A64}
    .fil6 {fill:#BDBDBD}
    .fil5 {fill:#D9AE9A}
    .fil9 {fill:#DDB7A5}
    .fil4 {fill:#E3B8A4}
    .fil1 {fill:#E6A545}
    .fil7 {fill:#EDC5B2}
    .fil0 {fill:#FFB74D}
    .fil12 {fill:#263238;fill-rule:nonzero}
    .fil13 {fill:#272F34;fill-rule:nonzero}
    .fil10 {fill:#37474F;fill-rule:nonzero}
   ]]>
  </style>
   <clipPath id="id0">
    <path d="M1024 0c565.538,0 1024,458.462 1024,1024 0,565.538 -458.462,1024 -1024,1024 -565.538,0 -1024,-458.462 -1024,-1024 0,-565.538 458.462,-1024 1024,-1024z"/>
   </clipPath>
 </defs>
 <g id="Layer_x0020_1">
  <metadata id="CorelCorpID_0Corel-Layer"/>
  <path class="fil0" d="M1024 0c565.538,0 1024,458.462 1024,1024 0,565.538 -458.462,1024 -1024,1024 -565.538,0 -1024,-458.462 -1024,-1024 0,-565.538 458.462,-1024 1024,-1024z"/>
  <g style="clip-path:url(#id0)">
   <g id="_385681120">
    <g>
     <polygon id="_2856356881" class="fil1" points="1307.49,815.427 2443.37,1951.31 2435.94,1949.6 1300.06,813.718 "/>
     <polygon id="_285635736" class="fil1" points="1304.17,997.541 2440.05,2133.42 2436.62,2135.02 1300.74,999.137 "/>
     <polygon id="_285636120" class="fil1" points="1300.74,999.137 2436.62,2135.02 2423.65,2141.05 1287.77,1005.17 "/>
     <polygon id="_285635904" class="fil1" points="1287.77,1005.17 2423.65,2141.05 2423.68,2141.13 2423.71,2141.21 2423.75,2141.29 2423.78,2141.37 2423.81,2141.45 2423.85,2141.52 2423.88,2141.6 2423.92,2141.68 1288.03,1005.8 1288,1005.72 1287.96,1005.64 1287.93,1005.57 1287.9,1005.49 1287.86,1005.41 1287.83,1005.33 1287.8,1005.25 "/>
     <polygon id="_285635928" class="fil1" points="1288.03,1005.8 2423.92,2141.68 2416.06,2145.29 1280.17,1009.41 "/>
     <polygon id="_285636096" class="fil1" points="1280.17,1009.41 2416.06,2145.29 2414.81,2145.83 2413.56,2146.29 2412.31,2146.67 2411.07,2146.98 2409.84,2147.22 2408.61,2147.39 2407.38,2147.49 2406.16,2147.53 1270.28,1011.64 1271.5,1011.61 1272.72,1011.51 1273.96,1011.34 1275.19,1011.1 1276.43,1010.79 1277.68,1010.41 1278.92,1009.95 "/>
     <polygon id="_285636264" class="fil1" points="1244.42,993.471 2380.3,2129.35 2379.12,2132.02 2377.93,2134.68 2376.72,2137.33 2375.5,2139.98 2374.27,2142.63 2373.02,2145.26 2371.76,2147.89 2370.48,2150.51 2369.2,2153.12 2367.9,2155.73 2366.58,2158.33 2365.25,2160.91 2363.91,2163.49 2362.56,2166.07 2361.19,2168.63 2359.81,2171.18 2358.42,2173.72 2357.01,2176.25 2355.59,2178.77 2354.16,2181.28 2352.72,2183.77 2351.26,2186.26 2349.8,2188.73 2348.32,2191.19 2346.82,2193.64 2345.32,2196.07 2343.8,2198.5 2342.28,2200.9 2340.74,2203.3 2339.18,2205.68 2337.62,2208.04 2336.04,2210.39 1200.16,1074.51 1201.74,1072.16 1203.3,1069.8 1204.85,1067.42 1206.39,1065.02 1207.92,1062.61 1209.44,1060.19 1210.94,1057.76 1212.44,1055.31 1213.92,1052.85 1215.38,1050.38 1216.84,1047.89 1218.28,1045.39 1219.71,1042.88 1221.13,1040.37 1222.54,1037.84 1223.93,1035.29 1225.31,1032.74 1226.68,1030.18 1228.03,1027.61 1229.37,1025.03 1230.7,1022.44 1232.01,1019.85 1233.32,1017.24 1234.6,1014.63 1235.88,1012.01 1237.14,1009.38 1238.39,1006.74 1239.62,1004.1 1240.84,1001.45 1242.05,998.798 1243.24,996.137 "/>
     <polygon id="_285636600" class="fil1" points="1253.17,1004.84 2389.05,2140.73 2387.76,2139.54 2386.51,2138.28 1250.63,1002.4 1251.88,1003.66 "/>
     <polygon id="_285636816" class="fil1" points="1270.28,1011.64 2406.16,2147.53 2404.96,2147.5 2403.78,2147.41 2402.62,2147.26 2401.46,2147.05 2400.33,2146.79 2399.21,2146.48 2398.11,2146.12 2397.02,2145.7 2395.96,2145.24 2394.91,2144.72 2393.88,2144.16 2392.87,2143.56 2391.88,2142.91 2390.92,2142.22 2389.97,2141.49 2389.05,2140.73 1253.17,1004.84 1254.09,1005.61 1255.04,1006.34 1256,1007.03 1256.99,1007.68 1258,1008.28 1259.03,1008.84 1260.07,1009.35 1261.14,1009.82 1262.22,1010.23 1263.33,1010.6 1264.45,1010.91 1265.58,1011.17 1266.73,1011.38 1267.9,1011.52 1269.08,1011.61 "/>
     <polygon id="_285636960" class="fil1" points="1200.16,1074.51 2336.04,2210.39 2333.73,2213.79 2331.39,2217.15 2329.03,2220.48 2326.64,2223.78 2324.23,2227.04 2321.79,2230.27 2319.33,2233.46 2316.85,2236.62 2314.34,2239.74 2311.81,2242.82 2309.25,2245.86 2306.67,2248.86 2304.07,2251.82 2301.45,2254.74 2298.8,2257.62 2296.14,2260.45 2293.45,2263.24 2290.73,2265.98 2288,2268.68 2285.24,2271.33 2282.47,2273.93 2279.67,2276.49 2276.86,2278.99 2274.02,2281.44 2271.16,2283.84 2268.28,2286.19 2265.38,2288.49 2262.46,2290.73 2259.53,2292.92 2256.57,2295.05 2253.6,2297.13 2250.6,2299.14 1114.72,1163.26 1117.71,1161.24 1120.69,1159.17 1123.65,1157.04 1126.58,1154.85 1129.5,1152.61 1132.4,1150.31 1135.28,1147.96 1138.14,1145.56 1140.97,1143.11 1143.79,1140.6 1146.59,1138.05 1149.36,1135.45 1152.12,1132.8 1154.85,1130.1 1157.56,1127.36 1160.25,1124.57 1162.92,1121.73 1165.57,1118.86 1168.19,1115.94 1170.79,1112.98 1173.37,1109.98 1175.93,1106.93 1178.46,1103.85 1180.97,1100.73 1183.45,1097.58 1185.91,1094.38 1188.35,1091.16 1190.76,1087.89 1193.15,1084.6 1195.51,1081.27 1197.85,1077.9 "/>
     <polygon id="_285637128" class="fil1" points="1114.72,1163.26 2250.6,2299.14 2250.6,2311.25 1114.72,1175.37 "/>
     <polygon id="_285637152" class="fil1" points="747.945,813.718 1883.83,1949.6 1876.39,1951.31 740.512,815.427 "/>
     <polygon id="_285637056" class="fil1" points="1188.1,1234.46 2323.98,2370.34 2322.96,2371.75 1187.08,1235.87 "/>
     <polygon id="_285636936" class="fil1" points="1375.04,1346.54 2510.92,2482.42 2512.37,2483.88 2513.81,2485.45 2515.22,2487.11 2516.62,2488.86 2518,2490.71 2519.36,2492.65 2520.7,2494.69 2522.03,2496.81 2523.34,2499.02 2524.64,2501.32 2525.92,2503.69 2527.18,2506.15 2528.43,2508.69 2529.67,2511.31 2530.89,2514.01 1395.01,1378.12 1393.79,1375.43 1392.55,1372.81 1391.3,1370.27 1390.04,1367.81 1388.76,1365.43 1387.46,1363.14 1386.15,1360.93 1384.82,1358.81 1383.48,1356.77 1382.12,1354.83 1380.74,1352.98 1379.34,1351.22 1377.92,1349.56 1376.49,1348 "/>
     <polygon id="_285637080" class="fil1" points="740.512,815.427 1876.39,1951.31 1849.39,1957.52 713.512,821.633 "/>
     <polygon id="_285636768" class="fil1" points="747.262,999.137 1883.14,2135.02 1882.68,2134.8 746.797,998.92 "/>
     <polygon id="_285637224" class="fil1" points="1275.12,1583.63 2411,2719.51 2160.33,2719.51 1024.45,1583.63 "/>
     <polygon id="_285637512" class="fil1" points="1024.45,1583.63 2160.33,2719.51 2159.88,2719.88 1024,1584 "/>
     <polygon id="_285637488" class="fil1" points="1024,1584 2159.88,2719.88 2159.43,2719.51 1023.55,1583.63 "/>
     <polygon id="_285638064" class="fil1" points="1023.55,1583.63 2159.43,2719.51 1908.76,2719.51 772.877,1583.63 "/>
     <polygon id="_285638088" class="fil1" points="772.877,1583.63 1908.76,2719.51 1737.15,2719.51 601.265,1583.63 "/>
     <polygon id="_285637440" class="fil1" points="746.797,998.92 1882.68,2134.8 1879.71,2133.42 743.832,997.541 "/>
     <polygon id="_285637800" class="fil1" points="819.468,1084.98 1955.35,2220.86 1952.75,2220.83 1950.16,2220.73 1947.59,2220.56 1945.03,2220.33 1942.49,2220.04 1939.98,2219.69 1937.48,2219.27 1935,2218.79 1932.55,2218.26 1930.11,2217.66 1927.7,2217 1925.32,2216.29 1922.96,2215.52 1920.62,2214.69 1918.31,2213.81 1916.02,2212.87 1913.77,2211.88 1911.54,2210.84 1909.35,2209.74 1907.18,2208.6 1905.04,2207.4 1902.94,2206.15 1900.87,2204.86 1898.83,2203.51 1896.83,2202.12 1894.86,2200.68 1892.93,2199.2 1891.03,2197.67 1889.17,2196.1 1887.35,2194.49 1885.57,2192.83 749.692,1056.95 751.472,1058.6 753.292,1060.22 755.15,1061.79 757.046,1063.32 758.977,1064.8 760.946,1066.24 762.949,1067.63 764.986,1068.98 767.058,1070.27 769.162,1071.52 771.297,1072.71 773.464,1073.86 775.661,1074.96 777.889,1076 780.144,1076.99 782.427,1077.93 784.737,1078.81 787.074,1079.64 789.435,1080.41 791.822,1081.12 794.233,1081.78 796.666,1082.37 799.121,1082.91 801.599,1083.39 804.096,1083.81 806.613,1084.16 809.15,1084.45 811.705,1084.68 814.276,1084.84 816.864,1084.94 "/>
     <polygon id="_285637848" class="fil1" points="855.123,1084.98 1991,2220.86 1955.35,2220.86 819.468,1084.98 "/>
     <polygon id="_285637656" class="fil1" points="933.276,1163.26 2069.16,2299.14 2066.45,2297.32 2063.77,2295.46 2061.09,2293.55 2058.44,2291.59 2055.79,2289.59 2053.17,2287.54 2050.56,2285.45 2047.97,2283.32 2045.39,2281.14 2042.83,2278.92 2040.29,2276.66 2037.76,2274.36 2035.25,2272.02 2032.76,2269.64 896.875,1133.76 899.368,1136.14 901.877,1138.48 904.405,1140.78 906.948,1143.04 909.509,1145.26 912.086,1147.43 914.678,1149.57 917.287,1151.66 919.913,1153.7 922.555,1155.71 925.211,1157.66 927.884,1159.58 930.572,1161.44 "/>
     <polygon id="_285637416" class="fil1" points="1446.73,1583.63 2582.61,2719.51 2411,2719.51 1275.12,1583.63 "/>
     <polygon id="_285637944" class="fil1" points="1114.72,1175.37 2250.6,2311.25 2250.6,2338.78 1114.72,1202.9 "/>
     <polygon id="_285638808" class="fil1" points="1395.01,1378.12 2530.89,2514.01 2532.88,2518.65 2534.84,2523.49 2536.76,2528.52 2538.65,2533.73 2540.5,2539.11 2542.32,2544.66 2544.11,2550.36 2545.86,2556.21 2547.59,2562.21 2549.3,2568.33 2550.97,2574.57 2552.62,2580.93 2554.25,2587.4 2555.86,2593.96 2557.44,2600.62 2559.01,2607.36 2560.56,2614.17 2562.09,2621.04 2563.61,2627.98 2565.12,2634.96 2566.61,2641.98 2568.09,2649.03 2569.56,2656.11 2571.03,2663.2 2572.48,2670.3 2573.93,2677.4 2575.38,2684.49 2576.83,2691.56 2578.27,2698.61 2579.72,2705.62 2581.17,2712.59 2582.61,2719.51 1446.73,1583.63 1445.28,1576.71 1443.84,1569.74 1442.39,1562.73 1440.95,1555.68 1439.5,1548.61 1438.05,1541.52 1436.6,1534.42 1435.14,1527.32 1433.68,1520.23 1432.21,1513.15 1430.73,1506.1 1429.23,1499.07 1427.73,1492.09 1426.21,1485.16 1424.68,1478.29 1423.13,1471.48 1421.56,1464.74 1419.98,1458.08 1418.37,1451.52 1416.74,1445.05 1415.09,1438.69 1413.41,1432.44 1411.71,1426.32 1409.98,1420.33 1408.23,1414.48 1406.44,1408.78 1404.62,1403.23 1402.77,1397.85 1400.88,1392.64 1398.96,1387.61 1397,1382.77 "/>
     <polygon id="_285638256" class="fil1" points="1258.55,571.572 2394.43,1707.45 2399.25,1713.15 2403.94,1718.97 2408.49,1724.89 2412.9,1730.93 2417.16,1737.07 2421.29,1743.32 2425.26,1749.67 2429.09,1756.12 2432.76,1762.67 2436.28,1769.32 2439.64,1776.06 2442.84,1782.88 2445.87,1789.8 2448.75,1796.8 2451.45,1803.89 2453.99,1811.05 2456.35,1818.29 2458.54,1825.61 2460.55,1833 2462.39,1840.46 2464.03,1847.99 2465.5,1855.59 2466.78,1863.24 2467.86,1870.96 2468.76,1878.74 2469.46,1886.57 2469.96,1894.45 2470.27,1902.39 2470.37,1910.37 1334.49,774.488 1334.39,766.505 1334.08,758.571 1333.58,750.686 1332.88,742.855 1331.98,735.079 1330.9,727.361 1329.62,719.704 1328.15,712.11 1326.5,704.58 1324.67,697.119 1322.66,689.729 1320.47,682.411 1318.11,675.168 1315.57,668.004 1312.87,660.919 1309.99,653.918 1306.95,647.002 1303.75,640.175 1300.39,633.436 1296.88,626.791 1293.2,620.242 1289.38,613.79 1285.4,607.438 1281.28,601.189 1277.01,595.046 1272.6,589.009 1268.05,583.084 1263.37,577.271 "/>
     <polygon id="_285638160" class="fil1" points="1334.49,774.488 2470.37,1910.37 2470.37,1957.52 1334.49,821.633 "/>
     <polygon id="_285638688" class="fil1" points="1334.49,821.633 2470.37,1957.52 2443.37,1951.31 1307.49,815.427 "/>
     <polygon id="_285638736" class="fil1" points="1300.06,813.718 2435.94,1949.6 2435.96,1949.65 2435.98,1949.7 2436,1949.75 2436.02,1949.81 2436.04,1949.86 2436.06,1949.91 2436.08,1949.96 2436.1,1950.02 1300.22,814.134 1300.2,814.081 1300.18,814.029 1300.16,813.977 1300.14,813.924 1300.12,813.872 1300.1,813.82 1300.08,813.77 "/>
     <polygon id="_285638304" class="fil1" points="1304.54,817.678 2440.42,1953.56 2440.05,2133.42 1304.17,997.541 "/>
     <polygon id="_285638208" class="fil1" points="1303.84,814.908 2439.72,1950.79 2439.88,1951.12 2440.02,1951.45 2440.14,1951.79 2440.24,1952.13 2440.32,1952.48 2440.38,1952.84 2440.41,1953.2 2440.42,1953.56 1304.54,817.678 1304.53,817.314 1304.49,816.954 1304.44,816.599 1304.36,816.25 1304.26,815.905 1304.14,815.566 1304,815.234 "/>
    </g>
    <path id="_385681288" class="fil1" d="M1304.54 817.678l-0.372048 179.863 -3.42992 1.59567 -12.9673 6.03308c0.080315,0.21378 0.167717,0.422835 0.263386,0.627166l-7.86024 3.61536c-3.33307,1.53189 -6.65315,2.23229 -9.89646,2.23229 -6.41103,0 -12.2528,-2.60433 -17.1059,-6.79961 -3.51614,-3.04016 -6.52678,-7.0193 -8.7567,-11.374 -12.4878,28.4646 -27.3886,56.0516 -44.2524,81.0402 -24.5362,36.3555 -53.4059,67.5449 -85.4422,88.7493l0 12.111 0 27.528 73.376 31.5614 -1.01575 1.40788c126.05,59.589 167.707,92.6918 186.488,109.309 7.89449,6.98504 14.9728,18.3768 21.437,32.9469 21.5055,48.4359 36.2469,131.997 51.7276,205.507l-171.615 0 -250.668 0 -0.45 0.369685 -0.45 -0.369685 -250.673 0 -171.612 0c15.4819,-73.5154 30.2256,-157.07 51.7264,-205.507 6.47126,-14.5677 13.5496,-25.9606 21.4453,-32.9469 18.6791,-16.5295 61.4528,-50.1697 186.41,-109.416l-0.937796 -1.30039 72.6178 -31.4162 0.0177165 -0.00708662c0.205512,-0.090945 0.412205,-0.18189 0.620079,-0.26811 0.0354331,-0.0212599 0.0732284,-0.0377953 0.111024,-0.0543308l0 -27.3402 0 -12.1169c-28.917,-19.1398 -55.2544,-46.415 -78.1524,-78.2812l-35.6551 0c-27.8563,0 -53.1709,-11.3858 -71.5158,-29.7296 -17.7071,-17.7083 -28.9311,-41.9103 -29.6894,-68.6233l28.7315 13.2095 0.266929 0.122835 0 -0.819686 -0.464174 -0.216142 -2.96575 -1.37953 -0.0413386 -19.8662 -0.329528 -159.997c0,-0.975591 0.248032,-1.90984 0.698032,-2.76969l3.62126 -0.773623c0.0519685,-0.141732 0.106299,-0.279921 0.165354,-0.416929l-7.43386 1.70906 -27 6.2067 0 -47.1449c0,-85.3985 34.9264,-163.024 91.1953,-219.293 56.2689,-56.2689 133.896,-91.1965 219.294,-91.1965 85.3973,0 163.024,34.9276 219.293,91.1965 56.2689,56.2689 91.1953,133.895 91.1953,219.293l0 47.1449 -27 -6.2067 -7.43386 -1.70906c0.0590552,0.137008 0.113386,0.276378 0.165354,0.416929l3.62008 0.773623c0.45,0.859843 0.699213,1.7941 0.699213,2.76969z"/>
   </g>
  </g>
  <path class="fil2" d="M1024 0c565.538,0 1024,458.462 1024,1024 0,565.538 -458.462,1024 -1024,1024 -565.538,0 -1024,-458.462 -1024,-1024 0,-565.538 458.462,-1024 1024,-1024z"/>
  <path class="fil3" d="M939.485 1199.99c-186.849,81.9154 -242.894,125.586 -265.048,145.191 -34.1445,30.2126 -53.028,142.833 -73.1717,238.455l422.74 0 422.727 0c-20.1366,-95.6221 -39.0237,-208.246 -73.1646,-238.455 -22.1563,-19.6051 -76.154,-62.1532 -262.997,-144.069l-171.086 -1.12205z"/>
  <path class="fil4" d="M1114.72 1036.71l0 207.115c-25.376,31.8839 -58.5756,51.3059 -90.7146,52.8178 -34.2614,1.61457 -67.4067,-16.8201 -90.7288,-52.8178l0 -207.115c0,-111.833 181.443,-111.833 181.443,0z"/>
  <path class="fil5" d="M1114.72 1036.71l0 138.665c-34.3252,25.0229 -67.4221,39.0437 -90.7146,39.0437 -23.3008,0 -56.4036,-14.0209 -90.7288,-39.039l0 -138.67c0,-111.833 181.443,-111.833 181.443,0z"/>
  <polygon class="fil6" points="933.164,1202.77 859.909,1234.46 953.218,1363.79 1024.01,1296.64 "/>
  <polygon class="fil6" points="1114.72,1202.9 1188.1,1234.46 1094.79,1363.79 1024.01,1296.64 "/>
  <path class="fil6" d="M1395.01 1378.13c21.5008,48.4359 36.2445,131.989 51.7276,205.507l-171.615 0c3.83977,-119.939 4.05709,-183.735 119.888,-205.507z"/>
  <path class="fil7" d="M1024 551.433c72.6284,0 138.388,29.4425 185.987,77.041 47.5985,47.5996 77.041,113.358 77.041,185.986 0,76.519 -33.6626,181.215 -86.8654,260.051 -46.0359,68.2123 -107.333,118.243 -176.163,118.243 -68.83,0 -130.129,-50.0304 -176.164,-118.243 -53.204,-78.8351 -86.8642,-183.532 -86.8642,-260.051 0,-72.6284 29.4402,-138.386 77.0398,-185.986 47.5996,-47.5985 113.358,-77.041 185.988,-77.041z"/>
  <path class="fil8" d="M826.028 800.488c47.5737,-4.2815 63.4418,-2.60315 119.347,-65.0386 66.4878,49.8154 174.675,65.0422 260.874,40.7717 8.44135,-2.37638 28.3477,34.6996 35.6847,102.044 59.2252,-8.54528 43.0748,-99.4477 40.4303,-118.213 -11.4118,-48.2103 -38.4957,-97.6961 -72.3768,-131.577 -38.8748,-38.8737 -89.8619,-65.6375 -146.813,-74.1426 -12.7807,-1.90866 -25.8626,-2.89843 -39.1737,-2.89843 -72.6308,0 -138.389,29.4425 -185.988,77.041 -43.7835,43.7847 -72.2044,102.931 -76.4788,168.658l-2.16496 102.615c14.5512,-19.8638 18.574,-87.5056 52.3004,9.99686 12.0449,-24.2599 -1.9937,-103.116 14.3599,-109.257z"/>
  <path class="fil9" d="M762.001 827.65c14.3646,0 47.6859,36.3166 47.6859,80.3528 0,44.0374 -11.6457,79.7339 -26.0103,79.7339 -14.3646,0 -26.0103,-35.6965 -26.0103,-79.7339 0,-44.0363 -10.0299,-80.3528 4.33465,-80.3528z"/>
  <path class="fil9" d="M1286 827.65c-14.3646,0 -47.6859,36.3166 -47.6859,80.3528 0,44.0374 11.6457,79.7339 26.0103,79.7339 14.3634,0 26.0091,-35.6965 26.0091,-79.7339 0,-44.0363 10.0311,-80.3528 -4.33347,-80.3528z"/>
  <path class="fil10" d="M974.714 1084.98c7.45512,0 13.4988,-6.04489 13.4988,-13.5 0,-7.4563 -6.04371,-13.5 -13.4988,-13.5l-155.245 0c-20.4036,0 -38.9622,-8.35749 -52.4256,-21.8209 -13.4634,-13.4622 -21.8209,-32.0221 -21.8209,-52.4256l0 -0.0011811c0,-7.45512 -6.04371,-13.5 -13.5,-13.5 -7.45512,0 -13.5,6.04489 -13.5,13.5l0 0.0011811c0,27.8563 11.387,53.1709 29.7307,71.5158 18.3449,18.3437 43.6595,29.7307 71.5158,29.7307l155.245 0z"/>
  <path class="fil10" d="M713.512 831.862c0,7.4563 6.04371,13.5 13.5,13.5 7.45512,0 13.4988,-6.04371 13.4988,-13.5l0 -57.3733c0,-77.9457 31.8981,-148.815 83.2855,-200.204 51.3886,-51.3886 122.258,-83.2855 200.204,-83.2855l0.0011811 0c77.9457,0 148.815,31.8969 200.204,83.2855 51.3874,51.3886 83.2843,122.258 83.2843,200.204l0 57.3733c0,7.4563 6.04489,13.5 13.5,13.5 7.45512,0 13.5,-6.04371 13.5,-13.5l0 -57.3733c0,-85.3985 -34.9264,-163.024 -91.1953,-219.293 -56.2701,-56.2689 -133.896,-91.1965 -219.293,-91.1965l-0.0011811 0c-85.3985,0 -163.024,34.9276 -219.293,91.1965 -56.2689,56.2689 -91.1953,133.895 -91.1953,219.293l0 57.3733z"/>
  <path class="fil11" d="M763.146 1006.53l-19.3146 -8.98583 -0.370866 -179.863c0,-0.975591 0.248032,-1.90984 0.699213,-2.76969l17.5784 -3.75591c1.7752,1.38071 2.86418,3.24213 2.86418,5.29016l-0.453544 186.793c0,1.17756 -0.359055,2.2937 -1.00276,3.29173z"/>
  <path class="fil12" d="M697.883 825.226l50.0622 -11.5087c-0.438189,1.02165 -0.683859,2.16969 -0.683859,3.38386l0 182.855 -52.839 -24.2929 5.58898 -12.2339 -5.63859 12.2658c-5.01851,-2.30788 -7.94646,-7.3063 -7.86142,-12.4961l0 -124.641c0,-6.73111 4.92756,-12.3118 11.3717,-13.3323zm60.5741 -13.9252l11.9528 -2.74725c2.13898,-0.49252 4.17874,-0.726379 6.11103,-0.726379 7.97363,0 15.0969,3.48307 20.5843,8.9256 4.83189,4.79292 8.39528,11.2559 9.95906,18.0603 0.615355,2.6811 0.943702,5.36221 0.943702,7.96418l0 133.308c0,5.25 -1.35,10.7882 -3.6567,15.8079 -2.28307,4.96654 -5.58662,9.54804 -9.52324,12.952 -4.85315,4.19528 -10.6949,6.80079 -17.1059,6.80079 -3.24331,0 -6.56221,-0.701575 -9.89646,-2.23465l-7.86024 -3.61299c0.507874,-1.08307 0.796064,-2.31969 0.796064,-3.63425l0 -185.062c0,-2.3126 -0.891733,-4.3878 -2.30433,-5.8004z"/>
  <path class="fil11" d="M1284.85 1006.53l19.3146 -8.98583 0.370866 -179.863c0,-0.975591 -0.248032,-1.90984 -0.698032,-2.76969l-17.5795 -3.75591c-1.77402,1.38071 -2.86418,3.24213 -2.86418,5.29016l0.453544 186.793c0,1.17756 0.359055,2.2937 1.00276,3.29173z"/>
  <path class="fil12" d="M1350.12 825.226l-50.0611 -11.5087c0.437008,1.02165 0.682678,2.16969 0.682678,3.38386l0 182.855 52.839 -24.2929 -5.58898 -12.2339 5.63977 12.2658c5.01851,-2.30788 7.94528,-7.3063 7.86024,-12.4961l0 -124.641c0,-6.73111 -4.92756,-12.3118 -11.3717,-13.3323zm-60.5741 -13.9252l-11.9516 -2.74725c-2.13898,-0.49252 -4.17874,-0.726379 -6.11221,-0.726379 -7.97245,0 -15.0969,3.48307 -20.5831,8.9256 -4.83307,4.79292 -8.39646,11.2559 -9.95906,18.0603 -0.616536,2.6811 -0.944883,5.36221 -0.944883,7.96418l0 133.308c0,5.25 1.35,10.7882 3.65788,15.8079 2.28307,4.96654 5.58544,9.54804 9.52205,12.952 4.85315,4.19528 10.6949,6.80079 17.1059,6.80079 3.24331,0 6.56221,-0.701575 9.89646,-2.23465l7.86024 -3.61299c-0.507874,-1.08307 -0.794883,-2.31969 -0.794883,-3.63425l0 -185.062c0,-2.3126 0.891733,-4.3878 2.30315,-5.8004z"/>
  <path class="fil13" d="M1008.46 1031.28c11.1815,0 21.3071,4.53426 28.637,11.8642 7.32875,7.32875 11.863,17.4543 11.863,28.6358 0,11.1815 -4.53426,21.3071 -11.863,28.6358 -7.32993,7.32875 -17.4555,11.863 -28.637,11.863 -0.294095,0 -0.616536,-0.00472441 -0.954331,-0.0106299l0 -80.9776c0.337796,-0.00590552 0.660237,-0.0106299 0.954331,-0.0106299z"/>
  <path class="fil12" d="M1008.46 1031.28c11.1815,0 21.3071,4.53426 28.637,11.8642 7.32875,7.32875 11.863,17.4543 11.863,28.6358 0,11.1815 -4.53426,21.3071 -11.863,28.6358 -7.32993,7.32875 -17.4555,11.863 -28.637,11.863 -11.1815,0 -55.0548,-4.53426 -62.3835,-11.863 -7.32993,-7.32875 -11.8642,-17.4543 -11.8642,-28.6358 0,-11.1815 4.53426,-21.3071 11.8642,-28.6358 7.32875,-7.32993 51.202,-11.8642 62.3835,-11.8642z"/>
  <polygon class="fil14" points="976.018,1544.56 1024,1336.08 1071.98,1544.56 1024,1584 "/>
  <rect class="fil15" transform="matrix(1.20639 -1.20639 1.20639 1.20639 980.881 1350.24)" width="35.7425" height="35.7425"/>
  <path class="fil6" d="M652.992 1378.13c-21.5008,48.4359 -36.2445,131.989 -51.7264,205.507l171.612 0c-3.83859,-119.939 -4.05473,-183.735 -119.886,-205.507z"/>
  <path class="fil2" d="M880.234 1323.57c-0.314173,-0.0283465 -0.628347,-0.068504 -0.94252,-0.102756"/>
 </g>
</svg>
