<svg version="1.1" id="Layer_3" xmlns="http://www.w3.org/2000/svg" x="0" y="0" viewBox="0 0 64 64"
    style="enable-background:new 0 0 64 64" xml:space="preserve">
    <style>
        .st0 {
            fill: #F3F3F3;
        }

        .st1 {
            fill: #1A1A24;
        }

        .st2 {
            fill: #06D889;
        }

        .st3 {
            fill: #06D889;
        }

        .st4 {
            fill: #1A1A24;
        }

        .st6 {
            fill: #06D889;
        }

        .st10 {
            fill: #F3F3F3;
        }

        .st11 {
            fill: #1A1A24;
        }

        .st15 {
            fill: #1A1A24;
        }
    </style>
    <path class="st15" d="M56.715 14.233h-4.222l4.103 7.107-4.103 7.107h4.222l4.103-7.107z" />
    <path class="st2" d="M15.491 14.233H7.285L3.182 21.34l4.103 7.107h8.206l4.103-7.107z" />
    <path class="st3" d="M8.28 15.83h8.133l-.922-1.597H7.285L3.182 21.34l4.103 7.107h1.917L5.099 21.34z" />
    <path class="st1"
        d="M15.491 28.947H7.285a.499.499 0 0 1-.433-.25L2.749 21.59a.502.502 0 0 1 0-.5l4.103-7.106a.499.499 0 0 1 .433-.25h8.206c.179 0 .344.095.433.25l4.103 7.106a.502.502 0 0 1 0 .5l-4.103 7.107a.499.499 0 0 1-.433.25zm-7.917-1h7.629l3.814-6.607-3.814-6.606H7.574L3.76 21.34l3.814 6.607z" />
    <path class="st0" d="M15.561 35.553H7.355L3.252 42.66l4.103 7.106h8.206l4.103-7.106z" />
    <path class="st1"
        d="M15.561 50.266H7.355a.499.499 0 0 1-.433-.25L2.819 42.91a.502.502 0 0 1 0-.5l4.103-7.106a.499.499 0 0 1 .433-.25h8.206c.179 0 .344.095.433.25l4.103 7.106a.502.502 0 0 1 0 .5l-4.103 7.106a.499.499 0 0 1-.433.25zm-7.917-1h7.629l3.814-6.606-3.814-6.606H7.644L3.829 42.66l3.815 6.606z" />
    <path class="st4" d="M19.713 14.233h-4.222l4.103 7.107-4.103 7.107h4.222l4.103-7.107z" />
    <path class="st1"
        d="M19.713 28.947h-4.222a.499.499 0 0 1-.433-.75l3.959-6.857-3.959-6.856a.502.502 0 0 1 .433-.75h4.222c.179 0 .344.095.433.25l4.103 7.106a.502.502 0 0 1 0 .5l-4.103 7.107a.499.499 0 0 1-.433.25zm-3.355-1h3.067l3.814-6.607-3.814-6.606h-3.067l3.67 6.356a.502.502 0 0 1 0 .5l-3.67 6.357z" />
    <path class="st6" d="M27.875 28.447h-8.206l-4.103 7.106 4.103 7.107h8.206l4.103-7.107z" />
    <path class="st10" d="M20.837 29.996h7.933l-.895-1.549h-8.206l-4.103 7.106 4.103 7.107h2.063l-4.103-7.107z" />
    <path class="st6" d="M27.875 42.66h-8.206l-4.103 7.106 4.103 7.107h8.206l4.103-7.107z" />
    <path class="st10" d="M20.792 44.288h8.023l-.94-1.628h-8.206l-4.103 7.106 4.103 7.107h2.063l-4.103-7.107z" />
    <path class="st1"
        d="M27.875 43.16h-8.206a.499.499 0 0 1-.433-.25l-4.103-7.106a.502.502 0 0 1 0-.5l4.103-7.106a.499.499 0 0 1 .433-.25h8.206c.179 0 .344.095.433.25l4.103 7.106a.502.502 0 0 1 0 .5l-4.103 7.106a.5.5 0 0 1-.433.25zm-7.917-1h7.629l3.814-6.606-3.814-6.606h-7.629l-3.814 6.606 3.814 6.606z" />
    <path class="st11"
        d="M32.097 28.447h-4.222l4.103 7.106-4.103 7.107h4.222l4.103-7.107zM32.097 42.66h-4.222l4.103 7.106-4.103 7.107h4.222l4.103-7.107z" />
    <path class="st1"
        d="M32.097 43.16h-4.222a.499.499 0 0 1-.433-.75l3.959-6.856-3.959-6.856a.502.502 0 0 1 .433-.75h4.222c.179 0 .344.095.433.25l4.103 7.106a.502.502 0 0 1 0 .5L32.53 42.91a.5.5 0 0 1-.433.25zm-3.356-1h3.067l3.814-6.606-3.814-6.606h-3.067l3.67 6.356a.502.502 0 0 1 0 .5l-3.67 6.356z" />
    <path class="st1"
        d="M27.875 57.373h-8.206a.499.499 0 0 1-.433-.25l-4.103-7.107a.502.502 0 0 1 0-.5l4.103-7.106a.499.499 0 0 1 .433-.25h8.206c.179 0 .344.095.433.25l4.103 7.106a.502.502 0 0 1 0 .5l-4.103 7.107a.499.499 0 0 1-.433.25zm-7.917-1h7.629l3.814-6.607-3.814-6.606h-7.629l-3.814 6.606 3.814 6.607z" />
    <path class="st1"
        d="M32.097 57.373h-4.222a.499.499 0 0 1-.433-.75l3.959-6.857-3.959-6.856a.502.502 0 0 1 .433-.75h4.222c.179 0 .344.095.433.25l4.103 7.106a.502.502 0 0 1 0 .5l-4.103 7.107a.499.499 0 0 1-.433.25zm-3.356-1h3.067l3.814-6.607-3.814-6.606h-3.067l3.67 6.356a.502.502 0 0 1 0 .5l-3.67 6.357z" />
    <path class="st2" d="M40.184 21.34h-8.206l-4.103 7.107 4.103 7.106h8.206l4.103-7.106z" />
    <path class="st3" d="M33.168 22.871h7.9l-.884-1.531h-8.206l-4.103 7.107 4.103 7.106h2.074l-4.103-7.106z" />
    <path class="st1"
        d="M40.184 36.053h-8.206a.499.499 0 0 1-.433-.25l-4.103-7.106a.502.502 0 0 1 0-.5l4.103-7.107a.499.499 0 0 1 .433-.25h8.206c.179 0 .344.095.433.25l4.103 7.107a.502.502 0 0 1 0 .5l-4.103 7.106a.499.499 0 0 1-.433.25zm-7.918-1h7.629l3.814-6.606-3.814-6.607h-7.629l-3.814 6.607 3.814 6.606z" />
    <path class="st4" d="M44.406 21.34h-4.222l4.103 7.107-4.103 7.106h4.222l4.103-7.106z" />
    <path class="st1"
        d="M44.406 36.053h-4.222a.499.499 0 0 1-.433-.75l3.959-6.856-3.959-6.857a.502.502 0 0 1 .433-.75h4.222c.179 0 .344.095.433.25l4.103 7.107a.502.502 0 0 1 0 .5l-4.103 7.106a.499.499 0 0 1-.433.25zm-3.356-1h3.067l3.814-6.606-3.814-6.607H41.05l3.67 6.357a.502.502 0 0 1 0 .5l-3.67 6.356z" />
    <path class="st0" d="M40.184 7.127h-8.206l-4.103 7.106 4.103 7.107h8.206l4.103-7.107z" />
    <path class="st1"
        d="M40.184 21.84h-8.206a.499.499 0 0 1-.433-.25l-4.103-7.106a.502.502 0 0 1 0-.5l4.103-7.106a.499.499 0 0 1 .433-.25h8.206c.179 0 .344.095.433.25l4.103 7.106a.502.502 0 0 1 0 .5l-4.103 7.106a.499.499 0 0 1-.433.25zm-7.918-1h7.629l3.814-6.606-3.814-6.606h-7.629l-3.814 6.606 3.814 6.606z" />
    <path class="st15" d="M44.406 7.127h-4.222l4.103 7.106-4.103 7.107h4.222l4.103-7.107z" />
    <path class="st1"
        d="M44.406 21.84h-4.222a.499.499 0 0 1-.433-.75l3.959-6.856-3.959-6.856a.502.502 0 0 1 .433-.75h4.222c.179 0 .344.095.433.25l4.103 7.106a.502.502 0 0 1 0 .5l-4.103 7.106a.499.499 0 0 1-.433.25zm-3.356-1h3.067l3.814-6.606-3.814-6.606H41.05l3.67 6.356a.502.502 0 0 1 0 .5l-3.67 6.356z" />
    <path class="st0" d="M52.493 14.233h-8.206l-4.103 7.107 4.103 7.107h8.206l4.103-7.107z" />
    <path class="st1"
        d="M52.493 28.947h-8.206a.499.499 0 0 1-.433-.25l-4.103-7.107a.502.502 0 0 1 0-.5l4.103-7.106a.499.499 0 0 1 .433-.25h8.206c.179 0 .344.095.433.25l4.103 7.106a.502.502 0 0 1 0 .5l-4.103 7.107a.499.499 0 0 1-.433.25zm-7.918-1h7.629l3.814-6.607-3.814-6.606h-7.629l-3.814 6.606 3.814 6.607z" />
    <path class="st1"
        d="M56.715 28.947h-4.222a.499.499 0 0 1-.433-.75l3.959-6.857-3.959-6.856a.502.502 0 0 1 .433-.75h4.222c.179 0 .344.095.433.25l4.103 7.106a.502.502 0 0 1 0 .5l-4.103 7.107a.5.5 0 0 1-.433.25zm-3.356-1h3.067l3.814-6.607-3.814-6.606h-3.067l3.67 6.356a.502.502 0 0 1 0 .5l-3.67 6.357z" />
</svg>