<?xml version="1.0" encoding="UTF-8"?>
<svg xmlns="http://www.w3.org/2000/svg" width="102" height="106" viewBox="0 0 102 106" fill="none">
    <path
        d="M98.5422 61.9696C99.8149 61.6053 101.805 61.744 101.981 60.3282C102.216 58.4654 100.23 58.8628 98.9867 58.6454C97.8838 58.4488 96.7872 58.2066 95.6906 57.9852C98.7833 51.3471 98.8357 50.8627 98.0935 50.7924C91.8031 50.1921 95.244 45.5122 94.464 42.6226C96.6299 42.2666 98.6575 41.6167 100.368 40.087C99.3662 38.9383 97.4561 40.087 96.8794 38.4311C95.8688 34.3742 90.8114 35.7921 89.027 32.7763C89.0421 32.4939 89.0337 32.2107 89.0018 31.9297C89.4946 31.4371 89.9873 30.9424 90.4801 30.4435L92.5601 30.0813C94.1473 29.5949 94.9609 27.9887 93.988 27.1566C91.9541 25.4138 89.5281 26.0534 87.4041 27.5561C82.4305 27.8562 81.3947 23.4619 79.017 20.68L80.751 18.2479C83.2902 17.3558 83.2902 14.4539 85.0809 12.9594C86.1293 13.4479 87.293 13.7874 87.878 12.4564C88.421 11.2145 87.6914 10.2934 86.4102 10.1465C84.1038 9.8836 82.6507 11.0179 81.9965 13.1809C78.281 17.5835 73.8484 14.6298 69.6758 14.3524C67.2708 14.3524 64.7274 14.8802 62.92 12.622C62.9508 11.7596 62.9815 10.8985 63.0123 10.0388C65.8136 7.26108 66.1574 4.10454 64.0376 0C63.1737 4.98837 60.0369 7.45151 55.7616 8.7224L47.3703 12.4275L45.588 11.3449C41.9354 10.637 41.2875 6.39795 38.1004 5.13533C37.0793 4.35913 35.8317 2.56042 34.8022 3.64503C33.1856 5.35474 35.6954 6.6484 36.249 8.19873C36.1882 10.252 37.8237 11.3242 38.9328 12.7007L36.7061 15.0934C34.6575 15.5799 32.7536 15.1266 30.9252 14.2303L30.6107 14.0544C30.2102 12.4585 30.1914 10.7012 28.6146 9.62072C28.4196 7.06237 27.5662 4.84555 25.0794 3.67401C24.6852 3.48979 23.6117 3.83753 23.4481 4.19768C22.1586 7.11205 25.4191 8.32913 26.0481 10.5646C26.1488 10.9102 26.6772 11.14 27.0085 11.4256L26.111 14.3566C24.8677 15.9131 22.6618 16.9563 23.2993 19.5147C22.7625 20.8394 21.5191 20.7773 20.3973 20.9636C20.0532 20.7112 19.6472 20.554 19.221 20.5082C18.3823 18.0244 16.5162 15.4495 14.1657 17.1819C12.115 18.6971 13.4863 21.5079 16.0297 22.843C16.5036 23.4433 16.9838 24.0435 17.466 24.6459C17.4912 25.1716 17.5142 25.6911 17.5394 26.2169L14.9834 28.7173C14.0252 28.591 13.0691 28.4668 12.1129 28.3364C10.3223 27.3305 8.03052 26.2355 7.01987 28.6407C6.10567 30.8161 8.38068 31.435 10.2363 31.7082C10.5033 32.6742 10.7717 33.6367 11.0415 34.5957C9.55278 36.7152 8.06197 38.8334 6.56906 40.9502C5.04051 41.803 1.84082 39.8014 1.92679 42.7406C1.97292 44.4689 4.87486 43.7362 6.52503 44.0053L7.93407 46.4705L3.90615 50.3308C2.54325 50.2977 0.890984 50.1756 0.228401 51.4278C-0.54531 52.8954 0.798726 54.0959 1.9897 54.5326C6.09309 56.0064 4.72809 57.9996 2.7676 60.1709C-0.335632 65.091 7.55455 64.6004 6.89406 68.3138C6.35309 70.7976 0.914048 71.1371 3.83906 75.1443C5.90648 77.1293 8.31778 75.9391 10.6075 75.8563C11.4462 77.1335 13.2976 78.7749 12.9768 79.6297C10.8213 85.4398 15.1218 86.7438 18.8478 88.5467C18.9967 90.0266 19.3007 91.3741 21.278 91.2499C22.9428 92.5622 19.3909 97.6023 23.6872 97.0455C24.0751 97.1118 24.5846 97.0145 25.2577 96.6895C28.4783 94.8867 31.462 93.7027 31.4788 99.2955C31.4788 102.839 33.6867 102.698 35.9743 101.746C37.7314 101.018 38.8804 98.8629 41.2666 99.6184C43.2711 100.902 46.1122 100.328 47.7267 102.471C51.48 105.294 55.2752 108.97 58.5839 101.997C59.8419 100.939 61.1797 99.9433 61.3936 98.1384L65.4508 99.4693C71.1499 106 69.4347 95.8885 72.4666 96.4267L75.1673 96.6212C76.3625 98.4593 77.5702 101.252 80.1639 99.3493C81.747 98.1902 81.8665 95.6235 78.6228 95.1951C78.0944 93.3633 80.5875 93.0217 80.5267 91.4217C82.0909 88.1782 86.5465 88.8178 88.2848 85.8L88.3141 85.8124C90.2285 86.9487 92.2267 87.7187 94.5206 87.2509C96.4223 85.4315 97.0598 83.1299 97.1332 80.6129C99.989 77.0941 96.9696 76.912 94.6443 76.3386C93.8999 74.3516 94.9169 72.6253 95.4599 70.8266C95.6172 70.4478 95.7577 70.0628 95.8793 69.6716C98.0495 69.595 100.654 70.6196 101.945 67.4775C99.8485 66.2832 97.8628 66.7138 95.917 66.7614C94.9546 64.174 96.5943 62.9901 98.5422 61.9696Z"
        fill="#06D889" />
    <path
        d="M50.5875 34.15C50.4656 34.2719 50.4375 34.5625 50.4375 35.9125V37.5344L49.2469 37.6469C44.3906 38.0875 39.975 40.15 36.5625 43.5625C33.15 46.975 31.0875 51.3906 30.6469 56.2469L30.5344 57.4375H28.9125C27.1312 57.4375 27 57.475 27 58C27 58.525 27.1312 58.5625 28.9125 58.5625H30.5344L30.6469 59.7531C31.0875 64.6094 33.15 69.025 36.5625 72.4375C39.975 75.85 44.3906 77.9125 49.2469 78.3531L50.4375 78.4656V80.0875C50.4375 81.8688 50.475 82 51 82C51.525 82 51.5625 81.8688 51.5625 80.0875V78.4656L52.7531 78.3531C57.6094 77.9125 62.025 75.85 65.4375 72.4375C68.85 69.025 70.9125 64.6094 71.3531 59.7531L71.4656 58.5625H73.0875C74.8688 58.5625 75 58.525 75 58C75 57.475 74.8688 57.4375 73.0875 57.4375H71.4656L71.3531 56.2469C70.9125 51.3906 68.85 46.975 65.4375 43.5625C62.025 40.15 57.6094 38.0875 52.7531 37.6469L51.5625 37.5344V35.9125C51.5625 34.1312 51.525 34 51 34C50.85 34 50.6625 34.0656 50.5875 34.15ZM50.4188 41.1437L50.3906 43.5156L50.0156 43.5438C48.7219 43.6281 47.1562 43.975 45.7969 44.4719C42.1125 45.8312 38.8312 49.1125 37.4719 52.7969C36.975 54.1563 36.6281 55.7219 36.5437 57.0156L36.5156 57.3906L34.1344 57.4188L31.7531 57.4375L31.8187 56.575C32.1656 52 34.1906 47.6313 37.4719 44.3875C39.0281 42.8406 40.2375 41.9594 42.15 40.9656C44.6625 39.6625 47.475 38.8844 49.9969 38.8L50.4375 38.7813L50.4188 41.1437ZM54.2906 39.0625C57.4219 39.6156 60.5062 41.0031 62.9531 42.9531C63.8531 43.6656 65.3344 45.1469 66.0281 46.0281C68.4188 49.0469 69.9 52.8062 70.1813 56.575L70.2469 57.4375L67.8656 57.4188L65.4844 57.3906L65.4562 57.0156C65.3719 55.7219 65.025 54.1563 64.5281 52.7969C63.1688 49.1125 59.8875 45.8312 56.2031 44.4719C54.8437 43.975 53.2781 43.6281 51.9844 43.5438L51.6094 43.5156L51.5812 41.1344L51.5625 38.7531L52.425 38.8187C52.9031 38.8563 53.7469 38.9688 54.2906 39.0625ZM50.4562 45.6906C50.4844 46.675 50.4844 46.7031 50.7469 46.8438C50.9719 46.9656 51.0281 46.9656 51.2625 46.8438C51.5156 46.7031 51.5156 46.675 51.5438 45.6906L51.5719 44.6875L52.1063 44.7438C55.3594 45.0813 58.1344 46.3844 60.375 48.625C62.6156 50.8656 63.9187 53.6406 64.2562 56.8937L64.3125 57.4281L63.3094 57.4562C62.325 57.4844 62.2969 57.4844 62.1562 57.7375C62.0344 57.9719 62.0344 58.0281 62.1562 58.2531C62.2969 58.5156 62.325 58.5156 63.3094 58.5438L64.3125 58.5719L64.2562 59.1063C63.9187 62.3594 62.6156 65.1344 60.375 67.375C58.1344 69.6156 55.3594 70.9187 52.1063 71.2563L51.5719 71.3125L51.5438 70.3094C51.5156 69.325 51.5156 69.2969 51.2625 69.1563C51.0281 69.0344 50.9719 69.0344 50.7469 69.1563C50.4844 69.2969 50.4844 69.325 50.4562 70.3094L50.4281 71.3125L49.8937 71.2563C46.6406 70.9187 43.8656 69.6156 41.625 67.375C39.3844 65.1344 38.0813 62.3594 37.7437 59.1063L37.6875 58.5719L38.6906 58.5438C39.675 58.5156 39.7031 58.5156 39.8437 58.2531C39.9656 58.0281 39.9656 57.9719 39.8437 57.7375C39.7031 57.4844 39.675 57.4844 38.6906 57.4562L37.6875 57.4281L37.7437 56.8937C38.0813 53.6406 39.3844 50.8656 41.625 48.625C43.5562 46.6938 46.0312 45.3813 48.6187 44.9313C49.3594 44.8 49.65 44.7625 50.2687 44.7062C50.4094 44.6875 50.4375 44.8094 50.4562 45.6906ZM36.5437 58.9844C36.6281 60.2781 36.975 61.8438 37.4719 63.2031C38.8312 66.8875 42.1125 70.1688 45.7969 71.5281C47.1562 72.025 48.7219 72.3719 50.0156 72.4563L50.3906 72.4844L50.4188 74.8656L50.4375 77.2469L49.575 77.1813C45.8063 76.9 42.0469 75.4187 39.0281 73.0281C38.1469 72.3344 36.6656 70.8531 35.9531 69.9531C33.6094 67.0094 32.1 63.175 31.8187 59.425L31.7531 58.5625L34.1344 58.5812L36.5156 58.6094L36.5437 58.9844ZM70.1813 59.425C69.9 63.1656 68.3906 67.0094 66.0469 69.9531C65.3344 70.8531 63.8531 72.3344 62.9719 73.0281C59.9531 75.4187 56.1938 76.9 52.425 77.1813L51.5625 77.2469L51.5812 74.8656L51.6094 72.4844L51.9844 72.4563C53.2781 72.3719 54.8437 72.025 56.2031 71.5281C59.8875 70.1688 63.1688 66.8875 64.5281 63.2031C65.0438 61.8063 65.4375 60.025 65.4375 59.0688C65.4375 58.8625 65.4656 58.6562 65.5031 58.6281C65.5312 58.5906 66.6188 58.5625 67.9031 58.5625H70.2469L70.1813 59.425Z"
        fill="#1A1A24" />
    <path
        d="M49.8281 54.5407C47.0625 55.4313 46.4718 59.2188 48.825 60.9532C50.4093 62.125 52.7812 61.7688 53.9531 60.175C54.8062 59.0219 54.8718 57.3063 54.1218 56.0875C53.775 55.5344 53.55 55.2907 53.0156 54.9532C52.0687 54.3438 50.9062 54.1844 49.8281 54.5407ZM51.9937 55.7407C52.2093 55.8344 52.5375 56.0782 52.7343 56.2657C53.2312 56.7719 53.4375 57.2688 53.4375 58C53.4375 58.7313 53.2312 59.2282 52.7343 59.7344C52.2281 60.2313 51.7312 60.4375 51 60.4375C50.2687 60.4375 49.7718 60.2313 49.2656 59.7344C48.7687 59.2282 48.5625 58.7313 48.5625 58C48.5625 57.2688 48.7687 56.7719 49.2656 56.2657C49.7718 55.7688 50.2687 55.5625 51 55.5625C51.3937 55.5625 51.7406 55.6282 51.9937 55.7407Z"
        fill="#1A1A24" />
    <path
        d="M27.8906 35.8C27.7875 35.8563 27.675 35.95 27.6375 36.0063C27.6 36.0625 27.5625 38.4157 27.5625 41.2375C27.5625 46.2532 27.5625 46.375 27.75 46.5625C27.9844 46.7969 28.2281 46.7969 28.5094 46.5719L28.7344 46.3938L28.7625 41.65L28.7906 36.9063H33.5062C38.025 36.9063 38.2312 36.8969 38.3812 36.7282C38.625 36.4657 38.55 35.9594 38.25 35.8094C37.9312 35.65 28.1719 35.6407 27.8906 35.8Z"
        fill="#1A1A24" />
    <path
        d="M63.8906 35.8001C63.5062 36.0157 63.45 36.4188 63.75 36.7188C63.9281 36.8969 64.0594 36.9063 68.5781 36.9063H73.2187V41.4719C73.2187 44.9594 73.2469 46.1032 73.3406 46.2813C73.4906 46.5813 73.9969 46.6563 74.2594 46.4126C74.4281 46.2626 74.4375 46.0469 74.4375 41.1813C74.4375 38.3876 74.4 36.0626 74.3625 36.0063C74.1656 35.7063 73.8844 35.6876 68.9812 35.6876C65.5031 35.6969 64.0219 35.7251 63.8906 35.8001Z"
        fill="#1A1A24" />
    <path
        d="M27.7219 69.6062C27.5719 69.7656 27.5625 70.2062 27.5625 74.8375C27.5625 77.6125 27.6 79.9375 27.6375 79.9937C27.8344 80.2937 28.125 80.3125 33 80.3125C37.875 80.3125 38.1656 80.2937 38.3625 79.9937C38.4937 79.8062 38.4375 79.4687 38.25 79.2812C38.0719 79.1031 37.9406 79.0938 33.4219 79.0938H28.7812V74.5187C28.7812 71.0406 28.7531 69.8969 28.6594 69.7188C28.5094 69.4094 27.9562 69.3438 27.7219 69.6062Z"
        fill="#1A1A24" />
</svg>