<?xml version="1.0" encoding="UTF-8"?>
<svg width="60" height="60" viewBox="0 0 60 60" xmlns="http://www.w3.org/2000/svg"><g clip-path="url(#clip0_1453_763)"><path d="M25.2665 33.04C24.8998 33.04 24.5998 33.34 24.5998 33.7067V46.3734H20.6665C20.2998 46.3734 19.9998 46.6734 19.9998 47.04V53.7867C18.6665 54.0934 17.6665 55.28 17.6665 56.7067C17.6665 58.36 19.0132 59.7067 20.6665 59.7067C22.3198 59.7067 23.6665 58.36 23.6665 56.7067C23.6665 55.28 22.6665 54.0934 21.3332 53.7867V47.7067H25.2665C25.6332 47.7067 25.9332 47.4067 25.9332 47.04V33.7067C25.9332 33.34 25.6332 33.04 25.2665 33.04ZM22.3332 56.7067C22.3332 57.1487 22.1576 57.5727 21.845 57.8852C21.5325 58.1978 21.1085 58.3734 20.6665 58.3734C20.2245 58.3734 19.8006 58.1978 19.488 57.8852C19.1754 57.5727 18.9998 57.1487 18.9998 56.7067C18.9998 56.2647 19.1754 55.8408 19.488 55.5282C19.8006 55.2156 20.2245 55.04 20.6665 55.04C21.1085 55.04 21.5325 55.2156 21.845 55.5282C22.1576 55.8408 22.3332 56.2647 22.3332 56.7067Z"/><path d="M12 53.7867V43.7067H20.6667C21.0333 43.7067 21.3333 43.4067 21.3333 43.04V33.7067C21.3333 33.34 21.0333 33.04 20.6667 33.04C20.3 33.04 20 33.34 20 33.7067V42.3734H5.92C5.61333 41.04 4.42667 40.04 3 40.04C1.34667 40.04 0 41.3867 0 43.04C0 44.6934 1.34667 46.04 3 46.04C4.42667 46.04 5.61333 45.04 5.92 43.7067H10.6667V53.7867C9.33333 54.0934 8.33333 55.28 8.33333 56.7067C8.33333 58.36 9.68 59.7067 11.3333 59.7067C12.9867 59.7067 14.3333 58.36 14.3333 56.7067C14.3333 55.28 13.3333 54.0934 12 53.7867ZM3 44.7067C2.55797 44.7067 2.13405 44.5311 1.82149 44.2186C1.50893 43.906 1.33333 43.4821 1.33333 43.04C1.33333 42.598 1.50893 42.1741 1.82149 41.8615C2.13405 41.549 2.55797 41.3734 3 41.3734C3.44203 41.3734 3.86595 41.549 4.17851 41.8615C4.49107 42.1741 4.66667 42.598 4.66667 43.04C4.66667 43.4821 4.49107 43.906 4.17851 44.2186C3.86595 44.5311 3.44203 44.7067 3 44.7067ZM11.3333 58.3734C10.8913 58.3734 10.4674 58.1978 10.1548 57.8852C9.84226 57.5727 9.66667 57.1487 9.66667 56.7067C9.66667 56.2647 9.84226 55.8408 10.1548 55.5282C10.4674 55.2156 10.8913 55.04 11.3333 55.04C11.7754 55.04 12.1993 55.2156 12.5118 55.5282C12.8244 55.8408 13 56.2647 13 56.7067C13 57.1487 12.8244 57.5727 12.5118 57.8852C12.1993 58.1978 11.7754 58.3734 11.3333 58.3734Z"/><path d="M57.0003 40.04C55.5737 40.04 54.387 41.04 54.0803 42.3733H47.3337V38.3733H49.907C55.4737 38.3733 60.0003 33.8867 60.0003 28.3733C60.0003 24.3 57.527 20.8 53.9937 19.24C53.9203 9.68 45.967 1 36.9003 1C31.0137 1 25.5203 4.04 22.407 8.96667C20.8438 7.71712 18.9015 7.03756 16.9003 7.04C11.827 7.04 8.03366 12.3867 8.00033 17.0933C3.72033 18.6667 0.666992 22.6733 0.666992 27.3733C0.666992 33.1533 5.28033 37.8933 11.1203 38.3333C11.187 38.36 11.2603 38.3733 11.3337 38.3733H16.027C16.3937 38.3733 16.6937 38.0733 16.6937 37.7067C16.6937 37.34 16.3937 37.04 16.027 37.04H12.0003C6.48699 37.04 2.00033 32.7067 2.00033 27.3733C2.00033 22.04 6.48699 17.7067 12.0003 17.7067C12.367 17.7067 12.667 17.4067 12.667 17.04C12.667 16.6733 12.367 16.3733 12.0003 16.3733C11.087 16.3733 10.207 16.4867 9.35366 16.6867C9.59366 11.96 13.4403 8.37333 16.9003 8.37333C18.8937 8.37333 20.7737 9.14667 22.1937 10.5533C22.4537 10.8133 22.8803 10.8133 23.1337 10.5533C23.2803 10.4067 23.3337 10.2067 23.3137 10.02C26.147 5.28 31.3337 2.34 36.8937 2.34C45.1003 2.34 52.3137 10.1067 52.647 18.7667C51.7737 18.52 50.8537 18.38 49.9003 18.38C49.5337 18.38 49.2337 18.68 49.2337 19.0467C49.2337 19.4133 49.5337 19.7133 49.9003 19.7133C54.7337 19.7133 58.6603 23.6 58.6603 28.38C58.6603 33.16 54.727 37.0467 49.9003 37.0467H43.9937C43.627 37.0467 43.327 37.3467 43.327 37.7133C43.327 38.08 43.627 38.38 43.9937 38.38H45.9937V43.0467C45.9937 43.4133 46.2937 43.7133 46.6603 43.7133H54.0737C54.3803 45.0467 55.567 46.0467 56.9937 46.0467C58.647 46.0467 59.9937 44.7 59.9937 43.0467C59.9937 41.3933 58.647 40.0467 56.9937 40.0467L57.0003 40.04ZM57.0003 44.7067C56.5583 44.7067 56.1344 44.5311 55.8218 44.2185C55.5093 43.906 55.3337 43.482 55.3337 43.04C55.3337 42.598 55.5093 42.174 55.8218 41.8615C56.1344 41.5489 56.5583 41.3733 57.0003 41.3733C57.4424 41.3733 57.8663 41.5489 58.1788 41.8615C58.4914 42.174 58.667 42.598 58.667 43.04C58.667 43.482 58.4914 43.906 58.1788 44.2185C57.8663 44.5311 57.4424 44.7067 57.0003 44.7067Z"/><path d="M30.6667 53.7867V33.7067C30.6667 33.34 30.3667 33.04 30 33.04C29.6333 33.04 29.3333 33.34 29.3333 33.7067V53.7867C28 54.0934 27 55.28 27 56.7067C27 58.36 28.3467 59.7067 30 59.7067C31.6533 59.7067 33 58.36 33 56.7067C33 55.28 32 54.0934 30.6667 53.7867ZM30 58.3734C29.558 58.3734 29.134 58.1978 28.8215 57.8852C28.5089 57.5727 28.3333 57.1487 28.3333 56.7067C28.3333 56.2647 28.5089 55.8408 28.8215 55.5282C29.134 55.2156 29.558 55.04 30 55.04C30.442 55.04 30.866 55.2156 31.1785 55.5282C31.4911 55.8408 31.6667 56.2647 31.6667 56.7067C31.6667 57.1487 31.4911 57.5727 31.1785 57.8852C30.866 58.1978 30.442 58.3734 30 58.3734ZM40 53.7867V49.7067C40 49.4667 39.8733 49.2467 39.6667 49.1267L35.3333 46.6534V33.7067C35.3333 33.34 35.0333 33.04 34.6667 33.04C34.3 33.04 34 33.34 34 33.7067V47.04C34 47.28 34.1267 47.5 34.3333 47.62L38.6667 50.0934V53.7867C37.3333 54.0934 36.3333 55.28 36.3333 56.7067C36.3333 58.36 37.68 59.7067 39.3333 59.7067C40.9867 59.7067 42.3333 58.36 42.3333 56.7067C42.3333 55.28 41.3333 54.0934 40 53.7867ZM39.3333 58.3734C38.8913 58.3734 38.4674 58.1978 38.1548 57.8852C37.8423 57.5727 37.6667 57.1487 37.6667 56.7067C37.6667 56.2647 37.8423 55.8408 38.1548 55.5282C38.4674 55.2156 38.8913 55.04 39.3333 55.04C39.7754 55.04 40.1993 55.2156 40.5118 55.5282C40.8244 55.8408 41 56.2647 41 56.7067C41 57.1487 40.8244 57.5727 40.5118 57.8852C40.1993 58.1978 39.7754 58.3734 39.3333 58.3734Z"/><path d="M49.3332 53.7867V49.5667C49.3332 49.3133 49.1865 49.08 48.9598 48.9667L39.9998 44.62V33.7067C39.9998 33.34 39.6998 33.04 39.3332 33.04C38.9665 33.04 38.6665 33.34 38.6665 33.7067V45.04C38.6665 45.2933 38.8132 45.5267 39.0398 45.64L47.9998 49.9867V53.7867C46.6665 54.0933 45.6665 55.28 45.6665 56.7067C45.6665 58.36 47.0132 59.7067 48.6665 59.7067C50.3198 59.7067 51.6665 58.36 51.6665 56.7067C51.6665 55.28 50.6665 54.0933 49.3332 53.7867ZM48.6665 58.3733C48.2245 58.3733 47.8006 58.1977 47.488 57.8852C47.1754 57.5726 46.9998 57.1487 46.9998 56.7067C46.9998 56.2646 47.1754 55.8407 47.488 55.5282C47.8006 55.2156 48.2245 55.04 48.6665 55.04C49.1085 55.04 49.5325 55.2156 49.845 55.5282C50.1576 55.8407 50.3332 56.2646 50.3332 56.7067C50.3332 57.1487 50.1576 57.5726 49.845 57.8852C49.5325 58.1977 49.1085 58.3733 48.6665 58.3733ZM20.6665 19.7067C21.7665 19.7067 22.6665 18.8067 22.6665 17.7067V15.7067C22.6665 14.6067 21.7665 13.7067 20.6665 13.7067C19.5665 13.7067 18.6665 14.6067 18.6665 15.7067V17.7067C18.6665 18.8067 19.5665 19.7067 20.6665 19.7067ZM19.9998 15.7067C19.9998 15.34 20.2998 15.04 20.6665 15.04C21.0332 15.04 21.3332 15.34 21.3332 15.7067V17.7067C21.3332 18.0733 21.0332 18.3733 20.6665 18.3733C20.2998 18.3733 19.9998 18.0733 19.9998 17.7067V15.7067ZM18.6665 25.04C18.6665 26.14 19.5665 27.04 20.6665 27.04C21.7665 27.04 22.6665 26.14 22.6665 25.04V23.04C22.6665 21.94 21.7665 21.04 20.6665 21.04C19.5665 21.04 18.6665 21.94 18.6665 23.04V25.04ZM19.9998 23.04C19.9998 22.6733 20.2998 22.3733 20.6665 22.3733C21.0332 22.3733 21.3332 22.6733 21.3332 23.04V25.04C21.3332 25.4067 21.0332 25.7067 20.6665 25.7067C20.2998 25.7067 19.9998 25.4067 19.9998 25.04V23.04ZM27.9998 23.04V25.04C27.9998 26.14 28.8998 27.04 29.9998 27.04C31.0998 27.04 31.9998 26.14 31.9998 25.04V23.04C31.9998 21.94 31.0998 21.04 29.9998 21.04C28.8998 21.04 27.9998 21.94 27.9998 23.04ZM30.6665 23.04V25.04C30.6665 25.4067 30.3665 25.7067 29.9998 25.7067C29.6332 25.7067 29.3332 25.4067 29.3332 25.04V23.04C29.3332 22.6733 29.6332 22.3733 29.9998 22.3733C30.3665 22.3733 30.6665 22.6733 30.6665 23.04ZM37.3332 23.04V25.04C37.3332 26.14 38.2332 27.04 39.3332 27.04C40.4332 27.04 41.3332 26.14 41.3332 25.04V23.04C41.3332 21.94 40.4332 21.04 39.3332 21.04C38.2332 21.04 37.3332 21.94 37.3332 23.04ZM39.9998 23.04V25.04C39.9998 25.4067 39.6998 25.7067 39.3332 25.7067C38.9665 25.7067 38.6665 25.4067 38.6665 25.04V23.04C38.6665 22.6733 38.9665 22.3733 39.3332 22.3733C39.6998 22.3733 39.9998 22.6733 39.9998 23.04ZM27.3332 13.7067C26.2332 13.7067 25.3332 14.6067 25.3332 15.7067V17.7067C25.3332 18.8067 26.2332 19.7067 27.3332 19.7067C28.4332 19.7067 29.3332 18.8067 29.3332 17.7067V15.7067C29.3332 14.6067 28.4332 13.7067 27.3332 13.7067ZM27.9998 17.7067C27.9998 18.0733 27.6998 18.3733 27.3332 18.3733C26.9665 18.3733 26.6665 18.0733 26.6665 17.7067V15.7067C26.6665 15.34 26.9665 15.04 27.3332 15.04C27.6998 15.04 27.9998 15.34 27.9998 15.7067V17.7067ZM37.3332 13.7067C36.2332 13.7067 35.3332 14.6067 35.3332 15.7067V17.7067C35.3332 18.8067 36.2332 19.7067 37.3332 19.7067C38.4332 19.7067 39.3332 18.8067 39.3332 17.7067V15.7067C39.3332 14.6067 38.4332 13.7067 37.3332 13.7067ZM37.9998 17.7067C37.9998 18.0733 37.6998 18.3733 37.3332 18.3733C36.9665 18.3733 36.6665 18.0733 36.6665 17.7067V15.7067C36.6665 15.34 36.9665 15.04 37.3332 15.04C37.6998 15.04 37.9998 15.34 37.9998 15.7067V17.7067ZM23.9998 19.7333C24.3665 19.7333 24.6665 19.4333 24.6665 19.0667V14.3733C24.6665 14.0067 24.3665 13.7067 23.9998 13.7067C23.6332 13.7067 23.3332 14.0067 23.3332 14.3733V19.0667C23.3332 19.4333 23.6332 19.7333 23.9998 19.7333ZM23.3332 26.3733C23.3332 26.74 23.6332 27.04 23.9998 27.04C24.3665 27.04 24.6665 26.74 24.6665 26.3733V21.68C24.6665 21.3133 24.3665 21.0133 23.9998 21.0133C23.6332 21.0133 23.3332 21.3133 23.3332 21.68V26.3733ZM27.3332 26.4V21.7067C27.3332 21.34 27.0332 21.04 26.6665 21.04C26.2998 21.04 25.9998 21.34 25.9998 21.7067V26.4C25.9998 26.7667 26.2998 27.0667 26.6665 27.0667C27.0332 27.0667 27.3332 26.7667 27.3332 26.4ZM33.9998 21.68C33.9998 21.3133 33.6998 21.0133 33.3332 21.0133C32.9665 21.0133 32.6665 21.3133 32.6665 21.68V26.3733C32.6665 26.74 32.9665 27.04 33.3332 27.04C33.6998 27.04 33.9998 26.74 33.9998 26.3733V21.68ZM35.3332 26.4C35.3332 26.7667 35.6332 27.0667 35.9998 27.0667C36.3665 27.0667 36.6665 26.7667 36.6665 26.4V21.7067C36.6665 21.34 36.3665 21.04 35.9998 21.04C35.6332 21.04 35.3332 21.34 35.3332 21.7067V26.4ZM31.3332 19.0667V14.3733C31.3332 14.0067 31.0332 13.7067 30.6665 13.7067C30.2998 13.7067 29.9998 14.0067 29.9998 14.3733V19.0667C29.9998 19.4333 30.2998 19.7333 30.6665 19.7333C31.0332 19.7333 31.3332 19.4333 31.3332 19.0667ZM41.3332 19.0667V14.3733C41.3332 14.0067 41.0332 13.7067 40.6665 13.7067C40.2998 13.7067 39.9998 14.0067 39.9998 14.3733V19.0667C39.9998 19.4333 40.2998 19.7333 40.6665 19.7333C41.0332 19.7333 41.3332 19.4333 41.3332 19.0667ZM33.3332 19.7333C33.6998 19.7333 33.9998 19.4333 33.9998 19.0667V14.3733C33.9998 14.0067 33.6998 13.7067 33.3332 13.7067C32.9665 13.7067 32.6665 14.0067 32.6665 14.3733V19.0667C32.6665 19.4333 32.9665 19.7333 33.3332 19.7333Z"/></g></svg>