<svg xmlns="http://www.w3.org/2000/svg"  viewBox="0 0 80 80" width="96px" height="96px"><path d="M 29.5 4 C 22.608508 4 17 9.6085077 17 16.5 C 17 21.658494 20.144486 26.093341 24.615234 28 C 20.144486 29.906659 17 34.341506 17 39.5 C 17 44.577101 20.069228 48.918245 24.427734 50.873047 C 19.517552 52.73199 16 57.447039 16 63 C 16 70.167516 21.832484 76 29 76 C 36.167516 76 42 70.167516 42 63 L 42 51 L 42 40.605469 C 42.060392 46.893534 47.176481 52 53.478516 52 C 59.817949 52 64.978516 46.839429 64.978516 40.5 C 64.978516 34.160571 59.817949 29 53.478516 29 C 47.176481 29 42.060392 34.106466 42 40.394531 L 42 29 L 52.5 29 C 59.391492 29 65 23.391492 65 16.5 C 65 9.6085077 59.391492 4 52.5 4 L 41 4 L 29.5 4 z M 29.5 6 L 40 6 L 40 27 L 29.5 27 C 23.689492 27 19 22.310508 19 16.5 C 19 10.689492 23.689492 6 29.5 6 z M 42 6 L 52.5 6 C 58.310508 6 63 10.689492 63 16.5 C 63 22.310508 58.310508 27 52.5 27 L 42 27 L 42 6 z M 50.210938 9 C 49.660937 9 49.210938 9.45 49.210938 10 C 49.210938 10.55 49.660938 11 50.210938 11 C 50.760938 11 51.210938 10.55 51.210938 10 C 51.210938 9.45 50.760937 9 50.210938 9 z M 45.902344 9.0039062 C 45.804844 9.0140313 45.709141 9.0400781 45.619141 9.0800781 C 45.499141 9.1300781 45.389063 9.1990625 45.289062 9.2890625 C 45.109062 9.4780625 45 9.74 45 10 C 45 10.13 45.030078 10.260859 45.080078 10.380859 C 45.130078 10.500859 45.199063 10.609937 45.289062 10.710938 C 45.389062 10.800937 45.499141 10.869922 45.619141 10.919922 C 45.739141 10.969922 45.87 11 46 11 C 46.13 11 46.260859 10.969922 46.380859 10.919922 C 46.500859 10.869922 46.610937 10.800937 46.710938 10.710938 C 46.900938 10.520937 47 10.27 47 10 C 47 9.74 46.890937 9.4790156 46.710938 9.2910156 C 46.660937 9.2510156 46.610547 9.201875 46.560547 9.171875 C 46.500547 9.131875 46.440859 9.1000781 46.380859 9.0800781 C 46.320859 9.0490781 46.259219 9.0305312 46.199219 9.0195312 C 46.099219 8.9990312 45.999844 8.9937812 45.902344 9.0039062 z M 54.246094 9.2714844 C 53.860312 9.3134375 53.520391 9.5817656 53.400391 9.9785156 C 53.240391 10.508516 53.540312 11.068516 54.070312 11.228516 C 54.170313 11.259516 54.259609 11.270531 54.349609 11.269531 C 54.789609 11.269531 55.180547 10.989594 55.310547 10.558594 C 55.470547 10.029594 55.170625 9.4685938 54.640625 9.3085938 C 54.508125 9.2685937 54.374688 9.2575 54.246094 9.2714844 z M 57.861328 11.632812 C 57.607578 11.595187 57.339141 11.655812 57.119141 11.820312 C 56.679141 12.150312 56.580156 12.781703 56.910156 13.220703 C 57.110156 13.479703 57.410703 13.619141 57.720703 13.619141 C 57.920703 13.619141 58.130547 13.559688 58.310547 13.429688 C 58.760547 13.099687 58.849531 12.47025 58.519531 12.03125 C 58.354531 11.80625 58.115078 11.670438 57.861328 11.632812 z M 59 15.519531 C 58.45 15.519531 58 15.959531 58 16.519531 C 58 17.068531 58.44 17.519531 59 17.519531 C 59.55 17.519531 60 17.069531 60 16.519531 C 60 15.969531 59.56 15.519531 59 15.519531 z M 29.5 29 L 40 29 L 40 50 L 29.5 50 C 23.689492 50 19 45.310508 19 39.5 C 19 33.689492 23.689492 29 29.5 29 z M 53.478516 31 C 58.73707 31 62.978516 35.241449 62.978516 40.5 C 62.978516 45.758551 58.73707 50 53.478516 50 C 48.219962 50 43.978516 45.758551 43.978516 40.5 C 43.978516 35.241449 48.219962 31 53.478516 31 z M 56.917969 35.287109 C 56.661719 35.310734 56.415234 35.430625 56.240234 35.640625 C 55.890234 36.060625 55.939141 36.690781 56.369141 37.050781 C 56.549141 37.200781 56.779766 37.279297 57.009766 37.279297 C 57.289766 37.279297 57.579531 37.159922 57.769531 36.919922 C 58.129531 36.499922 58.070391 35.869766 57.650391 35.509766 C 57.440391 35.335266 57.174219 35.263484 56.917969 35.287109 z M 58.720703 38.550781 C 58.170703 38.640781 57.810156 39.160938 57.910156 39.710938 C 57.990156 40.189938 58.420625 40.53025 58.890625 40.53125 C 58.950625 40.53125 59.010312 40.519766 59.070312 40.509766 C 59.610312 40.420766 59.970859 39.899375 59.880859 39.359375 C 59.780859 38.809375 59.260703 38.450781 58.720703 38.550781 z M 58.373047 42.236328 C 57.986328 42.190156 57.593125 42.371219 57.390625 42.730469 C 57.110625 43.210469 57.28 43.819609 57.75 44.099609 C 57.91 44.188609 58.08 44.229469 58.25 44.230469 C 58.6 44.230469 58.929141 44.050469 59.119141 43.730469 C 59.389141 43.251469 59.23 42.639375 58.75 42.359375 C 58.63 42.291875 58.501953 42.251719 58.373047 42.236328 z M 55.433594 44.660156 C 55.304063 44.654328 55.169063 44.673453 55.039062 44.720703 C 54.519063 44.910703 54.259219 45.489766 54.449219 46.009766 C 54.599219 46.409766 54.980625 46.659156 55.390625 46.660156 C 55.500625 46.660156 55.620469 46.639609 55.730469 46.599609 C 56.250469 46.399609 56.520313 45.831547 56.320312 45.310547 C 56.177812 44.920547 55.822188 44.677641 55.433594 44.660156 z M 51.576172 44.681641 C 51.185234 44.704188 50.824453 44.959609 50.689453 45.349609 C 50.499453 45.870609 50.769062 46.438141 51.289062 46.619141 C 51.399063 46.659141 51.520859 46.680688 51.630859 46.679688 C 52.040859 46.679687 52.430312 46.429531 52.570312 46.019531 C 52.760312 45.500531 52.480703 44.929234 51.970703 44.740234 C 51.840703 44.692484 51.706484 44.674125 51.576172 44.681641 z M 29 52 L 29.5 52 L 40 52 L 40 63 C 40 69.086484 35.086484 74 29 74 C 22.913516 74 18 69.086484 18 63 C 18 56.913516 22.913516 52 29 52 z M 36 55.011719 C 35.74 55.011719 35.479062 55.104062 35.289062 55.289062 C 35.109062 55.478062 35 55.74 35 56 C 35 56.27 35.099063 56.520938 35.289062 56.710938 C 35.479062 56.899937 35.73 57 36 57 C 36.27 57 36.520938 56.899938 36.710938 56.710938 C 36.900938 56.520937 37 56.27 37 56 C 37 55.74 36.890937 55.478063 36.710938 55.289062 C 36.520938 55.104062 36.26 55.011719 36 55.011719 z M 36 58.970703 C 35.45 58.970703 35 59.420703 35 59.970703 C 35 60.520703 35.45 60.970703 36 60.970703 C 36.55 60.970703 37 60.520703 37 59.970703 C 37 59.420703 36.55 58.970703 36 58.970703 z M 36.070312 62.890625 C 35.520312 62.819625 35.019219 63.21 34.949219 63.75 C 34.879219 64.3 35.270313 64.799141 35.820312 64.869141 C 35.860312 64.879141 35.899219 64.880859 35.949219 64.880859 C 36.439219 64.880859 36.869453 64.509766 36.939453 64.009766 C 37.009453 63.459766 36.620312 62.960625 36.070312 62.890625 z M 34.324219 66.427734 C 34.070469 66.452734 33.825391 66.573563 33.650391 66.789062 C 33.300391 67.219063 33.359063 67.848219 33.789062 68.199219 C 33.969063 68.349219 34.199922 68.420922 34.419922 68.419922 C 34.709922 68.419922 34.999453 68.298594 35.189453 68.058594 C 35.539453 67.628594 35.480781 66.999437 35.050781 66.648438 C 34.840781 66.473938 34.577969 66.402734 34.324219 66.427734 z M 24.035156 66.921875 C 23.780156 66.91925 23.525078 67.015437 23.330078 67.210938 C 22.930078 67.600937 22.930312 68.240859 23.320312 68.630859 C 23.520312 68.830859 23.769297 68.929688 24.029297 68.929688 C 24.289297 68.929688 24.540234 68.830625 24.740234 68.640625 C 25.130234 68.250625 25.130234 67.610703 24.740234 67.220703 C 24.545234 67.025703 24.290156 66.9245 24.035156 66.921875 z M 31.322266 68.626953 C 31.192891 68.617656 31.059687 68.634687 30.929688 68.679688 C 30.409688 68.859688 30.130781 69.428219 30.300781 69.949219 C 30.450781 70.369219 30.84 70.630859 31.25 70.630859 C 31.36 70.630859 31.470312 70.608359 31.570312 70.568359 C 32.100313 70.398359 32.379219 69.829594 32.199219 69.308594 C 32.064219 68.911844 31.710391 68.654844 31.322266 68.626953 z M 27.226562 68.826172 C 26.845 68.892266 26.517422 69.184844 26.419922 69.589844 C 26.299922 70.119844 26.629922 70.659063 27.169922 70.789062 C 27.239922 70.799063 27.320391 70.810547 27.400391 70.810547 C 27.850391 70.810547 28.259141 70.499062 28.369141 70.039062 C 28.489141 69.509063 28.159141 68.969844 27.619141 68.839844 C 27.486641 68.807344 27.35375 68.804141 27.226562 68.826172 z"/></svg>