<?xml version="1.0" encoding="UTF-8"?>
<svg version="1.1" xmlns="http://www.w3.org/2000/svg" width="512" height="512">
<path d="M0 0 C1.83449441 -0.00271502 3.66898772 -0.00627881 5.503479 -0.01062012 C10.453857 -0.01968556 15.404151 -0.01622412 20.35453033 -0.00986195 C25.5539013 -0.00477154 30.75326544 -0.00950181 35.95263672 -0.01263428 C44.68132813 -0.01626509 53.40998562 -0.01149808 62.13867188 -0.00195312 C72.20660306 0.0089297 82.27445321 0.0054035 92.34238243 -0.00560594 C101.01196164 -0.01470406 109.68151657 -0.01595176 118.35109901 -0.0107286 C123.51791333 -0.00762276 128.68468965 -0.00716124 133.85150146 -0.01380157 C138.71072909 -0.01961124 143.56985301 -0.01551234 148.42906952 -0.00401306 C150.20430073 -0.00138575 151.97954077 -0.00209826 153.75476837 -0.00653839 C178.30227756 -0.06223935 178.30227756 -0.06223935 188.0078125 5.13378906 C188.95527344 5.62621094 189.90273438 6.11863281 190.87890625 6.62597656 C200.8448312 12.67206746 206.02338899 21.30713282 209.5703125 32.25878906 C210.47401722 37.41723882 210.70884353 42.449685 210.68383789 47.67260742 C210.68398392 48.48317596 210.68412994 49.29374451 210.6842804 50.12887573 C210.68358844 52.78548946 210.67582989 55.44203146 210.66796875 58.09863281 C210.66610202 59.94950828 210.66467932 61.80038424 210.66368103 63.65126038 C210.65987594 68.5058836 210.65006292 73.36047656 210.63897705 78.21508789 C210.62871964 83.17561433 210.62417415 88.13614569 210.61914062 93.09667969 C210.60843875 102.81739605 210.59138659 112.53809003 210.5703125 122.25878906 C211.8696875 122.36191406 213.1690625 122.46503906 214.5078125 122.57128906 C219.47191603 123.10709706 223.91279584 124.50809131 228.5703125 126.25878906 C228.55920944 125.5432637 228.54810638 124.82773834 228.53666687 124.0905304 C228.43635725 117.33749888 228.36029367 110.58467614 228.31125164 103.83106709 C228.28519023 100.35914057 228.24985863 96.88783114 228.19311523 93.41625977 C228.12824416 89.42230408 228.10410388 85.42899348 228.08203125 81.43457031 C228.05622482 80.19169754 228.0304184 78.94882477 228.00382996 77.66828918 C228.0034523 76.50746323 228.00307465 75.34663727 228.00268555 74.15063477 C227.99158249 73.13137405 227.98047943 72.11211334 227.96903992 71.06196594 C228.8071012 67.15486278 230.51403808 65.77763625 233.5703125 63.25878906 C236.61068821 62.63237667 236.61068821 62.63237667 240.06703186 62.63059998 C241.38073257 62.61794601 242.69443329 62.60529205 244.04794312 62.59225464 C245.49689116 62.60357004 246.94583527 62.61539748 248.39477539 62.62768555 C249.92595753 62.62254558 251.45713375 62.61526372 252.98829651 62.60600281 C257.14125209 62.58749158 261.29356551 62.6004246 265.44649434 62.62009311 C269.79282327 62.63648044 274.13911156 62.62766674 278.48545837 62.62257385 C285.78313454 62.61805346 293.08055435 62.63392045 300.37817383 62.66186523 C308.81653471 62.69392899 317.25443354 62.69389665 325.69282728 62.67665046 C333.81031152 62.66079101 341.92762626 62.66751438 350.04510307 62.68458748 C353.49999945 62.69146196 356.95476013 62.69042153 360.40965462 62.68304253 C364.47688298 62.67538545 368.54358493 62.68748636 372.6107235 62.71489143 C374.1038723 62.72178205 375.5970702 62.72186594 377.09021759 62.7146759 C379.12700916 62.7059976 381.16386268 62.72435539 383.20057678 62.74412537 C384.34079316 62.74693229 385.48100954 62.74973921 386.65577793 62.75263119 C390.23591296 63.37438176 391.42142299 64.36949439 393.5703125 67.25878906 C393.95983029 70.09527119 394.10777694 72.54193019 394.07202148 75.3762207 C394.08012596 76.59881844 394.08012596 76.59881844 394.08839417 77.84611511 C394.10089101 80.53742905 394.08438601 83.22767533 394.06640625 85.91894531 C394.0665612 87.78934282 394.06804954 89.65974064 394.07081604 91.53013611 C394.07220041 95.44837655 394.0596345 99.3662511 394.03686523 103.28442383 C394.00846085 108.31077777 394.01122273 113.33652461 394.02395535 118.36292362 C394.03090422 122.22420961 394.02313264 126.08535483 394.01069832 129.94662285 C394.00617749 131.80021055 394.00585251 133.65381333 394.00976372 135.50740242 C394.0126687 138.09550178 393.99620436 140.68275892 393.97436523 143.27075195 C393.98111771 144.42334 393.98111771 144.42334 393.98800659 145.59921265 C393.91524566 150.77922104 393.91524566 150.77922104 392.35098648 152.95404434 C390.01182825 154.66800456 388.5795477 154.64230205 385.69184875 154.65751648 C384.68644043 154.67005463 383.6810321 154.68259277 382.64515686 154.69551086 C381.5432048 154.69407578 380.44125275 154.69264069 379.3059082 154.69116211 C377.56423874 154.70644958 377.56423874 154.70644958 375.78738403 154.7220459 C371.94023897 154.75229841 368.09334239 154.76146079 364.24609375 154.77050781 C361.58235376 154.78734542 358.9186473 154.80534799 356.25492859 154.8249054 C349.95455443 154.86860084 343.65420622 154.89712899 337.35372657 154.92022878 C330.18080244 154.94726422 323.00801283 154.99117667 315.83518469 155.0365175 C301.08030679 155.12940725 286.32537089 155.20106812 271.5703125 155.25878906 C272.32957031 156.21140625 273.08882813 157.16402344 273.87109375 158.14550781 C274.87515402 159.41231283 275.8790517 160.67924674 276.8828125 161.94628906 C277.38232422 162.57212891 277.88183594 163.19796875 278.39648438 163.84277344 C285.62044666 172.98036811 285.62044666 172.98036811 285.4453125 177.44628906 C284.5703125 180.25878906 284.5703125 180.25878906 281.5703125 182.25878906 C279.23828125 182.34863281 279.23828125 182.34863281 276.5703125 181.25878906 C274.39239412 178.97801371 272.66901856 176.4135374 270.8828125 173.82128906 C269.8074712 172.35994036 268.72801976 170.90160744 267.64453125 169.44628906 C265.82968199 166.99178436 264.06791552 164.52675003 262.33984375 162.00878906 C259.33347975 158.24125094 256.94176461 155.68322639 252.03857422 154.80566406 C246.27473214 154.27376752 240.55107055 154.2754268 234.77172852 154.5324707 C232.0307276 154.19170747 231.24814281 153.40018353 229.5703125 151.25878906 C228.24802061 148.61420527 228.47354056 146.58117605 228.5078125 143.63378906 C228.51683594 142.63089844 228.52585937 141.62800781 228.53515625 140.59472656 C228.55255859 139.4384375 228.55255859 139.4384375 228.5703125 138.25878906 C198.2479051 128.60763908 170.48144806 129.05745166 141.9453125 143.44628906 C119.52536209 156.08702938 102.39567834 176.50741379 95.3515625 201.41503906 C87.8714963 229.59695585 91.67450947 256.39727124 106.03271484 281.65673828 C109.5246237 287.51653845 113.7240905 292.46017239 118.5703125 297.25878906 C119.4159375 298.14566406 120.2615625 299.03253906 121.1328125 299.94628906 C122.339375 301.09097656 122.339375 301.09097656 123.5703125 302.25878906 C124.10527344 302.77699219 124.64023438 303.29519531 125.19140625 303.82910156 C135.20369129 313.11284195 146.8493646 318.7698705 159.5703125 323.25878906 C160.446875 323.5771875 161.3234375 323.89558594 162.2265625 324.22363281 C186.89901201 332.07040869 214.19012088 328.15404606 236.89404297 316.47412109 C260.73847647 303.59919546 276.55137109 282.71641846 284.7265625 257.16894531 C286.90734881 249.6472518 288.05073552 242.06481468 288.5703125 234.25878906 C288.65152344 233.17791016 288.65152344 233.17791016 288.734375 232.07519531 C288.99463489 225.24928822 287.79757622 218.64857647 286.63769531 211.9465332 C285.23010582 203.74757518 285.23010582 203.74757518 285.5703125 200.25878906 C287.2578125 198.38378906 287.2578125 198.38378906 289.5703125 197.25878906 C292.94067561 197.49952928 294.15829271 197.84676927 296.5703125 200.25878906 C304.65221036 223.57765948 300.78280134 253.24225469 290.5703125 275.25878906 C288.83352636 278.62090982 287.04192413 281.95223574 285.16113281 285.23608398 C283.25680094 288.62262998 282.5703125 290.26574846 282.5703125 294.25878906 C284.21314022 296.43892241 284.21314022 296.43892241 286.48046875 298.52441406 C287.30611328 299.33265625 288.13175781 300.14089844 288.98242188 300.97363281 C289.85705078 301.81023437 290.73167969 302.64683594 291.6328125 303.50878906 C293.33443303 305.15735526 295.03368561 306.80836941 296.73046875 308.46191406 C297.86947632 309.55487793 297.86947632 309.55487793 299.03149414 310.66992188 C300.9983159 312.67551645 302.81466928 314.69060042 304.63452148 316.82299805 C309.07279465 321.94012027 313.90012577 326.65346261 318.72665405 331.39859962 C320.42139943 333.06629127 322.11138719 334.73867081 323.80004883 336.41252136 C328.5961132 341.16624919 333.3948393 345.91717831 338.20996094 350.65161133 C341.17057698 353.56329339 344.12098193 356.48500248 347.0652771 359.41318321 C348.17779683 360.51591015 349.2939342 361.61500143 350.41397095 362.71009254 C361.44441168 373.50018645 370.52022981 384.33817993 370.9453125 400.32128906 C370.65363034 410.40052819 368.0903954 415.66510306 361.07421875 422.98535156 C353.64433271 429.73136354 346.94366686 430.63096107 337.109375 430.94628906 C333.76409337 431.24167817 331.81338939 431.78673244 328.8828125 433.32128906 C322.82106659 436.43192183 316.37765432 436.23672102 309.86328125 434.56347656 C298.17130099 430.28898916 292.6521031 423.07641676 286.5703125 412.50878906 C285.83345012 411.25746799 285.09472714 410.0072409 284.35424805 408.75805664 C282.83236466 406.18893637 281.31723677 403.61601195 279.80615234 401.04052734 C276.41935883 395.28860439 272.89768985 389.62063073 269.3828125 383.94628906 C263.16947413 373.87389995 257.00207143 363.77435022 250.85546875 353.66113281 C246.10874706 345.8511934 241.33953186 338.05500275 236.5703125 330.25878906 C234.76046875 330.89107422 234.76046875 330.89107422 232.9140625 331.53613281 C231.29961852 332.08992464 229.68502725 332.64328722 228.0703125 333.19628906 C227.27882813 333.47408203 226.48734375 333.751875 225.671875 334.03808594 C224.88554687 334.30556641 224.09921875 334.57304687 223.2890625 334.84863281 C222.57685547 335.09476318 221.86464844 335.34089355 221.13085938 335.59448242 C217.63196589 336.50223311 214.16279272 336.85944048 210.5703125 337.25878906 C210.57475372 338.13860443 210.57919495 339.0184198 210.58377075 339.92489624 C210.6239875 348.25110685 210.65436774 356.57728444 210.67393684 364.90357018 C210.68433599 369.18331449 210.69842378 373.46297797 210.72119141 377.74267578 C210.74305871 381.87942922 210.75491017 386.01610532 210.76006699 390.15291214 C210.76373797 391.72441448 210.7709059 393.295913 210.78177261 394.86738205 C210.85327259 405.64419699 210.80304819 415.79248938 205.6953125 425.57128906 C205.20289063 426.53679687 204.71046875 427.50230469 204.203125 428.49707031 C198.58623716 437.99740454 189.20989489 444.41136126 178.5703125 447.25878906 C169.58417107 448.62058628 160.54586198 448.40700968 151.48120117 448.40405273 C149.64714998 448.40704825 147.81309942 448.41045168 145.97904968 448.41423035 C141.01612188 448.42303418 136.05321134 448.42540692 131.09027648 448.42604613 C127.98466994 448.42675864 124.87906775 448.42889675 121.7734623 448.43154335 C110.92506254 448.44078451 100.07667504 448.44487974 89.22827148 448.4440918 C79.13825477 448.4434912 69.04829155 448.45404265 58.95828837 448.46983546 C50.27603537 448.48293749 41.5937998 448.48827458 32.91153699 448.48763639 C27.73461194 448.4873822 22.55773447 448.49018947 17.38081932 448.50081444 C12.50932833 448.51054043 7.63793 448.5105439 2.76643562 448.50329781 C0.98636616 448.50225757 -0.79370922 448.50458121 -2.57376862 448.51065826 C-18.74603992 448.56226085 -34.42984983 448.23776192 -46.8671875 436.38378906 C-57.04503162 425.25573128 -58.88087581 414.45214863 -58.81736755 399.74832153 C-58.82154441 398.17271606 -58.82702385 396.5971136 -58.83368737 395.02151668 C-58.84811462 390.70762605 -58.84390578 386.39392691 -58.83652055 382.08002591 C-58.83178443 377.42142532 -58.84430268 372.7628659 -58.85453796 368.10427856 C-58.87172269 358.98375287 -58.87256663 349.86329609 -58.86732506 340.74275841 C-58.86328146 333.3283955 -58.86472918 325.91405294 -58.87007332 318.49969101 C-58.87082174 317.44389838 -58.87157016 316.38810574 -58.87234126 315.3003194 C-58.87387276 313.15538224 -58.87541111 311.01044509 -58.87695623 308.86550795 C-58.89068014 288.7564512 -58.88524439 268.64743337 -58.87377102 248.53837751 C-58.86383917 230.14907442 -58.87677869 211.75987195 -58.90070521 193.37058438 C-58.92509867 174.47981857 -58.93470344 155.58909961 -58.92805248 136.69831836 C-58.92456077 126.09604076 -58.92678922 115.49384054 -58.94430351 104.89157486 C-58.95902857 95.86594682 -58.95965693 86.84045065 -58.9422326 77.81482519 C-58.9337227 73.21191164 -58.93157284 68.60923364 -58.94688416 64.0063324 C-58.96074149 59.78823116 -58.95595477 55.57056703 -58.93664492 51.35249101 C-58.9328878 49.83104133 -58.93579858 48.30955654 -58.94625657 46.78813817 C-59.03589998 32.74205244 -56.26645304 22.31734986 -46.359375 12.12988281 C-33.15530936 -0.36107127 -17.17560811 -0.04295895 0 0 Z M-39.4296875 20.25878906 C-45.92267949 28.12529859 -48.55657436 36.00861045 -48.55273533 46.18204308 C-48.55472638 47.3504767 -48.55671743 48.51891032 -48.55876881 49.72275102 C-48.55585597 50.99706881 -48.55294313 52.27138659 -48.54994202 53.58432007 C-48.55037828 54.95893232 -48.5512542 56.3335445 -48.55253118 57.70815623 C-48.55476537 61.4799333 -48.55076957 65.25168193 -48.54575312 69.02345538 C-48.54143337 73.09291758 -48.54289613 77.16237819 -48.5436554 81.23184204 C-48.54417966 88.28063715 -48.541043 95.32942301 -48.53541756 102.37821579 C-48.52728941 112.56957817 -48.52468599 122.76093607 -48.52342957 132.95230134 C-48.52124112 149.4872464 -48.51458663 166.02218652 -48.50512695 182.55712891 C-48.49594749 198.61897761 -48.48886926 214.68082498 -48.48461914 230.74267578 C-48.48435642 231.73278197 -48.48409369 232.72288816 -48.48382301 233.74299757 C-48.48251797 238.71008541 -48.48125426 243.67717326 -48.48001111 248.64426112 C-48.46964494 289.8491072 -48.45203224 331.05394785 -48.4296875 372.25878906 C-46.1196875 372.25878906 -43.8096875 372.25878906 -41.4296875 372.25878906 C-41.0996875 370.27878906 -40.7696875 368.29878906 -40.4296875 366.25878906 C35.8003125 366.25878906 112.0303125 366.25878906 190.5703125 366.25878906 C191.2303125 368.23878906 191.8903125 370.21878906 192.5703125 372.25878906 C194.8803125 372.25878906 197.1903125 372.25878906 199.5703125 372.25878906 C199.5703125 361.36878906 199.5703125 350.47878906 199.5703125 339.25878906 C196.1671875 339.17628906 192.7640625 339.09378906 189.2578125 339.00878906 C158.449064 337.8673178 130.45998404 326.35894163 108.97265625 304.00097656 C90.71661741 283.16237613 79.22398083 255.29671756 80.2890625 227.29394531 C83.31277069 194.66309441 94.48661849 167.08842462 119.5703125 145.25878906 C139.45228879 129.37331623 162.94783185 121.3777444 188.2578125 120.63378906 C189.35287109 120.59511719 190.44792969 120.55644531 191.57617188 120.51660156 C194.2407305 120.42351655 196.90530272 120.33769054 199.5703125 120.25878906 C199.64003119 109.74006693 199.69323444 99.22140039 199.72574902 88.70249367 C199.74135972 83.81736677 199.76251348 78.93239876 199.79663086 74.04736328 C199.82938893 69.32705513 199.84720003 64.60689916 199.85494423 59.88648605 C199.86045835 58.09168479 199.87122562 56.29689122 199.88750267 54.5021553 C199.99603532 42.03152485 199.99362557 31.29783514 191.58984375 21.30175781 C184.47397722 14.10330869 176.58944174 11.07238105 166.50203663 10.98664016 C165.41393339 10.99230914 165.41393339 10.99230914 164.30384827 10.99809265 C163.5111538 10.9942671 162.71845934 10.99044156 161.90174383 10.98650008 C159.26653951 10.97624652 156.63155619 10.98014757 153.99633789 10.98413086 C152.09845276 10.97978018 150.20056938 10.97459584 148.3026886 10.96864319 C143.16220623 10.95528104 138.02179751 10.95467137 132.88130116 10.95720649 C128.58460954 10.95827798 124.28793271 10.95338834 119.99124426 10.94860107 C109.85263135 10.93751575 99.71405549 10.93706315 89.57543945 10.94311523 C79.12692224 10.94915651 68.67853963 10.93683782 58.23004538 10.91554517 C49.24806806 10.89791621 40.26613355 10.89192981 31.28413957 10.89518291 C25.92451244 10.89699366 20.56498137 10.8943802 15.20536995 10.88046837 C10.1647806 10.86787344 5.12440083 10.86984995 0.08381462 10.88287926 C-1.76201575 10.88524086 -3.60786096 10.88252532 -5.45367432 10.87425613 C-18.28602084 10.82092929 -29.27290955 11.41933758 -39.4296875 20.25878906 Z " fill="#010101" transform="translate(88.4296875,31.7412109375)"/>
<path d="M0 0 C0.93543121 -0.00226556 1.87086242 -0.00453111 2.83464003 -0.00686532 C5.98844586 -0.01322667 9.14220895 -0.0123746 12.29602051 -0.0115509 C14.54919999 -0.01454103 16.80237896 -0.01794322 19.05555725 -0.02172852 C25.18967773 -0.03058677 31.32378428 -0.03290737 37.45791054 -0.0335443 C42.5701441 -0.03449175 47.68237438 -0.03816808 52.79460669 -0.0417164 C64.1603467 -0.04940154 75.52607804 -0.05238439 86.89181978 -0.05171105 C87.91536838 -0.05165111 87.91536838 -0.05165111 88.95959473 -0.05158997 C89.64278989 -0.05154909 90.32598504 -0.0515082 91.02988309 -0.05146609 C102.10881248 -0.0510594 113.18770792 -0.0606341 124.26662749 -0.07472833 C135.63236871 -0.08907382 146.9980882 -0.09581617 158.36384058 -0.09513456 C164.7489184 -0.09487888 171.1339578 -0.09776817 177.51902771 -0.10831261 C183.5205976 -0.11795271 189.52209201 -0.11810105 195.52366447 -0.11079597 C197.73203071 -0.10974508 199.94040154 -0.11214267 202.14875984 -0.11815643 C205.15207943 -0.12580823 208.15513389 -0.12127716 211.15844727 -0.11352539 C212.48420312 -0.12124074 212.48420312 -0.12124074 213.83674192 -0.12911195 C219.8509523 -0.09455856 219.8509523 -0.09455856 222.07922363 2.13371277 C222.20422363 4.75871277 222.20422363 4.75871277 222.07922363 7.13371277 C224.38922363 7.13371277 226.69922363 7.13371277 229.07922363 7.13371277 C229.22890565 12.89531919 229.33706167 18.65576423 229.40881348 24.41886902 C229.43876093 26.374148 229.47953468 28.32929527 229.53186035 30.28410339 C229.86281334 42.97712407 230.06128375 53.39863517 221.0826416 63.34562683 C219.14168868 65.25683135 217.40040722 66.69375397 215.07922363 68.13371277 C214.5767533 68.46461379 214.07428297 68.79551481 213.55658627 69.13644314 C205.28042075 73.70601966 195.83453217 72.70159162 186.67321777 72.66716003 C184.69798642 72.67422404 182.72276048 72.68297108 180.74754333 72.69326782 C175.40037878 72.71571725 170.05351085 72.71283244 164.70631719 72.70394635 C160.23568234 72.69882638 155.76510274 72.70613721 151.29447359 72.71341842 C140.74489102 72.73040329 130.19545314 72.72686573 119.64587402 72.71012878 C108.7763443 72.69320682 97.90721615 72.70904643 87.03773028 72.74135166 C77.69136754 72.76807369 68.3451296 72.77531654 58.99873251 72.76683658 C53.4227354 72.76191528 47.84697989 72.76408008 42.27101326 72.7846241 C37.02672371 72.80302225 31.78301046 72.79697173 26.5387516 72.7724247 C24.61916641 72.76743005 22.699537 72.77087144 20.77998734 72.78357315 C2.23368173 72.89654423 2.23368173 72.89654423 -5.92077637 67.13371277 C-6.84890137 66.51496277 -7.77702637 65.89621277 -8.73327637 65.25871277 C-15.19503375 58.98157703 -18.9450143 51.54467107 -19.26135254 42.44010925 C-19.26088664 40.79493187 -19.24448652 39.14969673 -19.21374512 37.50480652 C-19.20950027 36.62969925 -19.20525543 35.75459198 -19.20088196 34.85296631 C-19.18425618 32.09205205 -19.14663602 29.33190172 -19.10827637 26.57121277 C-19.09320865 24.6851557 -19.07952392 22.79908704 -19.06726074 20.91300964 C-19.03440573 16.31962194 -18.98273772 11.7267963 -18.92077637 7.13371277 C-16.61077637 7.13371277 -14.30077637 7.13371277 -11.92077637 7.13371277 C-11.73515137 5.67965027 -11.73515137 5.67965027 -11.54577637 4.19621277 C-11.33952637 3.18558777 -11.13327637 2.17496277 -10.92077637 1.13371277 C-7.54445641 -0.55444721 -3.71370428 -0.00650691 0 0 Z " fill="#AEA0FB" transform="translate(58.9207763671875,396.8662872314453)"/>
<path d="M0 0 C1.31370071 -0.01265396 2.62740143 -0.02530792 3.98091125 -0.03834534 C5.4298593 -0.02702994 6.87880341 -0.0152025 8.32774353 -0.00291443 C9.85892567 -0.00805439 11.39010189 -0.01533626 12.92126465 -0.02459717 C17.07422023 -0.0431084 21.22653365 -0.03017538 25.37946248 -0.01050687 C29.72579141 0.00588046 34.0720797 -0.00293324 38.41842651 -0.00802612 C45.71610268 -0.01254652 53.01352248 0.00332048 60.31114197 0.03126526 C68.74950285 0.06332902 77.18740168 0.06329667 85.62579542 0.04605049 C93.74327966 0.03019103 101.8605944 0.0369144 109.97807121 0.0539875 C113.43296759 0.06086199 116.88772827 0.05982155 120.34262276 0.05244255 C124.40985112 0.04478547 128.47655307 0.05688638 132.54369164 0.08429146 C134.03684044 0.09118208 135.53003834 0.09126597 137.02318573 0.08407593 C139.05997729 0.07539763 141.09683082 0.09375542 143.13354492 0.11352539 C144.84386949 0.11773577 144.84386949 0.11773577 146.58874607 0.12203121 C150.1688811 0.74378178 151.35439113 1.73889441 153.50328064 4.62818909 C153.89279843 7.46467122 154.04074508 9.91133022 154.00498962 12.74562073 C154.0130941 13.96821846 154.0130941 13.96821846 154.0213623 15.21551514 C154.03385915 17.90682908 154.01735414 20.59707536 153.99937439 23.28834534 C153.99952934 25.15874284 154.00101768 27.02914067 154.00378418 28.89953613 C154.00516855 32.81777657 153.99260264 36.73565113 153.96983337 40.65382385 C153.94142899 45.6801778 153.94419087 50.70592464 153.95692348 55.73232365 C153.96387236 59.59360963 153.95610078 63.45475486 153.94366646 67.31602287 C153.93914563 69.16961058 153.93882065 71.02321335 153.94273186 72.87680244 C153.94563684 75.4649018 153.9291725 78.05215895 153.90733337 80.64015198 C153.91408585 81.79274002 153.91408585 81.79274002 153.92097473 82.96861267 C153.8482138 88.14862106 153.8482138 88.14862106 152.28395462 90.32344437 C149.94479639 92.03740458 148.51251584 92.01170207 145.62481689 92.0269165 C144.61940857 92.03945465 143.61400024 92.0519928 142.578125 92.06491089 C141.47617294 92.0634758 140.37422089 92.06204071 139.23887634 92.06056213 C137.49720688 92.07584961 137.49720688 92.07584961 135.72035217 92.09144592 C131.87320711 92.12169843 128.02631052 92.13086081 124.17906189 92.13990784 C121.5153219 92.15674545 118.85161544 92.17474801 116.18789673 92.19430542 C109.88752257 92.23800087 103.58717436 92.26652902 97.28669471 92.2896288 C90.11377058 92.31666425 82.94098097 92.3605767 75.76815283 92.40591753 C61.01327493 92.49880728 46.25833903 92.57046815 31.50328064 92.62818909 C32.26253845 93.58080627 33.02179626 94.53342346 33.80406189 95.51490784 C34.80812216 96.78171286 35.81201984 98.04864676 36.81578064 99.31568909 C37.56504822 100.25444885 37.56504822 100.25444885 38.32945251 101.21217346 C45.55341479 110.34976813 45.55341479 110.34976813 45.37828064 114.81568909 C44.50328064 117.62818909 44.50328064 117.62818909 41.50328064 119.62818909 C39.17124939 119.71803284 39.17124939 119.71803284 36.50328064 118.62818909 C34.32536226 116.34741374 32.6019867 113.78293742 30.81578064 111.19068909 C29.74043934 109.72934038 28.6609879 108.27100747 27.57749939 106.81568909 C25.76265013 104.36118439 24.00088366 101.89615005 22.27281189 99.37818909 C19.26644789 95.61065097 16.87473275 93.05262642 11.97154236 92.17506409 C6.20770028 91.64316755 0.48403869 91.64482682 -5.29530334 91.90187073 C-8.03630427 91.5611075 -8.81888905 90.76958355 -10.49671936 88.62818909 C-12.02135365 85.57892051 -11.67038378 82.39200738 -11.68959045 79.04493713 C-11.69776794 78.26263733 -11.70594543 77.48033752 -11.71437073 76.67433167 C-11.73922961 74.07953154 -11.7557418 71.48478614 -11.77015686 68.88990784 C-11.77548054 68.00434519 -11.78080421 67.11878254 -11.78628922 66.20638466 C-11.81302275 61.51927684 -11.83239712 56.83219567 -11.84681702 52.14503479 C-11.86346696 47.30253979 -11.90824671 42.46072508 -11.95918846 37.61848736 C-11.99283613 33.89613051 -12.00439168 30.17393564 -12.0100441 26.45144081 C-12.0167633 24.66643384 -12.03200279 22.88143778 -12.05593491 21.0965786 C-12.08753794 18.59702918 -12.08763124 16.0993212 -12.08021545 13.59962463 C-12.09662079 12.86333328 -12.11302612 12.12704193 -12.12992859 11.36843872 C-12.08503787 7.66897581 -11.68457019 5.86518117 -9.36476421 2.93852043 C-5.92172717 0.16500857 -4.36882601 0.00224575 0 0 Z " fill="#AEA0FB" transform="translate(328.49671936035156,94.37181091308594)"/>
<path d="M0 0 C9.10337379 6.87129656 16.0440297 16.06196856 18.40234375 27.44140625 C20.07910637 41.01629269 18.08886678 53.44521351 9.66015625 64.46875 C2.39052393 72.87561193 -6.88056226 79.83674705 -18.30444336 80.94287109 C-32.38788456 81.48372244 -44.13934022 80.20585036 -55.3203125 70.68359375 C-64.65515742 61.62330309 -70.29161622 50.2628632 -70.5625 37.125 C-70.39405965 24.67912975 -65.76411069 13.77224936 -57.38671875 4.66796875 C-41.4457795 -10.07214645 -18.09476006 -11.87298821 0 0 Z " fill="#B8DF12" transform="translate(132.3125,140.25)"/>
<path d="M0 0 C1.03125 0.7425 2.0625 1.485 3.125 2.25 C12.14722081 10.87995034 17.01771772 22.58811471 17.3125 35 C17.17759956 48.25022101 12.13831063 58.55149453 3.375 68.1875 C-5.07497802 76.26658203 -15.88734319 79.79689601 -27.375 80.3125 C-41.5362379 79.93653793 -52.38247982 74.00415416 -62 64 C-70.10003758 54.13391649 -72.87624392 42.59194971 -72 30 C-70.0604815 17.24520041 -64.10042208 7.06491717 -54 -1 C-36.79990763 -11.58292903 -16.71368454 -12.48723558 0 0 Z " fill="#FE604A" transform="translate(134,246)"/>
<path d="M0 0 C3.76817971 1.56707657 6.1580299 3.91044681 9.0246582 6.78173828 C9.51143036 7.26661209 9.99820251 7.7514859 10.49972534 8.25105286 C12.10500191 9.85263074 13.70297043 11.46128902 15.30078125 13.0703125 C16.42136211 14.19208672 17.54231426 15.31349015 18.66362 16.43453979 C21.01445465 18.78693823 23.36189497 21.14265479 25.70678711 23.50097656 C28.69396251 26.50505324 31.68758868 29.50259477 34.68360615 32.49785042 C37.0012151 34.81573322 39.31619357 37.13622851 41.63033104 39.45757675 C42.73201042 40.56241225 43.83427352 41.66666606 44.93715858 42.770298 C50.31666487 48.15743253 55.60959752 53.56562124 60.56459045 59.35235596 C62.4729949 61.54293023 64.52192576 63.5520804 66.62890625 65.55078125 C67.43650391 66.33259766 68.24410156 67.11441406 69.07617188 67.91992188 C70.72991659 69.51131015 72.39137901 71.09471811 74.06054688 72.66992188 C81.60105026 80.01754268 87.27257821 87.968256 88.375 98.625 C88.26233158 104.11502502 86.18310044 108.58923727 83 113 C79.45150599 116.23407049 76.11630406 118.88705119 71.21875 119.1484375 C70.4865625 119.09945312 69.754375 119.05046875 69 119 C69.2165625 118.36835938 69.433125 117.73671875 69.65625 117.0859375 C72.16757919 109.01712983 73.87974205 99.96262263 71.2734375 91.6953125 C68.81484399 87.03797683 65.20144896 84.15865735 60.625 81.75 C55.85967792 80.38847941 52.37910562 80.3380293 47.875 82.5 C43.42504032 86.36953015 40.49387697 89.88213322 39.55078125 95.8359375 C39.23307015 104.35935954 41.1937166 111.82774086 46.625 118.5 C48.06590867 120.01674597 49.52068663 121.52068663 51 123 C50 124 50 124 46.5625 124.375 C40.90736197 124.25338413 36.58121761 122.21614549 32 119 C26.48144645 112.5332253 22.31070426 104.75229229 17.95141602 97.48242188 C16.0868346 94.37323554 14.21052697 91.27112743 12.3359375 88.16796875 C11.96269348 87.5494101 11.58944946 86.93085144 11.20489502 86.29354858 C8.01032616 81.00378101 4.76541876 75.74632149 1.5 70.5 C-4.46508273 60.90706415 -10.32865626 51.25376895 -16.17773438 41.58984375 C-16.52429077 41.01763092 -16.87084717 40.44541809 -17.22790527 39.85586548 C-18.22017621 38.21722004 -19.2116628 36.57809973 -20.203125 34.93896484 C-21.77240381 32.37225583 -23.37710168 29.83371068 -25 27.30078125 C-27 24 -27 24 -27 22 C-25.12721216 20.62561538 -23.198529 19.32721424 -21.25 18.0625 C-13.4063749 12.84175355 -6.65233945 6.65233945 0 0 Z " fill="#F4CD1B" transform="translate(361,333)"/>
<path d="M0 0 C0.93543121 -0.00226556 1.87086242 -0.00453111 2.83464003 -0.00686532 C5.98844586 -0.01322667 9.14220895 -0.0123746 12.29602051 -0.0115509 C14.54919999 -0.01454103 16.80237896 -0.01794322 19.05555725 -0.02172852 C25.18967773 -0.03058677 31.32378428 -0.03290737 37.45791054 -0.0335443 C42.5701441 -0.03449175 47.68237438 -0.03816808 52.79460669 -0.0417164 C64.1603467 -0.04940154 75.52607804 -0.05238439 86.89181978 -0.05171105 C87.91536838 -0.05165111 87.91536838 -0.05165111 88.95959473 -0.05158997 C89.64278989 -0.05154909 90.32598504 -0.0515082 91.02988309 -0.05146609 C102.10881248 -0.0510594 113.18770792 -0.0606341 124.26662749 -0.07472833 C135.63236871 -0.08907382 146.9980882 -0.09581617 158.36384058 -0.09513456 C164.7489184 -0.09487888 171.1339578 -0.09776817 177.51902771 -0.10831261 C183.5205976 -0.11795271 189.52209201 -0.11810105 195.52366447 -0.11079597 C197.73203071 -0.10974508 199.94040154 -0.11214267 202.14875984 -0.11815643 C205.15207943 -0.12580823 208.15513389 -0.12127716 211.15844727 -0.11352539 C212.48420312 -0.12124074 212.48420312 -0.12124074 213.83674192 -0.12911195 C219.8509523 -0.09455856 219.8509523 -0.09455856 222.07922363 2.13371277 C222.39172363 5.63371277 222.39172363 5.63371277 222.07922363 9.13371277 C218.12145434 11.77222563 214.72117209 11.41432328 210.12757874 11.39440918 C209.20087134 11.39823473 208.27416394 11.40206027 207.3193745 11.40600175 C204.20093714 11.41635555 201.08268308 11.41233508 197.9642334 11.40837097 C195.73385446 11.41271612 193.50347702 11.41789861 191.27310181 11.42385864 C185.20500584 11.43728092 179.13697203 11.43782374 173.06886411 11.43529534 C168.00895716 11.43422784 162.9490629 11.43910332 157.88915867 11.44390076 C145.27239572 11.45564267 132.65567093 11.45476448 120.03890853 11.44834395 C109.07777044 11.44317429 98.11672119 11.45443047 87.15560067 11.47344217 C75.90507618 11.4928065 64.65459262 11.50078739 53.40404743 11.49731892 C47.08597428 11.4955024 40.76798251 11.49817897 34.44992256 11.51203346 C28.50985526 11.52457099 22.56996632 11.52270639 16.62990189 11.50962257 C14.44656376 11.50724835 12.26321323 11.51002153 10.0798893 11.5182457 C7.10566739 11.5286434 4.13205172 11.5206687 1.15785217 11.50793457 C-0.14646913 11.518996 -0.14646913 11.518996 -1.47714037 11.53028089 C-7.34181653 11.47724166 -7.34181653 11.47724166 -10.48819065 9.61032391 C-10.96094394 9.12304223 -11.43369722 8.63576056 -11.92077637 8.13371277 C-11.66516313 5.79059147 -11.32806864 3.45527874 -10.92077637 1.13371277 C-7.54445641 -0.55444721 -3.71370428 -0.00650691 0 0 Z " fill="#000000" transform="translate(58.9207763671875,97.86628723144531)"/>
<path d="M0 0 C0.93543121 -0.00226556 1.87086242 -0.00453111 2.83464003 -0.00686532 C5.98844586 -0.01322667 9.14220895 -0.0123746 12.29602051 -0.0115509 C14.54919999 -0.01454103 16.80237896 -0.01794322 19.05555725 -0.02172852 C25.18967773 -0.03058677 31.32378428 -0.03290737 37.45791054 -0.0335443 C42.5701441 -0.03449175 47.68237438 -0.03816808 52.79460669 -0.0417164 C64.1603467 -0.04940154 75.52607804 -0.05238439 86.89181978 -0.05171105 C87.91536838 -0.05165111 87.91536838 -0.05165111 88.95959473 -0.05158997 C89.64278989 -0.05154909 90.32598504 -0.0515082 91.02988309 -0.05146609 C102.10881248 -0.0510594 113.18770792 -0.0606341 124.26662749 -0.07472833 C135.63236871 -0.08907382 146.9980882 -0.09581617 158.36384058 -0.09513456 C164.7489184 -0.09487888 171.1339578 -0.09776817 177.51902771 -0.10831261 C183.5205976 -0.11795271 189.52209201 -0.11810105 195.52366447 -0.11079597 C197.73203071 -0.10974508 199.94040154 -0.11214267 202.14875984 -0.11815643 C205.15207943 -0.12580823 208.15513389 -0.12127716 211.15844727 -0.11352539 C212.48420312 -0.12124074 212.48420312 -0.12124074 213.83674192 -0.12911195 C219.8509523 -0.09455856 219.8509523 -0.09455856 222.07922363 2.13371277 C222.39172363 5.13371277 222.39172363 5.13371277 222.07922363 8.13371277 C218.11162725 10.77877702 214.68833999 10.41427051 210.08288574 10.39440918 C209.15138923 10.39823473 208.21989271 10.40206027 207.26016903 10.40600175 C204.12557845 10.41635571 200.99117022 10.41233506 197.85656738 10.40837097 C195.61471384 10.41271608 193.37286179 10.41789855 191.13101196 10.42385864 C185.03199248 10.43728056 178.93303483 10.43782383 172.83400345 10.43529534 C167.74914898 10.43422793 162.66430715 10.43910303 157.57945538 10.44390076 C144.90191522 10.45564228 132.22441305 10.45476452 119.54687345 10.44834395 C108.5300945 10.44317297 97.51340393 10.454434 86.49664247 10.47344217 C75.19075223 10.49280005 63.88490272 10.5007885 52.57899189 10.49731892 C46.22909271 10.49550165 39.87927448 10.49818648 33.52938843 10.51203346 C27.56059735 10.52456178 21.59198384 10.52271523 15.62319565 10.50962257 C13.42814958 10.50724642 11.23309121 10.51002835 9.03805923 10.5182457 C6.05035068 10.52862711 3.06324757 10.5206821 0.07556152 10.50793457 C-0.8007898 10.51530886 -1.67714113 10.52268314 -2.58004856 10.53028089 C-8.46648699 10.47714436 -8.46648699 10.47714436 -10.67759037 8.80560464 C-11.92077637 7.13371277 -11.92077637 7.13371277 -11.73327637 4.00871277 C-11.46515137 3.05996277 -11.19702637 2.11121277 -10.92077637 1.13371277 C-7.54445641 -0.55444721 -3.71370428 -0.00650691 0 0 Z " fill="#000000" transform="translate(58.9207763671875,396.8662872314453)"/>
<path d="M0 0 C5.58209741 3.10483525 9.6313394 7.77409961 12.375 13.5 C13.61764491 20.12743951 13.48405001 24.78177931 10.20703125 30.67578125 C7.19168163 35.0086067 3.08711681 38.18265616 -2.0625 39.5 C-5.07102688 39.64737716 -8.05346799 39.61800126 -11.0625 39.5 C-11.02769531 40.40363281 -10.99289062 41.30726563 -10.95703125 42.23828125 C-10.92996094 43.41777344 -10.90289062 44.59726563 -10.875 45.8125 C-10.84019531 46.98425781 -10.80539062 48.15601563 -10.76953125 49.36328125 C-11.0625 52.5 -11.0625 52.5 -12.4140625 54.42578125 C-14.0625 55.5 -14.0625 55.5 -16.625 55.375 C-19.0625 54.5 -19.0625 54.5 -21.0625 51.5 C-21.33665466 49.42654419 -21.33665466 49.42654419 -21.36889648 47.01611328 C-21.38488388 46.11152374 -21.40087128 45.2069342 -21.41734314 44.27493286 C-21.42270584 43.29990814 -21.42806854 42.32488342 -21.43359375 41.3203125 C-21.44262222 40.31539764 -21.4516507 39.31048279 -21.46095276 38.27511597 C-21.47546473 36.14844751 -21.48434434 34.0217343 -21.48803711 31.89501953 C-21.49993016 28.64408984 -21.54910472 25.39506005 -21.59960938 22.14453125 C-21.60907393 20.07813427 -21.61630881 18.01172562 -21.62109375 15.9453125 C-21.64062607 14.97433624 -21.66015839 14.00335999 -21.68028259 13.00296021 C-21.64897094 8.31015569 -21.62648318 6.21517093 -18.64086914 2.42919922 C-12.6701365 -2.03824982 -6.98436635 -3.06498407 0 0 Z " fill="#060508" transform="translate(448.0625,115.5)"/>
<path d="M0 0 C6.53539697 3.29534399 11.28497218 8.15569778 13.62109375 15.1640625 C14.36250875 22.00695831 13.71162996 27.5128294 9.62109375 33.1640625 C5.92353863 37.14526569 1.83477954 40.00663532 -3.69140625 40.27734375 C-5.92503257 40.28781387 -8.14716889 40.25158161 -10.37890625 40.1640625 C-10.34410156 41.06769531 -10.30929687 41.97132813 -10.2734375 42.90234375 C-10.24636719 44.08183594 -10.21929687 45.26132813 -10.19140625 46.4765625 C-10.15660156 47.64832031 -10.12179687 48.82007813 -10.0859375 50.02734375 C-10.37890625 53.1640625 -10.37890625 53.1640625 -11.7265625 55.09375 C-13.37890625 56.1640625 -13.37890625 56.1640625 -16.00390625 55.9765625 C-18.37890625 55.1640625 -18.37890625 55.1640625 -19.37890625 53.1640625 C-19.49381165 51.64906793 -19.54832888 50.12927231 -19.57177734 48.61010742 C-19.58784027 47.66540085 -19.6039032 46.72069427 -19.62045288 45.74736023 C-19.66487887 41.42492357 -19.70596658 37.10264083 -19.72900391 32.7800293 C-19.74556721 30.49965207 -19.7728619 28.21932684 -19.81103516 25.93920898 C-19.86577406 22.6532088 -19.88767382 19.36842584 -19.90234375 16.08203125 C-19.92501312 15.06417038 -19.9476825 14.04630951 -19.97103882 12.99760437 C-19.94990935 5.92367614 -19.94990935 5.92367614 -17.03369141 2.04418945 C-11.86536252 -1.61603685 -5.95042525 -2.09095403 0 0 Z " fill="#030204" transform="translate(405.37890625,114.8359375)"/>
<path d="M0 0 C1.94083727 2.0203591 2.99651007 3.18514939 3.00872803 6.03787231 C2.73708832 7.15245316 2.73708832 7.15245316 2.45996094 8.28955078 C2.2485144 9.17273987 2.03706787 10.05592896 1.81921387 10.96588135 C0.15764954 17.11980956 -1.56823654 23.25004007 -3.359375 29.3671875 C-3.79088648 30.85188115 -4.22205206 32.33667537 -4.65289307 33.82156372 C-5.7844709 37.71768897 -6.92116096 41.61230491 -8.05883789 45.50665283 C-9.19634885 49.40446612 -10.3282813 53.30389882 -11.4609375 57.203125 C-13.39224033 63.84970482 -15.33542395 70.49272209 -17.28586578 77.13370895 C-18.50127365 81.2780343 -19.69459571 85.42803794 -20.87304688 89.58300781 C-21.39968878 91.412124 -21.92637666 93.24122696 -22.453125 95.0703125 C-22.67482361 95.87274384 -22.89652222 96.67517517 -23.12493896 97.50192261 C-24.66053166 102.77368778 -24.66053166 102.77368778 -28 105 C-33.55555556 104.44444444 -33.55555556 104.44444444 -35 103 C-35.29022052 97.89527569 -34.58950009 93.71282965 -33.16748047 88.8215332 C-32.97229324 88.14062622 -32.77710602 87.45971924 -32.57600403 86.75817871 C-31.93191658 84.51971214 -31.27469429 82.28533934 -30.6171875 80.05078125 C-30.15995024 78.47224788 -29.70351342 76.89348246 -29.24783325 75.3144989 C-28.04515662 71.15558582 -26.83118315 67.00005221 -25.6149292 62.84509277 C-24.40015507 58.68722444 -23.19677601 54.52606256 -21.9921875 50.36523438 C-19.94315916 43.29303646 -17.87873786 36.22548192 -15.80327988 29.16099739 C-14.54771226 24.88333255 -13.3101764 20.60101179 -12.08691406 16.31396484 C-11.56070057 14.49442169 -11.03434957 12.67491829 -10.5078125 10.85546875 C-10.28850067 10.06972977 -10.06918884 9.28399078 -9.8432312 8.47444153 C-8.15816044 2.71817378 -6.59662312 -1.15440905 0 0 Z " fill="#000000" transform="translate(298,209)"/>
<path d="M0 0 C2.5 0.5 2.5 0.5 3.91918945 1.95947266 C6.22127193 5.65915918 7.71235765 9.59712965 9.29296875 13.6484375 C9.64386063 14.53858551 9.9947525 15.42873352 10.35627747 16.34585571 C11.09481284 18.22573211 11.8300671 20.10690041 12.56225586 21.98925781 C13.68254166 24.8622841 14.82013101 27.72804165 15.95898438 30.59375 C16.67554565 32.424062 17.39107503 34.25477839 18.10546875 36.0859375 C18.44603806 36.93924652 18.78660736 37.79255554 19.13749695 38.67172241 C20.80879355 43.01601538 22.24501634 46.77139906 21.5 51.5 C18.5 53.5 18.5 53.5 16.0625 53.625 C12.04937433 51.86313995 11.05999907 48.43058588 9.5 44.5 C9.17 43.51 8.84 42.52 8.5 41.5 C2.89 41.17 -2.72 40.84 -8.5 40.5 C-8.95375 42.0675 -9.4075 43.635 -9.875 45.25 C-10.81774247 48.50674671 -11.7326453 51.58944932 -13.5 54.5 C-15.9375 55.4375 -15.9375 55.4375 -18.5 55.5 C-20.3125 54.4375 -20.3125 54.4375 -21.5 52.5 C-22.15516974 46.7369639 -20.15533455 42.1348592 -18.10546875 36.8671875 C-17.75744705 35.95292999 -17.40942535 35.03867249 -17.05085754 34.09671021 C-16.3149717 32.17022509 -15.57419809 30.2456008 -14.82885742 28.32275391 C-13.69043041 25.38256828 -12.56968794 22.4360909 -11.45117188 19.48828125 C-10.7328105 17.61418449 -10.01344326 15.74047291 -9.29296875 13.8671875 C-8.95847214 12.98795624 -8.62397552 12.10872498 -8.27934265 11.20285034 C-7.95923721 10.38164703 -7.63913177 9.56044373 -7.30932617 8.71435547 C-7.03174973 7.99520966 -6.75417328 7.27606384 -6.46818542 6.53512573 C-3.71240796 0.74248159 -3.71240796 0.74248159 0 0 Z " fill="#040406" transform="translate(354.5,115.5)"/>
<path d="M0 0 C1.65322266 0.23396484 1.65322266 0.23396484 3.33984375 0.47265625 C5.33984375 3.47265625 5.33984375 3.47265625 5.25390625 6.35546875 C4.13606038 10.16760981 2.6207428 11.67001513 -0.28515625 14.34765625 C-1.18234375 15.20359375 -2.07953125 16.05953125 -3.00390625 16.94140625 C-3.88046875 17.77671875 -4.75703125 18.61203125 -5.66015625 19.47265625 C-7.05761632 20.90948139 -8.43579358 22.36556938 -9.78515625 23.84765625 C-10.34460938 24.45351562 -10.9040625 25.059375 -11.48046875 25.68359375 C-13.02714734 27.67205386 -13.02714734 27.67205386 -12.66015625 31.47265625 C-11.19662133 33.46087381 -11.19662133 33.46087381 -9.16015625 35.28515625 C-8.43441406 35.97609375 -7.70867187 36.66703125 -6.9609375 37.37890625 C-4.14933389 39.93751327 -1.31279467 42.46097111 1.578125 44.9296875 C6.99446486 49.67348849 6.99446486 49.67348849 7.33984375 53.47265625 C6.71484375 55.66015625 6.71484375 55.66015625 5.33984375 57.47265625 C3.08984375 58.47265625 3.08984375 58.47265625 0.33984375 58.47265625 C-5.09511846 55.81837238 -8.94793072 51.28557066 -13.1328125 47 C-15.34074961 44.79206289 -17.59376833 42.74178797 -19.97265625 40.72265625 C-23.30568911 37.83673756 -26.18621007 35.14367316 -28.66015625 31.47265625 C-28.70887667 26.82797623 -26.12734994 24.42686614 -23.10180664 21.25610352 C-22.48168701 20.62631592 -21.86156738 19.99652832 -21.22265625 19.34765625 C-19.94016724 18.0220309 -18.65892573 16.69519757 -17.37890625 15.3671875 C-16.74597656 14.71314941 -16.11304688 14.05911133 -15.4609375 13.38525391 C-13.82700324 11.64986331 -12.27775001 9.87883306 -10.75390625 8.046875 C-9.5009375 6.55607422 -9.5009375 6.55607422 -8.22265625 5.03515625 C-7.50207031 4.14957031 -6.78148437 3.26398438 -6.0390625 2.3515625 C-3.66015625 0.47265625 -3.66015625 0.47265625 0 0 Z " fill="#000000" transform="translate(247.66015625,216.52734375)"/>
<path d="M0 0 C4.40236673 0.62627949 6.56801576 2.86395728 9.57788086 5.90649414 C10.14886002 6.46698959 10.71983917 7.02748505 11.30812073 7.60496521 C12.50803615 8.79206073 13.70029124 9.9869431 14.88525391 11.18896484 C16.70144587 13.02219654 18.55182065 14.81499801 20.40795898 16.60766602 C21.5710284 17.76751139 22.73191376 18.92955189 23.89038086 20.09399414 C24.72296669 20.89287804 24.72296669 20.89287804 25.57237244 21.707901 C28.28467153 24.52172228 29.250681 26.04740375 29.42651367 29.99462891 C28.08053915 34.03113267 26.12235762 36.46493863 23.13256836 39.36352539 C22.61550827 39.88395416 22.09844818 40.40438293 21.5657196 40.94058228 C20.47425464 42.03174958 19.37534879 43.11551923 18.26953125 44.19213867 C16.58466873 45.83727422 14.93118765 47.50981381 13.27905273 49.18774414 C12.21113812 50.24810009 11.14153072 51.30675447 10.07006836 52.36352539 C9.57920242 52.86137543 9.08833649 53.35922546 8.58259583 53.87216187 C5.29993284 57.02409796 2.84904911 58.37405468 -1.73071289 58.46508789 C-2.72071289 57.80508789 -3.71071289 57.14508789 -4.73071289 56.46508789 C-5.30124506 52.36952512 -5.28877935 50.26471105 -2.89477539 46.83447266 C-2.05688477 46.03323975 -1.21899414 45.23200684 -0.35571289 44.40649414 C0.54663086 43.52670898 1.44897461 42.64692383 2.37866211 41.74047852 C3.33256836 40.84522461 4.28647461 39.9499707 5.26928711 39.02758789 C6.23441956 38.09759533 7.19798038 37.16596883 8.15991211 36.23266602 C10.51474019 33.96025692 12.88430853 31.70576258 15.26928711 29.46508789 C12.19738849 25.76463155 9.1154038 22.23631753 5.62084961 18.92993164 C5.00854492 18.34791992 4.39624023 17.7659082 3.76538086 17.16625977 C2.50358775 15.9769078 1.23247841 14.79737249 -0.04711914 13.62719727 C-4.60259879 9.25141137 -4.60259879 9.25141137 -5.26977539 5.15649414 C-4.53359344 1.48091905 -3.70130913 0.63039731 0 0 Z " fill="#000000" transform="translate(314.730712890625,240.534912109375)"/>
<path d="M0 0 C3.5489098 0.49736546 4.9197499 1.92147752 7.48828125 4.375 C8.27847656 5.1175 9.06867188 5.86 9.8828125 6.625 C10.77033203 7.49125 10.77033203 7.49125 11.67578125 8.375 C12.43890625 7.611875 13.20203125 6.84875 13.98828125 6.0625 C14.87515625 5.175625 15.76203125 4.28875 16.67578125 3.375 C17.17078125 2.776875 17.66578125 2.17875 18.17578125 1.5625 C19.67578125 0.375 19.67578125 0.375 22.23828125 0.0625 C24.67578125 0.375 24.67578125 0.375 26.67578125 2.375 C26.67578125 8.84548984 24.01425863 12.00998759 19.67578125 16.375 C20.07410156 16.83390625 20.47242187 17.2928125 20.8828125 17.765625 C21.97462433 19.03010781 23.06035685 20.29985987 24.140625 21.57421875 C25.25497565 22.88138325 26.39533841 24.16651288 27.55078125 25.4375 C29.1463813 28.18547787 29.01429211 30.26070005 28.67578125 33.375 C26.67578125 35.375 26.67578125 35.375 23.98828125 35.5 C19.67297113 34.03442298 18.00674879 31.64470237 15.2890625 28.08984375 C14.75667969 27.52394531 14.22429687 26.95804687 13.67578125 26.375 C12.68578125 26.375 11.69578125 26.375 10.67578125 26.375 C8.55918955 28.60672012 6.71030648 30.98995618 4.80859375 33.40625 C2.67578125 35.375 2.67578125 35.375 0.04296875 35.78125 C-2.32421875 35.375 -2.32421875 35.375 -4.32421875 33.375 C-4.87730359 29.97583275 -4.53084001 28.67847497 -2.57421875 25.8046875 C-1.83171875 24.96164062 -1.08921875 24.11859375 -0.32421875 23.25 C2.96705282 19.82419709 2.96705282 19.82419709 3.67578125 15.375 C1.70624995 13.27358045 -0.41854252 11.41648416 -2.57421875 9.5078125 C-4.32421875 7.375 -4.32421875 7.375 -4.69921875 4.7421875 C-4.18289176 1.48287341 -3.26392332 0.5266162 0 0 Z " fill="#050201" transform="translate(95.32421875,265.625)"/>
<path d="M0 0 C1.93359375 0.28515625 1.93359375 0.28515625 4.87109375 1.41015625 C5.87109375 3.91015625 5.87109375 3.91015625 5.87109375 7.41015625 C4.14560618 9.64044071 2.2090075 11.43340587 0.12890625 13.3359375 C-1.99218624 15.28455361 -3.87404842 17.29353855 -5.75390625 19.47265625 C-6.32109375 20.12492187 -6.88828125 20.7771875 -7.47265625 21.44921875 C-8.5785809 22.7585918 -9.6621522 24.08716949 -10.72265625 25.43359375 C-11.22796875 26.06523437 -11.73328125 26.696875 -12.25390625 27.34765625 C-12.90746094 28.19650391 -12.90746094 28.19650391 -13.57421875 29.0625 C-15.74173032 30.94137309 -17.27693911 31.28446165 -20.12890625 31.41015625 C-22.19140625 30.15234375 -22.19140625 30.15234375 -24.12890625 28.28515625 C-24.80824219 27.63546875 -25.48757812 26.98578125 -26.1875 26.31640625 C-26.82816406 25.68734375 -27.46882813 25.05828125 -28.12890625 24.41015625 C-28.95068359 23.7140625 -28.95068359 23.7140625 -29.7890625 23.00390625 C-31.19140625 21.78515625 -31.19140625 21.78515625 -33.12890625 19.41015625 C-33.04876298 15.96399569 -32.57329585 14.85454585 -30.12890625 12.41015625 C-24.56644433 12.53657584 -22.02998067 14.78773 -18.12890625 18.41015625 C-17.72800781 17.94867188 -17.32710937 17.4871875 -16.9140625 17.01171875 C-15.70236482 15.62142617 -14.48288787 14.23789416 -13.2578125 12.859375 C-11.76797457 11.14537797 -10.3203763 9.39416519 -8.90625 7.6171875 C-3.14023328 0.60499907 -3.14023328 0.60499907 0 0 Z " fill="#070900" transform="translate(120.12890625,159.58984375)"/>
<path d="M0 0 C0.87430664 -0.00630432 1.74861328 -0.01260864 2.64941406 -0.019104 C4.06818848 -0.01303131 4.06818848 -0.01303131 5.515625 -0.00683594 C6.48467773 -0.00874939 7.45373047 -0.01066284 8.45214844 -0.01263428 C10.50325785 -0.01399673 12.55437586 -0.01029612 14.60546875 -0.00195312 C17.75280039 0.00874547 20.8995612 -0.00184647 24.046875 -0.01464844 C26.0364596 -0.01332685 28.02604384 -0.01076448 30.015625 -0.00683594 C30.96147461 -0.0108844 31.90732422 -0.01493286 32.88183594 -0.019104 C33.75614258 -0.01279968 34.63044922 -0.00649536 35.53125 0 C36.68802246 0.00238678 36.68802246 0.00238678 37.86816406 0.00482178 C39.765625 0.25878906 39.765625 0.25878906 41.765625 2.25878906 C42.015625 5.25878906 42.015625 5.25878906 41.765625 8.25878906 C39.344389 10.68002506 38.75200791 10.51410218 35.43945312 10.53344727 C34.09796204 10.54774529 34.09796204 10.54774529 32.72937012 10.56233215 C31.27778503 10.56096504 31.27778503 10.56096504 29.796875 10.55957031 C28.31000183 10.565998 28.31000183 10.565998 26.79309082 10.57255554 C24.69491338 10.57830491 22.596716 10.57879466 20.49853516 10.57446289 C17.2786277 10.57130183 14.05963757 10.59475866 10.83984375 10.62011719 C8.80468866 10.62238991 6.7695311 10.6230938 4.734375 10.62207031 C3.76665161 10.63128006 2.79892822 10.64048981 1.80187988 10.64997864 C0.90755249 10.64374985 0.0132251 10.63752106 -0.90820312 10.63110352 C-1.69714966 10.63173294 -2.48609619 10.63236237 -3.2989502 10.63301086 C-3.93764038 10.50951767 -4.57633057 10.38602448 -5.234375 10.25878906 C-7.234375 7.25878906 -7.234375 7.25878906 -6.984375 4.69628906 C-5.69928389 0.51974296 -4.07651301 0.00841111 0 0 Z " fill="#000000" transform="translate(156.234375,68.7412109375)"/>
<path d="M0 0 C5.32594468 -0.71365016 10.73685895 -1.38791355 16 0 C20.42521852 3.3980348 23.04999254 7.30994908 26 12 C26.5775 12.78117188 27.155 13.56234375 27.75 14.3671875 C30.08131958 17.62343279 31 19.29800673 31 23.375 C30 26 30 26 27 28 C24.66796875 28.08984375 24.66796875 28.08984375 22 27 C19.82236027 24.71951646 18.09420733 22.15755732 16.3125 19.5625 C11.87848058 13.35029737 7.33153755 7.96476571 1.765625 2.72265625 C1.18296875 2.15417969 0.6003125 1.58570313 0 1 C0 0.67 0 0.34 0 0 Z " fill="#000000" transform="translate(343,186)"/>
<path d="M0 0 C5.68461365 4.90943906 5.68461365 4.90943906 6.2734375 8.8125 C6.58810568 15.58996851 4.38050884 20.21691524 1 26 C-4.12667414 23.65637754 -6.94482265 20.15478909 -9 15 C-9.80216738 9.99336914 -10.05773524 5.68454132 -7.3125 1.3125 C-4.4604324 -0.30624107 -3.22162962 -0.70718699 0 0 Z " fill="#EEC91B" transform="translate(419,423)"/>
<path d="M0 0 C1.09763672 -0.02449219 2.19527344 -0.04898437 3.32617188 -0.07421875 C4.91075195 -0.08001953 4.91075195 -0.08001953 6.52734375 -0.0859375 C7.492771 -0.09415527 8.45819824 -0.10237305 9.45288086 -0.11083984 C12.78987443 0.51041726 13.99704062 1.7352063 16.0625 4.375 C15.88496387 7.39311422 15.22514785 8.21235215 13.0625 10.375 C10.48046875 10.63378906 10.48046875 10.63378906 7.25 10.640625 C6.09242188 10.64320313 4.93484375 10.64578125 3.7421875 10.6484375 C2.52789062 10.64070313 1.31359375 10.63296875 0.0625 10.625 C-1.15179688 10.63273437 -2.36609375 10.64046875 -3.6171875 10.6484375 C-5.35355469 10.64457031 -5.35355469 10.64457031 -7.125 10.640625 C-8.72408203 10.63724121 -8.72408203 10.63724121 -10.35546875 10.63378906 C-12.9375 10.375 -12.9375 10.375 -14.9375 8.375 C-15.25 5.375 -15.25 5.375 -14.9375 2.375 C-10.27688611 -0.73207593 -5.48191488 0.00641535 0 0 Z " fill="#08080C" transform="translate(163.9375,433.625)"/>
<path d="M0 0 C6.44287383 -0.29077103 6.44287383 -0.29077103 8.9609375 1.0234375 C12.59697525 4.4987664 14.16042113 6.31668406 14.4375 11.3125 C14.38665152 15.2532569 14.127243 15.8479291 11.4375 19.0625 C7.55920186 21.24844986 5.38073241 21.51538028 1 21 C0 20 0 20 -0.11352539 18.05053711 C-0.10567017 16.8015564 -0.10567017 16.8015564 -0.09765625 15.52734375 C-0.09443359 14.62822266 -0.09121094 13.72910156 -0.08789062 12.80273438 C-0.07951172 11.85720703 -0.07113281 10.91167969 -0.0625 9.9375 C-0.05798828 8.98810547 -0.05347656 8.03871094 -0.04882812 7.06054688 C-0.0370011 4.70696935 -0.02052025 2.35351523 0 0 Z " fill="#A699F0" transform="translate(395,124)"/>
<path d="M0 0 C6.6484375 -0.21875 6.6484375 -0.21875 9.8125 1.75 C13.03691955 5.06654583 13.8699226 6.80762388 14.375 11.4375 C13.92138077 15.74688266 13.33848781 17.23149791 10 20 C7.0023056 20.75466432 4.09124491 21.08778383 1 21 C0 20 0 20 -0.11352539 18.05053711 C-0.10567017 16.8015564 -0.10567017 16.8015564 -0.09765625 15.52734375 C-0.09443359 14.62822266 -0.09121094 13.72910156 -0.08789062 12.80273438 C-0.07951172 11.85720703 -0.07113281 10.91167969 -0.0625 9.9375 C-0.05798828 8.98810547 -0.05347656 8.03871094 -0.04882812 7.06054688 C-0.0370011 4.70696935 -0.02052025 2.35351523 0 0 Z " fill="#AA9CF5" transform="translate(437,124)"/>
<path d="M0 0 C3.4375 0.8125 3.4375 0.8125 5.4375 3.8125 C5.89705739 7.41236622 5.84991898 9.16912639 3.875 12.25 C1.4375 13.8125 1.4375 13.8125 -2.125 13.875 C-5.5625 12.8125 -5.5625 12.8125 -7.625 10.625 C-8.85556864 6.93329408 -8.25063585 5.26550514 -6.5625 1.8125 C-3.5625 -0.1875 -3.5625 -0.1875 0 0 Z " fill="#000000" transform="translate(129.5625,67.1875)"/>
<path d="M0 0 C2.90408342 3.87211123 3.85079464 6.40317854 5 11 C2.03 11 -0.94 11 -4 11 C-2.68 7.37 -1.36 3.74 0 0 Z " fill="#A295EA" transform="translate(354,135)"/>
</svg>
