<svg xmlns="http://www.w3.org/2000/svg" xml:space="preserve" viewBox="102 102 796 796">
    <switch>
        <g>
            <circle fill="#382B73" cx="500" cy="500" r="398"/>
            <circle fill="#473080" cx="500" cy="500" r="344.3"/>
            <circle fill="#382B73" cx="500" cy="520" r="239.4"/>
            <g>
                <circle fill="#FFF" cx="500" cy="500" r="239.4"/>
                <circle fill="#E7AD27" cx="500" cy="500" r="195.6"/>
                <circle fill="#FEDE3A" cx="500" cy="500" r="180"/>
                <path fill="#FFF" d="M500 712c-32.4 0-62.3-22.9-84.3-64.5-20.9-39.6-32.4-91.9-32.4-147.5s11.5-107.9 32.4-147.5c22-41.6 51.9-64.5 84.3-64.5s62.3 22.9 84.3 64.5c20.9 39.6 32.4 91.9 32.4 147.5s-11.5 107.9-32.4 147.5c-22 41.6-51.9 64.5-84.3 64.5zm0-404c-24.6 0-48.3 19.1-66.6 53.8-19.4 36.7-30.1 85.8-30.1 138.1S414 601.3 433.4 638c18.3 34.7 42 53.8 66.6 53.8 24.6 0 48.3-19.1 66.6-53.8 19.4-36.7 30.1-85.8 30.1-138.1S586 398.5 566.6 361.8c-18.3-34.6-42-53.8-66.6-53.8z"/>
                <path fill="#FFF" d="M500 433.2c-63.1 0-120.1-24.1-149-62.8-3.3-4.4-2.4-10.7 2.1-14 4.4-3.3 10.7-2.4 14 2.1 24.7 33.3 76.9 54.8 132.9 54.8s108.2-21.5 132.9-54.8c3.3-4.4 9.6-5.4 14-2.1 4.4 3.3 5.4 9.6 2.1 14-28.9 38.8-85.9 62.8-149 62.8zM695.6 510H304.4c-5.5 0-10-4.5-10-10s4.5-10 10-10h391.1c5.5 0 10 4.5 10 10 .1 5.5-4.4 10-9.9 10z"/>
                <path fill="#FFF" d="M500 705.6c-5.5 0-10-4.5-10-10V304.4c0-5.5 4.5-10 10-10s10 4.5 10 10v391.1c0 5.6-4.5 10.1-10 10.1z"/>
                <path fill="#FFF" d="M359.1 645.6c-2.1 0-4.2-.6-6-2-4.4-3.3-5.4-9.6-2.1-14 28.8-38.8 85.9-62.8 149-62.8 63.1 0 120.1 24.1 149 62.8 3.3 4.4 2.4 10.7-2.1 14-4.4 3.3-10.7 2.4-14-2.1-24.7-33.3-76.9-54.8-132.9-54.8s-108.2 21.5-132.9 54.8c-2 2.7-5 4.1-8 4.1z"/>
                <path fill="#D1D3D4" d="M622.4 616.2c0-4.1-3.4-7.6-8-8.2l-23.9-3.3c-.9-4.7-2.2-9.3-3.8-13.7-.3-.7-.5-1.4-.8-2.1-2.4-6-5.3-11.7-8.9-17l14.5-19.1c1.9-2.5 2.5-5.5 1.8-8.1-.3-1.3-1-2.4-1.9-3.3l-7.5-7.5-2.1-2.1c-2.9-2.9-7.8-2.9-11.5-.1l-19 14.5c-9.8-6.6-20.9-11.3-32.9-13.7l-3.2-23.6c-.6-4.6-4.1-8-8.2-8H493.4c-4.1 0-7.6 3.4-8.2 8l-3.2 23.6c-2.2.4-4.4 1-6.5 1.6-.4.1-.7.2-1.1.3-8.8 2.6-17 6.4-24.4 11.3-.3.2-.6.4-.8.6l-19-14.5c-3.7-2.8-8.6-2.8-11.5.1l-9.6 9.6c-2.9 2.9-2.9 7.8-.1 11.5l14.5 19.1c-2.1 3.2-4.1 6.6-5.8 10.2-.8 1.6-1.5 3.1-2.2 4.7l-.9 2.1c-1.1 2.8-2.1 5.7-2.9 8.6-.7 2.4-1.3 4.8-1.7 7.2l-23.9 3.3c-4.6.6-8 4.1-8 8.2v13.7c0 4.1 3.4 7.6 8 8.2l24 3.3c2.4 11.8 7.1 22.8 13.6 32.5L409 693.5c-2.8 3.7-2.8 8.6.1 11.5l9.6 9.6c2.9 2.9 7.8 2.9 11.5.1l19.5-14.8c1.3.9 2.7 1.7 4.1 2.5.9.5 1.8 1.1 2.7 1.6l3 1.5c.7.3 1.4.7 2.1 1 1.2.6 2.4 1.1 3.6 1.6 5.4 2.2 11.1 4 16.9 5.2l3.3 24.3.3 1.5c4.9.3 9.8.5 14.7.5s9.8-.2 14.7-.5c.1-.5.3-1 .3-1.5l3.3-24.3c11.8-2.4 22.7-7 32.4-13.4l19.5 14.8c.4.3.7.5 1.1.7.5.3 1 .5 1.5.7.4.2.8.3 1.2.4.4.1.9.2 1.3.2h.9c.5 0 1-.1 1.5-.2 1.5-.3 2.8-1 3.9-2.1l7.5-7.5 2.1-2.1c2.9-2.9 2.9-7.8.1-11.5L577 673.9c.2-.3.3-.5.5-.8 2-3.1 3.9-6.3 5.5-9.7.3-.5.5-1.1.8-1.6.8-1.7 1.6-3.5 2.3-5.2.3-.9.7-1.8 1-2.7.4-1.1.7-2.1 1.1-3.2.1-.3.2-.7.3-1 .3-1.1.7-2.3 1-3.4.3-1.1.5-2.1.8-3.2.1-.6.3-1.1.4-1.7l24-3.3c3.8-.5 6.8-3 7.7-6.2.2-.7.3-1.3.3-2v-13.7z"/>
                <path fill="#FEDE3A" d="M622.4 629.6v.3c0 .7-.1 1.4-.3 2-.1.2-.1.4-.2.5.6-.5 1.2-1.1 1.7-1.6l-1.2-1.2zM590.3 641.4c-.1.6-.2 1.2-.4 1.7-.2 1.1-.5 2.1-.8 3.2-.3 1.1-.6 2.3-1 3.4-.1.3-.2.7-.3 1-.3 1.1-.7 2.1-1.1 3.2-.3.9-.6 1.8-1 2.7-.3.7-.6 1.4-.9 2.2 11-5.9 21.4-13 30.9-21l-1.5.3-23.9 3.3zM377.6 629.6l-1.2 1.2c.6.5 1.1 1.1 1.7 1.6-.3-.8-.5-1.7-.5-2.5v-.3zM385.7 638.1l-1.5-.3c9.5 8 19.9 15 30.9 21-2.3-5.5-4.2-11.3-5.4-17.4l-24-3.3z"/>
                <path fill="#FFF" d="M647.8 628.1c-4.4 5.1-9.1 9.9-14 14.5 3.4 3.5 9 4 13.1 1 4.4-3.3 5.4-9.6 2.1-14l-1.2-1.5zM352.2 628.1l-1.2 1.5c-3.3 4.4-2.4 10.7 2.1 14 1.8 1.3 3.9 2 6 2 2.6 0 5.2-1 7.1-3-4.9-4.6-9.6-9.4-14-14.5zM582.6 581.7c1.2 2.4 2.3 4.8 3.2 7.2.3.7.5 1.4.8 2.1 1.6 4.4 2.9 9 3.8 13.7l23.9 3.3c4.6.6 8 4.1 8 8.2v13.4l1.2 1.2c4.9-4.6 9.5-9.5 13.8-14.6-14.4-14.3-33.2-26-54.7-34.5zM377.6 629.6v-13.4c0-4.1 3.4-7.6 8-8.2l23.9-3.3c.5-2.4 1.1-4.9 1.7-7.2.8-2.9 1.8-5.8 2.9-8.6l.9-2.1c.7-1.6 1.4-3.2 2.2-4.7.1-.1.1-.3.2-.4-21.5 8.4-40.3 20.2-54.8 34.6 4.3 5.1 8.9 10 13.8 14.6.4-.5.8-.9 1.2-1.3z"/>
                <path fill="#CCC" d="m419.8 678.4-11.3 14.9c-2.8 3.7-2.8 8.6.1 11.5l9.6 9.6c2.9 2.9 7.8 2.9 11.5.1l19.5-14.8c1.3.9 2.7 1.7 4.1 2.5.9.5 1.8 1.1 2.7 1.6l3 1.5c.7.3 1.4.7 2.1 1 1.2.6 2.4 1.1 3.6 1.6 5.4 2.2 11.1 4 16.9 5.2l3.3 24.3.3 1.5c4.9.3 9.8.5 14.7.5s9.8-.2 14.7-.5c.1-.5.3-1 .3-1.5l3.3-24.3c11.8-2.4 22.7-7 32.4-13.4l19.5 14.8c.4.3.7.5 1.1.7.5.3 1 .5 1.5.7.4.2.8.3 1.2.4.4.1.9.2 1.3.2h.9c.5 0 1-.1 1.5-.2 1.5-.3 2.8-1 3.9-2.1l7.5-7.5 2.1-2.1c2.9-2.9 2.9-7.8.1-11.5l-11.3-14.9c-24.5 11-51.6 17.2-80.2 17.2-28.3.2-55.4-6-79.9-17z"/>
                <path fill="#E7AD27" d="M577.3 673.1c2-3.1 3.9-6.3 5.5-9.7.3-.5.5-1.1.8-1.6.5-1 .9-2 1.4-3.1-25.4 13.6-54.3 21.3-85 21.3-30.7 0-59.6-7.7-84.9-21.3 2.3 5.3 5 10.4 8.2 15.1l-3.4 4.5c24.5 11 51.6 17.2 80.2 17.2s55.7-6.1 80.2-17.2l-3.4-4.5c0-.2.2-.4.4-.7zM384.2 637.8c-2.1-1.7-4.1-3.5-6.1-5.4.9 2.5 3.2 4.5 6.1 5.4zM621.9 632.4c-2 1.8-4 3.6-6 5.3 2.8-.8 5-2.8 6-5.3zM582.6 581.7c-1.7-3.4-3.6-6.6-5.6-9.8l14.5-19.1c1.9-2.5 2.5-5.5 1.8-8.1-.3-1.3-1-2.4-1.9-3.3l-7.5-7.5-2.1-2.1c-2.9-2.9-7.8-2.9-11.5-.1l-19 14.5c-9.8-6.6-20.9-11.3-32.9-13.7l-3.2-23.6c-.6-4.6-4.1-8-8.2-8H493.4c-4.1 0-7.6 3.4-8.2 8l-3.2 23.6c-2.2.4-4.4 1-6.5 1.6-.4.1-.7.2-1.1.3-8.8 2.6-17 6.4-24.4 11.3-.3.2-.6.4-.8.6l-19-14.5c-3.7-2.8-8.6-2.8-11.5.1l-9.6 9.6c-2.9 2.9-2.9 7.8-.1 11.5l14.5 19.1c-2.1 3.1-3.9 6.4-5.6 9.8 24.7-9.7 53-15 82.6-15 29.1-.1 57.4 5.2 82.1 14.8z"/>
                <path fill="#E7AD27" d="M622.4 629.9v-.3c-27.3-26.4-73.4-42.9-122.4-42.9s-95.1 16.5-122.4 42.9v.3c0 .9.2 1.7.5 2.5 2 1.8 4 3.6 6.1 5.4l1.5.3 24 3.3c1.2 6 3.1 11.8 5.4 17.4 25.3 13.6 54.2 21.3 84.9 21.3 30.7 0 59.6-7.7 84.9-21.3.3-.7.6-1.4.9-2.2.3-.9.7-1.8 1-2.7.4-1.1.7-2.1 1.1-3.2.1-.3.2-.7.3-1 .3-1.1.7-2.3 1-3.4.3-1.1.5-2.1.8-3.2.1-.6.3-1.1.4-1.7l24-3.3 1.5-.3c2.1-1.7 4.1-3.5 6-5.3.1-.2.2-.4.2-.5.2-.7.3-1.4.3-2.1z"/>
                <path fill="#CCC" d="m415 586.9-.9 2.1c-1.1 2.8-2.1 5.7-2.9 8.6-.7 2.4-1.3 4.8-1.7 7.2l-23.9 3.3c-4.6.6-8 4.1-8 8.2v13.4c27.3-26.4 73.4-42.9 122.4-42.9s95.1 16.5 122.4 42.9v-13.4c0-4.1-3.4-7.6-8-8.2l-23.9-3.3c-.9-4.7-2.2-9.3-3.8-13.7-.3-.7-.5-1.4-.8-2.1-1-2.5-2-4.9-3.2-7.2-24.7-9.7-53-15-82.6-15-29.6 0-57.9 5.3-82.6 15-.1.1-.1.3-.2.4-.9 1.5-1.6 3.1-2.3 4.7z"/>
                <g>
                    <path fill="#177BC0" d="M511.3 532.6h-22.7c-5.1 0-9-5.2-8.2-11l4.5-33c.6-4.6 4.1-8 8.2-8h13.6c4.1 0 7.6 3.4 8.2 8l4.5 33c.9 5.8-3 11-8.1 11zM488.7 673.5h22.7c5.1 0 9 5.2 8.2 11l-4.5 33c-.6 4.6-4.1 8-8.2 8h-13.6c-4.1 0-7.6-3.4-8.2-8l-4.5-33c-.9-5.8 3-11 8.1-11z"/>
                    <path fill="#1CAEE4" d="M506.8 532.6h-13.6c-3.1 0-5.4-5.2-4.9-11l2.7-33c.4-4.6 2.5-8 4.9-8h8.2c2.5 0 4.6 3.4 4.9 8l2.7 33c.5 5.8-1.8 11-4.9 11zM493.2 673.5h13.6c3.1 0 5.4 5.2 4.9 11l-2.7 33c-.4 4.6-2.5 8-4.9 8h-8.2c-2.5 0-4.6-3.4-4.9-8l-2.7-33c-.5-5.8 1.8-11 4.9-11zM570.4 614.4v-22.7c0-5.1 5.2-9 11-8.2l33 4.5c4.6.6 8 4.1 8 8.2v13.6c0 4.1-3.4 7.6-8 8.2l-33 4.5c-5.8.9-11-3-11-8.1z"/>
                    <path fill="#177BC0" d="m614.3 607.4-33 4.5c-5.8.8-11-3.1-11-8.2v10.7c0 5.1 5.2 9 11 8.2l33-4.5c4.6-.6 8-4.1 8-8.2v-10.7c.1 4.1-3.3 7.6-8 8.2z"/>
                    <path fill="#1CAEE4" d="M429.6 591.7v22.7c0 5.1-5.2 9-11 8.2l-33-4.5c-4.6-.6-8-4.1-8-8.2v-13.6c0-4.1 3.4-7.6 8-8.2l33-4.5c5.8-.9 11 3 11 8.1z"/>
                    <path fill="#177BC0" d="m385.7 607.4 33 4.5c5.8.8 11-3.1 11-8.2v10.7c0 5.1-5.2 9-11 8.2l-33-4.5c-4.6-.6-8-4.1-8-8.2v-10.7c-.1 4.1 3.3 7.6 8 8.2z"/>
                    <g>
                        <path fill="#1CAEE4" d="m557.8 561.3-16-16c-3.6-3.6-2.7-10 1.9-13.6l26.5-20.1c3.7-2.8 8.6-2.8 11.5.1l9.6 9.6c2.9 2.9 2.9 7.8.1 11.5l-20.1 26.5c-3.5 4.7-9.9 5.6-13.5 2z"/>
                        <path fill="#177BC0" d="m583.9 525.3-20.1 26.5c-3.5 4.6-10 5.6-13.6 1.9l7.5 7.5c3.6 3.6 10 2.7 13.6-1.9l20.1-26.5c2.8-3.7 2.8-8.6-.1-11.5l-7.5-7.5c2.9 2.9 3 7.8.1 11.5z"/>
                        <path fill="#1CAEE4" d="m442.2 644.8 16 16c3.6 3.6 2.7 10-1.9 13.6l-26.5 20.1c-3.7 2.8-8.6 2.8-11.5-.1l-9.6-9.6c-2.9-2.9-2.9-7.8-.1-11.5l20.1-26.5c3.5-4.7 9.9-5.6 13.5-2z"/>
                        <path fill="#177BC0" d="m422.2 687 26.5-20.1c4.6-3.5 5.6-10 1.9-13.6l7.5 7.5c3.6 3.6 2.7 10-1.9 13.6l-26.5 20.1c-3.7 2.8-8.6 2.8-11.5-.1l-7.5-7.5c2.9 2.9 7.8 2.9 11.5.1z"/>
                    </g>
                    <g>
                        <path fill="#1CAEE4" d="m541.8 660.8 16-16c3.6-3.6 10-2.7 13.6 1.9l20.1 26.5c2.8 3.7 2.8 8.6-.1 11.5l-9.6 9.6c-2.9 2.9-7.8 2.9-11.5.1l-26.5-20.1c-4.7-3.4-5.6-9.8-2-13.5z"/>
                        <path fill="#177BC0" d="m577.8 687-26.5-20.1c-4.6-3.5-5.6-10-1.9-13.6l-7.5 7.5c-3.6 3.6-2.7 10 1.9 13.6l26.5 20.1c3.7 2.8 8.6 2.8 11.5-.1l7.5-7.5c-2.9 2.9-7.8 2.9-11.5.1z"/>
                        <path fill="#1CAEE4" d="m458.2 545.3-16 16c-3.6 3.6-10 2.7-13.6-1.9l-20.1-26.5c-2.8-3.7-2.8-8.6.1-11.5l9.6-9.6c2.9-2.9 7.8-2.9 11.5-.1l26.5 20.1c4.7 3.4 5.6 9.8 2 13.5z"/>
                        <path fill="#177BC0" d="m416.1 525.3 20.1 26.5c3.5 4.6 10 5.6 13.6 1.9l-7.5 7.5c-3.6 3.6-10 2.7-13.6-1.9l-20.1-26.5c-2.8-3.7-2.8-8.6.1-11.5l7.5-7.5c-2.9 2.9-3 7.8-.1 11.5z"/>
                    </g>
                    <g>
                        <path fill="#1CAEE4" d="M500 510.5c-50.9 0-92.2 41.3-92.2 92.2S449.1 695 500 695c50.9 0 92.2-41.3 92.2-92.2s-41.3-92.3-92.2-92.3zm0 145.8c-29.6 0-53.5-24-53.5-53.5 0-29.6 24-53.5 53.5-53.5 29.6 0 53.5 24 53.5 53.5s-23.9 53.5-53.5 53.5z"/>
                    </g>
                    <g>
                        <path fill="#177BC0" d="M500 510.5c-50.9 0-92.2 41.3-92.2 92.2 0 50.9 41.3 92.2 92.2 92.2 50.9 0 92.2-41.3 92.2-92.2 0-50.9-41.3-92.2-92.2-92.2zm0 167.5c-41.6 0-75.2-33.7-75.2-75.2 0-41.6 33.7-75.2 75.2-75.2 41.6 0 75.2 33.7 75.2 75.2S541.6 678 500 678z"/>
                    </g>
                    <g>
                        <circle fill="#A72973" cx="500" cy="602.8" r="53.5"/>
                    </g>
                    <g>
                        <circle fill="#EF5A9D" cx="500" cy="602.8" r="42.6"/>
                    </g>
                </g>
            </g>
        </g>
    </switch>
</svg>