<svg xmlns="http://www.w3.org/2000/svg" viewBox="0 0 512 512" style="enable-background:new 0 0 512 512"
    xml:space="preserve">
    <circle style="fill:#00c3ff" cx="256" cy="256" r="247.409" />
    <path style="fill:#00aaf0"
        d="M377.372 399.1c15.142-39.563 23.679-85.879 24.579-134.509h25.288V247.41h-25.288c-1.191-64.31-15.725-124.583-41.25-170.526-16.447-29.604-36.331-51.26-58.194-63.908-15.065-2.868-30.608-4.385-46.507-4.385s-31.442 1.518-46.507 4.383c-21.863 12.65-41.748 34.305-58.194 63.908-17.596 31.672-29.966 70.155-36.345 112.075a249.22 249.22 0 0 1-2.703-36.618c0-41.633 10.3-80.856 28.465-115.285C62.151 78.509 8.591 160.994 8.591 256c0 136.641 110.768 247.409 247.409 247.409 95.006 0 177.491-53.561 218.945-132.125-29.503 15.567-62.531 25.333-97.573 27.816zm-18.731.637c-33.316-.135-65.074-6.855-94.05-18.926v-116.22h120.177c-.948 49.397-10.045 96.133-26.127 135.146zM139.127 264.591H247.41v108.283c-46.531-23.731-84.553-61.753-108.283-108.283zm27.191-179.364c24.378-43.88 56.227-68.046 89.682-68.046s65.305 24.166 89.682 68.046c24.141 43.454 37.907 100.767 39.085 162.183H264.591V84.761H247.41V247.41H131.189a246.043 246.043 0 0 1-3.671-9.331c2.327-57.874 15.887-111.607 38.8-152.852z" />
    <path
        d="M437.02 74.98C388.668 26.629 324.38 0 256 0S123.332 26.629 74.98 74.98C26.629 123.332 0 187.62 0 256s26.629 132.668 74.98 181.02C123.332 485.371 187.62 512 256 512s132.668-26.629 181.02-74.98C485.371 388.668 512 324.38 512 256s-26.629-132.668-74.98-181.02zm-16.08 189.611h73.709c-1.435 40.368-12.928 78.216-32.058 111.105H385.26c6.83-22.79 11.722-47.404 14.383-72.991a8.593 8.593 0 0 0-7.656-9.434c-4.711-.489-8.942 2.937-9.434 7.656-2.748 26.416-7.949 51.68-15.256 74.769H264.591v-9.736a8.591 8.591 0 0 0-17.182 0v9.736H144.702c-7.307-23.089-12.508-48.354-15.256-74.769a8.592 8.592 0 0 0-17.09 1.778c2.662 25.587 7.554 50.201 14.383 72.991H49.41c-19.13-32.889-30.623-70.737-32.058-111.105H91.06a8.591 8.591 0 0 0 0-17.182H17.352c1.435-40.368 12.928-78.216 32.058-111.105h77.331c-6.83 22.79-11.722 47.404-14.383 72.992a8.593 8.593 0 0 0 7.656 9.434c4.718.495 8.943-2.936 9.434-7.656 2.748-26.416 7.949-51.68 15.256-74.769H247.41v9.736a8.591 8.591 0 0 0 17.182 0v-9.736h102.707c7.307 23.089 12.508 48.354 15.256 74.769a8.592 8.592 0 0 0 9.433 7.656 8.592 8.592 0 0 0 7.656-9.434c-2.662-25.587-7.554-50.201-14.383-72.992h77.331c19.13 32.889 30.623 70.737 32.058 111.105h-73.71a8.591 8.591 0 0 0 0 17.182zm-246.056 176.31c-9.286-14.02-17.409-30.218-24.201-48.024h96.727v101.386c-26.281-3.355-51.754-22.001-72.526-53.362zm89.707 53.362V392.877h96.727c-6.792 17.805-14.916 34.004-24.201 48.024-20.773 31.361-46.246 50.007-72.526 53.362zm72.525-423.164c9.286 14.02 17.409 30.218 24.201 48.024H264.59V17.737c26.281 3.355 51.754 22.001 72.526 53.362zm-89.707-53.362v101.386h-96.727c6.792-17.805 14.916-34.004 24.201-48.024 20.773-31.361 46.246-50.007 72.526-53.362zm204.178 101.386h-71.964c-7.675-21.422-17.158-40.865-28.183-57.51-9.398-14.189-19.766-26.088-30.813-35.54 53.653 15.1 99.704 48.521 130.96 93.05zm-260.215-93.05c-11.046 9.452-21.415 21.351-30.813 35.54-11.026 16.645-20.507 36.089-28.183 57.51H60.413c31.256-44.529 77.307-77.95 130.959-93.05zM60.413 392.877h71.964c7.675 21.422 17.158 40.865 28.183 57.51 9.398 14.189 19.766 26.088 30.813 35.54-53.653-15.1-99.704-48.521-130.96-93.05zm260.215 93.05c11.046-9.452 21.415-21.351 30.813-35.54 11.026-16.645 20.508-36.089 28.183-57.51h71.964c-31.257 44.529-77.308 77.95-130.96 93.05z" />
    <path
        d="M286.207 165.381a8.593 8.593 0 0 0-10.867 5.434l-54.98 164.94a8.592 8.592 0 0 0 16.3 5.434l54.98-164.94a8.592 8.592 0 0 0-5.433-10.868zM197.931 194.946a8.59 8.59 0 0 0-12.148 0l-54.98 54.98a8.59 8.59 0 0 0 0 12.148l54.98 54.98a8.564 8.564 0 0 0 6.074 2.516 8.56 8.56 0 0 0 6.074-2.516 8.59 8.59 0 0 0 0-12.148L149.025 256l48.906-48.906a8.59 8.59 0 0 0 0-12.148zM326.217 194.946a8.59 8.59 0 0 0-12.148 0 8.59 8.59 0 0 0 0 12.148L362.975 256l-48.906 48.906a8.59 8.59 0 0 0 0 12.148c1.677 1.677 3.876 2.516 6.074 2.516s4.397-.838 6.074-2.516l54.98-54.98a8.59 8.59 0 0 0 0-12.148l-54.98-54.98z" />
</svg>