<svg id="Gretel_Logo_Purple" data-name="Gretel Logo Purple" xmlns="http://www.w3.org/2000/svg" width="248.667" height="50.827" viewBox="0 0 248.667 50.827">
  <g id="Gretel" transform="translate(0 0)">
    <ellipse id="Oval" cx="2.645" cy="2.653" rx="2.645" ry="2.653" transform="translate(107.346 45.097)" fill="#726ad8"/>
    <ellipse id="Oval-2" data-name="Oval" cx="2.645" cy="2.653" rx="2.645" ry="2.653" transform="translate(107.346 39.039)" fill="#726ad8"/>
    <ellipse id="Oval-3" data-name="Oval" cx="2.645" cy="2.653" rx="2.645" ry="2.653" transform="translate(107.346 32.485)" fill="#726ad8"/>
    <ellipse id="Oval-4" data-name="Oval" cx="2.645" cy="2.653" rx="2.645" ry="2.653" transform="translate(107.346 26.01)" fill="#726ad8"/>
    <ellipse id="Oval-5" data-name="Oval" cx="2.645" cy="2.653" rx="2.645" ry="2.653" transform="translate(107.346 19.284)" fill="#726ad8"/>
    <ellipse id="Oval-6" data-name="Oval" cx="2.645" cy="2.653" rx="2.645" ry="2.653" transform="translate(107.346 12.766)" fill="#726ad8"/>
    <ellipse id="Oval-7" data-name="Oval" cx="2.645" cy="2.653" rx="2.645" ry="2.653" transform="translate(107.346 6.142)" fill="#726ad8"/>
    <ellipse id="Oval-8" data-name="Oval" cx="2.645" cy="2.653" rx="2.645" ry="2.653" transform="translate(120.08 2.731)" fill="#726ad8"/>
    <ellipse id="Oval-9" data-name="Oval" cx="2.645" cy="2.653" rx="2.645" ry="2.653" transform="translate(126.577 2.731)" fill="#726ad8"/>
    <ellipse id="Oval-10" data-name="Oval" cx="2.645" cy="2.653" rx="2.645" ry="2.653" transform="translate(139.875 2.731)" fill="#726ad8"/>
    <ellipse id="Oval-11" data-name="Oval" cx="2.645" cy="2.653" rx="2.645" ry="2.653" transform="translate(146.367 2.731)" fill="#726ad8"/>
    <ellipse id="Oval-12" data-name="Oval" cx="2.645" cy="2.653" rx="2.645" ry="2.653" transform="translate(165.472 2.731)" fill="#726ad8"/>
    <ellipse id="Oval-13" data-name="Oval" cx="2.645" cy="2.653" rx="2.645" ry="2.653" transform="translate(171.97 2.731)" fill="#726ad8"/>
    <ellipse id="Oval-14" data-name="Oval" cx="2.645" cy="2.653" rx="2.645" ry="2.653" transform="translate(120.08 22.438)" fill="#726ad8"/>
    <ellipse id="Oval-15" data-name="Oval" cx="2.645" cy="2.653" rx="2.645" ry="2.653" transform="translate(126.577 22.438)" fill="#726ad8"/>
    <ellipse id="Oval-16" data-name="Oval" cx="2.645" cy="2.653" rx="2.645" ry="2.653" transform="translate(120.08 42.318)" fill="#726ad8"/>
    <ellipse id="Oval-17" data-name="Oval" cx="2.645" cy="2.653" rx="2.645" ry="2.653" transform="translate(126.577 42.318)" fill="#726ad8"/>
    <ellipse id="Oval-18" data-name="Oval" cx="2.645" cy="2.653" rx="2.645" ry="2.653" transform="translate(197.632 2.731)" fill="#726ad8"/>
    <ellipse id="Oval-19" data-name="Oval" cx="2.645" cy="2.653" rx="2.645" ry="2.653" transform="translate(204.123 2.731)" fill="#726ad8"/>
    <ellipse id="Oval-20" data-name="Oval" cx="2.645" cy="2.653" rx="2.645" ry="2.653" transform="translate(197.632 22.438)" fill="#726ad8"/>
    <ellipse id="Oval-21" data-name="Oval" cx="2.645" cy="2.653" rx="2.645" ry="2.653" transform="translate(204.123 22.438)" fill="#726ad8"/>
    <ellipse id="Oval-22" data-name="Oval" cx="2.645" cy="2.653" rx="2.645" ry="2.653" transform="translate(197.632 42.318)" fill="#726ad8"/>
    <ellipse id="Oval-23" data-name="Oval" cx="2.645" cy="2.653" rx="2.645" ry="2.653" transform="translate(204.123 42.318)" fill="#726ad8"/>
    <ellipse id="Oval-24" data-name="Oval" cx="2.645" cy="2.653" rx="2.645" ry="2.653" transform="translate(113.487 41.943)" fill="#726ad8"/>
    <ellipse id="Oval-25" data-name="Oval" cx="2.645" cy="2.653" rx="2.645" ry="2.653" transform="translate(113.487 35.884)" fill="#726ad8"/>
    <ellipse id="Oval-26" data-name="Oval" cx="2.645" cy="2.653" rx="2.645" ry="2.653" transform="translate(113.487 29.331)" fill="#726ad8"/>
    <ellipse id="Oval-27" data-name="Oval" cx="2.645" cy="2.653" rx="2.645" ry="2.653" transform="translate(113.487 22.856)" fill="#726ad8"/>
    <ellipse id="Oval-28" data-name="Oval" cx="2.645" cy="2.653" rx="2.645" ry="2.653" transform="translate(113.487 16.13)" fill="#726ad8"/>
    <ellipse id="Oval-29" data-name="Oval" cx="2.645" cy="2.653" rx="2.645" ry="2.653" transform="translate(113.487 9.612)" fill="#726ad8"/>
    <ellipse id="Oval-30" data-name="Oval" cx="2.645" cy="2.653" rx="2.645" ry="2.653" transform="translate(113.487 2.981)" fill="#726ad8"/>
    <ellipse id="Oval-31" data-name="Oval" cx="2.645" cy="2.653" rx="2.645" ry="2.653" transform="translate(63.987 44.972)" fill="#726ad8"/>
    <ellipse id="Oval-32" data-name="Oval" cx="2.645" cy="2.653" rx="2.645" ry="2.653" transform="translate(63.987 38.913)" fill="#726ad8"/>
    <ellipse id="Oval-33" data-name="Oval" cx="2.645" cy="2.653" rx="2.645" ry="2.653" transform="translate(63.987 32.36)" fill="#726ad8"/>
    <ellipse id="Oval-34" data-name="Oval" cx="2.645" cy="2.653" rx="2.645" ry="2.653" transform="translate(63.987 25.885)" fill="#726ad8"/>
    <ellipse id="Oval-35" data-name="Oval" cx="2.645" cy="2.653" rx="2.645" ry="2.653" transform="translate(63.987 19.159)" fill="#726ad8"/>
    <ellipse id="Oval-36" data-name="Oval" cx="2.645" cy="2.653" rx="2.645" ry="2.653" transform="translate(63.987 12.641)" fill="#726ad8"/>
    <ellipse id="Oval-37" data-name="Oval" cx="2.645" cy="2.653" rx="2.645" ry="2.653" transform="translate(63.987 6.016)" fill="#726ad8"/>
    <ellipse id="Oval-38" data-name="Oval" cx="2.645" cy="2.653" rx="2.645" ry="2.653" transform="translate(34.996 21.132)" fill="#726ad8"/>
    <ellipse id="Oval-39" data-name="Oval" cx="2.645" cy="2.653" rx="2.645" ry="2.653" transform="translate(33.813 13.858)" fill="#726ad8"/>
    <ellipse id="Oval-40" data-name="Oval" cx="2.645" cy="2.653" rx="2.645" ry="2.653" transform="translate(37.451 7.477)" fill="#726ad8"/>
    <ellipse id="Oval-41" data-name="Oval" cx="2.645" cy="2.653" rx="2.645" ry="2.653" transform="translate(28.623 8.652)" fill="#726ad8"/>
    <ellipse id="Oval-42" data-name="Oval" cx="2.645" cy="2.653" rx="2.645" ry="2.653" transform="translate(31.886 2.647)" fill="#726ad8"/>
    <ellipse id="Oval-43" data-name="Oval" cx="2.645" cy="2.653" rx="2.645" ry="2.653" transform="translate(14.023 9.004)" fill="#726ad8"/>
    <ellipse id="Oval-44" data-name="Oval" cx="2.645" cy="2.653" rx="2.645" ry="2.653" transform="translate(21.323 6.833)" fill="#726ad8"/>
    <ellipse id="Oval-45" data-name="Oval" cx="2.645" cy="2.653" rx="2.645" ry="2.653" transform="translate(24.949)" fill="#726ad8"/>
    <ellipse id="Oval-46" data-name="Oval" cx="2.645" cy="2.653" rx="2.645" ry="2.653" transform="translate(9.101 13.983)" fill="#726ad8"/>
    <ellipse id="Oval-47" data-name="Oval" cx="2.645" cy="2.653" rx="2.645" ry="2.653" transform="translate(4.839 7.477)" fill="#726ad8"/>
    <ellipse id="Oval-48" data-name="Oval" cx="2.645" cy="2.653" rx="2.645" ry="2.653" transform="translate(1.296 13.858)" fill="#726ad8"/>
    <ellipse id="Oval-49" data-name="Oval" cx="2.645" cy="2.653" rx="2.645" ry="2.653" transform="translate(7.365 21.132)" fill="#726ad8"/>
    <ellipse id="Oval-50" data-name="Oval" cx="2.645" cy="2.653" rx="2.645" ry="2.653" transform="translate(0 21.132)" fill="#726ad8"/>
    <ellipse id="Oval-51" data-name="Oval" cx="2.645" cy="2.653" rx="2.645" ry="2.653" transform="translate(0.779 28.657)" fill="#726ad8"/>
    <ellipse id="Oval-52" data-name="Oval" cx="2.645" cy="2.653" rx="2.645" ry="2.653" transform="translate(4.066 35.401)" fill="#726ad8"/>
    <ellipse id="Oval-53" data-name="Oval" cx="2.645" cy="2.653" rx="2.645" ry="2.653" transform="translate(9.351 41.126)" fill="#726ad8"/>
    <ellipse id="Oval-54" data-name="Oval" cx="2.645" cy="2.653" rx="2.645" ry="2.653" transform="translate(16.556 44.56)" fill="#726ad8"/>
    <ellipse id="Oval-55" data-name="Oval" cx="2.645" cy="2.653" rx="2.645" ry="2.653" transform="translate(24.598 45.52)" fill="#726ad8"/>
    <ellipse id="Oval-56" data-name="Oval" cx="2.645" cy="2.653" rx="2.645" ry="2.653" transform="translate(31.982 43.773)" fill="#726ad8"/>
    <ellipse id="Oval-57" data-name="Oval" cx="2.645" cy="2.653" rx="2.645" ry="2.653" transform="translate(38.527 39.802)" fill="#726ad8"/>
    <ellipse id="Oval-58" data-name="Oval" cx="2.645" cy="2.653" rx="2.645" ry="2.653" transform="translate(43.27 34.251)" fill="#726ad8"/>
    <ellipse id="Oval-59" data-name="Oval" cx="2.645" cy="2.653" rx="2.645" ry="2.653" transform="translate(46.088 27.817)" fill="#726ad8"/>
    <ellipse id="Oval-60" data-name="Oval" cx="2.645" cy="2.653" rx="2.645" ry="2.653" transform="translate(17.459)" fill="#726ad8"/>
    <ellipse id="Oval-61" data-name="Oval" cx="2.645" cy="2.653" rx="2.645" ry="2.653" transform="translate(10.373 2.647)" fill="#726ad8"/>
    <ellipse id="Oval-62" data-name="Oval" cx="2.645" cy="2.653" rx="2.645" ry="2.653" transform="translate(41.713 21.132)" fill="#726ad8"/>
    <ellipse id="Oval-63" data-name="Oval" cx="2.645" cy="2.653" rx="2.645" ry="2.653" transform="translate(48.43 21.132)" fill="#726ad8"/>
    <ellipse id="Oval-64" data-name="Oval" cx="2.645" cy="2.653" rx="2.645" ry="2.653" transform="translate(70.134 41.817)" fill="#726ad8"/>
    <ellipse id="Oval-65" data-name="Oval" cx="2.645" cy="2.653" rx="2.645" ry="2.653" transform="translate(70.134 35.759)" fill="#726ad8"/>
    <ellipse id="Oval-66" data-name="Oval" cx="2.645" cy="2.653" rx="2.645" ry="2.653" transform="translate(70.134 29.206)" fill="#726ad8"/>
    <ellipse id="Oval-67" data-name="Oval" cx="2.645" cy="2.653" rx="2.645" ry="2.653" transform="translate(70.134 22.73)" fill="#726ad8"/>
    <ellipse id="Oval-68" data-name="Oval" cx="2.645" cy="2.653" rx="2.645" ry="2.653" transform="translate(70.134 16.004)" fill="#726ad8"/>
    <ellipse id="Oval-69" data-name="Oval" cx="2.645" cy="2.653" rx="2.645" ry="2.653" transform="translate(70.134 9.487)" fill="#726ad8"/>
    <ellipse id="Oval-70" data-name="Oval" cx="2.645" cy="2.653" rx="2.645" ry="2.653" transform="translate(70.134 2.856)" fill="#726ad8"/>
    <ellipse id="Oval-71" data-name="Oval" cx="2.645" cy="2.653" rx="2.645" ry="2.653" transform="translate(76.043 0.501)" fill="#726ad8"/>
    <ellipse id="Oval-72" data-name="Oval" cx="2.645" cy="2.653" rx="2.645" ry="2.653" transform="translate(82.73 1.36)" fill="#726ad8"/>
    <ellipse id="Oval-73" data-name="Oval" cx="2.645" cy="2.653" rx="2.645" ry="2.653" transform="translate(88.015 5.51)" fill="#726ad8"/>
    <ellipse id="Oval-74" data-name="Oval" cx="2.645" cy="2.653" rx="2.645" ry="2.653" transform="translate(89.982 12.039)" fill="#726ad8"/>
    <ellipse id="Oval-75" data-name="Oval" cx="2.645" cy="2.653" rx="2.645" ry="2.653" transform="translate(88.14 18.318)" fill="#726ad8"/>
    <ellipse id="Oval-76" data-name="Oval" cx="2.645" cy="2.653" rx="2.645" ry="2.653" transform="translate(82.855 22.599)" fill="#726ad8"/>
    <ellipse id="Oval-77" data-name="Oval" cx="2.645" cy="2.653" rx="2.645" ry="2.653" transform="translate(76.494 24.316)" fill="#726ad8"/>
    <ellipse id="Oval-78" data-name="Oval" cx="2.645" cy="2.653" rx="2.645" ry="2.653" transform="translate(79.877 29.582)" fill="#726ad8"/>
    <ellipse id="Oval-79" data-name="Oval" cx="2.645" cy="2.653" rx="2.645" ry="2.653" transform="translate(83.384 34.722)" fill="#726ad8"/>
    <ellipse id="Oval-80" data-name="Oval" cx="2.645" cy="2.653" rx="2.645" ry="2.653" transform="translate(86.642 39.981)" fill="#726ad8"/>
    <ellipse id="Oval-81" data-name="Oval" cx="2.645" cy="2.653" rx="2.645" ry="2.653" transform="translate(90.024 45.121)" fill="#726ad8"/>
    <ellipse id="Oval-82" data-name="Oval" cx="2.645" cy="2.653" rx="2.645" ry="2.653" transform="translate(185.06 45.097)" fill="#726ad8"/>
    <ellipse id="Oval-83" data-name="Oval" cx="2.645" cy="2.653" rx="2.645" ry="2.653" transform="translate(185.06 39.039)" fill="#726ad8"/>
    <ellipse id="Oval-84" data-name="Oval" cx="2.645" cy="2.653" rx="2.645" ry="2.653" transform="translate(185.06 32.485)" fill="#726ad8"/>
    <ellipse id="Oval-85" data-name="Oval" cx="2.645" cy="2.653" rx="2.645" ry="2.653" transform="translate(185.06 26.01)" fill="#726ad8"/>
    <ellipse id="Oval-86" data-name="Oval" cx="2.645" cy="2.653" rx="2.645" ry="2.653" transform="translate(185.06 19.284)" fill="#726ad8"/>
    <ellipse id="Oval-87" data-name="Oval" cx="2.645" cy="2.653" rx="2.645" ry="2.653" transform="translate(185.06 12.766)" fill="#726ad8"/>
    <ellipse id="Oval-88" data-name="Oval" cx="2.645" cy="2.653" rx="2.645" ry="2.653" transform="translate(185.06 6.142)" fill="#726ad8"/>
    <ellipse id="Oval-89" data-name="Oval" cx="2.645" cy="2.653" rx="2.645" ry="2.653" transform="translate(191.206 41.943)" fill="#726ad8"/>
    <ellipse id="Oval-90" data-name="Oval" cx="2.645" cy="2.653" rx="2.645" ry="2.653" transform="translate(191.206 35.884)" fill="#726ad8"/>
    <ellipse id="Oval-91" data-name="Oval" cx="2.645" cy="2.653" rx="2.645" ry="2.653" transform="translate(191.206 29.331)" fill="#726ad8"/>
    <ellipse id="Oval-92" data-name="Oval" cx="2.645" cy="2.653" rx="2.645" ry="2.653" transform="translate(191.206 22.856)" fill="#726ad8"/>
    <ellipse id="Oval-93" data-name="Oval" cx="2.645" cy="2.653" rx="2.645" ry="2.653" transform="translate(191.206 16.13)" fill="#726ad8"/>
    <ellipse id="Oval-94" data-name="Oval" cx="2.645" cy="2.653" rx="2.645" ry="2.653" transform="translate(191.206 9.612)" fill="#726ad8"/>
    <ellipse id="Oval-95" data-name="Oval" cx="2.645" cy="2.653" rx="2.645" ry="2.653" transform="translate(191.206 2.981)" fill="#726ad8"/>
    <ellipse id="Oval-96" data-name="Oval" cx="2.645" cy="2.653" rx="2.645" ry="2.653" transform="translate(236.884 42.193)" fill="#726ad8"/>
    <ellipse id="Oval-97" data-name="Oval" cx="2.645" cy="2.653" rx="2.645" ry="2.653" transform="translate(243.376 42.193)" fill="#726ad8"/>
    <ellipse id="Oval-98" data-name="Oval" cx="2.645" cy="2.653" rx="2.645" ry="2.653" transform="translate(224.311 44.972)" fill="#726ad8"/>
    <ellipse id="Oval-99" data-name="Oval" cx="2.645" cy="2.653" rx="2.645" ry="2.653" transform="translate(224.311 38.913)" fill="#726ad8"/>
    <ellipse id="Oval-100" data-name="Oval" cx="2.645" cy="2.653" rx="2.645" ry="2.653" transform="translate(224.311 32.36)" fill="#726ad8"/>
    <ellipse id="Oval-101" data-name="Oval" cx="2.645" cy="2.653" rx="2.645" ry="2.653" transform="translate(224.311 25.885)" fill="#726ad8"/>
    <ellipse id="Oval-102" data-name="Oval" cx="2.645" cy="2.653" rx="2.645" ry="2.653" transform="translate(224.311 19.159)" fill="#726ad8"/>
    <ellipse id="Oval-103" data-name="Oval" cx="2.645" cy="2.653" rx="2.645" ry="2.653" transform="translate(224.311 12.641)" fill="#726ad8"/>
    <ellipse id="Oval-104" data-name="Oval" cx="2.645" cy="2.653" rx="2.645" ry="2.653" transform="translate(224.311 6.016)" fill="#726ad8"/>
    <ellipse id="Oval-105" data-name="Oval" cx="2.645" cy="2.653" rx="2.645" ry="2.653" transform="translate(230.458 41.817)" fill="#726ad8"/>
    <ellipse id="Oval-106" data-name="Oval" cx="2.645" cy="2.653" rx="2.645" ry="2.653" transform="translate(230.458 35.759)" fill="#726ad8"/>
    <ellipse id="Oval-107" data-name="Oval" cx="2.645" cy="2.653" rx="2.645" ry="2.653" transform="translate(230.458 29.206)" fill="#726ad8"/>
    <ellipse id="Oval-108" data-name="Oval" cx="2.645" cy="2.653" rx="2.645" ry="2.653" transform="translate(230.458 22.73)" fill="#726ad8"/>
    <ellipse id="Oval-109" data-name="Oval" cx="2.645" cy="2.653" rx="2.645" ry="2.653" transform="translate(230.458 16.004)" fill="#726ad8"/>
    <ellipse id="Oval-110" data-name="Oval" cx="2.645" cy="2.653" rx="2.645" ry="2.653" transform="translate(230.458 9.487)" fill="#726ad8"/>
    <ellipse id="Oval-111" data-name="Oval" cx="2.645" cy="2.653" rx="2.645" ry="2.653" transform="translate(230.458 2.856)" fill="#726ad8"/>
    <ellipse id="Oval-112" data-name="Oval" cx="2.645" cy="2.653" rx="2.645" ry="2.653" transform="translate(152.733 45.097)" fill="#726ad8"/>
    <ellipse id="Oval-113" data-name="Oval" cx="2.645" cy="2.653" rx="2.645" ry="2.653" transform="translate(152.733 39.039)" fill="#726ad8"/>
    <ellipse id="Oval-114" data-name="Oval" cx="2.645" cy="2.653" rx="2.645" ry="2.653" transform="translate(152.733 32.485)" fill="#726ad8"/>
    <ellipse id="Oval-115" data-name="Oval" cx="2.645" cy="2.653" rx="2.645" ry="2.653" transform="translate(152.733 26.01)" fill="#726ad8"/>
    <ellipse id="Oval-116" data-name="Oval" cx="2.645" cy="2.653" rx="2.645" ry="2.653" transform="translate(152.733 19.284)" fill="#726ad8"/>
    <ellipse id="Oval-117" data-name="Oval" cx="2.645" cy="2.653" rx="2.645" ry="2.653" transform="translate(152.733 12.766)" fill="#726ad8"/>
    <ellipse id="Oval-118" data-name="Oval" cx="2.645" cy="2.653" rx="2.645" ry="2.653" transform="translate(152.733 6.142)" fill="#726ad8"/>
    <ellipse id="Oval-119" data-name="Oval" cx="2.645" cy="2.653" rx="2.645" ry="2.653" transform="translate(158.879 41.943)" fill="#726ad8"/>
    <ellipse id="Oval-120" data-name="Oval" cx="2.645" cy="2.653" rx="2.645" ry="2.653" transform="translate(158.879 35.884)" fill="#726ad8"/>
    <ellipse id="Oval-121" data-name="Oval" cx="2.645" cy="2.653" rx="2.645" ry="2.653" transform="translate(158.879 29.331)" fill="#726ad8"/>
    <ellipse id="Oval-122" data-name="Oval" cx="2.645" cy="2.653" rx="2.645" ry="2.653" transform="translate(158.879 22.856)" fill="#726ad8"/>
    <ellipse id="Oval-123" data-name="Oval" cx="2.645" cy="2.653" rx="2.645" ry="2.653" transform="translate(158.879 16.13)" fill="#726ad8"/>
    <ellipse id="Oval-124" data-name="Oval" cx="2.645" cy="2.653" rx="2.645" ry="2.653" transform="translate(158.879 9.612)" fill="#726ad8"/>
    <ellipse id="Oval-125" data-name="Oval" cx="2.645" cy="2.653" rx="2.645" ry="2.653" transform="translate(158.879 2.981)" fill="#726ad8"/>
  </g>
</svg>
