<svg xmlns="http://www.w3.org/2000/svg" xml:space="preserve" viewBox="25.38 25.38 129.24 129.25">
    <path fill="#333" d="M90 25.377C54.31 25.377 25.378 54.31 25.378 90c0 35.689 28.932 64.622 64.622 64.622S154.622 125.689 154.622 90c0-35.69-28.932-64.623-64.622-64.623z"/>
    <path fill="#333" d="M103.057 47.797h-21.76a3.594 3.594 0 0 0-3.583 3.583 3.594 3.594 0 0 0 3.583 3.584h21.76a3.594 3.594 0 0 0 3.583-3.584 3.594 3.594 0 0 0-3.583-3.583zM116.377 61.733h-34.22a3.592 3.592 0 0 0-3.583 3.582 3.593 3.593 0 0 0 3.583 3.582h34.221a3.592 3.592 0 0 0 3.582-3.582 3.593 3.593 0 0 0-3.583-3.582zM129.844 61.733h-5.269a3.593 3.593 0 0 0-3.583 3.582 3.593 3.593 0 0 0 3.583 3.582h5.269a3.593 3.593 0 0 0 3.583-3.582 3.593 3.593 0 0 0-3.583-3.582z"/>
    <path fill="#333" d="M99.183 54.769H81.85a3.184 3.184 0 0 1 3.175 3.174v.816a3.185 3.185 0 0 1-3.175 3.175h17.333a3.185 3.185 0 0 1-3.175-3.175v-.816a3.184 3.184 0 0 1 3.175-3.174zM58.766 68.322H46.755a1.982 1.982 0 0 0-1.977 1.976c0 1.089.89 1.979 1.977 1.979h12.011c1.088 0 1.977-.89 1.977-1.979a1.982 1.982 0 0 0-1.977-1.976zM66.118 76.012H47.229c-1.088 0-1.977.89-1.977 1.977 0 1.088.89 1.979 1.977 1.979h18.889a1.984 1.984 0 0 0 1.977-1.979c0-1.087-.89-1.977-1.977-1.977zM73.551 76.012h-2.909c-1.087 0-1.978.89-1.978 1.977 0 1.088.89 1.979 1.978 1.979h2.909a1.985 1.985 0 0 0 1.978-1.979 1.984 1.984 0 0 0-1.978-1.977z"/>
    <path fill="#333" d="M56.627 72.169H47.06c.964 0 1.752.787 1.752 1.751v.45c0 .964-.789 1.753-1.752 1.753h9.567a1.757 1.757 0 0 1-1.752-1.753v-.45c0-.964.788-1.751 1.752-1.751z"/>
    <g>
        <path fill="#333" d="M118.157 135.098H96.396a3.593 3.593 0 0 0-3.582 3.582 3.592 3.592 0 0 0 3.582 3.583h21.761a3.593 3.593 0 0 0 3.583-3.583 3.594 3.594 0 0 0-3.583-3.582zM117.297 121.165H83.076a3.592 3.592 0 0 0-3.582 3.582 3.592 3.592 0 0 0 3.582 3.582h34.221a3.593 3.593 0 0 0 3.583-3.582 3.593 3.593 0 0 0-3.583-3.582zM74.879 121.165h-5.27a3.592 3.592 0 0 0-3.582 3.582 3.592 3.592 0 0 0 3.582 3.582h5.27a3.592 3.592 0 0 0 3.582-3.582 3.591 3.591 0 0 0-3.582-3.582z"/>
        <path fill="#333" d="M117.603 128.127h-17.332a3.185 3.185 0 0 1 3.175 3.175v.816a3.185 3.185 0 0 1-3.175 3.175h17.332a3.185 3.185 0 0 1-3.175-3.175v-.816a3.185 3.185 0 0 1 3.175-3.175z"/>
    </g>
    <g>
        <path fill="#FFF" d="M57.945 58.417h-10.17a.385.385 0 0 0 0 .769h10.17a.384.384 0 0 0 0-.769zM61.481 55.646h-1.643a.385.385 0 0 0 0 .77h1.643a.385.385 0 0 0 0-.77zM63.438 62.031h-1.643a.384.384 0 0 0 0 .768h1.643a.383.383 0 1 0 0-.768zM57.945 55.646h-6.193a.385.385 0 0 0 0 .77h6.193a.385.385 0 0 0 0-.77zM67.176 52.831H59.7a.384.384 0 0 0 0 .769h7.477a.385.385 0 0 0-.001-.769z"/>
    </g>
    <g>
        <path fill="#FFF" d="M83.007 136.988h-.96a.385.385 0 0 0 0 .769h.96a.385.385 0 0 0 0-.769z"/>
        <g fill="#FFF">
            <path d="M76.663 136.988h-1.795a.385.385 0 0 0 0 .769h1.795a.385.385 0 0 0 0-.769zM80.252 136.988h-1.795a.385.385 0 0 0 0 .769h1.795a.385.385 0 0 0 0-.769z"/>
        </g>
        <path fill="#FFF" d="M73.073 136.988h-.96a.385.385 0 0 0 0 .769h.96a.385.385 0 0 0 0-.769z"/>
        <g>
            <path fill="#FFF" d="M83.007 130.806h-.96a.383.383 0 1 0 0 .768h.96a.384.384 0 0 0 0-.768z"/>
            <g fill="#FFF">
                <path d="M76.663 130.806h-1.795a.383.383 0 1 0 0 .768h1.795a.384.384 0 0 0 0-.768zM80.252 130.806h-1.795a.383.383 0 1 0 0 .768h1.795a.384.384 0 0 0 0-.768z"/>
            </g>
            <path fill="#FFF" d="M73.073 130.806h-.96a.383.383 0 1 0 0 .768h.96a.384.384 0 0 0 0-.768z"/>
        </g>
        <g>
            <path fill="#FFF" d="M90.482 134.533h-9.475a.384.384 0 0 0 0 .768h9.475a.384.384 0 0 0 0-.768z"/>
        </g>
    </g>
    <g>
        <path fill="#F2F2F2" d="M138.406 83.439a25.378 25.378 0 0 0-7.482-6.653 24.992 24.992 0 0 0-12.61-3.398c-.898 0-1.913.198-2.938.474-.85.229-3.232 1.003-3.565 1.11l-.001-.003a33.665 33.665 0 0 0-1.476-3.295 31.176 31.176 0 0 0-4.338-6.395 28.288 28.288 0 0 0-3.921-3.679 25.54 25.54 0 0 0-6.876-3.799l-.018-.007-.06-.022a23.92 23.92 0 0 0-8.115-1.423 29.5 29.5 0 0 0-1.52.043 27.609 27.609 0 0 0-14.358 4.948 27.859 27.859 0 0 0-8.895 10.231 27.39 27.39 0 0 0-1.162 2.632c-.051.133-.973 2.942-1.246 4.27a27.81 27.81 0 0 0-.45 2.995 19.197 19.197 0 0 0-1.691-.083c-2.017 0-3.968.285-5.816.814a21.041 21.041 0 0 0-3.093 1.159 21.25 21.25 0 0 0-6.37 4.576c-3.624 3.796-5.852 8.934-5.852 14.582 0 .18.085 2.038.182 2.771.716 5.445 3.514 10.244 7.565 13.567a21.019 21.019 0 0 0 13.383 4.792h61.491v-.045a25.05 25.05 0 0 0 9.442-2.194 47.662 47.662 0 0 0 1.448-.712 25.27 25.27 0 0 0 11.118-11.778 24.9 24.9 0 0 0 2.261-10.401 24.986 24.986 0 0 0-5.037-15.077z"/>
        <path fill="#333" d="m84.392 56.428 13.956 7.604-13.956-7.604zM98.461 63.865l-.29-4.821zM98.171 59.044l.29 4.82.001.001-.007-.134.146.184.062-.028-.284-4.737-.208-.106zM73.551 84.873l-6.666-19.9zM58.868 81.38l5.621 1.498zM59.417 81.319l5.166 1.376zM73.684 85.317l.003.011.018.004-.004-.013zM67.176 64.672l3.565 3.134zM74.036 84.057l-.354 1.055zM67.035 64.815l3.739 3.287z"/>
        <g fill="#333">
            <path d="m66.73 65.139 6.667 19.903.089.024.065-.194-6.666-19.899c-.052.056-.103.112-.155.166zM73.551 84.873l.361-1.078-.361 1.078z"/>
        </g>
        <path fill="#333" d="m77.988 57.815-.311 9.715zM67.176 64.672l-.141.143 3.739 3.287 6.421 5.644.083-.038.005-.151-6.543-5.75-3.564-3.135zM77.425 73.948l.046.04v-.023l-.042-.031zM77.784 57.887l-.27 8.468zM77.514 66.355l-.23 7.201-.005.151.017-.008.03-.089.063.046.093-.042.195-6.085.311-9.715-.203.072-.271 8.469zM98.462 63.866l-13.706-7.469-.363.031 13.956 7.604.064-.03-.021-.027.075-.015-.005-.094zM99.584 90.148l-10.707-7.835 10.707 7.835zM100.082 89.911l-.752-13.804zM99.894 90.127l-8.069-5.906 8.069 5.906-.601-11.02zM98.662 63.887l-.061.029.011.013.054-.012-.002-.03z"/>
        <path fill="#333" d="m77.196 73.746-.016.006.079.058.037-.11-.017.007zM98.413 64.002l-.065.03-20.866 9.583-.093.042.185.136 20.906-9.601-.007-.115zM100.204 90.129l.794-1.792zM98.752 64.104l2.689 3.358-2.689-3.358z"/>
        <g fill="#333">
            <path d="m98.689 64.346 2.545 3.181zM100.082 89.911l-.752-13.804-.641-11.761-.216-.269.007.115.813 14.915.601 11.02.07.05 4.127-9.319-4.009 9.053z"/>
        </g>
        <path fill="#333" d="m98.455 63.732.007.134.005.093.145-.03-.011-.013zM98.752 64.104l5.118-1.066c-.06-.056-.122-.11-.184-.166l-5.02 1.046-.054.012-.145.03-.075.015.021.027.061.075 2.761 3.45 5.623 7.026.048-.051.057-.129.031.036.004-.003-5.557-6.944-2.689-3.358z"/>
        <path fill="#333" d="m106.855 74.555.018.022.033-.075-.049.051zM107.018 74.743l4.644 5.317-4.644-5.317zM114.768 83.618l.073.083.002-.011-.071-.074zM115.408 80.931l-.66 2.359zM114.936 83.361l1.03-3.677zM110.207 71.329c-.033-.062-.064-.125-.098-.188l-3.112 3.266-.004.003 4.808 5.505-4.675-5.354 3.081-3.232zM114.991 83.554l19.502-4.321z"/>
        <g fill="#333">
            <path d="m114.936 83.361 19.365-4.291-19.365 4.291zM117.734 73.369l-.213.021-2.113 7.541-.66 2.358.082.095.105-.023 1.03-3.677 1.769-6.315z"/>
        </g>
        <path fill="#333" d="m45.545 92.314.569-7.496h-.001zM45.902 84.957l-.543 7.156z"/>
        <path fill="#333" d="m45.359 92.113-.014.187.099.009.101.006.568-7.496c-.071.047-.142.093-.211.14l-.543 7.154zM45.33 92.499h.005v.004h-.005zM50.741 82.523l10.146 10.574.145.007-.002-.067.084.046.018-.021-10.183-10.611c-.07.023-.139.048-.208.072zM64.583 82.695l-5.167-1.376-.011.103c-.184-.017-.362-.029-.538-.041l5.621 1.498 8.818 2.348.13-.084-.02-.082.066.013.002-.006-.089-.024-8.812-2.349zM77.502 102.493l-2.563-1.436zM75.091 100.913l2.415 1.352z"/>
        <path fill="#333" d="m73.42 85.265.027-.082-.01-.041-.131.084-12.076 7.803.002.086.116.006-.056.063.036.019 12.159-7.854-.019-.075zM99.682 90.372 84.48 87.415l15.202 2.957zM99.703 90.612v-.001l-8.462 4.594zM95.291 92.777l4.389-2.382h-.001z"/>
        <path fill="#333" d="m73.684 85.317-.216-.043.019.075 4.019 16.916.126.071.003-.002.025.014.063-.034-4.036-16.986zM73.437 85.142l.01.041.037-.11-.067-.013z"/>
        <path fill="#333" d="M91.825 84.221 77.574 73.793l-.185-.136-.063-.046-.03.089-.037.11-3.347 9.985-.426 1.271-.002.006-.037.11-.027.082.049.009.216.043.017.002 10.779 2.097 15.202 2.956.197-.092-.025-.065.089.01.021-.047-.07-.051-8.07-5.905zm-18.143.891.354-1.055 3.389-10.109.004-.014.042.031 11.406 8.348 10.707 7.835-25.902-5.036zM100.369 90.274l8.12-3.754z"/>
        <path fill="#333" d="m111.801 79.915-4.808-5.505-.031-.037-.056.129-.033.075-2.782 6.281-4.127 9.319-.02.047.011.001.076-.115.031.085 8.249-3.814-8.107 3.748.794-1.792 6.02-13.594 4.644 5.317 2.945 3.374.154-.034.056-.027.01.012.003-.001-.082-.094zM124.179 93.025l-9.188-9.471zM123.92 93.045l-4.018-4.141 4.018 4.141zM100.155 90.451l8.859 1.042zM99.682 90.372l-.041.018.038.005h.001l.202-.109-.003-.006z"/>
        <g fill="#333">
            <path d="m109.05 91.295-8.681-1.021zM108.311 86.381l-8.249 3.814.016.045.291.034 8.12-3.754 6.279-2.902.004-.002-.148-.152z"/>
        </g>
        <path fill="#333" d="m114.761 83.4.066-.015-.01-.012zM129.694 88.42l-5.427 4.561zM137.449 82.165 124.424 93.11z"/>
        <path fill="#333" d="m134.301 79.07-19.471 4.314-.003.001-.066.015-.154.034-.01.002.027.028.147.151.072.074 5.059 5.214 4.018 4.142.154.019v-.004l.07.011.035-.046-9.188-9.471 19.503-4.321-.193-.163zM124.302 93.296l6.476.928zM137.319 82.012l-7.625 6.408-5.426 4.561.012.106.095.012-.003.003 6.524.937-6.471-.929 13.025-10.945-.131-.153zM136.231 94.796l.017.004.053-.083.056.104.075.011 3.555-9.118c-.043-.074-.085-.147-.129-.22l-3.627 9.302zM39.377 112.961l1.091-.38zM45.218 111.288l.019.019.001-.067-.014-.008zM39.519 91.739l-.113.189 5.923.57.005.001v.004l-.291 18.313-8.455-8.824a13.73 13.73 0 0 0-.003.287l8.374 8.739.081-.029.298-18.688.105.006-.099-.009-5.825-.559zM61.233 93.15l.059.034.056-.063-.116-.006z"/>
        <path fill="#333" d="m60.887 93.097-15.342-.783-.101-.006-.105-.006-.298 18.688.006-.002.009-.097.066.041.123-.138.29-18.281 15.385.786.113-.127-.002-.068z"/>
        <g fill="#333">
            <path d="m61.033 93.172-.113.127-15.675 17.495-.123.138.031.02.186-.065-.068.138 16.388 10.182-16.364-10.167L61.04 93.464zM61.04 93.464l.69 27.77z"/>
        </g>
        <path fill="#333" d="m61.23 93.029-.002-.074-.097.107-.018.02.12.068-.001-.035zM45.224 111.232l16.455 10.225-16.441-10.217zM61.742 121.682v.023l.054-.063-.004-.013zM73.567 107.524l4.11-4.928z"/>
        <path fill="#333" d="m75.091 100.913-13.763-7.71-.036-.019-.059-.034-.12-.067-.084-.046.002.067.002.068.697 28.062.089.065 15.687-18.812-.048-.03.133-.072.041-.049-.127-.071-2.414-1.352zm2.411 1.58-15.573 18.675-.69-27.785 13.7 7.675 2.563 1.435zM87.619 109.103l-5.196 2.509zM83.719 110.762l3.876-1.87zM77.853 102.472l6.889 4.371-6.889-4.371z"/>
        <path fill="#333" d="m77.632 102.336-.041.049.069-.037-.025-.014zM61.82 121.299l.004.003.056-.058.016.051.313-.15 11.358-13.621 4.11-4.928 6.592 4.185-6.763-4.293z"/>
        <path fill="#333" d="m99.68 90.395-4.389 2.382-17.568 9.537-.063.034-.069.037-.133.072.048.031 6.763 4.293 3.326 2.111.038-.019-.137-.143.242.056.012-.033-3.008-1.91-6.889-4.371 13.388-7.267 8.462-4.594.191-.292-.012-.033zM87.786 108.743l7.643-11.629-7.643 11.629zM87.964 108.838l2.822-4.295zM108.645 113.788l.001.043.054.012-.022-.062z"/>
        <path fill="#333" d="M99.703 90.611v.001l-4.274 6.502-7.643 11.629.037.039.159-.076-.048.125.03.007 2.822-4.295 9.194-13.989-.086-.235zM100.031 90.11l-.076.115.123.015-.016-.045z"/>
        <path fill="#333" d="m123.92 93.045-14.87-1.75-8.972-1.055-.123-.015-.011-.001-.089-.01.024.066.003.006.012.033.086.235 8.405 23.011.117.026.073-.093-8.42-23.047 8.859 1.042 14.988 1.764-13.345 17.509 13.427-17.617-.009-.085zM124.277 93.083v-.004l.094.012v.004zM108.369 113.767l-.064.082.141-.025-.001-.039zM126.151 110.2v-.001l-1.176-10.748z"/>
        <path fill="#333" d="m110.657 110.766-2.082 2.732-.073.093.043.011.235-.043 15.336-20.12-.032-.29zM125.968 110.377l-1.181-10.799zM124.267 92.981l-.007-.063-.081.107-.035.046.135.019v-.003zM126.293 110.347l9.054-13.809-9.054 13.809zM136.357 94.822l.002.005.095.023.008-.014-.03-.004z"/>
        <g fill="#333">
            <path d="m130.895 94.039-6.524-.937-.092-.012-.135-.019-.069-.011v.004l.009.085.032.29.671 6.139 1.181 10.799.043.004.047-.144.03.056.063-.095-1.176-10.747-.673-6.155 6.476.928 5.344.768.054-.083-.066-.122z"/>
            <path d="m126.151 110.199 8.976-13.691-8.976 13.69v.002z"/>
        </g>
        <path fill="#333" d="m126.258 110.602 13.362 1.043-13.362-1.043zM139.559 111.439l-13.276-1.037zM136.122 94.992l-.995 1.516-9.039 13.785.046.081.159-.027 9.054-13.809.937-1.429 1.849 3.416-1.957-3.616zM136.3 94.717l-.053.083.112.027-.002-.005z"/>
        <path fill="#333" d="m143.4 96.524-6.945-1.674-.095-.023-.112-.026-.017-.004-.134-.033.013.023.067.122 1.957 3.616 4.134 7.64.084-.266-5.864-10.835 6.925 1.668c-.004-.068-.007-.14-.013-.208zM42.33 116.939l1.541-3.1z"/>
        <g fill="#333">
            <path d="m44.942 111.237-2.758 5.546zM44.96 111.019l-4.492 1.562-1.091.38c.034.06.069.116.104.177l5.461-1.901.101-.203.005-.046-.006.002-.082.029z"/>
        </g>
        <path fill="#333" d="m45.271 111.025.068-.138-.186.065zM42.33 116.939l1.541-3.1 1.115-2.242.057-.563-2.858 5.749c.047.053.096.105.145.156z"/>
        <path fill="#333" d="m61.659 121.207-16.388-10.183-.118-.073-.031-.02-.065-.041-.009.097-.005.046-.057.563-.721 7.158c.062.052.124.102.186.15l.768-7.618.006-.056 16.455 10.226.007-.008-.042-.032.071-.033-.057-.176zM59.932 123.602l1.86-1.973-.05.053zM61.824 121.302l.022.018.05-.025-.016-.051z"/>
        <path fill="#333" d="m61.685 121.45-.006.007-2.023 2.145h.276l1.86-1.973-.042-.131z"/>
        <g fill="#333">
            <path d="m61.792 121.629.004.013.619 1.96h.21l-.601-1.902-.274-.202zM62.024 121.7l2.576 1.902z"/>
        </g>
        <path fill="#333" d="m61.82 121.299-.09-.065-.083-.061.012.034.055.177.132-.064-.022-.018zM87.853 108.812l.081.019.048-.125-.159.076z"/>
        <path fill="#333" d="m87.595 108.892-3.876 1.87-21.51 10.383-.313.15-.05.025-.132.064-.071.034.042.032.065.048 2.85 2.104h.337l-2.908-2.147 20.394-9.843 5.196-2.509.066-.176-.052-.054z"/>
        <path fill="#333" d="m87.619 109.103-5.415 14.499h.215l5.42-14.515-.154-.16zM101.736 123.602l-11.067-11.558zM87.786 108.743l-.023-.024-.013.034-.012.033.115.026-.03-.03z"/>
        <path fill="#333" d="m108.502 113.591-.117-.026-20.421-4.727-.03-.007-.081-.019-.115-.026-.242-.056.137.143.052.054.154.16 2.83 2.957 11.067 11.558h.277l-13.907-14.525 20.263 4.69.076.018-.005-.163.105-.02zM108.645 113.788l.125 5.261-.124-5.218z"/>
        <path fill="#333" d="m108.78 113.559-.235.043-.105.02.005.163.001.039.233 9.778h.2l-.109-4.553-.125-5.261.033-.007 17.149-3.145-10.826 12.966 10.959-13.127-.034-.06zM126.134 110.374l.009.018.14.01.053-.063-.043.008zM121.714 123.345l1.281-3.867z"/>
        <path fill="#333" d="M115.001 123.602h.26l10.559-12.646.152-.458-.012-.023zM126.258 110.602l5.117 9.322-5.117-9.322zM126.088 110.293l-.03-.056-.047.144.132.011-.009-.018z"/>
        <g fill="#333">
            <path d="m125.82 110.956-2.825 8.521-1.282 3.867.222-.033 4.169-12.574-.132-.24-.152.459zM126.104 110.738l5.099 9.29z"/>
        </g>
        <path fill="#333" d="m126.283 110.402-.14-.01-.132-.011-.043-.004-.064-.005.022.042.034.061.012.022 5.231 9.53.172-.104-5.117-9.322 13.361 1.043.104.008.117-.191-.281-.022-13.276-1.037z"/>
        <g>
            <path fill="#CCCBC9" d="M100.005 88.816a1.52 1.52 0 0 0-1.516 1.517c0 .836.68 1.517 1.516 1.517a1.52 1.52 0 0 0 1.517-1.517 1.52 1.52 0 0 0-1.517-1.517z"/>
            <path fill="#FFF" d="M100.005 89.584a.748.748 0 1 0 0 1.495.748.748 0 0 0 0-1.495z"/>
            <path fill="#CCCBC9" d="M107.087 72.916a1.518 1.518 0 0 0 0 3.033 1.52 1.52 0 0 0 1.517-1.517 1.52 1.52 0 0 0-1.517-1.516z"/>
            <path fill="#FFF" d="M107.087 73.684a.748.748 0 1 0 0 1.496.748.748 0 0 0 0-1.496z"/>
            <path fill="#CCCBC9" d="M114.703 81.735c-.836 0-1.517.68-1.517 1.516s.68 1.517 1.517 1.517a1.518 1.518 0 0 0 0-3.033z"/>
            <path fill="#FFF" d="M114.703 82.503a.748.748 0 1 0 0 1.497.748.748 0 0 0 0-1.497z"/>
            <path fill="#CCCBC9" d="M124.189 91.662a1.52 1.52 0 0 0-1.517 1.516c0 .836.68 1.517 1.517 1.517.836 0 1.516-.681 1.516-1.517a1.519 1.519 0 0 0-1.516-1.516z"/>
            <path fill="#FFF" d="M124.189 92.429a.748.748 0 1 0 0 1.496.748.748 0 0 0 0-1.496z"/>
            <path fill="#CCCBC9" d="M126.081 108.971c-.836 0-1.517.68-1.517 1.517 0 .835.68 1.516 1.517 1.516a1.52 1.52 0 0 0 1.517-1.516 1.52 1.52 0 0 0-1.517-1.517z"/>
            <path fill="#FFF" d="M126.081 109.74a.747.747 0 1 0-.001 1.495.747.747 0 0 0 .001-1.495z"/>
            <path fill="#CCCBC9" d="M77.251 72.165c-.836 0-1.516.68-1.516 1.515 0 .836.68 1.517 1.516 1.517.837 0 1.516-.681 1.516-1.517 0-.835-.68-1.515-1.516-1.515z"/>
            <path fill="#FFF" d="M77.251 72.933a.748.748 0 1 0 0 1.496.748.748 0 0 0 0-1.496z"/>
            <path fill="#CCCBC9" d="M98.572 62.523c-.836 0-1.517.68-1.517 1.516 0 .837.68 1.518 1.517 1.518a1.518 1.518 0 0 0 0-3.034z"/>
            <path fill="#FFF" d="M98.572 63.291a.749.749 0 1 0 .002 1.498.749.749 0 0 0-.002-1.498z"/>
            <path fill="#CCCBC9" d="M73.551 83.672a1.52 1.52 0 0 0-1.517 1.516 1.518 1.518 0 0 0 3.033 0c0-.835-.68-1.516-1.516-1.516z"/>
            <path fill="#FFF" d="M73.551 84.44a.749.749 0 1 0 0 1.497.749.749 0 0 0 0-1.497z"/>
            <path fill="#CCCBC9" d="M60.902 91.72c-.836 0-1.517.68-1.517 1.517a1.518 1.518 0 0 0 3.034 0 1.52 1.52 0 0 0-1.517-1.517z"/>
            <path fill="#FFF" d="M60.902 92.489a.747.747 0 1 0-.001 1.495.747.747 0 0 0 .001-1.495z"/>
            <path fill="#CCCBC9" d="M45.135 109.491a1.517 1.517 0 1 0 .002 3.032 1.517 1.517 0 0 0-.002-3.032z"/>
            <path fill="#FFF" d="M45.135 110.259a.749.749 0 1 0 0 1.498.749.749 0 0 0 0-1.498z"/>
            <path fill="#CCCBC9" d="M136.26 93.324c-.836 0-1.516.681-1.516 1.516 0 .837.68 1.518 1.516 1.518s1.516-.681 1.516-1.518c0-.836-.68-1.516-1.516-1.516z"/>
            <path fill="#FFF" d="M136.26 94.091a.749.749 0 1 0 .002 1.498.749.749 0 0 0-.002-1.498z"/>
            <path fill="#CCCBC9" d="M108.602 112.296c-.836 0-1.517.68-1.517 1.517a1.52 1.52 0 0 0 1.517 1.517 1.518 1.518 0 0 0 0-3.034z"/>
            <path fill="#FFF" d="M108.602 113.065a.747.747 0 1 0-.001 1.495.747.747 0 0 0 .001-1.495z"/>
            <path fill="#CCCBC9" d="M88.025 107.353a1.52 1.52 0 0 0-1.517 1.518 1.517 1.517 0 1 0 1.517-1.518z"/>
            <path fill="#FFF" d="M88.025 108.122a.748.748 0 1 0 0 1.497.748.748 0 0 0 0-1.497z"/>
            <path fill="#CCCBC9" d="M77.603 101.074c-.837 0-1.517.68-1.517 1.517 0 .835.68 1.516 1.517 1.516a1.517 1.517 0 0 0 0-3.033z"/>
            <path fill="#FFF" d="M77.603 101.841a.749.749 0 1 0 0 1.497.749.749 0 0 0 0-1.497z"/>
            <path fill="#CCCBC9" d="M61.837 119.913c-.835 0-1.516.68-1.516 1.517 0 .836.681 1.516 1.516 1.516a1.518 1.518 0 0 0 0-3.033z"/>
            <path fill="#FFF" d="M61.837 120.681a.748.748 0 1 0 0 1.497.748.748 0 0 0 0-1.497z"/>
            <path fill="#CCCBC9" d="M45.402 90.919a1.518 1.518 0 0 0 0 3.033 1.518 1.518 0 0 0 0-3.033z"/>
            <path fill="#FFF" d="M45.402 91.687a.747.747 0 1 0-.001 1.495.747.747 0 0 0 .001-1.495z"/>
        </g>
    </g>
    <g>
        <path fill="#FFF" d="M88.711 38.791h-.96a.384.384 0 0 0 0 .769h.96a.385.385 0 0 0 0-.769zM92.573 38.791h-1.931a.384.384 0 0 0 0 .769h1.931a.385.385 0 0 0 0-.769zM95.465 38.791h-.96a.384.384 0 0 0 0 .769h.96a.385.385 0 0 0 0-.769z"/>
    </g>
    <g>
        <path fill="#FFF" d="M88.596 43.356h-6.709a.384.384 0 0 0 0 .768h6.709a.384.384 0 0 0 0-.768z"/>
    </g>
</svg>