<svg version="1.1" id="ecommerce_1_" xmlns="http://www.w3.org/2000/svg" x="0" y="0" viewBox="0 0 115 115"
    style="enable-background:new 0 0 115 115" xml:space="preserve">
    <style>
        .st0 {
            fill: #ffeead
        }

        .st2 {
            fill: #99734a
        }
    </style>
    <g id="site_traffic_analitics_1_">
        <path d="M57.501 0v21.157a36.156 36.156 0 0 1 19.589 5.739L88.504 9.065A57.672 57.672 0 0 0 57.501 0z"
            style="fill:#71a58a" />
        <path class="st2"
            d="M104.03 23.702A57.35 57.35 0 0 0 88.503 9.065L77.09 26.896c7.977 5.117 13.82 13.26 15.907 22.814l20.678-4.538a57.292 57.292 0 0 0-9.645-21.47z" />
        <path class="st0"
            d="M83.198 83.198C76.622 89.775 67.536 93.843 57.5 93.843V115a57.237 57.237 0 0 0 33.798-10.971 58 58 0 0 0 6.869-5.862L83.198 83.198z" />
        <path class="st0"
            d="M57.5 93.842a36.164 36.164 0 0 1-19.589-5.738l-11.413 17.83A57.67 57.67 0 0 0 57.501 115L57.5 93.842z" />
        <path
            d="M23.703 10.971a58 58 0 0 0-6.869 5.862C2.762 30.871-2.793 51.003 1.327 69.827a57.29 57.29 0 0 0 9.645 21.471 57.334 57.334 0 0 0 15.527 14.637l11.413-17.83C27.839 81.643 21.158 70.355 21.158 57.5c0-20.071 16.271-36.343 36.342-36.343h.001V0a57.23 57.23 0 0 0-33.798 10.971z"
            style="fill:#96ceb4" />
        <path
            d="M87.475 78.046a36.605 36.605 0 0 1-4.276 5.152l14.969 14.969a57.087 57.087 0 0 0 6.767-8.154l-17.46-11.967z"
            style="fill:#ffcc5c" />
        <path
            d="m113.675 45.173-20.678 4.538c.548 2.51.846 5.115.846 7.789 0 7.626-2.354 14.7-6.368 20.546l17.459 11.967c8.985-13.11 12.118-29.412 8.741-44.84z"
            style="fill:#ff6f69" />
        <g>
            <path class="st2"
                d="M38.642 47.703h-.298a3.05 3.05 0 0 0-3.041 3.041v25.808a3.05 3.05 0 0 0 3.041 3.041h.298a3.05 3.05 0 0 0 3.041-3.041V50.744a3.05 3.05 0 0 0-3.041-3.041z" />
        </g>
        <g>
            <path class="st2"
                d="M50.87 57.367h-.298a3.05 3.05 0 0 0-3.041 3.041v16.145a3.05 3.05 0 0 0 3.041 3.041h.298a3.05 3.05 0 0 0 3.041-3.041V60.408a3.05 3.05 0 0 0-3.041-3.041z" />
        </g>
        <g>
            <path class="st2"
                d="M63.097 28.376H62.8a3.05 3.05 0 0 0-3.041 3.041v45.136a3.05 3.05 0 0 0 3.041 3.041h.298a3.05 3.05 0 0 0 3.041-3.041V31.417a3.05 3.05 0 0 0-3.042-3.041z" />
        </g>
        <g>
            <path class="st2"
                d="M75.325 38.039h-.298a3.05 3.05 0 0 0-3.041 3.041v35.472a3.05 3.05 0 0 0 3.041 3.041h.298a3.05 3.05 0 0 0 3.041-3.041V41.08a3.05 3.05 0 0 0-3.041-3.041z" />
        </g>
    </g>
</svg>