<svg xmlns="http://www.w3.org/2000/svg" version="1.1" id="Layer_3" x="0" y="0" style="enable-background: new 0 0 64 64"
    xml:space="preserve" viewBox="2.73 6.4 58.53 51">
    <style>
        .st0 {
            fill: #F3F3F3;
        }

        .st1 {
            fill: #1A1A24;
        }

        .st2 {
            fill: #06D889;
        }

        .st3 {
            fill: #06D889;
        }

        .st4 {
            fill: #1A1A24;
        }

        .st6 {
            fill: #06D889;
        }

        .st10 {
            fill: #06D889;
        }

        .st11 {
            fill: #1A1A24;
        }

        .st15 {
            fill: #1A1A24;
        }
    </style>
    <path class="st15" d="M 56.7 14.2 h -4.2 l 4.1 7.1 l -4.1 7.1 h 4.2 l 4.1 -7.1 z"></path>
    <path class="st1"
        d="M 15.6 50.3 H 7.4 a 0.5 0.5 0 0 1 -0.4 -0.3 L 2.8 42.9 a 0.5 0.5 0 0 1 0 -0.5 l 4.1 -7.1 a 0.5 0.5 0 0 1 0.4 -0.3 h 8.2 c 0.2 0 0.3 0.1 0.4 0.3 l 4.1 7.1 a 0.5 0.5 0 0 1 0 0.5 l -4.1 7.1 a 0.5 0.5 0 0 1 -0.4 0.3 z m -7.9 -1 h 7.6 l 3.8 -6.6 l -3.8 -6.6 H 7.6 L 3.8 42.7 l 3.8 6.6 z">
    </path>
    <path class="st6" d="M 27.9 28.4 h -8.2 l -4.1 7.1 l 4.1 7.1 h 8.2 l 4.1 -7.1 z"></path>
    <path class="st10" d="M 20.8 30 h 7.9 l -0.9 -1.5 h -8.2 l -4.1 7.1 l 4.1 7.1 h 2.1 l -4.1 -7.1 z"></path>
    <path class="st6" d="M 27.9 42.7 h -8.2 l -4.1 7.1 l 4.1 7.1 h 8.2 l 4.1 -7.1 z"></path>
    <path class="st10" d="M 20.8 44.3 h 8 l -0.9 -1.6 h -8.2 l -4.1 7.1 l 4.1 7.1 h 2.1 l -4.1 -7.1 z"></path>
    <path class="st1"
        d="M 27.9 43.2 h -8.2 a 0.5 0.5 0 0 1 -0.4 -0.3 l -4.1 -7.1 a 0.5 0.5 0 0 1 0 -0.5 l 4.1 -7.1 a 0.5 0.5 0 0 1 0.4 -0.3 h 8.2 c 0.2 0 0.3 0.1 0.4 0.3 l 4.1 7.1 a 0.5 0.5 0 0 1 0 0.5 l -4.1 7.1 a 0.5 0.5 0 0 1 -0.4 0.3 z m -7.9 -1 h 7.6 l 3.8 -6.6 l -3.8 -6.6 h -7.6 l -3.8 6.6 l 3.8 6.6 z">
    </path>
    <path class="st11"
        d="M 32.1 28.4 h -4.2 l 4.1 7.1 l -4.1 7.1 h 4.2 l 4.1 -7.1 z M 32.1 42.7 h -4.2 l 4.1 7.1 l -4.1 7.1 h 4.2 l 4.1 -7.1 z">
    </path>
    <path class="st1"
        d="M 32.1 43.2 h -4.2 a 0.5 0.5 0 0 1 -0.4 -0.8 l 4 -6.9 l -4 -6.9 a 0.5 0.5 0 0 1 0.4 -0.8 h 4.2 c 0.2 0 0.3 0.1 0.4 0.3 l 4.1 7.1 a 0.5 0.5 0 0 1 0 0.5 L 32.5 42.9 a 0.5 0.5 0 0 1 -0.4 0.3 z m -3.4 -1 h 3.1 l 3.8 -6.6 l -3.8 -6.6 h -3.1 l 3.7 6.4 a 0.5 0.5 0 0 1 0 0.5 l -3.7 6.4 z">
    </path>
    <path class="st1"
        d="M 27.9 57.4 h -8.2 a 0.5 0.5 0 0 1 -0.4 -0.3 l -4.1 -7.1 a 0.5 0.5 0 0 1 0 -0.5 l 4.1 -7.1 a 0.5 0.5 0 0 1 0.4 -0.3 h 8.2 c 0.2 0 0.3 0.1 0.4 0.3 l 4.1 7.1 a 0.5 0.5 0 0 1 0 0.5 l -4.1 7.1 a 0.5 0.5 0 0 1 -0.4 0.3 z m -7.9 -1 h 7.6 l 3.8 -6.6 l -3.8 -6.6 h -7.6 l -3.8 6.6 l 3.8 6.6 z">
    </path>
    <path class="st1"
        d="M 32.1 57.4 h -4.2 a 0.5 0.5 0 0 1 -0.4 -0.8 l 4 -6.9 l -4 -6.9 a 0.5 0.5 0 0 1 0.4 -0.8 h 4.2 c 0.2 0 0.3 0.1 0.4 0.3 l 4.1 7.1 a 0.5 0.5 0 0 1 0 0.5 l -4.1 7.1 a 0.5 0.5 0 0 1 -0.4 0.3 z m -3.4 -1 h 3.1 l 3.8 -6.6 l -3.8 -6.6 h -3.1 l 3.7 6.4 a 0.5 0.5 0 0 1 0 0.5 l -3.7 6.4 z">
    </path>
    <path class="st2" d="M 40.2 21.3 h -8.2 l -4.1 7.1 l 4.1 7.1 h 8.2 l 4.1 -7.1 z"></path>
    <path class="st3" d="M 33.2 22.9 h 7.9 l -0.9 -1.5 h -8.2 l -4.1 7.1 l 4.1 7.1 h 2.1 l -4.1 -7.1 z"></path>
    <path class="st1"
        d="M 40.2 36.1 h -8.2 a 0.5 0.5 0 0 1 -0.4 -0.3 l -4.1 -7.1 a 0.5 0.5 0 0 1 0 -0.5 l 4.1 -7.1 a 0.5 0.5 0 0 1 0.4 -0.3 h 8.2 c 0.2 0 0.3 0.1 0.4 0.3 l 4.1 7.1 a 0.5 0.5 0 0 1 0 0.5 l -4.1 7.1 a 0.5 0.5 0 0 1 -0.4 0.3 z m -7.9 -1 h 7.6 l 3.8 -6.6 l -3.8 -6.6 h -7.6 l -3.8 6.6 l 3.8 6.6 z">
    </path>
    <path class="st4" d="M 44.4 21.3 h -4.2 l 4.1 7.1 l -4.1 7.1 h 4.2 l 4.1 -7.1 z"></path>
    <path class="st1"
        d="M 44.4 36.1 h -4.2 a 0.5 0.5 0 0 1 -0.4 -0.8 l 4 -6.9 l -4 -6.9 a 0.5 0.5 0 0 1 0.4 -0.8 h 4.2 c 0.2 0 0.3 0.1 0.4 0.3 l 4.1 7.1 a 0.5 0.5 0 0 1 0 0.5 l -4.1 7.1 a 0.5 0.5 0 0 1 -0.4 0.3 z m -3.4 -1 h 3.1 l 3.8 -6.6 l -3.8 -6.6 H 41 l 3.7 6.4 a 0.5 0.5 0 0 1 0 0.5 l -3.7 6.4 z">
    </path>
    <path class="st0" d="M 40.2 7.1 h -8.2 l -4.1 7.1 l 4.1 7.1 h 8.2 l 4.1 -7.1 z"></path>
    <path class="st1"
        d="M 40.2 21.8 h -8.2 a 0.5 0.5 0 0 1 -0.4 -0.3 l -4.1 -7.1 a 0.5 0.5 0 0 1 0 -0.5 l 4.1 -7.1 a 0.5 0.5 0 0 1 0.4 -0.3 h 8.2 c 0.2 0 0.3 0.1 0.4 0.3 l 4.1 7.1 a 0.5 0.5 0 0 1 0 0.5 l -4.1 7.1 a 0.5 0.5 0 0 1 -0.4 0.3 z m -7.9 -1 h 7.6 l 3.8 -6.6 l -3.8 -6.6 h -7.6 l -3.8 6.6 l 3.8 6.6 z">
    </path>
    <path class="st15" d="M 44.4 7.1 h -4.2 l 4.1 7.1 l -4.1 7.1 h 4.2 l 4.1 -7.1 z"></path>
    <path class="st1"
        d="M 44.4 21.8 h -4.2 a 0.5 0.5 0 0 1 -0.4 -0.8 l 4 -6.9 l -4 -6.9 a 0.5 0.5 0 0 1 0.4 -0.8 h 4.2 c 0.2 0 0.3 0.1 0.4 0.3 l 4.1 7.1 a 0.5 0.5 0 0 1 0 0.5 l -4.1 7.1 a 0.5 0.5 0 0 1 -0.4 0.3 z m -3.4 -1 h 3.1 l 3.8 -6.6 l -3.8 -6.6 H 41 l 3.7 6.4 a 0.5 0.5 0 0 1 0 0.5 l -3.7 6.4 z">
    </path>
    <path class="st0" d="M 52.5 14.2 h -8.2 l -4.1 7.1 l 4.1 7.1 h 8.2 l 4.1 -7.1 z"></path>
    <path class="st1"
        d="M 52.5 28.9 h -8.2 a 0.5 0.5 0 0 1 -0.4 -0.3 l -4.1 -7.1 a 0.5 0.5 0 0 1 0 -0.5 l 4.1 -7.1 a 0.5 0.5 0 0 1 0.4 -0.3 h 8.2 c 0.2 0 0.3 0.1 0.4 0.3 l 4.1 7.1 a 0.5 0.5 0 0 1 0 0.5 l -4.1 7.1 a 0.5 0.5 0 0 1 -0.4 0.3 z m -7.9 -1 h 7.6 l 3.8 -6.6 l -3.8 -6.6 h -7.6 l -3.8 6.6 l 3.8 6.6 z">
    </path>
    <path class="st1"
        d="M 56.7 28.9 h -4.2 a 0.5 0.5 0 0 1 -0.4 -0.8 l 4 -6.9 l -4 -6.9 a 0.5 0.5 0 0 1 0.4 -0.8 h 4.2 c 0.2 0 0.3 0.1 0.4 0.3 l 4.1 7.1 a 0.5 0.5 0 0 1 0 0.5 l -4.1 7.1 a 0.5 0.5 0 0 1 -0.4 0.3 z m -3.4 -1 h 3.1 l 3.8 -6.6 l -3.8 -6.6 h -3.1 l 3.7 6.4 a 0.5 0.5 0 0 1 0 0.5 l -3.7 6.4 z">
    </path>
</svg>